<svg xmlns="http://www.w3.org/2000/svg" viewBox="0 0 342.75 118.86"><defs><style>.cls-1{fill:#231f20;}</style></defs><title>Asset 1</title><g id="Layer_2" data-name="Layer 2"><g id="Layer_1-2" data-name="Layer 1"><path class="cls-1" d="M16.29,14.82v.25H29l-1,7H16.29V52.31H7V22H0l1-7H7C7.37,5.57,11.87,0,22,0a25.6,25.6,0,0,1,9.33,1.88L29.88,8.1a25.81,25.81,0,0,0-6.55-.9,11.54,11.54,0,0,0-5.48,1.23A11.24,11.24,0,0,0,16.29,14.82ZM61.48,30.45V52.31H54.19l-1-3.52c-2.54,1.64-6.47,4-10.72,4-7.29,0-12.28-3.44-12.28-11.87,0-6.71,5-10.48,13.1-10.89,1.64-.08,5.57.16,9.41.49V28.65c0-5.4-3.36-7.12-9.17-7.12a42.74,42.74,0,0,0-10.72,1.31l1.06-6.14a31.62,31.62,0,0,1,11.3-2.29C57.47,14.41,61.48,20.14,61.48,30.45ZM45.1,46.09c1.88-.41,5.16-1.15,7.61-1.8V36.1c-7,.08-11.05.57-13.18,1.47a4.49,4.49,0,0,0-1,3.27C38.56,43.71,40.19,46.09,45.1,46.09Zm59-12.44c0,12.85-7.37,19.16-15.72,19.16a14.54,14.54,0,0,1-9.74-3.6l-.82,3.11h-8.1V.49h7.94L79,6.88V18.09a16.89,16.89,0,0,1,9.74-3.68C99,14.41,104.13,22.27,104.13,33.65Zm-9.5,0c0-8.51-3-12-8.84-12A40.61,40.61,0,0,0,79,23.33V43.71a15.7,15.7,0,0,0,7.2,2,10.08,10.08,0,0,0,6.39-2.21C93.65,42.08,94.63,38.64,94.63,33.65ZM110.18,5.24a6.73,6.73,0,0,1,1.39-4.09,10.43,10.43,0,0,1,4.26-.9c3.52,0,5.57,1.56,5.57,5A5.41,5.41,0,0,1,120,9.17a8.72,8.72,0,0,1-4.18,1C112.23,10.15,110.18,8.6,110.18,5.24Zm1,9.66h9.33V52.31h-9.33Zm16.29,18.58c0-12.28,7.94-19.07,17.93-19.07,10.89,0,18,6.63,18,19.16,0,12.85-7.78,19.24-18,19.24C134.58,52.8,127.46,46.09,127.46,33.48Zm24.39,10.07c1.15-1.47,2-5,2-10,0-8.27-2.7-12-8.35-12a10.72,10.72,0,0,0-6.55,2c-1.06,1.56-2,5.16-2,9.91,0,8.43,2.7,12.12,8.43,12.12A10.09,10.09,0,0,0,151.85,43.55Zm35,51.65a21.35,21.35,0,0,0-.25,2.95c0,2.78,1.23,4.34,4.26,4.34a24.59,24.59,0,0,0,7.12-1l-.9,3.6a18.9,18.9,0,0,1-6.38,1.31c-6.79,0-9-3.11-9-7.86a28.52,28.52,0,0,1,.41-4.34l2.46-15.88h-6.14l1-3.77h5.89L188,66.72h3.36l-1.23,7.86h9.25l.74,3.77H189.51ZM221.27,8.76V52.31H209v-21H191.72v21H179.36V.25H190l1.72,8.43V20.79H209V.25H219.8ZM195.48,117.47l1.06-3.19a11.82,11.82,0,0,0,3.93.74,7.59,7.59,0,0,0,4.34-1,40.59,40.59,0,0,0,5.49-8.43l-7.61-31h5l5.48,25.79,13.26-25.79h4.75L215,105c-5.49,10.23-7.61,13.83-14.41,13.83A10.58,10.58,0,0,1,195.48,117.47Zm64.92-87V52.31h-9.33L250,48.63c-2.54,1.8-6.3,4.26-10.81,4.26-7.37,0-12-3.6-12-12.12,0-7,5.4-11.3,14.08-11.3,1.8,0,4.91.25,8,.49V28.65c0-4.26-2.62-5.73-8.84-5.73a49.43,49.43,0,0,0-10.64,1.23l1.31-8a34.75,34.75,0,0,1,12.2-2.37C255.81,13.75,260.4,19.48,260.4,30.45ZM259.91,87c0,11.13-6.3,19.48-16.45,19.48a14.86,14.86,0,0,1-7.86-2.37l-2.37,14.73h-4L229,115l6.39-40.44h4.09l.25,2.21c2.78-1.15,6.14-2.7,8.92-2.7C255.9,74.08,259.91,79.49,259.91,87ZM247.06,78.1a39,39,0,0,0-7.7,1.88l-3.27,20.87a15.08,15.08,0,0,0,7.7,1.8,12.29,12.29,0,0,0,7-2.46c1.47-1.47,3.19-5.08,4-9.82a23.79,23.79,0,0,0,.33-3.93C255.16,80.31,252.21,78.1,247.06,78.1Zm-4.67-33.73c1.56-.25,4.5-.82,6.88-1.39V36.43c-5.48.16-9,.41-11,1.15a4.22,4.22,0,0,0-.74,2.78C237.56,42.57,238.79,44.37,242.39,44.37Zm49.2,37.9c0,6.79-3.52,9.91-11.38,9.91-1.88,0-6.71-.16-10.48-.57-.08.9-.16,1.72-.16,2.54,0,5.57,2.62,8.43,8.43,8.43a33.16,33.16,0,0,0,9.09-1.23L286,104.7a21.4,21.4,0,0,1-7.94,1.72c-8.84,0-13.18-4.26-13.18-12.28a28.58,28.58,0,0,1,.41-4.42C267,79,274.32,74,281.85,74,287.33,74,291.59,76.38,291.59,82.27Zm8-51.82V52.31h-9.5l-1.06-3.68c-2.46,1.8-6.22,4.26-10.64,4.26-7.45,0-12-3.6-12-12.12,0-7,5.24-11.3,14-11.3,1.8,0,4.91.25,7.94.49V28.65c0-4.26-2.54-5.73-8.68-5.73a49,49,0,0,0-10.72,1.23l1.31-8a35.2,35.2,0,0,1,12.28-2.37C295,13.75,299.61,19.48,299.61,30.45ZM281.68,77.69a14,14,0,0,0-7.78,2.78,22.7,22.7,0,0,0-3.52,8h2.7c6.47,0,10.64-.25,12.44-1.06a7.3,7.3,0,0,0,1.72-5.16C287.25,79.65,285.37,77.69,281.68,77.69Zm-.25-33.32c1.72-.25,4.58-.82,6.88-1.39V36.43c-5.4.16-8.84.41-10.89,1.15a4.75,4.75,0,0,0-.74,2.78C276.69,42.57,277.92,44.37,281.44,44.37ZM342.1,20.79l-5.57.41a11,11,0,0,1,2.29,6.39c0,8.35-5.81,13-16.54,13a24.3,24.3,0,0,1-5.08-.49L316,43.31c.57.49,1.64.65,3.19.9l7.29.57c10.31.82,13.83,4.26,13.83,11.3,0,8-7.12,11.3-19.24,11.3-7,0-11.38-.74-17.27-3l1.88-8.19a46.1,46.1,0,0,0,15,2.29,29.27,29.27,0,0,0,7-.49,2.1,2.1,0,0,0,.74-2c0-1.15-.65-2.21-3.27-2.46l-9.33-.82a15.89,15.89,0,0,1-10-4.09l4.67-11.46c-3-2.21-4.75-5.57-4.75-10.15,0-8.6,7-13.26,16.54-13.26a24.53,24.53,0,0,1,6.79.82h13.67Zm-13.67,6.47c0-3.19-2.13-5-6.06-5a9.3,9.3,0,0,0-4.58,1,6,6,0,0,0-1.39,4c0,3.36,2.13,5.08,6,5.08a12.09,12.09,0,0,0,4.75-.82A6.75,6.75,0,0,0,328.43,27.26Z"/></g></g></svg>