<?xml version="1.0" encoding="UTF-8"?>
<svg width="366px" height="386px" viewBox="0 0 366 386" version="1.1" xmlns="http://www.w3.org/2000/svg" xmlns:xlink="http://www.w3.org/1999/xlink">
    <!-- Generator: Sketch 41 (35326) - http://www.bohemiancoding.com/sketch -->
    <title>crossroads</title>
    <desc>Created with Sketch.</desc>
    <defs>
        <polygon id="path-1" points="0 386 365.467 386 365.467 0.923 0 0.923"></polygon>
    </defs>
    <g id="Page-1" stroke="none" stroke-width="1" fill="none" fill-rule="evenodd">
        <g id="Artboard" transform="translate(-115.000000, -552.000000)">
            <g id="section-crossroads" transform="translate(0.000000, 480.000000)">
                <g id="crossroads" transform="translate(115.000000, 72.000000)">
                    <path d="M42.2295,71.4543 C42.2295,62.5433 47.4855,57.0863 56.5475,57.0863 C59.5505,57.0863 62.2055,57.7363 64.2075,58.5883 L62.7545,64.5453 C61.6545,64.1443 59.5005,63.5443 57.4485,63.5443 C55.1455,63.5443 52.9935,63.9443 51.7915,64.6953 C50.7905,66.0473 50.2395,68.4003 50.2395,71.4543 C50.2395,77.3613 52.2425,79.3643 57.3985,79.3643 C60.0515,79.3643 62.4055,78.9643 63.9575,78.6633 L63.1055,84.7213 C61.3035,85.3213 58.5005,85.8723 56.3465,85.8723 C46.8845,85.8723 42.2295,81.4673 42.2295,71.4543 Z" id="Fill-2" fill="#3C3B41"></path>
                    <path d="M78.8232,63.3938 L76.2692,63.3938 L76.2692,70.3028 L78.8232,70.3028 C80.9752,70.3028 82.4272,69.9528 83.1782,69.6018 C83.5792,69.0008 83.8792,67.9998 83.8792,66.6988 C83.8292,64.2458 82.6772,63.3938 78.8232,63.3938 L78.8232,63.3938 Z M93.6412,85.5728 L85.2312,85.5728 L81.2252,77.7118 C80.5252,76.2598 79.4242,76.1608 77.5712,76.1608 L76.2692,76.1608 L76.2692,85.5728 L68.9602,85.5728 L68.9602,57.3358 L80.1242,57.3358 C87.4332,57.3358 91.4392,60.7408 91.4892,66.8478 C91.4892,70.7528 89.5872,73.0558 87.1832,74.4088 C87.5842,74.8588 87.9842,75.4098 88.3352,76.0598 L93.6412,85.5728 Z" id="Fill-4" fill="#3C3B41"></path>
                    <path d="M114.165,78.5129 C115.116,77.2619 115.717,74.6089 115.616,71.5039 C115.466,65.7469 114.064,63.4439 110.31,63.4439 C108.357,63.4439 107.105,63.9939 106.204,64.5949 C105.253,65.8469 104.553,68.0999 104.652,71.4049 C104.753,77.2619 106.305,79.4639 110.06,79.4639 C111.661,79.4639 113.063,79.2139 114.165,78.5129 M96.643,71.4539 C96.643,62.4429 101.749,57.0859 110.159,57.0859 C119.02,57.0859 123.627,61.9419 123.627,71.5039 C123.627,80.4149 118.52,85.8719 110.159,85.8719 C101.349,85.8719 96.643,80.9159 96.643,71.4539" id="Fill-6" fill="#3C3B41"></path>
                    <path d="M127.9785,84.0208 L129.3305,78.2128 C132.0335,78.9638 133.8355,79.3648 137.6905,79.3648 C139.9435,79.3648 140.8945,79.2138 141.6455,78.8638 C141.9965,78.4628 142.1965,78.0628 142.1965,77.4618 C142.1965,75.8598 141.3955,75.3598 136.2895,74.3078 C130.6315,73.1068 128.5285,71.1038 128.5285,65.8968 C128.5285,60.3898 133.0345,57.0858 140.9955,57.0858 C143.9485,57.0858 147.2035,57.8368 149.1555,58.5378 L147.7525,64.5448 C145.6505,63.9448 143.2975,63.5438 141.1955,63.5438 C138.6915,63.5438 137.3895,63.7448 136.4895,64.1948 C136.2385,64.4958 136.1385,64.8958 136.1385,65.3968 C136.1385,67.2988 137.8405,67.5488 141.3445,68.3498 C148.0535,69.8018 150.0565,72.2058 150.0565,76.9608 C150.0565,82.9688 146.0005,85.8728 138.0905,85.8728 C134.4865,85.8728 131.1825,85.2718 127.9785,84.0208" id="Fill-8" fill="#3C3B41"></path>
                    <path d="M154.0586,84.0208 L155.4106,78.2128 C158.1136,78.9638 159.9156,79.3648 163.7706,79.3648 C166.0236,79.3648 166.9746,79.2138 167.7256,78.8638 C168.0766,78.4628 168.2766,78.0628 168.2766,77.4618 C168.2766,75.8598 167.4756,75.3598 162.3696,74.3078 C156.7116,73.1068 154.6086,71.1038 154.6086,65.8968 C154.6086,60.3898 159.1146,57.0858 167.0756,57.0858 C170.0286,57.0858 173.2836,57.8368 175.2356,58.5378 L173.8326,64.5448 C171.7306,63.9448 169.3776,63.5438 167.2756,63.5438 C164.7716,63.5438 163.4696,63.7448 162.5696,64.1948 C162.3186,64.4958 162.2186,64.8958 162.2186,65.3968 C162.2186,67.2988 163.9206,67.5488 167.4246,68.3498 C174.1336,69.8018 176.1366,72.2058 176.1366,76.9608 C176.1366,82.9688 172.0806,85.8728 164.1706,85.8728 C160.5666,85.8728 157.2626,85.2718 154.0586,84.0208" id="Fill-10" fill="#3C3B41"></path>
                    <path d="M191.4531,63.3938 L188.8991,63.3938 L188.8991,70.3028 L191.4531,70.3028 C193.6051,70.3028 195.0571,69.9528 195.8081,69.6018 C196.2091,69.0008 196.5091,67.9998 196.5091,66.6988 C196.4591,64.2458 195.3071,63.3938 191.4531,63.3938 L191.4531,63.3938 Z M206.2711,85.5728 L197.8611,85.5728 L193.8551,77.7118 C193.1551,76.2598 192.0541,76.1608 190.2011,76.1608 L188.8991,76.1608 L188.8991,85.5728 L181.5901,85.5728 L181.5901,57.3358 L192.7551,57.3358 C200.0631,57.3358 204.0691,60.7408 204.1191,66.8478 C204.1191,70.7528 202.2171,73.0558 199.8131,74.4088 C200.2141,74.8588 200.6141,75.4098 200.9651,76.0598 L206.2711,85.5728 Z" id="Fill-12" fill="#3C3B41"></path>
                    <path d="M226.7949,78.5129 C227.7459,77.2619 228.3469,74.6089 228.2459,71.5039 C228.0959,65.7469 226.6939,63.4439 222.9399,63.4439 C220.9869,63.4439 219.7349,63.9939 218.8339,64.5949 C217.8829,65.8469 217.1829,68.0999 217.2819,71.4049 C217.3829,77.2619 218.9349,79.4639 222.6899,79.4639 C224.2909,79.4639 225.6929,79.2139 226.7949,78.5129 M209.2729,71.4539 C209.2729,62.4429 214.3789,57.0859 222.7889,57.0859 C231.6499,57.0859 236.2569,61.9419 236.2569,71.5039 C236.2569,80.4149 231.1499,85.8719 222.7889,85.8719 C213.9789,85.8719 209.2729,80.9159 209.2729,71.4539" id="Fill-14" fill="#3C3B41"></path>
                    <path d="M255.8271,74.0579 L252.9731,64.6959 L250.0191,74.0579 L255.8271,74.0579 Z M257.5291,79.7149 L248.2181,79.7149 L246.3651,85.5729 L238.6051,85.5729 L248.8681,57.3359 L257.3801,57.3359 L267.5421,85.5729 L259.3321,85.5729 L257.5291,79.7149 Z" id="Fill-16" fill="#3C3B41"></path>
                    <path d="M288.8164,71.4045 C288.8164,66.0475 286.8634,63.6945 282.6084,63.6945 L279.2044,63.6945 L279.2044,79.2145 L282.0074,79.2145 C284.6104,79.2145 286.2624,78.8135 287.5144,78.1125 C288.4654,76.7115 288.8164,74.2075 288.8164,71.4045 M296.8264,71.4045 C296.8264,80.7655 291.9204,85.5725 282.6084,85.5725 L271.3934,85.5725 L271.3934,57.3365 L282.6084,57.3365 C291.9694,57.3365 296.8264,61.9925 296.8264,71.4045" id="Fill-18" fill="#3C3B41"></path>
                    <path d="M301.1787,84.0208 L302.5307,78.2128 C305.2337,78.9638 307.0357,79.3648 310.8907,79.3648 C313.1437,79.3648 314.0947,79.2138 314.8457,78.8638 C315.1967,78.4628 315.3967,78.0628 315.3967,77.4618 C315.3967,75.8598 314.5957,75.3598 309.4897,74.3078 C303.8317,73.1068 301.7287,71.1038 301.7287,65.8968 C301.7287,60.3898 306.2347,57.0858 314.1957,57.0858 C317.1487,57.0858 320.4037,57.8368 322.3557,58.5378 L320.9527,64.5448 C318.8507,63.9448 316.4977,63.5438 314.3957,63.5438 C311.8917,63.5438 310.5907,63.7448 309.6897,64.1948 C309.4387,64.4958 309.3387,64.8958 309.3387,65.3968 C309.3387,67.2988 311.0407,67.5488 314.5447,68.3498 C321.2537,69.8018 323.2567,72.2058 323.2567,76.9608 C323.2567,82.9688 319.2007,85.8728 311.2907,85.8728 C307.6867,85.8728 304.3827,85.2718 301.1787,84.0208" id="Fill-20" fill="#3C3B41"></path>
                    <path d="M128.9521,134.8821 C128.9521,129.5231 126.8891,127.7121 123.3401,127.7121 C121.9641,127.8941 120.2251,128.3641 118.7771,128.8351 L118.7771,140.6751 C120.0451,141.5081 121.7101,142.1231 123.5561,142.1231 C125.4031,142.1231 126.7071,141.3631 127.6121,140.6031 C128.3371,139.8061 128.9521,137.5621 128.9521,134.8821 M131.8481,134.8821 C131.8481,141.1461 127.6841,144.3321 123.7741,144.3321 C121.2751,144.3321 119.8271,143.4271 118.5971,142.5941 L118.2341,144.1521 L115.8811,144.1521 L115.8811,118.0811 L118.2701,118.0811 L118.7771,120.3611 L118.7771,126.9881 C120.3701,126.3001 122.5071,125.3591 124.1731,125.3591 C129.2421,125.3591 131.8481,129.1961 131.8481,134.8821" id="Fill-22" fill="#3C3B41"></path>
                    <path d="M140.541,129.052 C139.926,129.74 139.273,131.587 139.093,133.795 C141.627,133.831 143.655,133.795 145.14,133.723 C146.552,133.651 147.529,133.47 148.108,133.18 C148.651,132.601 148.615,131.225 148.615,130.754 C148.615,128.871 147.239,127.495 144.741,127.495 C142.895,127.495 141.482,128.292 140.541,129.052 M145.176,142.087 C146.624,142.087 148.398,141.979 150.354,141.364 L149.955,143.282 C148.435,143.934 146.769,144.332 145.284,144.332 C139.201,144.332 136.269,141.11 136.269,134.846 C136.269,128.473 140.215,125.359 144.741,125.359 C148.326,125.359 151.331,126.879 151.331,131.297 C151.331,134.411 149.412,136.004 145.212,136.004 C144.198,136.004 141.374,135.896 139.093,135.678 C139.31,139.879 141.192,142.087 145.176,142.087" id="Fill-24" fill="#3C3B41"></path>
                    <path d="M166.6133,141.5442 L166.2513,143.5722 C165.2733,144.0062 163.8253,144.2602 162.9923,144.2602 C157.8503,144.2602 157.1263,141.3632 157.1263,137.2352 L157.1263,127.8572 L153.7593,127.8572 L154.0853,125.6482 L157.1983,125.6482 L158.2493,121.0862 L160.0233,121.0862 L160.0233,125.6482 L166.4673,125.6482 L166.1423,127.8572 L160.0233,127.8572 L160.0233,137.5982 C160.0233,140.3132 160.3843,141.9792 162.9923,141.9792 C164.1143,141.9792 165.3823,141.9422 166.6133,141.5442" id="Fill-26" fill="#3C3B41"></path>
                    <polygon id="Fill-28" fill="#3C3B41" points="168.1709 125.6487 171.1409 125.6487 175.0509 141.3637 179.3229 126.2637 182.2569 125.9377 186.1669 141.3637 190.4399 125.6487 193.0469 125.6487 187.5429 144.1517 184.5379 144.1517 180.5549 129.0157 176.2819 144.1517 173.4219 144.1517"></polygon>
                    <path d="M199.7471,129.052 C199.1321,129.74 198.4791,131.587 198.2991,133.795 C200.8331,133.831 202.8611,133.795 204.3461,133.723 C205.7581,133.651 206.7351,133.47 207.3141,133.18 C207.8571,132.601 207.8211,131.225 207.8211,130.754 C207.8211,128.871 206.4451,127.495 203.9471,127.495 C202.1011,127.495 200.6881,128.292 199.7471,129.052 M204.3821,142.087 C205.8301,142.087 207.6041,141.979 209.5601,141.364 L209.1611,143.282 C207.6411,143.934 205.9751,144.332 204.4901,144.332 C198.4071,144.332 195.4751,141.11 195.4751,134.846 C195.4751,128.473 199.4211,125.359 203.9471,125.359 C207.5321,125.359 210.5371,126.879 210.5371,131.297 C210.5371,134.411 208.6181,136.004 204.4181,136.004 C203.4041,136.004 200.5801,135.896 198.2991,135.678 C198.5161,139.879 200.3981,142.087 204.3821,142.087" id="Fill-30" fill="#3C3B41"></path>
                    <path d="M218.5049,129.052 C217.8899,129.74 217.2369,131.587 217.0569,133.795 C219.5909,133.831 221.6189,133.795 223.1039,133.723 C224.5159,133.651 225.4929,133.47 226.0719,133.18 C226.6149,132.601 226.5789,131.225 226.5789,130.754 C226.5789,128.871 225.2029,127.495 222.7049,127.495 C220.8589,127.495 219.4459,128.292 218.5049,129.052 M223.1399,142.087 C224.5879,142.087 226.3619,141.979 228.3179,141.364 L227.9189,143.282 C226.3989,143.934 224.7329,144.332 223.2479,144.332 C217.1649,144.332 214.2329,141.11 214.2329,134.846 C214.2329,128.473 218.1789,125.359 222.7049,125.359 C226.2899,125.359 229.2949,126.879 229.2949,131.297 C229.2949,134.411 227.3759,136.004 223.1759,136.004 C222.1619,136.004 219.3379,135.896 217.0569,135.678 C217.2739,139.879 219.1559,142.087 223.1399,142.087" id="Fill-32" fill="#3C3B41"></path>
                    <path d="M249.5742,132.4192 L249.5742,144.1512 L246.6772,144.1512 L246.6772,132.7092 C246.6772,129.4862 245.7712,127.7482 242.1872,127.7482 C240.7382,128.0022 238.5662,128.5812 236.8282,129.0522 L236.8282,144.1512 L233.9312,144.1512 L233.9312,125.6482 L236.3212,125.6482 L236.7202,127.2772 C239.0012,126.2642 240.9562,125.3582 242.9112,125.3582 C248.4512,125.3582 249.5742,129.4142 249.5742,132.4192" id="Fill-34" fill="#3C3B41"></path>
                    <path d="M0,192.927 C0,186.515 3.877,182.862 9.916,182.862 C11.742,182.862 13.83,183.346 15.284,183.906 L14.352,188.23 C13.159,187.894 12.115,187.707 10.476,187.745 C9.021,187.782 7.903,188.156 7.157,188.64 C6.486,189.46 6.076,190.95 6.076,192.889 C6.076,196.431 7.232,198.108 10.885,198.108 C12.189,198.108 13.867,198.071 15.209,197.698 L14.575,202.022 C12.749,202.731 11.108,202.991 9.059,202.991 C3.579,202.991 0,199.301 0,192.927" id="Fill-36" fill="#3C3B41"></path>
                    <path d="M29.8594,197.512 C30.3434,196.766 30.7544,195.424 30.7544,192.964 C30.7544,189.087 29.6724,187.484 27.2504,187.484 C25.9824,187.484 25.1254,187.857 24.5294,188.341 C24.0444,189.087 23.6334,190.616 23.6334,192.852 C23.6334,196.915 24.7144,198.294 27.1384,198.294 C28.4434,198.294 29.2624,197.959 29.8594,197.512 M17.5204,192.852 C17.5204,186.552 21.5464,182.862 27.1754,182.862 C33.1024,182.862 36.8674,186.515 36.8674,192.964 C36.8674,199.488 32.8794,202.991 27.1754,202.991 C21.2864,202.991 17.5204,199.45 17.5204,192.852" id="Fill-38" fill="#3C3B41"></path>
                    <path d="M59.3086,190.5784 L59.3086,202.7304 L53.2326,202.7304 L53.2326,190.8764 C53.2326,188.6404 52.3746,187.7074 50.3626,187.7074 C49.3936,187.8564 48.2376,188.1554 47.1196,188.4164 L47.1196,202.7304 L41.0426,202.7304 L41.0426,183.1224 L46.0376,183.1224 L46.6346,184.9864 C48.2376,183.9424 50.2496,182.8614 52.2636,182.8614 C57.2216,182.8614 59.3086,185.8814 59.3086,190.5784" id="Fill-40" fill="#3C3B41"></path>
                    <path d="M77.6484,197.884 L76.9404,202.432 C75.7854,202.768 74.5914,202.954 72.6534,202.954 C67.5094,202.954 65.3844,200.158 65.3844,194.827 L65.3844,187.745 L61.9184,187.745 L62.5884,183.122 L65.7194,183.122 L66.9134,178.389 L71.4614,178.389 L71.4614,183.122 L77.6114,183.122 L76.9404,187.745 L71.4614,187.745 L71.4614,194.641 C71.4614,197.102 72.3554,198.108 74.4054,198.108 C75.4864,198.108 76.7914,198.033 77.6484,197.884" id="Fill-42" fill="#3C3B41"></path>
                    <path d="M86.4092,188.2668 C86.1102,188.7508 85.7752,189.6458 85.6262,191.1738 C87.5272,191.1368 88.9812,191.0998 90.1372,190.9888 C90.9572,190.9128 91.5912,190.8018 92.0752,190.6528 C92.3732,190.2428 92.4102,189.8698 92.4102,189.3848 C92.4102,188.2668 91.6652,187.3348 89.7262,187.3348 C88.1612,187.3348 87.1172,187.7828 86.4092,188.2668 M90.9942,198.2198 C92.7462,198.2198 95.2812,197.9588 96.5862,197.5488 L95.9892,201.9108 C93.8642,202.6558 91.8142,202.9918 89.7632,202.9918 C83.0542,202.9918 79.8102,199.4128 79.8102,192.8518 C79.8102,186.8128 83.5012,182.8618 89.8762,182.8618 C94.7592,182.8618 97.4052,185.1728 97.4052,189.3478 C97.4052,193.2988 95.2062,194.8278 90.5102,194.8278 C89.6892,194.8278 87.6382,194.7158 85.6262,194.5298 C85.9622,197.3258 87.4522,198.2198 90.9942,198.2198" id="Fill-44" fill="#3C3B41"></path>
                    <path d="M129.9863,190.5413 L129.9863,202.7303 L123.9103,202.7303 L123.9103,190.8023 C123.9103,188.5273 123.1643,187.7073 121.2623,187.7073 C120.3683,187.8563 119.3993,188.0803 118.4663,188.3043 C118.5793,188.9373 118.6533,189.6453 118.6533,190.3923 L118.6533,202.7303 L112.5773,202.7303 L112.5773,190.8023 C112.5773,188.5273 111.8323,187.7073 109.9303,187.7073 C109.0363,187.8563 108.1783,188.0803 107.3213,188.3043 L107.3213,202.7303 L101.2453,202.7303 L101.2453,183.1223 L106.2403,183.1223 L106.8373,184.9123 C108.2533,183.8313 109.9673,182.8613 112.2423,182.8613 C114.2923,182.8613 115.8953,183.6453 117.0133,184.9863 C118.6903,183.7563 120.6293,182.8613 123.0143,182.8613 C127.5623,182.8613 129.9863,185.8443 129.9863,190.5413" id="Fill-46" fill="#3C3B41"></path>
                    <path d="M147.3213,192.8889 C147.3213,189.2369 146.0913,187.5959 143.4443,187.5959 C142.6613,187.7069 141.6923,187.9319 140.7603,188.2299 L140.7603,197.8469 C141.6173,198.1459 142.6983,198.3309 143.6683,198.3309 C144.7493,198.3309 145.7173,197.9589 146.3883,197.4749 C146.8373,196.8409 147.3213,195.3869 147.3213,192.8889 M153.4343,192.9269 C153.4343,199.7109 149.8183,202.9539 144.7493,202.9539 C143.2583,202.9539 141.9533,202.5439 140.7603,201.8729 L140.7603,210.3349 L135.5793,210.3349 L134.7963,206.2719 L134.7963,183.1219 L139.6793,183.1219 L140.2383,184.9499 C141.8793,183.7559 143.8543,182.8619 145.7563,182.8619 C151.0863,182.8619 153.4343,187.0359 153.4343,192.9269" id="Fill-48" fill="#3C3B41"></path>
                    <path d="M168.9033,197.512 C169.3873,196.766 169.7983,195.424 169.7983,192.964 C169.7983,189.087 168.7163,187.484 166.2943,187.484 C165.0263,187.484 164.1693,187.857 163.5733,188.341 C163.0883,189.087 162.6773,190.616 162.6773,192.852 C162.6773,196.915 163.7583,198.294 166.1823,198.294 C167.4873,198.294 168.3063,197.959 168.9033,197.512 M156.5643,192.852 C156.5643,186.552 160.5903,182.862 166.2193,182.862 C172.1463,182.862 175.9113,186.515 175.9113,192.964 C175.9113,199.488 171.9233,202.991 166.2193,202.991 C160.3303,202.991 156.5643,199.45 156.5643,192.852" id="Fill-50" fill="#3C3B41"></path>
                    <path d="M192.7236,183.0481 L191.9416,188.1171 C191.3446,188.0061 190.6736,187.8941 189.5186,187.8941 C188.7356,188.0061 187.4306,188.2671 186.1626,188.5271 L186.1626,202.7311 L180.0866,202.7311 L180.0866,183.1221 L185.0816,183.1221 L185.7156,185.0241 C187.1696,183.9431 188.9586,182.8611 190.6736,182.8611 C191.4186,182.8611 192.0896,182.9361 192.7236,183.0481" id="Fill-52" fill="#3C3B41"></path>
                    <path d="M201.5967,198.6672 C202.4167,198.5182 203.9457,198.2202 205.1377,197.9222 L205.1377,194.5292 C204.3927,194.5662 203.6837,194.5662 203.0877,194.6042 C201.4097,194.6792 200.2547,194.8642 199.5087,195.1262 C199.2107,195.5362 199.1357,195.9832 199.1357,196.5422 C199.1357,197.7352 199.7697,198.6672 201.5967,198.6672 M210.8787,191.4362 L210.8787,202.7302 L206.0327,202.7302 L205.5107,200.7922 C204.2427,201.7242 202.2677,202.9912 199.9927,202.9912 C196.1917,202.9912 193.7687,201.1272 193.7687,196.7292 C193.7687,193.2992 196.3027,191.1742 200.5157,190.9882 C201.2977,190.9502 203.1997,191.0252 205.1377,191.2122 L205.1377,190.5412 C205.1377,188.3042 203.7957,187.5592 200.6267,187.5592 C198.8377,187.5592 196.3407,187.8562 195.1107,188.1922 L195.8187,184.0922 C197.8307,183.3092 199.9187,182.8612 202.0807,182.8612 C208.5677,182.8612 210.8787,185.8072 210.8787,191.4362" id="Fill-54" fill="#3C3B41"></path>
                    <path d="M228.3242,183.0481 L227.5422,188.1171 C226.9452,188.0061 226.2742,187.8941 225.1192,187.8941 C224.3362,188.0061 223.0312,188.2671 221.7632,188.5271 L221.7632,202.7311 L215.6872,202.7311 L215.6872,183.1221 L220.6822,183.1221 L221.3162,185.0241 C222.7702,183.9431 224.5592,182.8611 226.2742,182.8611 C227.0192,182.8611 227.6902,182.9361 228.3242,183.0481" id="Fill-56" fill="#3C3B41"></path>
                    <path d="M230.2246,209.217 L231.3056,204.856 C232.3126,205.191 233.4306,205.451 234.2136,205.451 C235.2576,205.451 236.0026,205.34 236.5626,205.041 C237.0836,204.446 237.4946,203.551 237.9416,202.395 L229.7036,183.122 L236.5626,183.122 L240.8866,196.468 L244.9876,183.122 L251.2866,183.122 L243.8686,202.544 C241.8926,207.763 239.9166,210.335 235.2196,210.335 C233.1326,210.335 231.3056,209.701 230.2246,209.217" id="Fill-58" fill="#3C3B41"></path>
                    <path d="M271.8262,180.7366 C271.4912,181.2216 271.2292,182.0046 271.1922,183.1226 L276.8962,183.1226 L276.2242,187.7456 L271.1922,187.7456 L271.1922,202.7306 L265.1162,202.7306 L265.1162,187.7456 L261.6492,187.7456 L262.2832,183.1226 L265.1532,183.1226 C265.4152,178.2026 268.2102,175.6306 272.9812,175.6306 C274.7342,175.6306 276.7472,176.0406 277.9772,176.5246 L277.0082,180.5886 C276.1872,180.4016 275.1062,180.2156 274.0622,180.2156 C273.0942,180.2156 272.3862,180.4016 271.8262,180.7366" id="Fill-60" fill="#3C3B41"></path>
                    <path d="M290.502,197.512 C290.986,196.766 291.397,195.424 291.397,192.964 C291.397,189.087 290.315,187.484 287.893,187.484 C286.625,187.484 285.768,187.857 285.172,188.341 C284.687,189.087 284.276,190.616 284.276,192.852 C284.276,196.915 285.357,198.294 287.781,198.294 C289.086,198.294 289.905,197.959 290.502,197.512 M278.163,192.852 C278.163,186.552 282.189,182.862 287.818,182.862 C293.745,182.862 297.51,186.515 297.51,192.964 C297.51,199.488 293.522,202.991 287.818,202.991 C281.929,202.991 278.163,199.45 278.163,192.852" id="Fill-62" fill="#3C3B41"></path>
                    <path d="M314.3223,183.0481 L313.5403,188.1171 C312.9433,188.0061 312.2723,187.8941 311.1173,187.8941 C310.3343,188.0061 309.0293,188.2671 307.7613,188.5271 L307.7613,202.7311 L301.6853,202.7311 L301.6853,183.1221 L306.6803,183.1221 L307.3143,185.0241 C308.7683,183.9431 310.5573,182.8611 312.2723,182.8611 C313.0173,182.8611 313.6883,182.9361 314.3223,183.0481" id="Fill-64" fill="#3C3B41"></path>
                    <path d="M346.083,190.5413 L346.083,202.7303 L340.007,202.7303 L340.007,190.8023 C340.007,188.5273 339.261,187.7073 337.359,187.7073 C336.465,187.8563 335.496,188.0803 334.563,188.3043 C334.676,188.9373 334.75,189.6453 334.75,190.3923 L334.75,202.7303 L328.674,202.7303 L328.674,190.8023 C328.674,188.5273 327.929,187.7073 326.027,187.7073 C325.133,187.8563 324.275,188.0803 323.418,188.3043 L323.418,202.7303 L317.342,202.7303 L317.342,183.1223 L322.337,183.1223 L322.934,184.9123 C324.35,183.8313 326.064,182.8613 328.339,182.8613 C330.389,182.8613 331.992,183.6453 333.11,184.9863 C334.787,183.7563 336.726,182.8613 339.111,182.8613 C343.659,182.8613 346.083,185.8443 346.083,190.5413" id="Fill-66" fill="#3C3B41"></path>
                    <path d="M349.5498,201.6497 L350.3698,197.3627 C352.0468,197.8467 354.1718,198.2567 356.5948,198.2567 C357.4518,198.2567 358.2728,198.2197 358.7938,197.9967 C359.0188,197.6987 359.1668,197.3627 359.1668,196.9157 C359.1668,195.9087 358.5708,195.5367 355.6258,194.9027 C352.0098,194.1937 349.9228,192.5167 349.9228,189.2737 C349.9228,185.1357 352.9798,182.8617 358.8688,182.8617 C360.5838,182.8617 363.0438,183.3837 364.6098,183.9797 L363.7518,188.2667 C362.2988,187.9317 360.6578,187.6327 358.9058,187.6327 C357.8628,187.5957 356.8938,187.7457 356.2968,187.9687 C356.0728,188.1927 355.9238,188.5277 355.9238,189.0127 C355.9238,190.0927 356.8568,190.2797 359.5398,190.8767 C363.9388,191.8827 365.4668,193.4487 365.4668,196.6547 C365.4668,200.9417 362.4098,202.9917 357.0048,202.9917 C354.0978,202.9917 351.3388,202.3947 349.5498,201.6497" id="Fill-68" fill="#3C3B41"></path>
                    <path d="M128.4824,259.3176 C129.7504,259.0646 131.5964,258.5576 132.9364,258.1596 L132.9364,252.6196 C131.2704,252.6196 129.9304,252.6556 128.8084,252.7276 C126.5994,252.8736 125.3684,253.1266 124.5724,253.4886 C123.9924,254.0676 123.8834,255.0456 123.8834,255.9506 C123.8834,257.6886 125.0064,259.3176 128.4824,259.3176 M135.6524,250.2656 L135.6524,261.3096 L133.4074,261.3096 L133.0814,259.7886 C131.4154,260.6576 129.4964,261.4906 127.6134,261.4906 C123.9564,261.4906 121.2404,259.9336 121.2404,255.7336 C121.2404,252.2566 123.8114,250.5186 127.8314,250.5186 C128.8804,250.5556 130.7634,250.5186 132.9364,250.7726 L132.9364,249.3966 C132.9364,245.8476 130.7994,244.7976 128.0114,244.7976 C126.2014,244.7976 124.1374,245.0156 122.5804,245.5946 L122.9064,243.6756 C124.1734,243.0956 126.4194,242.5166 127.9394,242.5166 C133.9144,242.5166 135.6524,245.5226 135.6524,250.2656" id="Fill-70" fill="#3C3B41"></path>
                    <path d="M157.2705,249.5774 L157.2705,261.3094 L154.3735,261.3094 L154.3735,249.8674 C154.3735,246.6444 153.4675,244.9064 149.8835,244.9064 C148.4345,245.1604 146.2625,245.7394 144.5245,246.2104 L144.5245,261.3094 L141.6275,261.3094 L141.6275,242.8064 L144.0175,242.8064 L144.4165,244.4354 C146.6975,243.4224 148.6525,242.5164 150.6075,242.5164 C156.1475,242.5164 157.2705,246.5724 157.2705,249.5774" id="Fill-72" fill="#3C3B41"></path>
                    <path d="M170.8135,259.137 C172.1895,258.956 173.8915,258.413 175.3395,257.869 L175.3395,245.957 C174.0725,245.197 172.4795,244.762 170.4515,244.762 C169.1485,244.762 167.4465,245.487 166.5415,246.246 C165.8165,247.043 165.2015,249.252 165.2015,251.968 C165.2015,257.326 167.2645,259.137 170.8135,259.137 L170.8135,259.137 Z M178.2365,237.484 L178.2365,261.31 L175.8105,261.31 L175.4485,259.68 C173.8195,260.441 171.6825,261.491 169.9805,261.491 C164.9115,261.491 162.3045,257.689 162.3045,252.004 C162.3045,245.667 166.2875,242.517 170.5965,242.517 C172.4435,242.517 174.2165,243.35 175.3395,244.074 L175.3395,235.24 L177.7295,235.24 L178.2365,237.484 Z" id="Fill-74" fill="#3C3B41"></path>
                    <path d="M204.5996,258.7024 L204.2376,260.7304 C203.2596,261.1644 201.8116,261.4184 200.9786,261.4184 C195.8366,261.4184 195.1126,258.5214 195.1126,254.3934 L195.1126,245.0154 L191.7456,245.0154 L192.0716,242.8064 L195.1846,242.8064 L196.2356,238.2444 L198.0096,238.2444 L198.0096,242.8064 L204.4536,242.8064 L204.1286,245.0154 L198.0096,245.0154 L198.0096,254.7564 C198.0096,257.4714 198.3706,259.1374 200.9786,259.1374 C202.1006,259.1374 203.3686,259.1004 204.5996,258.7024" id="Fill-76" fill="#3C3B41"></path>
                    <path d="M224.3711,249.5774 L224.3711,261.3094 L221.4741,261.3094 L221.4741,249.8674 C221.4741,246.4644 220.4601,244.9064 216.9841,244.9064 C215.5351,245.1604 213.3631,245.7394 211.6251,246.2104 L211.6251,261.3094 L208.7281,261.3094 L208.7281,235.2394 L211.0821,235.2394 L211.6251,237.5194 L211.6251,244.3634 C213.8341,243.4224 215.7891,242.5164 217.7081,242.5164 C223.2481,242.5164 224.3711,246.5724 224.3711,249.5774" id="Fill-78" fill="#3C3B41"></path>
                    <path d="M233.6777,246.2102 C233.0627,246.8982 232.4097,248.7452 232.2297,250.9532 C234.7637,250.9892 236.7917,250.9532 238.2767,250.8812 C239.6887,250.8092 240.6657,250.6282 241.2447,250.3382 C241.7877,249.7592 241.7517,248.3832 241.7517,247.9122 C241.7517,246.0292 240.3757,244.6532 237.8777,244.6532 C236.0317,244.6532 234.6187,245.4502 233.6777,246.2102 M238.3127,259.2452 C239.7607,259.2452 241.5347,259.1372 243.4907,258.5222 L243.0917,260.4402 C241.5717,261.0922 239.9057,261.4902 238.4207,261.4902 C232.3377,261.4902 229.4057,258.2682 229.4057,252.0042 C229.4057,245.6312 233.3517,242.5172 237.8777,242.5172 C241.4627,242.5172 244.4677,244.0372 244.4677,248.4552 C244.4677,251.5692 242.5487,253.1622 238.3487,253.1622 C237.3347,253.1622 234.5107,253.0542 232.2297,252.8362 C232.4467,257.0372 234.3287,259.2452 238.3127,259.2452" id="Fill-80" fill="#3C3B41"></path>
                    <path d="M14.5752,310.0852 C14.5752,303.6732 18.4522,300.0202 24.4912,300.0202 C26.3172,300.0202 28.4052,300.5042 29.8592,301.0642 L28.9272,305.3882 C27.7342,305.0522 26.6902,304.8652 25.0512,304.9032 C23.5962,304.9402 22.4782,305.3142 21.7322,305.7982 C21.0612,306.6182 20.6512,308.1082 20.6512,310.0472 C20.6512,313.5892 21.8072,315.2662 25.4602,315.2662 C26.7642,315.2662 28.4422,315.2292 29.7842,314.8562 L29.1502,319.1802 C27.3242,319.8892 25.6832,320.1492 23.6342,320.1492 C18.1542,320.1492 14.5752,316.4592 14.5752,310.0852" id="Fill-82" fill="#3C3B41"></path>
                    <path d="M39.8506,315.8254 C40.6706,315.6764 42.1996,315.3784 43.3916,315.0804 L43.3916,311.6874 C42.6466,311.7244 41.9376,311.7244 41.3416,311.7624 C39.6636,311.8374 38.5086,312.0224 37.7626,312.2844 C37.4646,312.6944 37.3896,313.1414 37.3896,313.7004 C37.3896,314.8934 38.0236,315.8254 39.8506,315.8254 M49.1326,308.5944 L49.1326,319.8884 L44.2866,319.8884 L43.7646,317.9504 C42.4966,318.8824 40.5216,320.1494 38.2466,320.1494 C34.4456,320.1494 32.0226,318.2854 32.0226,313.8874 C32.0226,310.4574 34.5566,308.3324 38.7696,308.1464 C39.5516,308.1084 41.4536,308.1834 43.3916,308.3704 L43.3916,307.6994 C43.3916,305.4624 42.0496,304.7174 38.8806,304.7174 C37.0916,304.7174 34.5946,305.0144 33.3646,305.3504 L34.0726,301.2504 C36.0846,300.4674 38.1726,300.0194 40.3346,300.0194 C46.8216,300.0194 49.1326,302.9654 49.1326,308.5944" id="Fill-84" fill="#3C3B41"></path>
                    <path d="M53.9414,315.1545 L53.9414,293.0495 L59.1974,293.0495 L60.0174,297.0375 L60.0174,315.3035 L63.3354,315.8995 L63.0374,319.4045 C61.7324,319.8515 60.0914,320.1125 58.5634,320.1125 C55.7674,320.1125 53.9414,318.2485 53.9414,315.1545" id="Fill-86" fill="#3C3B41"></path>
                    <path d="M66.1309,315.1545 L66.1309,293.0495 L71.3869,293.0495 L72.2069,297.0375 L72.2069,315.3035 L75.5249,315.8995 L75.2269,319.4045 C73.9219,319.8515 72.2809,320.1125 70.7529,320.1125 C67.9569,320.1125 66.1309,318.2485 66.1309,315.1545" id="Fill-88" fill="#3C3B41"></path>
                    <mask id="mask-2" fill="white">
                        <use xlink:href="#path-1"></use>
                    </mask>
                    <g id="Clip-91"></g>
                    <path d="M78.879,319.889 L84.955,319.889 L84.955,300.281 L78.879,300.281 L78.879,319.889 Z M78.543,295.472 C78.543,294.503 78.916,293.609 79.363,293.161 C80.072,292.825 81.078,292.639 81.936,292.639 C84.098,292.639 85.291,293.571 85.291,295.472 C85.291,296.404 84.918,297.299 84.471,297.746 C83.763,298.081 82.793,298.268 81.936,298.268 C79.773,298.268 78.543,297.373 78.543,295.472 L78.543,295.472 Z" id="Fill-90" fill="#3C3B41" mask="url(#mask-2)"></path>
                    <path d="M100.9844,306.9905 C100.9844,305.3135 99.9034,304.3815 97.8904,304.3815 C96.8094,304.3815 96.0634,304.5675 95.4664,304.8655 C95.0944,305.2015 94.7584,306.1335 94.7584,306.9905 C94.7584,308.7055 95.8774,309.5995 97.8904,309.5995 C98.9714,309.5995 99.6794,309.4135 100.3134,309.1525 C100.6864,308.7805 100.9844,307.8855 100.9844,306.9905 L100.9844,306.9905 Z M108.0294,303.6365 L105.1964,303.8595 C105.8674,304.7915 106.3524,305.8725 106.3524,307.1775 C106.3524,311.4275 103.3334,313.8125 97.8524,313.8125 C96.8834,313.8125 96.0264,313.7375 95.2064,313.5525 L94.5724,315.2655 C94.8714,315.5275 95.3924,315.6015 96.2504,315.7145 L99.9774,316.0115 C105.3084,316.4595 107.0974,318.1745 107.0974,321.7905 C107.0974,325.9275 103.4074,327.6425 97.2194,327.6425 C93.6034,327.6425 91.1434,327.2325 88.3094,326.0765 L89.3164,321.8275 C91.3294,322.5725 94.1624,323.0565 96.9954,323.0565 C98.7104,323.0565 99.9034,322.9455 100.6114,322.7595 C100.9104,322.4985 100.9844,322.2745 100.9844,321.7525 C100.9844,321.1565 100.6484,320.6345 99.3064,320.5225 L94.4614,320.0755 C92.1124,319.8515 90.5464,319.0685 89.3904,317.9875 L91.7394,312.0975 C90.2114,310.9425 89.3534,309.1895 89.3534,306.8795 C89.3534,302.4055 92.8954,300.0195 97.8524,300.0195 C99.1204,300.0195 100.3134,300.1325 101.3194,300.4295 L108.3654,300.4295 L108.0294,303.6365 Z" id="Fill-92" fill="#3C3B41" mask="url(#mask-2)"></path>
                    <path d="M123.9092,300.2063 L123.1272,305.2753 C122.5302,305.1643 121.8592,305.0523 120.7042,305.0523 C119.9212,305.1643 118.6162,305.4253 117.3482,305.6853 L117.3482,319.8893 L111.2722,319.8893 L111.2722,300.2803 L116.2672,300.2803 L116.9012,302.1823 C118.3552,301.1013 120.1442,300.0193 121.8592,300.0193 C122.6042,300.0193 123.2752,300.0943 123.9092,300.2063" id="Fill-93" fill="#3C3B41" mask="url(#mask-2)"></path>
                    <path d="M132.7822,315.8254 C133.6022,315.6764 135.1312,315.3784 136.3232,315.0804 L136.3232,311.6874 C135.5782,311.7244 134.8692,311.7244 134.2732,311.7624 C132.5952,311.8374 131.4402,312.0224 130.6942,312.2844 C130.3962,312.6944 130.3212,313.1414 130.3212,313.7004 C130.3212,314.8934 130.9552,315.8254 132.7822,315.8254 M142.0642,308.5944 L142.0642,319.8884 L137.2182,319.8884 L136.6962,317.9504 C135.4282,318.8824 133.4532,320.1494 131.1782,320.1494 C127.3772,320.1494 124.9542,318.2854 124.9542,313.8874 C124.9542,310.4574 127.4882,308.3324 131.7012,308.1464 C132.4832,308.1084 134.3852,308.1834 136.3232,308.3704 L136.3232,307.6994 C136.3232,305.4624 134.9812,304.7174 131.8122,304.7174 C130.0232,304.7174 127.5262,305.0144 126.2962,305.3504 L127.0042,301.2504 C129.0162,300.4674 131.1042,300.0194 133.2662,300.0194 C139.7532,300.0194 142.0642,302.9654 142.0642,308.5944" id="Fill-94" fill="#3C3B41" mask="url(#mask-2)"></path>
                    <path d="M159.3984,310.0471 C159.3984,306.3951 158.1684,304.7541 155.5214,304.7541 C154.7384,304.8651 153.7694,305.0901 152.8374,305.3881 L152.8374,315.0051 C153.6944,315.3041 154.7754,315.4891 155.7454,315.4891 C156.8264,315.4891 157.7944,315.1171 158.4654,314.6331 C158.9144,313.9991 159.3984,312.5451 159.3984,310.0471 M165.5114,310.0851 C165.5114,316.8691 161.8954,320.1121 156.8264,320.1121 C155.3354,320.1121 154.0304,319.7021 152.8374,319.0311 L152.8374,327.4931 L147.6564,327.4931 L146.8734,323.4301 L146.8734,300.2801 L151.7564,300.2801 L152.3154,302.1081 C153.9564,300.9141 155.9314,300.0201 157.8334,300.0201 C163.1634,300.0201 165.5114,304.1941 165.5114,310.0851" id="Fill-95" fill="#3C3B41" mask="url(#mask-2)"></path>
                    <path d="M187.9521,307.7366 L187.9521,319.8886 L181.8761,319.8886 L181.8761,308.0346 C181.8761,305.7606 180.9811,304.8656 179.0061,304.8656 C178.0371,305.0146 176.8811,305.3136 175.7631,305.5746 L175.7631,319.8886 L169.6861,319.8886 L169.6861,293.0486 L174.9791,293.0486 L175.7631,297.0376 L175.7631,301.9586 C177.2911,300.9896 179.1551,300.0196 181.0941,300.0196 C185.7901,300.0196 187.9521,303.0396 187.9521,307.7366" id="Fill-96" fill="#3C3B41" mask="url(#mask-2)"></path>
                    <path d="M192.761,319.889 L198.837,319.889 L198.837,300.281 L192.761,300.281 L192.761,319.889 Z M192.425,295.472 C192.425,294.503 192.798,293.609 193.245,293.161 C193.954,292.825 194.96,292.639 195.817,292.639 C197.979,292.639 199.173,293.571 199.173,295.472 C199.173,296.404 198.8,297.299 198.353,297.746 C197.645,298.081 196.675,298.268 195.817,298.268 C193.655,298.268 192.425,297.373 192.425,295.472 L192.425,295.472 Z" id="Fill-97" fill="#3C3B41" mask="url(#mask-2)"></path>
                    <path d="M203.0117,310.0852 C203.0117,303.6732 206.8887,300.0202 212.9277,300.0202 C214.7537,300.0202 216.8417,300.5042 218.2957,301.0642 L217.3637,305.3882 C216.1707,305.0522 215.1267,304.8652 213.4877,304.9032 C212.0327,304.9402 210.9147,305.3142 210.1687,305.7982 C209.4977,306.6182 209.0877,308.1082 209.0877,310.0472 C209.0877,313.5892 210.2437,315.2662 213.8967,315.2662 C215.2007,315.2662 216.8787,315.2292 218.2207,314.8562 L217.5867,319.1802 C215.7607,319.8892 214.1197,320.1492 212.0707,320.1492 C206.5907,320.1492 203.0117,316.4592 203.0117,310.0852" id="Fill-98" fill="#3C3B41" mask="url(#mask-2)"></path>
                    <path d="M242.7129,314.6702 C243.1969,313.9242 243.6079,312.5822 243.6079,310.1222 C243.6079,306.2452 242.5259,304.6422 240.1039,304.6422 C238.8359,304.6422 237.9789,305.0152 237.3829,305.4992 C236.8979,306.2452 236.4869,307.7742 236.4869,310.0102 C236.4869,314.0732 237.5679,315.4522 239.9919,315.4522 C241.2969,315.4522 242.1159,315.1172 242.7129,314.6702 M230.3739,310.0102 C230.3739,303.7102 234.3999,300.0202 240.0289,300.0202 C245.9559,300.0202 249.7209,303.6732 249.7209,310.1222 C249.7209,316.6462 245.7329,320.1492 240.0289,320.1492 C234.1399,320.1492 230.3739,316.6082 230.3739,310.0102" id="Fill-99" fill="#3C3B41" mask="url(#mask-2)"></path>
                    <path d="M266.5332,300.2063 L265.7512,305.2753 C265.1542,305.1643 264.4832,305.0523 263.3282,305.0523 C262.5452,305.1643 261.2402,305.4253 259.9722,305.6853 L259.9722,319.8893 L253.8962,319.8893 L253.8962,300.2803 L258.8912,300.2803 L259.5252,302.1823 C260.9792,301.1013 262.7682,300.0193 264.4832,300.0193 C265.2282,300.0193 265.8992,300.0943 266.5332,300.2063" id="Fill-100" fill="#3C3B41" mask="url(#mask-2)"></path>
                    <path d="M269.553,319.889 L275.629,319.889 L275.629,300.281 L269.553,300.281 L269.553,319.889 Z M269.217,295.472 C269.217,294.503 269.59,293.609 270.037,293.161 C270.746,292.825 271.752,292.639 272.609,292.639 C274.771,292.639 275.965,293.571 275.965,295.472 C275.965,296.404 275.592,297.299 275.145,297.746 C274.437,298.081 273.467,298.268 272.609,298.268 C270.447,298.268 269.217,297.373 269.217,295.472 L269.217,295.472 Z" id="Fill-101" fill="#3C3B41" mask="url(#mask-2)"></path>
                    <path d="M291.6582,306.9905 C291.6582,305.3135 290.5772,304.3815 288.5642,304.3815 C287.4832,304.3815 286.7372,304.5675 286.1402,304.8655 C285.7682,305.2015 285.4322,306.1335 285.4322,306.9905 C285.4322,308.7055 286.5512,309.5995 288.5642,309.5995 C289.6452,309.5995 290.3532,309.4135 290.9872,309.1525 C291.3602,308.7805 291.6582,307.8855 291.6582,306.9905 L291.6582,306.9905 Z M298.7032,303.6365 L295.8702,303.8595 C296.5412,304.7915 297.0262,305.8725 297.0262,307.1775 C297.0262,311.4275 294.0072,313.8125 288.5262,313.8125 C287.5572,313.8125 286.7002,313.7375 285.8802,313.5525 L285.2462,315.2655 C285.5452,315.5275 286.0662,315.6015 286.9242,315.7145 L290.6512,316.0115 C295.9822,316.4595 297.7712,318.1745 297.7712,321.7905 C297.7712,325.9275 294.0812,327.6425 287.8932,327.6425 C284.2772,327.6425 281.8172,327.2325 278.9832,326.0765 L279.9902,321.8275 C282.0032,322.5725 284.8362,323.0565 287.6692,323.0565 C289.3842,323.0565 290.5772,322.9455 291.2852,322.7595 C291.5842,322.4985 291.6582,322.2745 291.6582,321.7525 C291.6582,321.1565 291.3222,320.6345 289.9802,320.5225 L285.1352,320.0755 C282.7862,319.8515 281.2202,319.0685 280.0642,317.9875 L282.4132,312.0975 C280.8852,310.9425 280.0272,309.1895 280.0272,306.8795 C280.0272,302.4055 283.5692,300.0195 288.5262,300.0195 C289.7942,300.0195 290.9872,300.1325 291.9932,300.4295 L299.0392,300.4295 L298.7032,303.6365 Z" id="Fill-102" fill="#3C3B41" mask="url(#mask-2)"></path>
                    <path d="M301.946,319.889 L308.022,319.889 L308.022,300.281 L301.946,300.281 L301.946,319.889 Z M301.61,295.472 C301.61,294.503 301.983,293.609 302.431,293.161 C303.14,292.825 304.146,292.639 305.003,292.639 C307.165,292.639 308.358,293.571 308.358,295.472 C308.358,296.404 307.985,297.299 307.538,297.746 C306.83,298.081 305.86,298.268 305.003,298.268 C302.841,298.268 301.61,297.373 301.61,295.472 L301.61,295.472 Z" id="Fill-103" fill="#3C3B41" mask="url(#mask-2)"></path>
                    <path d="M331.5068,307.7366 L331.5068,319.8886 L325.4308,319.8886 L325.4308,308.0346 C325.4308,305.7986 324.5728,304.8656 322.5608,304.8656 C321.5918,305.0146 320.4358,305.3136 319.3178,305.5746 L319.3178,319.8886 L313.2408,319.8886 L313.2408,300.2806 L318.2358,300.2806 L318.8328,302.1446 C320.4358,301.1006 322.4478,300.0196 324.4618,300.0196 C329.4198,300.0196 331.5068,303.0396 331.5068,307.7366" id="Fill-104" fill="#3C3B41" mask="url(#mask-2)"></path>
                    <path d="M334.9736,318.8079 L335.7936,314.5209 C337.4706,315.0049 339.5956,315.4149 342.0186,315.4149 C342.8756,315.4149 343.6966,315.3779 344.2176,315.1549 C344.4426,314.8569 344.5906,314.5209 344.5906,314.0739 C344.5906,313.0669 343.9946,312.6949 341.0496,312.0609 C337.4336,311.3519 335.3466,309.6749 335.3466,306.4319 C335.3466,302.2939 338.4036,300.0199 344.2926,300.0199 C346.0076,300.0199 348.4676,300.5419 350.0336,301.1379 L349.1756,305.4249 C347.7226,305.0899 346.0816,304.7909 344.3296,304.7909 C343.2866,304.7539 342.3176,304.9039 341.7206,305.1269 C341.4966,305.3509 341.3476,305.6859 341.3476,306.1709 C341.3476,307.2509 342.2806,307.4379 344.9636,308.0349 C349.3626,309.0409 350.8906,310.6069 350.8906,313.8129 C350.8906,318.0999 347.8336,320.1499 342.4286,320.1499 C339.5216,320.1499 336.7626,319.5529 334.9736,318.8079" id="Fill-105" fill="#3C3B41" mask="url(#mask-2)"></path>
                    <path d="M113.0195,375.0276 C113.7435,374.1956 114.3955,371.8046 114.3955,369.0906 C114.3955,364.3816 112.4765,361.9206 108.8915,361.9206 C106.9365,361.9206 105.6325,362.6086 104.6915,363.3326 C103.9665,364.1296 103.3515,366.4106 103.3515,369.1266 C103.3515,373.8696 105.2705,376.4036 108.8915,376.4036 C110.9915,376.4036 112.0785,375.7156 113.0195,375.0276 M100.4555,369.1266 C100.4555,362.8976 104.4375,359.6746 108.8555,359.6746 C113.8885,359.6746 117.2915,362.8256 117.2915,369.0906 C117.2915,375.7156 113.4175,378.6486 108.8555,378.6486 C103.8225,378.6486 100.4555,375.3896 100.4555,369.1266" id="Fill-106" fill="#3C3B41" mask="url(#mask-2)"></path>
                    <path d="M126.5273,359.386 L126.5273,359.965 L133.0083,359.965 L132.6823,362.174 L126.5273,362.174 L126.5273,378.468 L123.6313,378.468 L123.6313,362.174 L120.2633,362.174 L120.5893,359.965 L123.6313,359.965 C123.7033,355.511 125.4773,352.216 130.2203,352.216 C131.0893,352.216 132.5743,352.47 133.9503,353.049 L133.4073,354.968 C132.3213,354.642 131.2703,354.497 130.3653,354.497 C129.2073,354.497 128.2293,354.751 127.4323,355.33 C126.9623,355.873 126.5273,357.466 126.5273,359.386" id="Fill-107" fill="#3C3B41" mask="url(#mask-2)"></path>
                    <polygon id="Fill-108" fill="#3C3B41" mask="url(#mask-2)" points="143.6201 359.9651 146.5901 359.9651 150.5001 375.6801 154.7721 360.5801 157.7061 360.2541 161.6161 375.6801 165.8891 359.9651 168.4961 359.9651 162.9921 378.4681 159.9871 378.4681 156.0041 363.3321 151.7311 378.4681 148.8711 378.4681"></polygon>
                    <path d="M182.7646,359.929 L182.0396,362.283 C181.2796,362.174 180.5916,362.138 179.5046,362.138 C178.0206,362.391 176.8266,362.753 175.1236,363.26 L175.1236,378.468 L172.2276,378.468 L172.2276,359.965 L174.6176,359.965 L175.0156,361.558 C177.2246,360.472 179.0346,359.675 180.6276,359.675 C181.4606,359.675 182.2566,359.783 182.7646,359.929" id="Fill-109" fill="#3C3B41" mask="url(#mask-2)"></path>
                    <path d="M186.241,378.468 L189.137,378.468 L189.137,359.965 L186.241,359.965 L186.241,378.468 Z M185.843,354.823 C185.843,354.207 186.06,353.592 186.313,353.302 C186.676,353.049 187.219,352.905 187.689,352.905 C188.812,352.905 189.536,353.556 189.536,354.823 C189.536,355.439 189.355,356.09 189.065,356.344 C188.703,356.598 188.16,356.742 187.689,356.742 C186.567,356.742 185.843,356.09 185.843,354.823 L185.843,354.823 Z" id="Fill-110" fill="#3C3B41" mask="url(#mask-2)"></path>
                    <path d="M206.085,375.8606 L205.723,377.8886 C204.745,378.3226 203.297,378.5766 202.464,378.5766 C197.322,378.5766 196.598,375.6796 196.598,371.5516 L196.598,362.1736 L193.231,362.1736 L193.557,359.9646 L196.67,359.9646 L197.721,355.4026 L199.495,355.4026 L199.495,359.9646 L205.939,359.9646 L205.614,362.1736 L199.495,362.1736 L199.495,371.9146 C199.495,374.6296 199.856,376.2956 202.464,376.2956 C203.586,376.2956 204.854,376.2586 206.085,375.8606" id="Fill-111" fill="#3C3B41" mask="url(#mask-2)"></path>
                    <path d="M210.214,378.468 L213.11,378.468 L213.11,359.965 L210.214,359.965 L210.214,378.468 Z M209.815,354.823 C209.815,354.207 210.032,353.592 210.286,353.302 C210.648,353.049 211.191,352.905 211.662,352.905 C212.784,352.905 213.509,353.556 213.509,354.823 C213.509,355.439 213.328,356.09 213.038,356.344 C212.676,356.598 212.133,356.742 211.662,356.742 C210.54,356.742 209.815,356.09 209.815,354.823 L209.815,354.823 Z" id="Fill-112" fill="#3C3B41" mask="url(#mask-2)"></path>
                    <path d="M235.0547,366.7356 L235.0547,378.4676 L232.1577,378.4676 L232.1577,367.0256 C232.1577,363.8026 231.2517,362.0646 227.6677,362.0646 C226.2187,362.3186 224.0467,362.8976 222.3087,363.3686 L222.3087,378.4676 L219.4117,378.4676 L219.4117,359.9646 L221.8017,359.9646 L222.2007,361.5936 C224.4817,360.5806 226.4367,359.6746 228.3917,359.6746 C233.9317,359.6746 235.0547,363.7306 235.0547,366.7356" id="Fill-113" fill="#3C3B41" mask="url(#mask-2)"></path>
                    <path d="M252.291,365.9758 C252.291,363.3318 250.336,361.7758 247.584,361.7758 C245.991,361.7758 244.904,362.1378 244.071,362.5718 C243.492,363.1158 242.913,364.1288 242.913,365.9758 C242.913,368.6198 244.76,370.2478 247.548,370.2478 C249.141,370.2478 250.264,369.8858 251.06,369.4518 C251.64,368.9088 252.291,367.8228 252.291,365.9758 L252.291,365.9758 Z M256.6,362.0648 L253.775,362.3548 C254.536,363.2598 255.007,364.4918 255.007,365.9758 C255.007,370.1038 251.893,372.3488 247.584,372.3488 C246.462,372.3488 245.411,372.2038 244.506,371.9138 L243.348,375.1368 C243.782,375.4258 244.434,375.5348 245.086,375.6078 L249.647,376.0418 C253.088,376.4038 255.586,377.2368 255.586,380.9298 C255.586,384.7318 252.219,386.0358 246.933,385.9988 C243.564,385.9628 241.247,385.4198 239.256,384.5868 L239.763,382.5238 C241.863,383.2468 244.107,383.7178 246.715,383.7178 C249.503,383.7178 251.422,383.3918 252.327,382.8848 C252.689,382.4138 252.87,381.9078 252.87,381.0388 C252.87,379.6628 251.893,378.9388 249.177,378.6848 L244.107,378.1778 C242.044,377.9968 240.812,377.0918 240.414,376.4758 L242.695,371.0808 C241.103,369.9948 240.197,368.2928 240.197,366.0118 C240.197,361.8838 243.42,359.6748 247.584,359.6748 C248.888,359.6748 250.01,359.8208 251.023,360.1818 L256.962,360.1818 L256.6,362.0648 Z" id="Fill-114" fill="#3C3B41" mask="url(#mask-2)"></path>
                    <path d="M260.1865,376.6213 C260.1865,375.9693 260.4395,375.2813 260.6935,374.9913 C261.0555,374.7023 261.6705,374.5573 262.1775,374.5573 C263.4455,374.5573 264.2055,375.2453 264.2055,376.6213 C264.2055,377.2723 263.9525,377.9613 263.6625,378.2143 C263.2995,378.5043 262.6845,378.6483 262.1775,378.6483 C260.9465,378.6483 260.1865,377.9973 260.1865,376.6213" id="Fill-115" fill="#3C3B41" mask="url(#mask-2)"></path>
                    <path d="M181.2258,0.9233 L171.4488,26.9933 L174.2738,26.9933 L177.1338,19.2083 L187.7798,19.2083 L190.4588,26.9933 L193.6818,26.9933 L184.1578,0.9233 L181.2258,0.9233 Z M182.6018,3.8193 L186.9818,16.6733 L177.9308,16.6733 L182.6018,3.8193 Z" id="Fill-1" fill="#3C3B41" mask="url(#mask-2)"></path>
                </g>
            </g>
        </g>
    </g>
</svg>