<?xml version="1.0" encoding="UTF-8"?>
<svg width="949px" height="103px" viewBox="0 0 949 103" version="1.1" xmlns="http://www.w3.org/2000/svg" xmlns:xlink="http://www.w3.org/1999/xlink">
    <!-- Generator: Sketch 41 (35326) - http://www.bohemiancoding.com/sketch -->
    <title>Design your future.</title>
    <desc>Created with Sketch.</desc>
    <defs></defs>
    <g id="Page-1" stroke="none" stroke-width="1" fill="none" fill-rule="evenodd">
        <g id="Artboard" transform="translate(-96.000000, -1948.000000)" fill="#FFFFFF">
            <g id="section-neo" transform="translate(0.000000, 1819.000000)">
                <path d="M121.41,129.55 L96,129.55 L96,208.75 L121.41,208.75 C142.53,208.75 156.39,198.63 156.39,169.26 C156.39,138.68 141.32,129.55 121.41,129.55 Z M140.88,195.55 C136.92,198.85 130.32,201.05 120.97,201.05 L104.91,201.05 L104.91,137.25 L121.74,137.25 C138.57,137.25 147.37,146.38 147.37,169.26 C147.37,183.34 143.85,191.81 140.88,195.55 Z M179.16,183.01 C186.09,183.67 194.67,184 197.75,184 C210.51,184 216.34,179.16 216.34,169.7 C216.34,156.28 207.21,151.66 196.32,151.66 C182.57,151.66 170.58,161.12 170.58,180.48 C170.58,199.51 179.49,209.3 197.97,209.3 C202.48,209.3 207.54,208.09 212.16,206.11 L213.37,200.28 C207.43,202.15 202.04,202.48 197.64,202.48 C185.54,202.48 179.82,195.77 179.16,183.01 Z M196.32,158.15 C203.91,158.15 208.09,162.33 208.09,168.05 C208.09,169.48 208.2,173.66 206.55,175.42 C204.79,176.3 201.82,176.85 197.53,177.07 C193.02,177.29 186.86,177.4 179.16,177.29 C179.71,170.58 181.69,164.97 183.56,162.88 C186.42,160.57 190.71,158.15 196.32,158.15 Z M243.4,209.3 C255.28,209.3 265.07,205.56 265.07,192.91 C265.07,184.66 260.89,179.6 249.45,176.85 C241.97,174.87 234.38,174.65 234.38,167.17 C234.38,164.2 235.04,162.22 236.69,160.68 C239.44,159.25 243.84,158.37 248.13,158.48 C253.3,158.59 257.92,159.03 261.88,160.35 L263.31,154.63 C259.13,152.98 252.97,151.66 249.01,151.66 C237.13,151.66 226.79,156.39 226.79,168.27 C226.79,177.62 233.83,181.36 240.65,182.9 C251.54,185.21 257.15,186.31 257.15,193.79 C257.15,196.54 256.6,198.63 254.95,200.39 C251.87,201.93 247.25,202.26 244.5,202.26 C238.01,202.26 231.41,201.16 227.23,199.84 L225.8,205.67 C230.09,207.54 236.69,209.3 243.4,209.3 Z M283.77,142.75 C285.2,142.75 286.85,142.31 287.95,141.54 C288.83,140.77 289.38,138.79 289.38,136.92 C289.38,133.07 287.18,131.09 283.77,131.09 C282.34,131.09 280.69,131.53 279.59,132.3 C278.82,133.18 278.16,135.05 278.16,136.92 C278.16,140.77 280.36,142.75 283.77,142.75 Z M279.37,208.75 L288.17,208.75 L288.17,152.54 L279.37,152.54 L279.37,208.75 Z M355.71,153.2 L337.67,153.2 C334.59,152.1 331.18,151.66 327.22,151.66 C314.57,151.66 304.78,158.37 304.78,170.91 C304.78,177.84 307.53,183.01 312.37,186.31 L305.44,202.7 C306.65,204.57 310.39,207.32 316.66,207.87 L332.06,209.41 C340.31,210.18 343.28,212.38 343.28,216.56 C343.28,219.2 342.73,220.74 341.63,222.17 C338.88,223.71 333.05,224.7 324.58,224.7 C316.66,224.7 309.84,223.27 303.46,221.07 L301.92,227.34 C307.97,229.87 315.01,231.52 325.24,231.63 C341.3,231.74 351.53,227.78 351.53,216.23 C351.53,205.01 343.94,202.48 333.49,201.38 L319.63,200.06 C317.65,199.84 315.67,199.51 314.35,198.63 L317.87,188.84 C320.62,189.72 323.81,190.16 327.22,190.16 C340.31,190.16 349.77,183.34 349.77,170.8 C349.77,166.29 348.34,162.55 346.03,159.8 L354.61,158.92 L355.71,153.2 Z M337.78,181.36 C335.36,182.68 331.95,183.78 327.11,183.78 C318.64,183.78 313.03,178.83 313.03,170.8 C313.03,165.19 314.79,162.11 316.55,160.46 C319.08,159.14 322.38,158.04 327.22,158.04 C335.58,158.04 341.52,162.77 341.52,170.8 C341.52,176.41 339.54,179.71 337.78,181.36 Z M394.32,151.66 C388.38,151.66 382.44,154.41 375.51,157.49 L374.3,152.54 L367.04,152.54 L367.04,208.75 L375.84,208.75 L375.84,162.88 C381.12,161.45 387.72,159.69 392.12,158.92 C403.01,158.92 405.76,164.2 405.76,173.99 L405.76,208.75 L414.56,208.75 L414.56,173.11 C414.56,163.98 411.15,151.66 394.32,151.66 Z M461.53,231.19 C473.96,231.19 477.92,222.39 484.08,206.44 L504.87,152.54 L496.62,152.54 L479.79,199.07 L461.86,152.54 L452.73,152.54 L475.83,207.76 C473.41,214.36 471.1,219.86 468.13,222.83 C466.04,223.93 464.61,224.37 461.09,224.37 C458.45,224.37 456.36,224.04 453.61,223.27 L452.29,229.1 C455.59,230.53 459,231.19 461.53,231.19 Z M537.65,209.3 C551.51,209.3 563.28,200.39 563.28,180.26 C563.28,161.23 552.94,151.66 537.65,151.66 C524.23,151.66 512.13,161.45 512.13,180.37 C512.13,199.4 522.36,209.3 537.65,209.3 Z M537.76,202.48 C526.76,202.48 520.93,194.78 520.93,180.37 C520.93,172.12 522.8,165.19 525,162.77 C527.86,160.57 531.82,158.48 537.76,158.48 C548.65,158.48 554.48,165.96 554.48,180.26 C554.48,188.51 552.5,195.77 550.3,198.3 C547.44,200.39 544.14,202.48 537.76,202.48 Z M617.73,152.54 L617.73,198.52 C612.67,199.73 606.07,201.27 601.78,202.04 C590.89,202.04 588.36,196.76 588.36,186.97 L588.36,152.54 L579.56,152.54 L579.56,187.85 C579.56,196.98 582.64,209.3 599.47,209.3 C605.63,209.3 611.24,206.77 618.06,203.69 L619.16,208.75 L626.53,208.75 L626.53,152.54 L617.73,152.54 Z M671.19,151.66 C666.35,151.66 660.85,154.08 654.14,157.38 L652.93,152.54 L645.67,152.54 L645.67,208.75 L654.47,208.75 L654.47,162.55 C659.64,161.01 663.27,159.91 667.78,159.14 C671.08,159.14 673.17,159.25 675.48,159.58 L677.68,152.43 C676.14,151.99 673.72,151.66 671.19,151.66 Z M731.36,138.46 C733.78,136.7 736.75,135.93 740.27,135.93 C743.02,135.93 746.21,136.37 749.51,137.36 L751.16,131.53 C746.98,129.77 742.47,129 739.83,129 C725.42,129 720.03,139.01 719.81,152.54 L710.57,152.54 L709.58,159.25 L719.81,159.25 L719.81,208.75 L728.61,208.75 L728.61,159.25 L747.31,159.25 L748.3,152.54 L728.61,152.54 L728.61,150.78 C728.61,144.95 729.93,140.11 731.36,138.46 Z M797.91,152.54 L797.91,198.52 C792.85,199.73 786.25,201.27 781.96,202.04 C771.07,202.04 768.54,196.76 768.54,186.97 L768.54,152.54 L759.74,152.54 L759.74,187.85 C759.74,196.98 762.82,209.3 779.65,209.3 C785.81,209.3 791.42,206.77 798.24,203.69 L799.34,208.75 L806.71,208.75 L806.71,152.54 L797.91,152.54 Z M847.19,202.15 C839.27,202.15 838.17,197.09 838.17,188.84 L838.17,159.25 L856.76,159.25 L857.75,152.54 L838.17,152.54 L838.17,138.68 L832.78,138.68 L829.59,152.54 L820.13,152.54 L819.14,159.25 L829.37,159.25 L829.37,187.74 C829.37,200.28 831.57,209.08 847.19,209.08 C849.72,209.08 854.12,208.31 857.09,206.99 L858.19,200.83 C854.45,202.04 850.6,202.15 847.19,202.15 Z M908.9,152.54 L908.9,198.52 C903.84,199.73 897.24,201.27 892.95,202.04 C882.06,202.04 879.53,196.76 879.53,186.97 L879.53,152.54 L870.73,152.54 L870.73,187.85 C870.73,196.98 873.81,209.3 890.64,209.3 C896.8,209.3 902.41,206.77 909.23,203.69 L910.33,208.75 L917.7,208.75 L917.7,152.54 L908.9,152.54 Z M962.36,151.66 C957.52,151.66 952.02,154.08 945.31,157.38 L944.1,152.54 L936.84,152.54 L936.84,208.75 L945.64,208.75 L945.64,162.55 C950.81,161.01 954.44,159.91 958.95,159.14 C962.25,159.14 964.34,159.25 966.65,159.58 L968.85,152.43 C967.31,151.99 964.89,151.66 962.36,151.66 Z M982.71,183.01 C989.64,183.67 998.22,184 1001.3,184 C1014.06,184 1019.89,179.16 1019.89,169.7 C1019.89,156.28 1010.76,151.66 999.87,151.66 C986.12,151.66 974.13,161.12 974.13,180.48 C974.13,199.51 983.04,209.3 1001.52,209.3 C1006.03,209.3 1011.09,208.09 1015.71,206.11 L1016.92,200.28 C1010.98,202.15 1005.59,202.48 1001.19,202.48 C989.09,202.48 983.37,195.77 982.71,183.01 Z M999.87,158.15 C1007.46,158.15 1011.64,162.33 1011.64,168.05 C1011.64,169.48 1011.75,173.66 1010.1,175.42 C1008.34,176.3 1005.37,176.85 1001.08,177.07 C996.57,177.29 990.41,177.4 982.71,177.29 C983.26,170.58 985.24,164.97 987.11,162.88 C989.97,160.57 994.26,158.15 999.87,158.15 Z M1038.48,209.3 C1040.02,209.3 1041.89,208.86 1042.99,207.98 C1043.87,207.21 1044.64,205.12 1044.64,203.14 C1044.64,198.96 1042.33,196.87 1038.48,196.87 C1036.94,196.87 1035.07,197.31 1033.97,198.19 C1033.2,199.07 1032.43,201.16 1032.43,203.14 C1032.43,207.32 1034.74,209.3 1038.48,209.3 Z" id="Design-your-future."></path>
            </g>
        </g>
    </g>
</svg>