<?xml version="1.0" encoding="UTF-8"?>
<svg width="965px" height="315px" viewBox="0 0 965 315" version="1.1" xmlns="http://www.w3.org/2000/svg" xmlns:xlink="http://www.w3.org/1999/xlink">
    <!-- Generator: Sketch 41 (35326) - http://www.bohemiancoding.com/sketch -->
    <title>neo</title>
    <desc>Created with Sketch.</desc>
    <defs></defs>
    <g id="Page-1" stroke="none" stroke-width="1" fill="none" fill-rule="evenodd">
        <g id="Artboard" transform="translate(-88.000000, -1118.000000)" fill="#B9A573">
            <g id="section-neo" transform="translate(0.000000, 1010.000000)">
                <path d="M263.182,108 C231.754,108 200.326,124.878 175.3,141.174 L165.988,112.074 L88,112.074 L88,418.206 L182.866,418.206 L182.866,194.718 C200.326,190.644 218.368,185.988 233.5,183.66 C264.928,183.66 278.314,198.21 278.314,233.13 L278.314,418.206 L373.18,418.206 L373.18,228.474 C373.18,155.142 340.588,108 263.182,108 Z M522.754,290.166 C554.182,293.076 586.192,294.822 598.996,294.822 C672.328,294.822 706.666,270.96 706.666,209.268 C706.666,144.084 665.344,108 589.102,108 C489.58,108 431.962,169.692 431.962,263.976 C431.962,366.408 482.596,422.28 587.356,422.28 C619.366,422.28 651.376,417.042 684.55,405.402 L693.862,337.308 C673.492,343.71 633.916,347.784 606.562,347.784 C551.272,347.784 527.992,333.816 522.754,290.166 Z M586.774,177.84 C617.038,177.84 628.678,192.39 628.678,209.85 C628.678,217.416 628.096,223.236 623.44,229.638 C615.874,231.966 605.98,233.712 593.176,234.876 C575.134,236.622 552.436,237.204 522.754,237.786 C525.082,213.924 530.32,199.956 534.976,192.39 C546.034,184.824 562.33,177.84 586.774,177.84 Z M901.054,422.28 C990.1,422.28 1052.374,367.572 1052.374,265.722 C1052.374,165.036 993.592,108 901.054,108 C813.172,108 750.316,165.618 750.316,263.976 C750.316,366.99 809.098,422.28 901.054,422.28 Z M900.472,348.948 C862.642,348.948 845.764,327.414 845.764,263.976 C845.764,229.056 852.166,205.194 859.732,193.554 C869.044,185.988 882.43,180.168 902.218,180.168 C940.048,180.168 956.926,205.194 956.926,265.722 C956.926,304.134 950.524,325.086 942.958,336.726 C933.646,343.71 920.842,348.948 900.472,348.948 Z" id="neo"></path>
            </g>
        </g>
    </g>
</svg>