<?xml version="1.0" encoding="UTF-8"?>
<svg width="215px" height="154px" viewBox="0 0 215 154" version="1.1" xmlns="http://www.w3.org/2000/svg" xmlns:xlink="http://www.w3.org/1999/xlink">
    <!-- Generator: Sketch 40.3 (33839) - http://www.bohemiancoding.com/sketch -->
    <title>logo</title>
    <desc>Created with Sketch.</desc>
    <defs></defs>
    <g id="Page-1" stroke="none" stroke-width="1" fill="none" fill-rule="evenodd">
        <g id="Artboard" transform="translate(-330.000000, -550.000000)" fill="#221F20">
            <g id="logo" transform="translate(330.000000, 550.000000)">
                <g id="tag" transform="translate(110.687500, 103.950000)">
                    <path d="M10.6440977,41.5388398 C9.73785045,41.5388398 8.68851156,42.0317111 7.84586064,42.4927842 C7.43248471,41.9204175 6.7647236,41.5388398 5.73128378,41.5388398 C4.82503656,41.5388398 4.15727545,41.9681148 3.44181712,42.4132888 L3.21923008,41.6501333 L1.89960693,41.6501333 L1.89960693,49.8381564 L3.50541341,49.8381564 L3.50541341,43.3195361 C4.07778008,43.1446462 4.69784397,42.9061601 5.25431156,42.8107657 C6.52623749,42.8107657 6.84421897,43.4308296 6.84421897,44.7981499 L6.84421897,49.8381564 L8.45002545,49.8381564 L8.45002545,44.6868564 C8.45002545,44.2257833 8.40232823,43.7647101 8.25923656,43.3195361 C8.87930045,43.1287472 9.69015323,42.9061601 10.1989236,42.8107657 C11.4708495,42.8107657 11.8047301,43.4308296 11.8047301,44.7981499 L11.8047301,49.8381564 L13.4105366,49.8381564 L13.4105366,44.7027555 C13.4105366,43.2241416 12.8063717,41.5388398 10.6440977,41.5388398 L10.6440977,41.5388398 Z M18.4982403,41.5388398 C17.7509838,41.5388398 16.7970393,41.7614268 16.1610764,42.0476101 L15.9861866,43.096949 C16.6221495,42.874362 17.576094,42.7789675 18.3551486,42.7789675 C19.6111755,42.7789675 20.4538264,43.2082425 20.4538264,44.6073611 L20.4538264,45.1161314 C19.5634782,45.0525351 18.7049282,45.0366361 18.2915523,45.020737 C16.510856,45.0525351 15.3979208,45.8633879 15.3979208,47.3579009 C15.3979208,49.2180925 16.5426542,49.9176518 18.1643597,49.9176518 C19.0547079,49.9176518 19.8973588,49.4724777 20.5333217,49.1226981 L20.7082116,49.8381564 L21.9642384,49.8381564 L21.9642384,44.9889388 C21.9642384,42.8266648 21.1533856,41.5388398 18.4982403,41.5388398 L18.4982403,41.5388398 Z M16.8447366,47.4055981 C16.8447366,47.0558185 16.8924338,46.7060388 17.0991217,46.4834518 C17.6237912,46.2449657 18.5618366,46.1336722 20.4538264,46.1177731 L20.4538264,48.2800472 C19.8814597,48.454937 19.1183042,48.6616249 18.6254329,48.7570194 C17.2740116,48.7570194 16.8447366,48.1210564 16.8447366,47.4055981 L16.8447366,47.4055981 Z M30.9949125,38.3908231 L29.6593903,38.3908231 L29.6593903,42.2066009 C29.1347208,41.8568212 28.4510606,41.5388398 27.672006,41.5388398 C25.7164199,41.5388398 24.015219,42.9697564 24.015219,45.7202962 C24.015219,48.2323499 25.1281542,49.9176518 27.3699236,49.9176518 C28.1330792,49.9176518 29.0393264,49.4724777 29.7229866,49.0432027 L29.9296745,49.8381564 L31.2492977,49.8381564 L31.2492977,39.5673546 L30.9949125,38.3908231 Z M25.6210255,45.7202962 C25.6210255,44.5755629 25.8754106,43.6693157 26.161594,43.3513342 C26.5272727,43.0492518 27.1950338,42.7630685 27.7356023,42.7630685 C28.4987579,42.7630685 29.1506199,42.9220592 29.6593903,43.1923435 L29.6593903,48.1528546 C29.0711245,48.3595425 28.4192625,48.5821296 27.878694,48.6457259 C26.4318782,48.6457259 25.6210255,47.8825703 25.6210255,45.7202962 L25.6210255,45.7202962 Z M35.0014792,46.1972685 C35.9713227,46.2926629 37.116056,46.3403601 37.545331,46.3403601 C39.4214217,46.3403601 40.2799717,45.6249018 40.2799717,44.1780861 C40.2799717,42.2701972 39.0239449,41.5388398 37.3068449,41.5388398 C35.1445708,41.5388398 33.459269,42.9856555 33.459269,45.7202962 C33.459269,48.4867351 34.762993,49.9176518 37.4817347,49.9176518 C38.1653949,49.9176518 38.9444495,49.7586611 39.691706,49.4565786 L39.8824949,48.3754416 C39.1034403,48.6139277 38.2448903,48.677524 37.5771292,48.677524 C35.8918273,48.677524 35.1286717,47.8825703 35.0014792,46.1972685 L35.0014792,46.1972685 Z M37.3068449,42.7153712 C38.3561838,42.7153712 38.8649542,43.2718388 38.8649542,44.0031962 C38.8649542,44.2098842 38.8649542,44.6709573 38.6582662,44.8935444 C38.1335967,45.1320305 36.9888634,45.1797277 35.0173782,45.1956268 C35.0809745,44.2893796 35.3194606,43.6057194 35.5579467,43.3195361 C35.9395245,43.0174536 36.5436893,42.7153712 37.3068449,42.7153712 L37.3068449,42.7153712 Z M49.7548262,49.9176518 C50.4702845,49.9176518 51.2493392,49.7745601 51.9171003,49.5201749 L52.0919901,48.4231388 C51.3129355,48.6298268 50.5179818,48.6457259 49.8820188,48.6457259 C48.3716068,48.6457259 47.5289558,47.6758823 47.5289558,45.7202962 C47.5289558,44.6073611 47.8469373,43.732912 48.1331206,43.3831323 C48.5305975,43.0810499 49.1188632,42.8107657 49.9138169,42.7948666 C50.6610734,42.7948666 51.2016419,42.8902611 51.7740086,43.0492518 L52.0283938,41.9681148 C51.4401281,41.7455277 50.6769725,41.5388398 49.8661197,41.5388398 C47.6561484,41.5388398 45.9231494,42.9538573 45.9231494,45.7202962 C45.9231494,48.4867351 47.4653595,49.9176518 49.7548262,49.9176518 L49.7548262,49.9176518 Z M55.3671994,49.9017527 C55.9713642,49.9017527 56.4642355,49.8222573 56.8458132,49.7109638 L56.9730058,48.8206157 L55.510291,48.5980286 L55.510291,39.5673546 L55.2400068,38.3908231 L53.9044845,38.3908231 L53.9044845,48.3436435 C53.9044845,49.4088814 54.5404475,49.9017527 55.3671994,49.9017527 L55.3671994,49.9017527 Z M61.7109299,49.9176518 C63.8255068,49.9176518 65.5267077,48.5821296 65.5267077,45.7043972 C65.5267077,42.9538573 64.0003966,41.5388398 61.7109299,41.5388398 C59.6599494,41.5388398 57.9110512,42.9856555 57.9110512,45.7043972 C57.9110512,48.4708361 59.4214632,49.9176518 61.7109299,49.9176518 L61.7109299,49.9176518 Z M61.726829,48.6934231 C60.2641142,48.6934231 59.5168577,47.7076805 59.5168577,45.7043972 C59.5168577,44.5755629 59.7712429,43.6534166 60.0574262,43.3195361 C60.439004,43.0333527 60.9477744,42.7630685 61.726829,42.7630685 C63.1736447,42.7630685 63.9209012,43.7488111 63.9209012,45.7043972 C63.9209012,46.8650296 63.6506169,47.7871759 63.3644336,48.1528546 C62.9987549,48.4231388 62.5535808,48.6934231 61.726829,48.6934231 L61.726829,48.6934231 Z M69.7876595,49.9176518 C71.6637503,49.9176518 73.0469697,49.2975879 73.0469697,47.4691944 C73.0469697,46.2449657 72.4269058,45.5295073 70.7098058,45.1161314 C69.6127697,44.8458472 68.7065225,44.7981499 68.7065225,43.8601046 C68.7065225,43.4944259 68.7860179,43.2400407 68.9927058,43.0492518 C69.3583845,42.874362 69.9307512,42.7630685 70.5031179,42.7789675 C71.2503744,42.7948666 71.9340345,42.874362 72.5223003,43.0492518 L72.7607864,41.9681148 C72.1407225,41.7296286 71.2185762,41.5388398 70.5985123,41.5388398 C68.6906234,41.5388398 67.2438077,42.2860962 67.2438077,44.0190953 C67.2438077,45.3705166 68.2295503,45.9428833 69.3424855,46.1972685 C70.8369984,46.5152499 71.5047595,46.6742407 71.5047595,47.596387 C71.5047595,47.9461666 71.4411632,48.2005518 71.2344753,48.4231388 C70.8369984,48.6139277 70.2646318,48.6616249 69.8671549,48.6616249 C68.9132105,48.6616249 67.959266,48.5026342 67.3233031,48.2959462 L67.0848169,49.3929823 C67.7525781,49.6632666 68.7542197,49.9176518 69.7876595,49.9176518 L69.7876595,49.9176518 Z M76.115491,46.1972685 C77.0853345,46.2926629 78.2300679,46.3403601 78.6593429,46.3403601 C80.5354336,46.3403601 81.3939836,45.6249018 81.3939836,44.1780861 C81.3939836,42.2701972 80.1379568,41.5388398 78.4208568,41.5388398 C76.2585827,41.5388398 74.5732808,42.9856555 74.5732808,45.7202962 C74.5732808,48.4867351 75.8770049,49.9176518 78.5957466,49.9176518 C79.2794068,49.9176518 80.0584614,49.7586611 80.8057179,49.4565786 L80.9965068,48.3754416 C80.2174521,48.6139277 79.3589021,48.677524 78.691141,48.677524 C77.0058392,48.677524 76.2426836,47.8825703 76.115491,46.1972685 L76.115491,46.1972685 Z M78.4208568,42.7153712 C79.4701956,42.7153712 79.978966,43.2718388 79.978966,44.0031962 C79.978966,44.2098842 79.978966,44.6709573 79.7722781,44.8935444 C79.2476086,45.1320305 78.1028753,45.1797277 76.1313901,45.1956268 C76.1949864,44.2893796 76.4334725,43.6057194 76.6719586,43.3195361 C77.0535364,43.0174536 77.6577012,42.7153712 78.4208568,42.7153712 L78.4208568,42.7153712 Z M87.2279501,41.5388398 C86.4806936,41.5388398 85.6857399,41.9840138 84.8589881,42.4132888 L84.6523001,41.6501333 L83.332677,41.6501333 L83.332677,49.8381564 L84.9384834,49.8381564 L84.9384834,43.2718388 C85.5744464,43.1128481 86.1786112,42.9697564 86.7350788,42.874362 C87.212051,42.874362 87.5141334,42.8902611 87.8321149,42.9379583 L88.1500964,41.6342342 C87.9116103,41.5706379 87.5777297,41.5388398 87.2279501,41.5388398 L87.2279501,41.5388398 Z" id="made-closer"></path>
                    <path d="M5.30200878,29.5509379 C4.22087175,29.5509379 4.01418378,28.8990759 4.01418378,27.7384435 L4.01418378,23.7954731 L6.62163193,23.7954731 L6.79652175,22.5712444 L4.01418378,22.5712444 L4.01418378,20.5679611 L2.94894582,20.5679611 L2.45607453,22.5712444 L1.10465323,22.5712444 L0.929763414,23.7954731 L2.4083773,23.7954731 L2.4083773,27.643049 C2.4083773,29.566837 2.88534953,30.8228638 5.1112199,30.8228638 C5.60409119,30.8228638 6.20825601,30.7115703 6.65343008,30.5366805 L6.84421897,29.3760481 C6.35134767,29.5350388 5.79488008,29.5509379 5.30200878,29.5509379 L5.30200878,29.5509379 Z M8.92699767,34.0026786 C10.7712903,34.0026786 11.4231523,32.7784499 12.2976014,30.4889833 L15.3502236,22.5712444 L13.7762153,22.5712444 L11.5185467,28.9626722 L9.10188749,22.5712444 L7.38478749,22.5712444 L10.7553912,30.6320749 C10.4533088,31.4747259 10.1830245,32.1265879 9.78554767,32.5240648 C9.49936434,32.6830555 9.26087823,32.7466518 8.78390601,32.7466518 C8.40232823,32.7466518 8.0525486,32.6671564 7.65507175,32.5240648 L7.40068656,33.6369999 C7.86175971,33.859587 8.43412638,34.0026786 8.92699767,34.0026786 L8.92699767,34.0026786 Z M20.6446153,22.4599509 C19.8655606,22.4599509 18.9593134,22.8892259 18.2756532,23.3026018 L18.0689653,22.5712444 L16.7493421,22.5712444 L16.7493421,32.8261472 L17.0037273,34.0026786 L18.3392495,34.0026786 L18.3392495,30.2663962 C18.8957171,30.6002768 19.5475792,30.8387629 20.2471384,30.8387629 C22.3299171,30.8387629 23.9993199,29.4396444 23.9993199,26.6573064 C23.9993199,24.1611518 22.8863847,22.4599509 20.6446153,22.4599509 L20.6446153,22.4599509 Z M21.8529449,29.0421675 C21.4713671,29.3283509 20.8195051,29.6145342 20.1835421,29.6145342 C19.6111755,29.6145342 18.863919,29.4873416 18.3392495,29.2170573 L18.3392495,24.1770509 C18.9275153,23.986262 19.5952764,23.7954731 20.1199458,23.7318768 C21.5667616,23.7318768 22.3776143,24.5109314 22.3776143,26.6573064 C22.3776143,27.8020398 22.1232292,28.708287 21.8529449,29.0421675 L21.8529449,29.0421675 Z M27.3222264,27.1183796 C28.2920699,27.213774 29.4368032,27.2614712 29.8660782,27.2614712 C31.742169,27.2614712 32.600719,26.5460129 32.600719,25.0991972 C32.600719,23.1913083 31.3446921,22.4599509 29.6275921,22.4599509 C27.465318,22.4599509 25.7800162,23.9067666 25.7800162,26.6414073 C25.7800162,29.4078462 27.0837403,30.8387629 29.8024819,30.8387629 C30.4861421,30.8387629 31.2651967,30.6797722 32.0124532,30.3776898 L32.2032421,29.2965527 C31.4241875,29.5350388 30.5656375,29.5986351 29.8978764,29.5986351 C28.2125745,29.5986351 27.449419,28.8036814 27.3222264,27.1183796 L27.3222264,27.1183796 Z M29.6275921,23.6364823 C30.676931,23.6364823 31.1857014,24.1929499 31.1857014,24.9243073 C31.1857014,25.1309953 31.1857014,25.5920685 30.9790134,25.8146555 C30.454344,26.0531416 29.3096106,26.1008388 27.3381255,26.1167379 C27.4017217,25.2104907 27.6402079,24.5268305 27.878694,24.2406472 C28.2602717,23.9385648 28.8644366,23.6364823 29.6275921,23.6364823 L29.6275921,23.6364823 Z M45.2235901,19.3119342 L43.8880679,19.3119342 L43.8880679,23.127712 C43.3633984,22.7779323 42.6797382,22.4599509 41.9006836,22.4599509 C39.9450975,22.4599509 38.2438966,23.8908675 38.2438966,26.6414073 C38.2438966,29.1534611 39.3568318,30.8387629 41.5986012,30.8387629 C42.3617568,30.8387629 43.268004,30.3935888 43.9516642,29.9643138 L44.1583521,30.7592675 L45.4779753,30.7592675 L45.4779753,20.4884657 L45.2235901,19.3119342 Z M39.8497031,26.6414073 C39.8497031,25.496674 40.1040882,24.5904268 40.3902716,24.2724453 C40.7559503,23.9703629 41.4237114,23.6841796 41.9642799,23.6841796 C42.7274355,23.6841796 43.3792975,23.8431703 43.8880679,24.1134546 L43.8880679,29.0739657 C43.2998021,29.2806536 42.6479401,29.5032407 42.1073716,29.566837 C40.6605558,29.566837 39.8497031,28.8036814 39.8497031,26.6414073 L39.8497031,26.6414073 Z M49.2301568,27.1183796 C50.2000003,27.213774 51.3447336,27.2614712 51.7740086,27.2614712 C53.6500994,27.2614712 54.5086494,26.5460129 54.5086494,25.0991972 C54.5086494,23.1913083 53.2526225,22.4599509 51.5355225,22.4599509 C49.3732484,22.4599509 47.6879466,23.9067666 47.6879466,26.6414073 C47.6879466,29.4078462 48.9916706,30.8387629 51.7104123,30.8387629 C52.3940725,30.8387629 53.1731271,30.6797722 53.9203836,30.3776898 L54.1111725,29.2965527 C53.3321179,29.5350388 52.4735679,29.5986351 51.8058068,29.5986351 C50.1205049,29.5986351 49.3573494,28.8036814 49.2301568,27.1183796 L49.2301568,27.1183796 Z M51.5355225,23.6364823 C52.5848614,23.6364823 53.0936318,24.1929499 53.0936318,24.9243073 C53.0936318,25.1309953 53.0936318,25.5920685 52.8869438,25.8146555 C52.3622744,26.0531416 51.217541,26.1008388 49.2460558,26.1167379 C49.3096521,25.2104907 49.5481382,24.5268305 49.7866244,24.2406472 C50.1682021,23.9385648 50.7723669,23.6364823 51.5355225,23.6364823 L51.5355225,23.6364823 Z M58.4993169,30.8387629 C60.3754077,30.8387629 61.7586271,30.218699 61.7586271,28.3903055 C61.7586271,27.1660768 61.1385632,26.4506185 59.4214632,26.0372425 C58.3244271,25.7669583 57.4181799,25.7192611 57.4181799,24.7812157 C57.4181799,24.415537 57.4976753,24.1611518 57.7043632,23.9703629 C58.0700419,23.7954731 58.6424086,23.6841796 59.2147753,23.7000786 C59.9620318,23.7159777 60.6456919,23.7954731 61.2339577,23.9703629 L61.4724438,22.8892259 C60.8523799,22.6507398 59.9302336,22.4599509 59.3101697,22.4599509 C57.4022808,22.4599509 55.9554651,23.2072073 55.9554651,24.9402064 C55.9554651,26.2916277 56.9412077,26.8639944 58.0541429,27.1183796 C59.5486558,27.4363611 60.2164169,27.5953518 60.2164169,28.5174981 C60.2164169,28.8672777 60.1528206,29.1216629 59.9461327,29.3442499 C59.5486558,29.5350388 58.9762892,29.5827361 58.5788123,29.5827361 C57.6248679,29.5827361 56.6709234,29.4237453 56.0349605,29.2170573 L55.7964744,30.3140935 C56.4642355,30.5843777 57.4658771,30.8387629 58.4993169,30.8387629 L58.4993169,30.8387629 Z M64.5091669,21.2993185 C64.7635521,21.2993185 65.0497355,21.2357222 65.2405244,21.1085296 C65.383616,20.981337 65.4790105,20.6792546 65.4790105,20.3612731 C65.4790105,19.7412092 65.1133318,19.4391268 64.5091669,19.4391268 C64.2706808,19.4391268 63.9844975,19.5027231 63.7778095,19.6299157 C63.6506169,19.7730073 63.5393234,20.0591907 63.5393234,20.3612731 C63.5393234,20.981337 63.9050021,21.2993185 64.5091669,21.2993185 L64.5091669,21.2993185 Z M63.7142132,30.7592675 L65.3200197,30.7592675 L65.3200197,22.5712444 L63.7142132,22.5712444 L63.7142132,30.7592675 Z M75.1297484,22.6666388 L72.4269058,22.6666388 C71.9817318,22.5235472 71.4729614,22.4599509 70.9164938,22.4599509 C69.0086049,22.4599509 67.5776882,23.4297944 67.5776882,25.274087 C67.5776882,26.2598296 67.959266,27.0070861 68.6429262,27.4840583 L67.6571836,29.9007175 C67.9115688,30.218699 68.4839355,30.6002768 69.4060818,30.6797722 L71.600154,30.9023592 C72.6335938,30.9977536 72.9833734,31.283937 72.9833734,31.8086064 C72.9833734,32.142487 72.9197771,32.3332759 72.7766855,32.5081657 C72.3951077,32.6989546 71.6319521,32.8261472 70.534916,32.8261472 C69.3742836,32.8261472 68.3408438,32.6035601 67.4186975,32.3014777 L67.1484132,33.430312 C68.1182568,33.8277888 69.1357975,34.0503759 70.6303105,34.0662749 C73.0310706,34.082174 74.5255836,33.4621101 74.5255836,31.7768083 C74.5255836,30.1710018 73.5239419,29.7099286 71.822741,29.5350388 L69.9148521,29.360149 C69.6127697,29.3283509 69.3424855,29.2806536 69.1675956,29.1693601 L69.6127697,27.9451314 C69.9943475,28.0405259 70.4395216,28.1041222 70.9164938,28.1041222 C72.9197771,28.1041222 74.2711984,27.1024805 74.2711984,25.2899861 C74.2711984,24.6699222 74.0486114,24.1452527 73.7306299,23.7318768 L74.9707577,23.6205833 L75.1297484,22.6666388 Z M72.3156123,26.6573064 C71.9976308,26.8162972 71.5365577,26.9593888 70.9164938,26.9593888 C69.7717605,26.9593888 69.0404031,26.3234259 69.0404031,25.274087 C69.0404031,24.5745277 69.2788892,24.1293536 69.5014762,23.9226657 C69.8353568,23.7477759 70.2805308,23.6205833 70.9164938,23.6205833 C72.0453281,23.6205833 72.7925845,24.2247481 72.7925845,25.274087 C72.7925845,25.9736462 72.5540984,26.4347194 72.3156123,26.6573064 L72.3156123,26.6573064 Z M80.9329105,22.4599509 C80.0425623,22.4599509 79.1681132,22.921024 78.3254623,23.350299 L78.1028753,22.5712444 L76.7832521,22.5712444 L76.7832521,30.7592675 L78.3890586,30.7592675 L78.3890586,24.2565462 C79.0886179,24.0657573 79.9153697,23.8590694 80.4877364,23.7477759 C81.8868549,23.7477759 82.2684327,24.4314361 82.2684327,25.7192611 L82.2684327,30.7592675 L83.8742392,30.7592675 L83.8742392,25.5920685 C83.8742392,24.1134546 83.2859734,22.4599509 80.9329105,22.4599509 L80.9329105,22.4599509 Z M85.3041621,32.6512573 L86.2740057,32.6512573 C86.8781705,31.6973129 87.5618307,30.2027999 87.9275094,29.1057638 L86.2740057,29.1057638 L85.3041621,32.6512573 Z" id="type-design,"></path>
                    <path d="M3.55311064,11.6803786 L5.36560508,11.6803786 L7.63917267,2.74509902 L9.72195138,11.6803786 L11.566244,11.6803786 L14.4916736,0.233045313 L12.9335643,0.233045313 L10.707694,9.72479253 L8.49772267,0.439733275 L6.87601712,0.646421238 L4.5547523,9.70889346 L2.66276249,0.233045313 L0.91386434,0.233045313 L3.55311064,11.6803786 Z M18.9275153,11.759874 C21.0420921,11.759874 22.743293,10.4243518 22.743293,7.54661939 C22.743293,4.79607957 21.2169819,3.38106198 18.9275153,3.38106198 C16.8765347,3.38106198 15.1276366,4.82787772 15.1276366,7.54661939 C15.1276366,10.3130583 16.6380486,11.759874 18.9275153,11.759874 L18.9275153,11.759874 Z M18.9434143,10.5356453 C17.4806995,10.5356453 16.733443,9.54990272 16.733443,7.54661939 C16.733443,6.41778513 16.9878282,5.49563883 17.2740116,5.16175828 C17.6555893,4.87557494 18.1643597,4.60529068 18.9434143,4.60529068 C20.3902301,4.60529068 21.1374866,5.59103328 21.1374866,7.54661939 C21.1374866,8.70725179 20.8672023,9.62939809 20.581019,9.99507679 C20.2153403,10.2653611 19.7701662,10.5356453 18.9434143,10.5356453 L18.9434143,10.5356453 Z M28.8485375,3.38106198 C28.101281,3.38106198 27.3063273,3.82623605 26.4795755,4.25551105 L26.2728875,3.4923555 L24.9532643,3.4923555 L24.9532643,11.6803786 L26.5590708,11.6803786 L26.5590708,5.11406105 C27.1950338,4.95507031 27.7991986,4.81197865 28.3556662,4.7165842 C28.8326384,4.7165842 29.1347208,4.73248328 29.4527023,4.7801805 L29.7706838,3.47645642 C29.5321977,3.41286013 29.1983171,3.38106198 28.8485375,3.38106198 L28.8485375,3.38106198 Z M32.6961134,11.7439749 C33.3002782,11.7439749 33.7931495,11.6644796 34.1747273,11.5531861 L34.3019199,10.6628379 L32.8392051,10.4402509 L32.8392051,1.40957679 L32.5689208,0.233045313 L31.2333986,0.233045313 L31.2333986,10.1858657 C31.2333986,11.2511036 31.8693616,11.7439749 32.6961134,11.7439749 L32.6961134,11.7439749 Z M42.2196588,0.233045313 L40.8841366,0.233045313 L40.8841366,4.04882309 C40.3594671,3.69904346 39.6758069,3.38106198 38.8967523,3.38106198 C36.9411662,3.38106198 35.2399653,4.81197865 35.2399653,7.56251846 C35.2399653,10.0745722 36.3529005,11.759874 38.5946699,11.759874 C39.3578255,11.759874 40.2640727,11.3146999 40.9477329,10.8854249 L41.1544208,11.6803786 L42.474044,11.6803786 L42.474044,1.40957679 L42.2196588,0.233045313 Z M36.8457717,7.56251846 C36.8457717,6.41778513 37.1001569,5.51153791 37.3863403,5.19355642 C37.752019,4.89147402 38.4197801,4.60529068 38.9603486,4.60529068 C39.7235042,4.60529068 40.3753662,4.76428142 40.8841366,5.03456568 L40.8841366,9.99507679 C40.2958708,10.2017648 39.6440088,10.4243518 39.1034403,10.4879481 C37.6566245,10.4879481 36.8457717,9.72479253 36.8457717,7.56251846 L36.8457717,7.56251846 Z M44.5568227,7.92819716 L49.6127282,7.92819716 L49.787618,6.60857402 L44.7317125,6.60857402 L44.5568227,7.92819716 Z M55.2718049,11.759874 C55.9872632,11.759874 56.7663179,11.6167823 57.434079,11.3623972 L57.6089688,10.2653611 C56.8299142,10.472049 56.0349605,10.4879481 55.3989975,10.4879481 C53.8885855,10.4879481 53.0459345,9.51810457 53.0459345,7.56251846 C53.0459345,6.44958328 53.363916,5.5751342 53.6500994,5.22535457 C54.0475762,4.92327216 54.6358419,4.65298791 55.4307956,4.63708883 C56.1780521,4.63708883 56.7186206,4.73248328 57.2909873,4.89147402 L57.5453725,3.81033698 C56.9571068,3.58774994 56.1939512,3.38106198 55.3830984,3.38106198 C53.1731271,3.38106198 51.4401281,4.79607957 51.4401281,7.56251846 C51.4401281,10.3289573 52.9823382,11.759874 55.2718049,11.759874 L55.2718049,11.759874 Z M60.8841781,11.7439749 C61.4883429,11.7439749 61.9812142,11.6644796 62.3627919,11.5531861 L62.4899845,10.6628379 L61.0272697,10.4402509 L61.0272697,1.40957679 L60.7569855,0.233045313 L59.4214632,0.233045313 L59.4214632,10.1858657 C59.4214632,11.2511036 60.0574262,11.7439749 60.8841781,11.7439749 L60.8841781,11.7439749 Z M66.4647531,3.38106198 C65.7174966,3.38106198 64.7635521,3.60364902 64.1275892,3.88983235 L63.9526994,4.93917124 C64.5886623,4.7165842 65.5426068,4.62118976 66.3216614,4.62118976 C67.5776882,4.62118976 68.4203392,5.05046476 68.4203392,6.44958328 L68.4203392,6.95835365 C67.529991,6.89475735 66.671441,6.87885828 66.2580651,6.8629592 C64.4773688,6.89475735 63.3644336,7.70561013 63.3644336,9.20012309 C63.3644336,11.0603148 64.5091669,11.759874 66.1308725,11.759874 C67.0212206,11.759874 67.8638716,11.3146999 68.4998345,10.9649203 L68.6747244,11.6803786 L69.9307512,11.6803786 L69.9307512,6.83116105 C69.9307512,4.66888698 69.1198984,3.38106198 66.4647531,3.38106198 L66.4647531,3.38106198 Z M64.8112494,9.24782031 C64.8112494,8.89804068 64.8589466,8.54826105 65.0656345,8.32567402 C65.590304,8.08718791 66.5283494,7.97589439 68.4203392,7.95999531 L68.4203392,10.1222694 C67.8479725,10.2971592 67.0848169,10.5038472 66.5919456,10.5992416 C65.2405244,10.5992416 64.8112494,9.96327865 64.8112494,9.24782031 L64.8112494,9.24782031 Z M74.4619873,11.759874 C76.3380781,11.759874 77.7212975,11.1398101 77.7212975,9.31141661 C77.7212975,8.08718791 77.1012336,7.37172957 75.3841336,6.95835365 C74.2870975,6.68806939 73.3808503,6.64037216 73.3808503,5.70232679 C73.3808503,5.33664809 73.4603456,5.08226291 73.6670336,4.89147402 C74.0327123,4.7165842 74.605079,4.60529068 75.1774456,4.62118976 C75.9247021,4.63708883 76.6083623,4.7165842 77.1966281,4.89147402 L77.4351142,3.81033698 C76.8150503,3.57185087 75.892904,3.38106198 75.2728401,3.38106198 C73.3649512,3.38106198 71.9181355,4.12831846 71.9181355,5.86131753 C71.9181355,7.21273883 72.9038781,7.7851055 74.0168132,8.03949068 C75.5113262,8.35747216 76.1790873,8.51646291 76.1790873,9.4386092 C76.1790873,9.78838883 76.115491,10.042774 75.9088031,10.2653611 C75.5113262,10.4561499 74.9389595,10.5038472 74.5414827,10.5038472 C73.5875382,10.5038472 72.6335938,10.3448564 71.9976308,10.1381685 L71.7591447,11.2352046 C72.4269058,11.5054888 73.4285475,11.759874 74.4619873,11.759874 L74.4619873,11.759874 Z M81.7278642,11.759874 C83.6039549,11.759874 84.9871744,11.1398101 84.9871744,9.31141661 C84.9871744,8.08718791 84.3671105,7.37172957 82.6500105,6.95835365 C81.5529744,6.68806939 80.6467271,6.64037216 80.6467271,5.70232679 C80.6467271,5.33664809 80.7262225,5.08226291 80.9329105,4.89147402 C81.2985892,4.7165842 81.8709558,4.60529068 82.4433225,4.62118976 C83.190579,4.63708883 83.8742392,4.7165842 84.4625049,4.89147402 L84.700991,3.81033698 C84.0809271,3.57185087 83.1587808,3.38106198 82.5387169,3.38106198 C80.6308281,3.38106198 79.1840123,4.12831846 79.1840123,5.86131753 C79.1840123,7.21273883 80.1697549,7.7851055 81.2826901,8.03949068 C82.7772031,8.35747216 83.4449642,8.51646291 83.4449642,9.4386092 C83.4449642,9.78838883 83.3813679,10.042774 83.1746799,10.2653611 C82.7772031,10.4561499 82.2048364,10.5038472 81.8073595,10.5038472 C80.8534151,10.5038472 79.8994706,10.3448564 79.2635077,10.1381685 L79.0250216,11.2352046 C79.6927827,11.5054888 80.6944244,11.759874 81.7278642,11.759874 L81.7278642,11.759874 Z" id="World-class"></path>
                </g>
                <path d="M10.1732213,9.28375766 L10.1732213,9.43678624 L18.0969223,9.43678624 L17.4838143,13.7822019 L10.1732213,13.7822019 L10.1732213,32.6971316 L4.34521694,32.6971316 L4.34521694,13.7822019 L-0.000198738426,13.7822019 L0.613902998,9.43678624 L4.34521694,9.43678624 C4.60059582,3.50742531 7.41274455,0.0304965451 13.7515066,0.0304965451 C15.796525,0.0304965451 17.994572,0.542247992 19.579511,1.20702803 L18.6593521,5.09137056 C17.4838143,4.78531339 16.1035759,4.52894082 14.5693153,4.52894082 C13.3937775,4.52894082 11.9628608,4.78531339 11.1440585,5.29607114 C10.6333007,5.96085117 10.1732213,7.39176784 10.1732213,9.28375766 L10.1732213,9.28375766 Z M68.8100002,3.30272473 C68.8100002,2.22854354 69.2700796,1.20702803 69.6784871,0.745954878 C70.4456174,0.388225712 71.4164546,0.184518825 72.3376072,0.184518825 C74.5356542,0.184518825 75.8135423,1.15535604 75.8135423,3.30272473 C75.8135423,4.32523393 75.4558131,5.34774313 74.9440617,5.7561506 C74.2286033,6.16555175 73.2577661,6.37025233 72.3376072,6.37025233 C70.0878882,6.37025233 68.8100002,5.39842143 68.8100002,3.30272473 L68.8100002,3.30272473 Z M138.181635,5.50077172 L138.181635,32.6971316 L130.513313,32.6971316 L130.513313,19.6102063 L119.726785,19.6102063 L119.726785,32.6971316 L112.007784,32.6971316 L112.007784,0.184518825 L118.653597,0.184518825 L119.726785,5.45009342 L119.726785,13.0160653 L130.513313,13.0160653 L130.513313,0.184518825 L137.261476,0.184518825 L138.181635,5.50077172 Z M65.0270142,21.0421166 C65.0270142,29.068168 60.4262197,33.0041825 55.2113234,33.0041825 C52.5015249,33.0041825 50.7128791,32.0333453 49.1279402,30.7544635 L48.6161887,32.6971316 L43.5553147,32.6971316 L43.5553147,0.337547413 L48.5148321,0.337547413 L49.3326407,4.32523393 L49.3326407,11.3287761 C51.1212866,9.99921599 53.2686553,9.02837878 55.4160239,9.02837878 C61.806458,9.02837878 65.0270142,13.9362242 65.0270142,21.0421166 L65.0270142,21.0421166 Z M162.617518,19.0477765 L162.617518,32.6971316 L156.790508,32.6971316 L156.125728,30.3967343 C154.540789,31.5215938 152.188719,33.0548608 149.377564,33.0548608 C144.77677,33.0548608 141.862271,30.8061355 141.862271,25.4888889 C141.862271,21.1444669 145.236849,18.4346685 150.655452,18.4346685 C151.780312,18.4346685 153.72298,18.5876971 155.665648,18.7417193 L155.665648,17.922917 C155.665648,15.2647906 154.029037,14.3446317 150.144695,14.3446317 C147.997326,14.3446317 144.980477,14.7023608 143.498882,15.111762 L144.31669,10.1015663 C146.821788,9.18140737 149.275214,8.61897762 151.93334,8.61897762 C159.754691,8.61897762 162.617518,12.197263 162.617518,19.0477765 L162.617518,19.0477765 Z M187.105073,19.0477765 L187.105073,32.6971316 L181.174719,32.6971316 L180.510932,30.3967343 C178.976672,31.5215938 176.625596,33.0548608 173.865119,33.0548608 C169.212653,33.0548608 166.349826,30.8061355 166.349826,25.4888889 C166.349826,21.1444669 169.62106,18.4346685 175.091336,18.4346685 C176.216195,18.4346685 178.158863,18.5876971 180.049859,18.7417193 L180.049859,17.922917 C180.049859,15.2647906 178.465914,14.3446317 174.631256,14.3446317 C172.433209,14.3446317 169.365682,14.7023608 167.934765,15.111762 L168.752573,10.1015663 C171.257671,9.18140737 173.762769,8.61897762 176.420896,8.61897762 C184.242246,8.61897762 187.105073,12.197263 187.105073,19.0477765 L187.105073,19.0477765 Z M213.637647,13.0160653 L210.160718,13.2714442 C210.978527,14.446982 211.592629,15.72487 211.592629,17.2591307 C211.592629,22.4730333 207.962671,25.3875323 201.26618,25.3875323 C200.089648,25.3875323 199.067139,25.285182 198.096302,25.0804814 L197.329172,27.0738279 C197.686901,27.3808787 198.351681,27.483229 199.323512,27.6362576 L203.872634,27.9939868 C210.31474,28.5057382 212.512787,30.6521132 212.512787,35.0492009 C212.512787,40.0593966 208.065022,42.1034213 200.49905,42.1034213 C196.153634,42.1034213 193.393157,41.6433419 189.712522,40.2124252 L190.888059,35.0998792 C193.393157,36.0200381 196.869092,36.5317895 200.243671,36.5317895 C202.339367,36.5317895 203.770284,36.4801176 204.639765,36.2247387 C204.997494,35.9176878 205.099844,35.6623089 205.099844,34.9975289 C205.099844,34.2820706 204.691437,33.6172905 203.054826,33.4642619 L197.226821,32.9535042 C194.313316,32.6971316 192.421326,31.7262944 190.99041,30.3967343 L193.903915,23.2401636 C192.012919,21.8599252 190.939731,19.7632349 190.939731,16.9004078 C190.939731,11.5334766 195.284153,8.61897762 201.26618,8.61897762 C202.850125,8.61897762 204.282036,8.7729999 205.509245,9.13072907 L214.046054,9.13072907 L213.637647,13.0160653 Z M38.3920904,19.0477765 L38.3920904,32.6971316 L33.8429678,32.6971316 L33.2288661,30.4990846 C31.6439271,31.5215938 29.1905013,33.0041825 26.5323748,33.0041825 C21.9822586,33.0041825 18.8640527,30.8568138 18.8640527,25.5912392 C18.8640527,21.3998458 21.9822586,19.0477765 27.0431326,18.7923976 C28.0656418,18.7417193 30.5200613,18.8947479 32.9228089,19.0994485 L32.9228089,17.922917 C32.9228089,14.5493323 30.8261185,13.4761448 27.1971548,13.4761448 C24.9981142,13.4761448 22.1869591,13.7822019 20.4996699,14.2939534 L21.1644499,10.4592954 C23.3118186,9.59080852 25.9182731,9.02837878 28.2186704,9.02837878 C35.8869925,9.02837878 38.3920904,12.6066641 38.3920904,19.0477765 L38.3920904,19.0477765 Z M79.5965282,20.9397663 C79.5965282,13.2714442 84.555052,9.02837878 90.7924575,9.02837878 C97.591299,9.02837878 102.039065,13.1690939 102.039065,20.9904446 C102.039065,29.016496 97.1818978,33.0041825 90.7924575,33.0041825 C84.0442942,33.0041825 79.5965282,28.8117954 79.5965282,20.9397663 L79.5965282,20.9397663 Z M69.4231082,32.6971316 L75.2511125,32.6971316 L75.2511125,9.33443595 L69.4231082,9.33443595 L69.4231082,32.6971316 Z M94.8308223,27.2278501 C95.5462806,26.3076912 96.1087103,24.1086505 96.1087103,20.9904446 C96.1087103,15.8272203 94.4214211,13.4761448 90.8938141,13.4761448 C89.0028179,13.4761448 87.7249298,14.0892528 86.8047709,14.7540328 C86.1399909,15.72487 85.5268829,17.974589 85.5268829,20.9397663 C85.5268829,26.2053409 87.2131784,28.5057382 90.7924575,28.5057382 C92.7858039,28.5057382 93.9106634,27.8916365 94.8308223,27.2278501 L94.8308223,27.2278501 Z M59.0966596,21.0421166 C59.0966596,15.72487 57.2046698,13.5775013 53.5757061,13.5775013 C52.3484963,13.7315236 50.7635574,14.1399311 49.3326407,14.6000105 L49.3326407,27.3292067 C50.5588568,27.9939868 52.1954678,28.5564165 53.831085,28.5564165 C55.6207245,28.5564165 56.8986126,27.8916365 57.8187715,27.1761781 C58.4835516,26.3076912 59.0966596,24.1603225 59.0966596,21.0421166 L59.0966596,21.0421166 Z M205.099844,17.0544301 C205.099844,15.06009 203.770284,13.9362242 201.316858,13.9362242 C199.987298,13.9362242 199.118811,14.1916031 198.454031,14.5493323 C197.993952,14.9587334 197.585544,16.0319209 197.585544,17.0544301 C197.585544,19.1501268 198.914111,20.2233143 201.316858,20.2233143 C202.646418,20.2233143 203.514905,20.0196074 204.282036,19.7125566 C204.742115,19.2524771 205.099844,18.1276176 205.099844,17.0544301 L205.099844,17.0544301 Z M28.1679921,28.8117954 C29.3435298,28.5564165 31.3885483,28.0963371 32.9228089,27.6879296 L32.9228089,22.5753836 C28.5257212,22.6260619 26.0206234,22.9331127 24.692057,23.4955425 C24.1803055,24.0579722 24.0779553,24.7227523 24.0779553,25.5405609 C24.0779553,27.3292067 25.1004645,28.8117954 28.1679921,28.8117954 L28.1679921,28.8117954 Z M151.370911,27.7386079 C152.342742,27.5855793 154.183059,27.2278501 155.665648,26.8691273 L155.665648,22.7800842 C152.240391,22.8824345 150.042344,23.035463 148.815135,23.4955425 C148.405733,24.0579722 148.355055,24.56873 148.355055,25.23351 C148.355055,26.6137484 149.122185,27.7386079 151.370911,27.7386079 L151.370911,27.7386079 Z M175.756116,27.7386079 C176.829303,27.5855793 178.618943,27.2278501 180.049859,26.8691273 L180.049859,22.7800842 C176.676275,22.8824345 174.528906,23.035463 173.251018,23.4955425 C172.893289,24.0579722 172.790938,24.56873 172.790938,25.23351 C172.790938,26.6137484 173.558069,27.7386079 175.756116,27.7386079 L175.756116,27.7386079 Z M116.710929,59.485084 C116.608579,60.2005424 116.556907,60.8146441 116.556907,61.3254019 C116.556907,63.0633694 117.324037,64.0352003 119.216027,64.0352003 C120.851644,64.0352003 122.282561,63.8304997 123.662799,63.4210986 L123.101363,65.6708176 C121.976504,66.130897 120.339893,66.4886262 119.113677,66.4886262 C114.870611,66.4886262 113.490373,64.5459581 113.490373,61.5807807 C113.490373,60.7629721 113.592723,59.8428132 113.745752,58.871976 L115.279019,48.9539349 L111.445355,48.9539349 L112.058463,46.6028593 L115.739098,46.6028593 L117.375709,41.6950138 L119.471406,41.6950138 L118.704276,46.6028593 L124.481602,46.6028593 L124.941681,48.9539349 L118.346547,48.9539349 L116.710929,59.485084 Z M182.094878,51.4083544 C182.094878,55.6514198 179.896831,57.5940879 174.988985,57.5940879 C173.813448,57.5940879 170.797592,57.4917376 168.445523,57.2353651 C168.394844,57.7977948 168.343172,58.3095463 168.343172,58.820304 C168.343172,62.2972328 169.979783,64.0858786 173.608747,64.0858786 C175.193686,64.0858786 177.085676,63.93285 179.283723,63.319742 L178.618943,65.4154387 C176.931653,66.130897 175.091336,66.4886262 173.660419,66.4886262 C168.139465,66.4886262 165.429667,63.8304997 165.429667,58.820304 C165.429667,57.9518171 165.532017,57.0316582 165.685046,56.0598273 C166.758233,49.363336 171.30835,46.2451301 176.011494,46.2451301 C179.436751,46.2451301 182.094878,47.7267251 182.094878,51.4083544 L182.094878,51.4083544 Z M162.311461,54.372538 C162.311461,61.3254019 158.374453,66.5402982 152.035691,66.5402982 C150.297723,66.5402982 148.252705,65.8755181 147.127845,65.0577095 L145.645257,74.2592986 L143.140159,74.2592986 L142.98713,71.8565511 L146.974817,46.6028593 L149.530593,46.6028593 L149.683622,47.9830976 C151.422583,47.2666456 153.518279,46.2958084 155.256247,46.2958084 C159.806363,46.2958084 162.311461,49.6693932 162.311461,54.372538 L162.311461,54.372538 Z M122.078854,73.389818 L122.74264,71.3964716 C123.662799,71.7035225 124.379251,71.8565511 125.19706,71.8565511 C126.474948,71.8565511 127.088056,71.7035225 127.905865,71.243443 C128.980046,70.1185835 130.104905,68.2782657 131.331122,65.9778684 L126.577298,46.6028593 L129.695504,46.6028593 L133.120761,62.7056402 L141.402191,46.6028593 L144.367369,46.6028593 L134.245621,65.6201393 C130.820364,72.0095796 129.490804,74.2592986 125.247738,74.2592986 C124.327579,74.2592986 123.152042,74.0039198 122.078854,73.389818 L122.078854,73.389818 Z M175.909144,48.5455274 C173.865119,48.5455274 172.17783,49.5163646 171.052971,50.2834949 C170.439863,51.0496316 169.417354,52.9416214 168.854924,55.2936906 L170.542213,55.2936906 C174.580578,55.2936906 177.188026,55.1396684 178.311892,54.6289106 C178.823643,54.1171592 179.386073,53.0439717 179.386073,51.4083544 C179.386073,49.7717435 178.209541,48.5455274 175.909144,48.5455274 L175.909144,48.5455274 Z M154.28541,48.8009063 C152.700471,49.0056068 151.115532,49.4140143 149.479915,49.9764441 L147.434896,63.0126911 C148.712784,63.7798214 150.400074,64.1375506 152.240391,64.1375506 C154.029037,64.1375506 155.563298,63.3704203 156.636485,62.6032899 C157.556644,61.683131 158.630825,59.4344057 159.141583,56.4692284 C159.294612,55.5490695 159.346284,54.7312609 159.346284,54.0148089 C159.346284,50.1811446 157.505966,48.8009063 154.28541,48.8009063 L154.28541,48.8009063 Z" id="fabio-Haag-type"></path>
            </g>
        </g>
    </g>
</svg>