<?xml version="1.0" encoding="UTF-8"?>
<svg width="825px" height="210px" viewBox="0 0 825 210" version="1.1" xmlns="http://www.w3.org/2000/svg" xmlns:xlink="http://www.w3.org/1999/xlink">
    <!-- Generator: Sketch 41 (35326) - http://www.bohemiancoding.com/sketch -->
    <title>business</title>
    <desc>Created with Sketch.</desc>
    <defs>
        <polygon id="path-1" points="37.9732 0.934 0.9922 0.934 0.9922 53.1846 37.9732 53.1846 37.9732 0.934"></polygon>
        <polygon id="path-3" points="37.8843 0.934 0.9033 0.934 0.9033 53.1846 37.8843 53.1846 37.8843 0.934"></polygon>
        <polygon id="path-5" points="37.1148 0.934 0.1338 0.934 0.1338 53.1846 37.1148 53.1846 37.1148 0.934"></polygon>
        <polygon id="path-7" points="0 210 824.803 210 824.803 0.934 0 0.934"></polygon>
    </defs>
    <g id="Page-1" stroke="none" stroke-width="1" fill="none" fill-rule="evenodd">
        <g id="Artboard" transform="translate(-158.000000, -4362.000000)">
            <g id="business" transform="translate(158.000000, 4361.066000)">
                <path d="M33.4541,37.9336 C33.3601,30.8716 29.0321,29.5536 19.3401,29.5536 L8.9881,29.5536 L8.9881,46.7836 L18.3981,46.7836 C24.7971,46.7836 29.4081,46.2176 31.0081,44.9946 C32.4191,43.4886 33.5491,41.3226 33.4541,37.9336 Z M17.4571,7.3356 L8.9881,7.3356 L8.9881,23.5286 L18.4921,23.5286 C24.4211,23.5286 27.0561,23.2456 29.4081,22.0216 C30.8191,20.3286 31.3851,18.6326 31.2901,15.4316 C31.1011,8.2776 26.2091,7.3356 17.4571,7.3356 Z M40.6061,37.9336 C40.6061,48.3826 32.5141,52.8086 19.2451,52.8086 L2.1191,52.8086 L2.1191,1.3106 L17.9281,1.3106 C30.8191,1.3106 38.4411,5.0766 38.4411,15.3376 C38.4411,20.2336 36.1831,23.6226 32.3251,25.8826 C37.2191,27.7656 40.6061,31.2476 40.6061,37.9336 Z" id="Fill-2" fill="#FFFFFF"></path>
                <path d="M50.3027,33.6016 L50.3027,1.3106 L56.4187,1.3106 L57.6427,6.8646 L57.6427,32.3786 C57.6427,42.9226 60.6537,46.9706 70.1577,46.9706 C75.0507,46.9706 77.3097,46.3126 79.6617,44.8056 C81.6387,42.7346 82.9557,37.8386 82.9557,31.8136 L83.0497,1.3106 L89.1657,1.3106 L90.3897,6.7706 L90.2957,32.3786 C90.2957,45.7476 83.1437,53.1846 70.0637,53.1846 C58.3957,53.1846 50.3027,47.1596 50.3027,33.6016" id="Fill-4" fill="#FFFFFF"></path>
                <g id="Group-8" transform="translate(99.000000, 0.000000)">
                    <mask id="mask-2" fill="white">
                        <use xlink:href="#path-1"></use>
                    </mask>
                    <g id="Clip-7"></g>
                    <path d="M0.9922,50.2656 L2.4972,44.8056 C6.2622,45.8416 12.0022,47.0646 16.8012,47.0646 C21.5992,47.0646 25.8352,46.6886 28.4702,45.1816 C30.1632,43.3936 30.5402,41.6046 30.5402,38.8746 C30.5402,32.4726 25.8352,31.2476 14.7302,28.9886 C7.9552,27.5766 2.0272,24.4696 2.0272,15.9956 C2.0272,5.3586 10.8722,0.9336 22.7292,0.9336 C27.0572,0.9336 31.7632,1.9686 35.7152,3.2866 L34.3972,8.8416 C30.7272,7.9006 26.5872,7.1466 21.9762,7.0526 C17.0832,6.9586 13.4132,7.9006 10.9672,9.4066 C9.8372,10.7246 9.0852,12.5136 9.0852,14.9606 C9.0852,22.3986 16.0482,22.2106 23.1992,23.9056 C34.2102,26.4476 37.9732,30.2126 37.9732,38.2146 C37.9732,49.4186 29.4102,53.1846 17.4602,53.1846 C11.2492,53.1846 5.4152,51.9606 0.9922,50.2656" id="Fill-6" fill="#FFFFFF" mask="url(#mask-2)"></path>
                </g>
                <polygon id="Fill-9" fill="#FFFFFF" points="148.1748 1.3105 154.1968 1.3105 155.5148 6.8645 155.5148 52.8085 148.1748 52.8085"></polygon>
                <polygon id="Fill-11" fill="#FFFFFF" points="169.8193 1.3105 176.5003 1.3105 204.1663 41.0395 204.1663 1.3105 209.3413 1.3105 210.6593 6.8645 210.6593 52.8085 204.0723 52.8085 176.4063 13.1715 176.4063 52.8085 169.8193 52.8085"></polygon>
                <polygon id="Fill-13" fill="#FFFFFF" points="260.5371 46.6885 259.5961 52.8085 224.9671 52.8085 224.9671 1.3105 259.7841 1.3105 258.9361 7.4295 232.2121 7.4295 232.2121 23.1525 255.2661 23.1525 255.2661 29.2715 232.2121 29.2715 232.2121 46.6885"></polygon>
                <g id="Group-17" transform="translate(265.000000, 0.000000)">
                    <mask id="mask-4" fill="white">
                        <use xlink:href="#path-3"></use>
                    </mask>
                    <g id="Clip-16"></g>
                    <path d="M0.9033,50.2656 L2.4083,44.8056 C6.1733,45.8416 11.9133,47.0646 16.7123,47.0646 C21.5103,47.0646 25.7463,46.6886 28.3813,45.1816 C30.0743,43.3936 30.4503,41.6046 30.4503,38.8746 C30.4503,32.4726 25.7463,31.2476 14.6413,28.9886 C7.8663,27.5766 1.9383,24.4696 1.9383,15.9956 C1.9383,5.3586 10.7833,0.9336 22.6403,0.9336 C26.9683,0.9336 31.6743,1.9686 35.6263,3.2866 L34.3083,8.8416 C30.6383,7.9006 26.4983,7.1466 21.8873,7.0526 C16.9943,6.9586 13.3243,7.9006 10.8783,9.4066 C9.7483,10.7246 8.9963,12.5136 8.9963,14.9606 C8.9963,22.3986 15.9593,22.2106 23.1103,23.9056 C34.1213,26.4476 37.8843,30.2126 37.8843,38.2146 C37.8843,49.4186 29.3213,53.1846 17.3713,53.1846 C11.1603,53.1846 5.3263,51.9606 0.9033,50.2656" id="Fill-15" fill="#FFFFFF" mask="url(#mask-4)"></path>
                </g>
                <g id="Group-20" transform="translate(310.000000, 0.000000)">
                    <mask id="mask-6" fill="white">
                        <use xlink:href="#path-5"></use>
                    </mask>
                    <g id="Clip-19"></g>
                    <path d="M0.1338,50.2656 L1.6388,44.8056 C5.4038,45.8416 11.1438,47.0646 15.9428,47.0646 C20.7408,47.0646 24.9768,46.6886 27.6118,45.1816 C29.3048,43.3936 29.6808,41.6046 29.6808,38.8746 C29.6808,32.4726 24.9768,31.2476 13.8718,28.9886 C7.0968,27.5766 1.1688,24.4696 1.1688,15.9956 C1.1688,5.3586 10.0138,0.9336 21.8708,0.9336 C26.1988,0.9336 30.9048,1.9686 34.8568,3.2866 L33.5388,8.8416 C29.8688,7.9006 25.7288,7.1466 21.1178,7.0526 C16.2248,6.9586 12.5548,7.9006 10.1088,9.4066 C8.9788,10.7246 8.2268,12.5136 8.2268,14.9606 C8.2268,22.3986 15.1898,22.2106 22.3408,23.9056 C33.3518,26.4476 37.1148,30.2126 37.1148,38.2146 C37.1148,49.4186 28.5518,53.1846 16.6018,53.1846 C10.3908,53.1846 4.5568,51.9606 0.1338,50.2656" id="Fill-18" fill="#FFFFFF" mask="url(#mask-6)"></path>
                </g>
                <path d="M19.2451,83.0117 L14.4461,83.0117 L14.4461,96.0037 L19.2451,96.0037 C23.2921,96.0037 26.0201,95.3447 27.4321,94.6857 C28.1841,93.5557 28.7491,91.6727 28.7491,89.2247 C28.6551,84.6117 26.4911,83.0117 19.2451,83.0117 L19.2451,83.0117 Z M47.0991,124.7187 L31.2901,124.7187 L23.7621,109.9377 C22.4441,107.2067 20.3741,107.0187 16.8921,107.0187 L14.4461,107.0187 L14.4461,124.7187 L0.7071,124.7187 L0.7071,71.6187 L21.6921,71.6187 C35.4311,71.6187 42.9591,78.0217 43.0531,89.5077 C43.0531,96.8507 39.4761,101.1817 34.9601,103.7237 C35.7131,104.5707 36.4661,105.6067 37.1241,106.8297 L47.0991,124.7187 Z" id="Fill-21" fill="#3C3B41"></path>
                <polygon id="Fill-23" fill="#3C3B41" points="92.6475 112.8555 91.0465 124.7185 53.3125 124.7185 53.3125 71.6195 92.1765 71.6195 90.6705 83.4825 67.8045 83.4825 67.8045 91.8615 87.8475 91.8615 87.8475 103.7235 67.8045 103.7235 67.8045 112.8555"></polygon>
                <polygon id="Fill-25" fill="#3C3B41" points="96.6973 71.6191 113.8233 71.6191 123.3273 107.4891 133.2083 71.6191 150.0513 71.6191 130.8553 124.7191 115.1403 124.7191"></polygon>
                <polygon id="Fill-27" fill="#3C3B41" points="156.6416 71.6191 169.7216 71.6191 171.6046 81.5051 171.6046 124.7191 156.6416 124.7191"></polygon>
                <polygon id="Fill-29" fill="#3C3B41" points="222.4199 112.8555 220.8189 124.7185 183.0849 124.7185 183.0849 71.6195 221.9489 71.6195 220.4429 83.4825 197.5769 83.4825 197.5769 91.8615 217.6199 91.8615 217.6199 103.7235 197.5769 103.7235 197.5769 112.8555"></polygon>
                <polygon id="Fill-31" fill="#3C3B41" points="226.2812 71.6191 241.7142 71.6191 246.9832 106.7361 254.5112 73.4081 268.2502 72.1841 275.9672 107.2071 281.9892 71.6191 296.4802 71.6191 283.1182 124.7191 268.3442 124.7191 261.0052 90.3541 253.2882 124.7191 238.6082 124.7191"></polygon>
                <g id="Group-35" transform="translate(0.000000, 180.000000)" fill="#FFFFFF">
                    <path d="M13.8799,18.4453 C14.6769,17.3913 15.3469,14.8383 15.2829,11.9003 C15.1879,6.5383 13.7199,4.1443 10.2419,4.1443 C8.4869,4.1443 7.1479,4.7503 6.2859,5.3883 C5.4879,6.4423 4.8499,8.8363 4.8819,11.8043 C4.9449,17.2003 6.5089,19.5933 9.9869,19.5933 C11.5819,19.5933 12.9219,19.1793 13.8799,18.4453 M-0.0001,11.8383 C-0.0001,3.8883 4.2439,0.1853 10.1139,0.1853 C16.3679,0.1853 20.1969,3.6663 20.1969,11.9003 C20.1969,19.8173 15.9219,23.5523 10.1139,23.5523 C3.8609,23.5523 -0.0001,20.0093 -0.0001,11.8383" id="Fill-33"></path>
                </g>
                <path d="M35.1914,194.998 C35.1914,191.55 33.9794,190.113 31.5544,190.082 C30.7884,190.209 29.8314,190.465 28.9064,190.72 L28.9064,199.467 C29.7354,199.785 30.8204,199.977 31.7134,199.977 C32.7664,199.977 33.7234,199.594 34.3304,199.147 C34.7454,198.572 35.1914,197.168 35.1914,194.998 M39.9144,194.998 C39.9144,200.743 36.7544,203.553 32.4474,203.553 C31.1394,203.553 29.9594,203.17 28.9064,202.531 L28.9064,209.873 L24.9494,209.873 L24.3114,206.681 L24.3114,186.666 L28.1084,186.666 L28.5544,188.262 C29.9914,187.24 31.7134,186.442 33.3094,186.442 C37.8394,186.442 39.9144,189.954 39.9144,194.998" id="Fill-36" fill="#FFFFFF"></path>
                <path d="M48.0488,190.752 C47.7298,191.231 47.4108,192.156 47.2828,193.593 C49.0378,193.561 50.4098,193.529 51.4628,193.401 C52.2288,193.306 52.8348,193.21 53.2808,193.082 C53.5688,192.667 53.5688,192.252 53.5688,191.838 C53.5688,190.783 52.8668,189.891 51.0478,189.891 C49.7398,189.891 48.6878,190.337 48.0488,190.752 M52.0048,199.913 C53.4728,199.913 55.5148,199.69 56.7598,199.339 L56.2798,202.627 C54.5258,203.266 52.8028,203.553 51.2078,203.553 C45.5278,203.553 42.7838,200.552 42.7838,194.965 C42.7838,189.698 46.0068,186.442 51.1438,186.442 C55.1638,186.442 57.4608,188.294 57.4608,191.9 C57.4608,195.157 55.6428,196.562 51.6868,196.562 C50.9208,196.562 49.0378,196.466 47.2828,196.307 C47.5698,198.955 48.8788,199.913 52.0048,199.913" id="Fill-38" fill="#FFFFFF"></path>
                <path d="M71.4033,186.6016 L70.7333,190.4966 C70.1903,190.4006 69.6163,190.3046 68.6273,190.3046 C67.8613,190.4326 66.6803,190.6876 65.5643,190.9126 L65.5643,203.3616 L60.8743,203.3616 L60.8743,186.6656 L64.7343,186.6656 L65.2453,188.3266 C66.5533,187.4006 68.1173,186.4426 69.6163,186.4426 C70.2553,186.4426 70.8923,186.5056 71.4033,186.6016" id="Fill-40" fill="#FFFFFF"></path>
                <path d="M78.9326,200.2324 C79.6986,200.0724 81.0706,199.7854 82.1226,199.5304 L82.1226,196.2424 C81.2936,196.2424 80.5916,196.2744 79.9536,196.3374 C78.4536,196.4334 77.4646,196.5934 76.7946,196.8484 C76.5076,197.2004 76.4116,197.6154 76.4116,198.1584 C76.4116,199.3064 77.0816,200.2324 78.9326,200.2324 M86.5266,193.6564 L86.5266,203.3614 L82.8576,203.3614 L82.4106,201.7324 C81.3256,202.4664 79.5706,203.5524 77.6566,203.5524 C74.4336,203.5524 72.2956,202.0194 72.2956,198.2854 C72.2956,195.3164 74.4656,193.5294 78.0716,193.4014 C78.7736,193.4014 80.4636,193.4644 82.1226,193.5924 L82.1226,192.8904 C82.1226,190.7194 80.8156,190.0174 78.1996,190.0174 C76.6356,190.0174 74.5616,190.2734 73.4446,190.6244 L73.9876,187.4634 C75.6146,186.8574 77.4326,186.4424 79.1876,186.4424 C84.6436,186.4424 86.5266,188.9964 86.5266,193.6564" id="Fill-42" fill="#FFFFFF"></path>
                <path d="M102.0322,199.5625 L101.4582,203.0415 C100.5012,203.3615 99.4482,203.5205 97.9482,203.5205 C93.5452,203.5205 91.9502,201.0935 91.9502,196.7205 L91.9502,190.2415 L88.9822,190.2415 L89.4932,186.6665 L92.1742,186.6665 L93.1942,182.6115 L96.6402,182.6115 L96.6402,186.6665 L101.9692,186.6665 L101.4582,190.2415 L96.6402,190.2415 L96.6402,196.6575 C96.6402,198.8285 97.2782,199.8175 99.1612,199.8175 C100.0862,199.8175 101.2032,199.7535 102.0322,199.5625" id="Fill-44" fill="#FFFFFF"></path>
                <mask id="mask-8" fill="white">
                    <use xlink:href="#path-7"></use>
                </mask>
                <g id="Clip-47"></g>
                <path d="M105.095,203.361 L109.785,203.361 L109.785,186.666 L105.095,186.666 L105.095,203.361 Z M104.808,182.452 C104.808,181.686 105.095,180.984 105.445,180.633 C105.988,180.346 106.786,180.186 107.456,180.186 C109.115,180.186 110.072,180.92 110.072,182.452 C110.072,183.219 109.785,183.953 109.434,184.304 C108.892,184.559 108.126,184.719 107.456,184.719 C105.765,184.719 104.808,183.984 104.808,182.452 L104.808,182.452 Z" id="Fill-46" fill="#FFFFFF" mask="url(#mask-8)"></path>
                <path d="M124.2383,199.1797 C124.6853,198.5087 125.0993,197.1677 125.0993,195.0297 C125.0993,191.5177 124.0153,190.0177 121.7173,190.0177 C120.5063,190.0177 119.7083,190.3687 119.1013,190.8477 C118.6553,191.4867 118.2723,192.9217 118.2723,194.9337 C118.2723,198.5727 119.3573,199.9767 121.6543,199.9767 C122.8983,199.9767 123.6643,199.6257 124.2383,199.1797 M113.5823,194.9337 C113.5823,189.5387 117.0273,186.4427 121.6863,186.4427 C126.5993,186.4427 129.7903,189.5067 129.7903,195.0297 C129.7903,200.6477 126.3763,203.5527 121.6863,203.5527 C116.7403,203.5527 113.5823,200.5837 113.5823,194.9337" id="Fill-48" fill="#FFFFFF" mask="url(#mask-8)"></path>
                <path d="M148.8691,192.9551 L148.8691,203.3611 L144.1791,203.3611 L144.1791,193.2101 C144.1791,191.1351 143.4451,190.1781 141.4341,190.1781 C140.5101,190.3371 139.3921,190.6241 138.2761,190.8791 L138.2761,203.3611 L133.5861,203.3611 L133.5861,186.6661 L137.4461,186.6661 L137.9571,188.2941 C139.3611,187.4001 141.1161,186.4421 142.8711,186.4421 C147.2421,186.4421 148.8691,189.2201 148.8691,192.9551" id="Fill-49" fill="#FFFFFF" mask="url(#mask-8)"></path>
                <path d="M152.0273,202.4668 L152.6333,199.1478 C154.0373,199.5938 155.8873,199.9458 157.8973,199.9458 C158.6643,199.9458 159.5253,199.8498 160.0363,199.6578 C160.3233,199.3068 160.4193,198.9548 160.4193,198.5088 C160.4193,197.3918 159.6523,197.1368 157.0053,196.5618 C154.1653,195.9548 152.3143,194.6138 152.3143,191.7738 C152.3143,188.2618 155.0263,186.4428 159.7163,186.4428 C161.1523,186.4428 163.1943,186.8898 164.5033,187.4008 L163.8323,190.6558 C162.6203,190.3368 161.1843,190.0818 159.6843,190.0818 C158.7593,190.0818 157.7703,190.2088 157.1963,190.4328 C156.9723,190.7198 156.8443,191.0388 156.8443,191.5498 C156.8443,192.6988 157.9293,192.7948 160.1953,193.3378 C163.8963,194.1678 165.2043,195.5398 165.2043,198.2538 C165.2043,201.9238 162.5243,203.5528 158.1533,203.5528 C155.7593,203.5528 153.4953,203.0408 152.0273,202.4668" id="Fill-50" fill="#FFFFFF" mask="url(#mask-8)"></path>
                <polygon id="Fill-51" fill="#FFFFFF" mask="url(#mask-8)" points="177.7744 180.377 182.6874 180.377 188.0804 194.104 193.5354 180.377 198.4814 180.377 199.7254 203.361 195.1304 203.361 194.4614 187.688 189.9624 199.467 185.9104 199.467 181.4744 188.039 180.9324 203.361 176.5614 203.361"></polygon>
                <path d="M209.6152,200.2324 C210.3812,200.0724 211.7532,199.7854 212.8052,199.5304 L212.8052,196.2424 C211.9762,196.2424 211.2742,196.2744 210.6362,196.3374 C209.1362,196.4334 208.1472,196.5934 207.4772,196.8484 C207.1902,197.2004 207.0942,197.6154 207.0942,198.1584 C207.0942,199.3064 207.7642,200.2324 209.6152,200.2324 M217.2092,193.6564 L217.2092,203.3614 L213.5402,203.3614 L213.0932,201.7324 C212.0082,202.4664 210.2532,203.5524 208.3392,203.5524 C205.1162,203.5524 202.9782,202.0194 202.9782,198.2854 C202.9782,195.3164 205.1482,193.5294 208.7542,193.4014 C209.4562,193.4014 211.1462,193.4644 212.8052,193.5924 L212.8052,192.8904 C212.8052,190.7194 211.4982,190.0174 208.8822,190.0174 C207.3182,190.0174 205.2442,190.2734 204.1272,190.6244 L204.6702,187.4634 C206.2972,186.8574 208.1152,186.4424 209.8702,186.4424 C215.3262,186.4424 217.2092,188.9964 217.2092,193.6564" id="Fill-52" fill="#FFFFFF" mask="url(#mask-8)"></path>
                <path d="M236.8311,192.9551 L236.8311,203.3611 L232.1411,203.3611 L232.1411,193.2101 C232.1411,191.1351 231.4071,190.1781 229.3961,190.1781 C228.4721,190.3371 227.3541,190.6241 226.2381,190.8791 L226.2381,203.3611 L221.5481,203.3611 L221.5481,186.6661 L225.4081,186.6661 L225.9191,188.2941 C227.3231,187.4001 229.0781,186.4421 230.8331,186.4421 C235.2041,186.4421 236.8311,189.2201 236.8311,192.9551" id="Fill-53" fill="#FFFFFF" mask="url(#mask-8)"></path>
                <path d="M246.7852,200.2324 C247.5512,200.0724 248.9232,199.7854 249.9752,199.5304 L249.9752,196.2424 C249.1462,196.2424 248.4442,196.2744 247.8062,196.3374 C246.3062,196.4334 245.3172,196.5934 244.6472,196.8484 C244.3602,197.2004 244.2642,197.6154 244.2642,198.1584 C244.2642,199.3064 244.9342,200.2324 246.7852,200.2324 M254.3792,193.6564 L254.3792,203.3614 L250.7102,203.3614 L250.2632,201.7324 C249.1782,202.4664 247.4232,203.5524 245.5092,203.5524 C242.2862,203.5524 240.1482,202.0194 240.1482,198.2854 C240.1482,195.3164 242.3182,193.5294 245.9242,193.4014 C246.6262,193.4014 248.3162,193.4644 249.9752,193.5924 L249.9752,192.8904 C249.9752,190.7194 248.6682,190.0174 246.0522,190.0174 C244.4882,190.0174 242.4142,190.2734 241.2972,190.6244 L241.8402,187.4634 C243.4672,186.8574 245.2852,186.4424 247.0402,186.4424 C252.4962,186.4424 254.3792,188.9964 254.3792,193.6564" id="Fill-54" fill="#FFFFFF" mask="url(#mask-8)"></path>
                <path d="M268.0986,192.3477 C268.0986,190.7197 267.0136,189.8267 265.1626,189.8267 C264.1416,189.8267 263.4086,189.9867 262.8656,190.2737 C262.5146,190.5917 262.1956,191.4867 262.1956,192.3477 C262.1956,193.9767 263.2806,194.8687 265.1626,194.8687 C266.1526,194.8687 266.8536,194.7097 267.4276,194.4547 C267.7796,194.1037 268.0986,193.2427 268.0986,192.3477 L268.0986,192.3477 Z M273.7446,189.3157 L271.2566,189.5067 C271.8306,190.3367 272.2786,191.2947 272.2786,192.4757 C272.2786,196.1157 269.6296,198.1587 265.1306,198.1587 C264.2696,198.1587 263.4716,198.0627 262.7386,197.9027 L262.1316,199.5627 C262.4186,199.7847 262.8976,199.8497 263.5996,199.9457 L266.9496,200.2327 C271.1936,200.5837 272.8526,201.9557 272.8526,205.0837 C272.8526,208.5957 269.6936,209.9997 264.5886,209.9997 C261.4936,209.9997 259.4196,209.6177 257.1216,208.6917 L257.8886,205.4047 C259.6436,205.9787 261.9726,206.4257 264.3976,206.4257 C266.0566,206.4257 267.2046,206.2977 267.8746,206.0747 C268.1296,205.8187 268.1946,205.5957 268.1946,205.0837 C268.1946,204.4467 267.8116,203.9357 266.4076,203.8077 L262.1956,203.4247 C260.2176,203.2337 258.9416,202.5317 258.0796,201.7017 L260.0576,196.7527 C258.7496,195.7637 257.9846,194.2637 257.9846,192.2847 C257.9846,188.4527 260.9836,186.4427 265.1306,186.4427 C266.2796,186.4427 267.3006,186.5707 268.1946,186.8267 L274.0336,186.8267 L273.7446,189.3157 Z" id="Fill-55" fill="#FFFFFF" mask="url(#mask-8)"></path>
                <path d="M281.0508,190.752 C280.7318,191.231 280.4128,192.156 280.2848,193.593 C282.0398,193.561 283.4118,193.529 284.4648,193.401 C285.2308,193.306 285.8368,193.21 286.2828,193.082 C286.5708,192.667 286.5708,192.252 286.5708,191.838 C286.5708,190.783 285.8688,189.891 284.0498,189.891 C282.7418,189.891 281.6898,190.337 281.0508,190.752 M285.0068,199.913 C286.4748,199.913 288.5168,199.69 289.7618,199.339 L289.2818,202.627 C287.5278,203.266 285.8048,203.553 284.2098,203.553 C278.5298,203.553 275.7858,200.552 275.7858,194.965 C275.7858,189.698 279.0088,186.442 284.1458,186.442 C288.1658,186.442 290.4628,188.294 290.4628,191.9 C290.4628,195.157 288.6448,196.562 284.6888,196.562 C283.9228,196.562 282.0398,196.466 280.2848,196.307 C280.5718,198.955 281.8808,199.913 285.0068,199.913" id="Fill-56" fill="#FFFFFF" mask="url(#mask-8)"></path>
                <path d="M318.0928,192.9551 L318.0928,203.3611 L313.4028,203.3611 L313.4028,193.1781 C313.4028,191.0081 312.7648,190.1451 310.8818,190.1451 C310.0528,190.3051 309.0638,190.5601 308.1068,190.8161 C308.2658,191.4541 308.3288,192.1251 308.3288,192.8591 L308.3288,203.3611 L303.6398,203.3611 L303.6398,193.1781 C303.6398,191.0081 303.0008,190.1451 301.1188,190.1451 C300.2568,190.3051 299.4278,190.5601 298.5668,190.8161 L298.5668,203.3611 L293.8758,203.3611 L293.8758,186.6661 L297.7368,186.6661 L298.2468,188.2301 C299.4908,187.3051 300.8958,186.4421 302.8418,186.4421 C304.6928,186.4421 306.0648,187.1441 306.9888,188.2941 C308.4888,187.2721 310.2118,186.4421 312.2218,186.4421 C316.2418,186.4421 318.0928,189.2201 318.0928,192.9551" id="Fill-57" fill="#FFFFFF" mask="url(#mask-8)"></path>
                <path d="M326.8018,190.752 C326.4828,191.231 326.1638,192.156 326.0358,193.593 C327.7908,193.561 329.1628,193.529 330.2158,193.401 C330.9818,193.306 331.5878,193.21 332.0338,193.082 C332.3218,192.667 332.3218,192.252 332.3218,191.838 C332.3218,190.783 331.6198,189.891 329.8008,189.891 C328.4928,189.891 327.4408,190.337 326.8018,190.752 M330.7578,199.913 C332.2258,199.913 334.2678,199.69 335.5128,199.339 L335.0328,202.627 C333.2788,203.266 331.5558,203.553 329.9608,203.553 C324.2808,203.553 321.5368,200.552 321.5368,194.965 C321.5368,189.698 324.7598,186.442 329.8968,186.442 C333.9168,186.442 336.2138,188.294 336.2138,191.9 C336.2138,195.157 334.3958,196.562 330.4398,196.562 C329.6738,196.562 327.7908,196.466 326.0358,196.307 C326.3228,198.955 327.6318,199.913 330.7578,199.913" id="Fill-58" fill="#FFFFFF" mask="url(#mask-8)"></path>
                <path d="M354.9102,192.9551 L354.9102,203.3611 L350.2202,203.3611 L350.2202,193.2101 C350.2202,191.1351 349.4862,190.1781 347.4752,190.1781 C346.5512,190.3371 345.4332,190.6241 344.3172,190.8791 L344.3172,203.3611 L339.6272,203.3611 L339.6272,186.6661 L343.4872,186.6661 L343.9982,188.2941 C345.4022,187.4001 347.1572,186.4421 348.9122,186.4421 C353.2832,186.4421 354.9102,189.2201 354.9102,192.9551" id="Fill-59" fill="#FFFFFF" mask="url(#mask-8)"></path>
                <path d="M370.3838,199.5625 L369.8098,203.0415 C368.8528,203.3615 367.7998,203.5205 366.2998,203.5205 C361.8968,203.5205 360.3018,201.0935 360.3018,196.7205 L360.3018,190.2415 L357.3338,190.2415 L357.8448,186.6665 L360.5258,186.6665 L361.5458,182.6115 L364.9918,182.6115 L364.9918,186.6665 L370.3208,186.6665 L369.8098,190.2415 L364.9918,190.2415 L364.9918,196.6575 C364.9918,198.8285 365.6298,199.8175 367.5128,199.8175 C368.4378,199.8175 369.5548,199.7535 370.3838,199.5625" id="Fill-60" fill="#FFFFFF" mask="url(#mask-8)"></path>
                <path d="M629.3506,202.4668 L629.9566,200.0408 C631.1056,200.4238 632.5736,200.6798 634.5196,200.7108 C636.0196,200.7108 637.3596,200.2648 638.1246,199.6578 C638.7626,198.8598 639.2416,196.7208 639.2416,194.1678 L639.3056,180.3768 L642.0176,180.3768 L642.5916,182.8998 L642.5596,195.0298 C642.5596,200.3928 639.8476,203.5208 634.8386,203.5208 C632.5406,203.5208 630.6596,203.0408 629.3506,202.4668" id="Fill-61" fill="#FFFFFF" mask="url(#mask-8)"></path>
                <path d="M653.375,201.1904 C654.364,200.9984 655.896,200.5844 657.045,200.2324 L657.045,195.8904 C655.769,195.9234 654.716,195.9234 653.854,195.9864 C652.067,196.1154 651.015,196.3064 650.312,196.6254 C649.897,197.0724 649.802,197.7744 649.802,198.4764 C649.802,199.9134 650.663,201.1904 653.375,201.1904 M660.075,193.6254 L660.075,203.3614 L657.555,203.3614 L657.204,201.9234 C655.928,202.6274 654.236,203.5204 652.45,203.5204 C649.195,203.5204 646.898,202.1154 646.898,198.3804 C646.898,195.3804 649.132,193.7524 652.705,193.6884 C653.535,193.7204 655.258,193.7524 657.045,193.8804 L657.045,192.8594 C657.045,190.0494 655.354,189.1874 652.833,189.1874 C651.27,189.1874 649.355,189.3784 648.079,189.8264 L648.43,187.7184 C649.706,187.1444 651.62,186.6974 653.12,186.6974 C658.448,186.6974 660.075,189.2834 660.075,193.6254" id="Fill-62" fill="#FFFFFF" mask="url(#mask-8)"></path>
                <path d="M679.2822,192.9863 L679.2822,203.3613 L676.0602,203.3613 L676.0602,193.2423 C676.0602,190.6563 675.2942,189.2833 672.4862,189.2833 C671.3382,189.5073 669.6782,189.9223 668.2752,190.3043 L668.2752,203.3613 L665.0532,203.3613 L665.0532,186.9223 L667.7012,186.9223 L668.1472,188.4853 C669.8392,187.6233 671.5932,186.6973 673.3802,186.6973 C678.1022,186.6973 679.2822,190.0173 679.2822,192.9863" id="Fill-63" fill="#FFFFFF" mask="url(#mask-8)"></path>
                <path d="M698.3623,186.9219 L698.3623,203.3609 L695.6813,203.3609 L695.2673,201.7969 C693.6393,202.6269 691.8843,203.5209 690.0663,203.5209 C685.3443,203.5209 684.2593,200.2009 684.2593,197.1999 L684.2593,186.9219 L687.4823,186.9219 L687.4823,196.9449 C687.4823,199.5629 688.1833,200.9019 690.9923,200.9019 C692.1403,200.7109 693.7673,200.3279 695.1393,200.0099 L695.1393,186.9219 L698.3623,186.9219 Z" id="Fill-64" fill="#FFFFFF" mask="url(#mask-8)"></path>
                <path d="M709.1455,201.1904 C710.1345,200.9984 711.6665,200.5844 712.8155,200.2324 L712.8155,195.8904 C711.5395,195.9234 710.4865,195.9234 709.6245,195.9864 C707.8375,196.1154 706.7855,196.3064 706.0825,196.6254 C705.6675,197.0724 705.5725,197.7744 705.5725,198.4764 C705.5725,199.9134 706.4335,201.1904 709.1455,201.1904 M715.8455,193.6254 L715.8455,203.3614 L713.3255,203.3614 L712.9745,201.9234 C711.6985,202.6274 710.0065,203.5204 708.2205,203.5204 C704.9655,203.5204 702.6685,202.1154 702.6685,198.3804 C702.6685,195.3804 704.9025,193.7524 708.4755,193.6884 C709.3055,193.7204 711.0285,193.7524 712.8155,193.8804 L712.8155,192.8594 C712.8155,190.0494 711.1245,189.1874 708.6035,189.1874 C707.0405,189.1874 705.1255,189.3784 703.8495,189.8264 L704.2005,187.7184 C705.4765,187.1444 707.3905,186.6974 708.8905,186.6974 C714.2185,186.6974 715.8455,189.2834 715.8455,193.6254" id="Fill-65" fill="#FFFFFF" mask="url(#mask-8)"></path>
                <path d="M730.4902,186.8896 L729.8522,189.5386 C729.2142,189.4436 728.6082,189.3786 727.6512,189.3786 C726.5342,189.5706 725.3212,189.8576 724.0462,190.2086 L724.0462,203.3616 L720.8232,203.3616 L720.8232,186.9216 L723.4712,186.9216 L723.9182,188.4856 C725.5452,187.5916 727.1402,186.6976 728.6392,186.6976 C729.3422,186.6976 730.0112,186.7616 730.4902,186.8896" id="Fill-66" fill="#FFFFFF" mask="url(#mask-8)"></path>
                <path d="M731.7021,209.1699 L732.2131,206.9679 C733.0111,207.2229 733.7121,207.3519 734.4771,207.3519 C735.4351,207.3519 735.9141,207.2229 736.4881,206.9039 C737.2541,206.1389 737.8601,204.7659 738.4661,203.0739 L731.6701,186.9219 L735.1161,186.9219 L739.9661,199.9129 L744.4961,186.9219 L747.6551,186.9219 L741.5291,202.8179 C739.7741,207.4149 738.4661,209.8729 734.7651,209.8729 C733.7761,209.8729 732.6281,209.5859 731.7021,209.1699" id="Fill-67" fill="#FFFFFF" mask="url(#mask-8)"></path>
                <path d="M758.4385,201.4141 C758.4385,197.2321 760.2895,195.7641 764.0855,194.0721 L765.6175,193.4011 C767.4045,192.6031 768.4245,192.0931 768.4245,190.7831 C768.4245,189.1561 767.2765,188.4531 764.3095,188.4531 C762.1395,188.4531 759.9695,188.8691 758.6625,189.1561 L759.1085,186.6011 C760.3215,186.2191 762.3945,185.7711 764.5645,185.7711 C768.9035,185.7711 771.8715,187.1131 771.8715,190.6241 C771.8715,193.0821 769.8615,194.5511 767.3405,195.6031 L765.9685,196.1791 C763.1605,197.3281 761.7895,198.2541 761.7895,200.4241 L761.7895,200.7111 L771.8385,200.7431 L771.4885,203.3611 L758.4385,203.3611 L758.4385,201.4141 Z" id="Fill-68" fill="#FFFFFF" mask="url(#mask-8)"></path>
                <path d="M786.6436,200.0098 C787.3766,199.2108 787.9516,196.8168 787.9516,194.6778 C787.9516,190.1138 786.3246,188.2938 783.2296,188.2938 C781.3786,188.2938 780.3896,188.7738 779.5916,189.3158 C778.8586,190.0818 778.2516,192.5388 778.2516,194.6138 C778.2516,199.2428 779.8476,200.9978 783.0056,200.9978 C784.8566,200.9978 785.8136,200.5198 786.6436,200.0098 M774.9976,194.6138 C774.9976,188.6768 778.6346,185.8048 783.1016,185.8048 C787.7596,185.8048 791.2056,188.2618 791.2056,194.6778 C791.2056,200.7758 787.6326,203.4888 783.1016,203.4888 C778.4116,203.4888 774.9976,201.1268 774.9976,194.6138" id="Fill-69" fill="#FFFFFF" mask="url(#mask-8)"></path>
                <polygon id="Fill-70" fill="#FFFFFF" mask="url(#mask-8)" points="809.3916 200.8066 809.0086 203.3616 795.6406 203.3616 796.0236 200.8066 801.4146 200.8066 801.4146 188.7736 795.3846 189.8266 795.7676 187.4636 801.8296 185.9006 804.5416 185.9006 804.5416 200.8066"></polygon>
                <polygon id="Fill-71" fill="#FFFFFF" mask="url(#mask-8)" points="821.5488 188.6133 809.7758 188.6133 810.1258 185.9003 824.8028 185.9003 824.8028 188.5493 816.3798 208.6603 812.8698 208.6603"></polygon>
                <rect id="Rectangle-6" fill="#D8D8D8" mask="url(#mask-8)" x="0" y="153.934" width="85" height="2"></rect>
            </g>
        </g>
    </g>
</svg>