<?xml version="1.0" encoding="UTF-8"?>
<svg width="927px" height="326px" viewBox="0 0 927 326" version="1.1" xmlns="http://www.w3.org/2000/svg" xmlns:xlink="http://www.w3.org/1999/xlink">
    <!-- Generator: Sketch 41 (35326) - http://www.bohemiancoding.com/sketch -->
    <title>calligraphic-pen</title>
    <desc>Created with Sketch.</desc>
    <defs></defs>
    <g id="Page-1" stroke="none" stroke-width="1" fill="none" fill-rule="evenodd">
        <g id="Artboard" transform="translate(-110.000000, -1658.000000)" fill="#677B9C">
            <g id="section-neo" transform="translate(0.000000, 1540.000000)">
                <path d="M158.744,119.16 L150.68,119.16 L147.296,140.4 L127.136,140.4 L129.368,126.144 L129.08,119.16 L121.016,119.16 L112.808,171 L122.312,171 L125.84,148.752 L146,148.752 L142.472,171 L152.048,171 L159.104,126.144 L158.744,119.16 Z M174.084,128.664 C175.236,128.664 176.748,128.592 178.044,128.016 C178.836,127.152 179.484,125.784 179.7,124.488 C180.132,120.96 178.404,119.088 174.732,119.088 C173.652,119.088 172.068,119.16 170.844,119.736 C170.052,120.672 169.404,121.968 169.188,123.264 C168.756,126.792 170.484,128.664 174.084,128.664 Z M162.708,171 L171.852,171 L177.756,133.56 L168.612,133.56 L162.708,171 Z M207.568,133.056 C203.896,133.056 199.72,135.144 196.192,137.016 L195.688,133.56 L188.2,133.56 L182.296,171 L191.44,171 L195.904,142.488 C198.712,141.768 201.808,140.976 204.4,140.544 C209.368,140.544 210.448,142.992 209.728,147.816 L206.056,171 L215.2,171 L218.872,147.888 C220.096,140.112 217.792,133.056 207.568,133.056 Z M240.908,140.688 L251.924,140.688 L254.084,133.56 L242.06,133.56 L243.5,124.416 L236.732,124.416 L233.276,133.56 L227.3,133.56 L225.14,140.688 L231.764,140.688 L229.316,156.024 C227.876,165.456 230.108,171.36 240.116,171.36 C242.78,171.36 245.3,170.928 247.46,170.208 L249.26,163.296 C247.244,163.8 245.012,163.944 242.636,163.944 C238.748,163.944 237.596,161.784 238.388,156.744 L240.908,140.688 Z M265.464,171.432 C274.464,171.432 280.8,168.624 282.024,160.848 C283.032,154.512 280.512,150.624 272.592,148.824 C268.128,147.672 265.32,147.168 265.536,144.216 C265.608,143.136 266.112,142.128 266.76,141.48 C268.128,140.76 270.72,140.328 273.816,140.4 C276.912,140.4 279.792,140.832 282.384,141.48 L284.4,135.216 C281.808,134.136 277.488,133.056 274.248,133.056 C264.816,133.056 258.264,136.152 257.04,143.784 C255.888,150.984 259.992,153.792 265.824,155.304 C270.936,156.6 273.384,157.104 273.024,160.416 C272.88,161.712 272.376,162.576 271.728,163.224 C270.072,163.8 267.84,164.088 265.536,164.088 C261.432,164.088 257.4,163.44 254.592,162.576 L252.648,168.84 C255.672,170.136 260.28,171.432 265.464,171.432 Z M321.704,171.432 C331.424,171.432 339.704,165.456 341.72,152.928 C343.736,140.184 337.76,133.056 326.888,133.056 C317.312,133.056 308.816,139.464 306.944,151.416 C304.856,164.304 310.832,171.432 321.704,171.432 Z M322.352,164.232 C316.808,164.232 314.72,159.912 315.944,152.352 C316.736,147.24 318.248,143.856 319.472,142.488 C321.056,141.408 323.288,140.184 326.168,140.184 C331.712,140.184 333.8,144.36 332.648,151.992 C331.856,157.032 330.272,160.632 328.976,162 C327.392,163.08 325.376,164.232 322.352,164.232 Z M372.9,125.856 C374.556,125.856 376.572,126.072 378.3,126.576 L380.388,120.528 C378.012,119.52 374.7,118.728 371.748,118.728 C362.82,118.728 357.564,124.128 355.836,133.56 L350.22,133.56 L348.06,140.688 L354.684,140.688 L349.86,171 L359.004,171 L363.828,140.688 L374.412,140.688 L376.572,133.56 L364.98,133.56 C365.484,130.68 366.564,128.232 367.428,127.296 C368.796,126.504 370.668,125.856 372.9,125.856 Z M409.916,140.688 L420.932,140.688 L423.092,133.56 L411.068,133.56 L412.508,124.416 L405.74,124.416 L402.284,133.56 L396.308,133.56 L394.148,140.688 L400.772,140.688 L398.324,156.024 C396.884,165.456 399.116,171.36 409.124,171.36 C411.788,171.36 414.308,170.928 416.468,170.208 L418.268,163.296 C416.252,163.8 414.02,163.944 411.644,163.944 C407.756,163.944 406.604,161.784 407.396,156.744 L409.916,140.688 Z M449.16,133.056 C445.632,133.056 441.744,135.072 438.36,136.944 L440.16,125.568 L439.872,119.16 L432.096,119.16 L423.888,171 L433.032,171 L437.496,142.488 C440.304,141.768 443.4,140.976 445.992,140.544 C450.96,140.544 452.04,142.992 451.32,147.816 L447.648,171 L456.792,171 L460.464,147.888 C461.688,140.112 459.384,133.056 449.16,133.056 Z M487.756,133.056 C477.244,133.056 469.18,139.752 467.308,151.56 C465.292,164.448 470.26,171.432 482.86,171.432 C486.172,171.432 489.844,170.856 493.66,169.416 L495.388,162.72 C492.148,163.584 487.828,164.16 484.444,164.16 C477.892,164.16 474.868,161.568 475.444,154.656 C479.62,155.088 484.3,155.304 486.244,155.304 C494.596,155.304 498.772,152.64 499.852,145.872 C501.22,137.304 496.324,133.056 487.756,133.056 Z M492.292,144.504 C492.148,145.584 491.788,147.24 490.78,148.104 C489.772,148.464 488.332,148.752 486.46,148.896 C483.94,149.112 480.628,149.256 476.524,149.328 C477.46,145.944 478.612,143.64 479.404,142.56 C481.204,141.336 483.652,139.896 487.18,139.896 C490.996,139.896 492.724,141.984 492.292,144.504 Z M536.436,171.432 C539.748,171.432 543.06,170.928 546.444,169.704 L548.1,163.008 C544.788,163.656 542.052,163.944 538.668,163.944 C532.692,163.944 529.884,160.416 531.036,152.784 C531.828,148.032 533.844,144.432 535.212,142.92 C536.868,141.84 539.82,140.544 542.988,140.472 C545.94,140.472 548.1,140.76 550.404,141.48 L552.492,135.144 C549.9,134.064 546.444,133.056 542.628,133.056 C532.62,133.056 523.98,139.464 522.036,151.632 C520.092,164.304 525.996,171.432 536.436,171.432 Z M571.864,133.056 C568.552,133.056 564.232,133.92 560.776,135.288 L559.048,141.768 C561.856,140.904 566.392,140.328 570.064,140.328 C574.888,140.328 577.624,141.552 577.624,145.296 C577.624,145.872 577.552,146.448 577.48,147.096 L577.12,149.4 C573.376,149.04 569.344,148.896 567.544,148.896 C558.976,149.112 553.288,153.504 553.288,162 C553.288,168.552 557.536,171.432 564.088,171.432 C567.976,171.432 572.08,169.272 574.816,167.688 L575.104,171 L582.304,171 L585.76,149.4 C586.048,147.816 586.12,146.232 586.12,144.864 C586.12,137.376 582.232,133.056 571.864,133.056 Z M561.424,160.776 C561.424,159.192 562.144,157.248 563.368,156.384 C564.808,155.88 566.824,155.448 570.064,155.16 C571.72,155.016 573.808,154.944 576.256,154.872 L575.032,162.792 C572.584,163.512 569.416,164.448 567.04,164.664 C562.792,164.736 561.424,162.864 561.424,160.776 Z M599.012,171.36 C601.604,171.36 604.196,171 606.356,170.352 L607.58,164.952 L601.388,163.872 L607.364,125.568 L607.076,119.16 L599.3,119.16 L592.388,162.792 C591.524,168.192 594.332,171.36 599.012,171.36 Z M619.464,171.36 C622.056,171.36 624.648,171 626.808,170.352 L628.032,164.952 L621.84,163.872 L627.816,125.568 L627.528,119.16 L619.752,119.16 L612.84,162.792 C611.976,168.192 614.784,171.36 619.464,171.36 Z M643.732,128.664 C644.884,128.664 646.396,128.592 647.692,128.016 C648.484,127.152 649.132,125.784 649.348,124.488 C649.78,120.96 648.052,119.088 644.38,119.088 C643.3,119.088 641.716,119.16 640.492,119.736 C639.7,120.672 639.052,121.968 638.836,123.264 C638.404,126.792 640.132,128.664 643.732,128.664 Z M632.356,171 L641.5,171 L647.404,133.56 L638.26,133.56 L632.356,171 Z M690.68,133.848 L677.36,133.848 C675.632,133.344 673.544,133.056 671.168,133.056 C662.6,133.056 655.688,137.232 654.536,145.368 C653.888,149.904 655.04,153.36 657.632,155.664 L651.656,166.968 C653.096,168.696 655.76,170.568 660.008,170.928 L669.296,171.864 C672.824,172.224 673.688,173.52 673.544,175.248 C673.4,176.4 673.04,177.192 672.32,177.912 C670.592,178.56 667.496,178.92 663.104,178.92 C658.064,178.92 653.24,178.128 649.568,176.616 L647.408,182.952 C651.944,184.896 656.408,185.976 663.32,185.976 C674.408,185.976 681.392,183.384 682.4,175.896 C683.408,168.408 679.592,165.456 671.024,164.664 L663.32,164.016 C661.952,163.944 660.8,163.584 660.224,163.08 L662.6,158.328 C664.328,158.76 666.344,159.048 668.504,159.048 C677.792,159.048 683.984,154.8 685.064,146.88 C685.496,143.856 684.704,141.552 683.552,139.608 L689.24,139.104 L690.68,133.848 Z M677.288,145.8 C676.856,148.608 675.704,150.336 674.696,151.2 C673.328,151.848 671.528,152.496 668.72,152.496 C664.544,152.496 662.096,150.12 662.528,146.376 C662.888,143.496 663.968,141.912 664.976,140.976 C666.344,140.4 668.144,139.752 670.952,139.752 C675.056,139.752 677.648,142.056 677.288,145.8 Z M715.02,133.056 C711.78,133.056 708.54,134.784 704.868,136.944 L704.364,133.56 L696.876,133.56 L690.972,171 L700.116,171 L704.652,142.416 C707.244,141.768 710.124,141.192 712.284,140.832 C714.084,140.832 715.74,140.832 716.964,141.12 L719.268,133.56 C718.188,133.272 716.82,133.056 715.02,133.056 Z M735.76,133.056 C732.448,133.056 728.128,133.92 724.672,135.288 L722.944,141.768 C725.752,140.904 730.288,140.328 733.96,140.328 C738.784,140.328 741.52,141.552 741.52,145.296 C741.52,145.872 741.448,146.448 741.376,147.096 L741.016,149.4 C737.272,149.04 733.24,148.896 731.44,148.896 C722.872,149.112 717.184,153.504 717.184,162 C717.184,168.552 721.432,171.432 727.984,171.432 C731.872,171.432 735.976,169.272 738.712,167.688 L739,171 L746.2,171 L749.656,149.4 C749.944,147.816 750.016,146.232 750.016,144.864 C750.016,137.376 746.128,133.056 735.76,133.056 Z M725.32,160.776 C725.32,159.192 726.04,157.248 727.264,156.384 C728.704,155.88 730.72,155.448 733.96,155.16 C735.616,155.016 737.704,154.944 740.152,154.872 L738.928,162.792 C736.48,163.512 733.312,164.448 730.936,164.664 C726.688,164.736 725.32,162.864 725.32,160.776 Z M779.252,133.056 C775.94,133.056 772.052,134.712 768.74,136.872 L768.308,133.56 L760.892,133.56 L753.692,179.208 L753.98,185.688 L761.684,185.688 L764.42,168.264 C766.724,170.064 769.604,171.36 772.772,171.36 C782.204,171.36 789.476,165.384 791.492,152.856 C793.292,141.192 788.972,133.056 779.252,133.056 Z M782.492,151.632 C781.628,156.96 780.044,160.632 778.748,161.928 C777.02,163.152 774.428,164.232 771.548,164.232 C769.604,164.232 767.084,163.872 765.212,163.08 L768.524,142.2 C770.9,141.48 773.492,140.688 775.724,140.4 C781.052,140.4 783.716,143.424 782.492,151.632 Z M822.384,133.056 C818.856,133.056 814.968,135.072 811.584,136.944 L813.384,125.568 L813.096,119.16 L805.32,119.16 L797.112,171 L806.256,171 L810.72,142.488 C813.528,141.768 816.624,140.976 819.216,140.544 C824.184,140.544 825.264,142.992 824.544,147.816 L820.872,171 L830.016,171 L833.688,147.888 C834.912,140.112 832.608,133.056 822.384,133.056 Z M851.044,128.664 C852.196,128.664 853.708,128.592 855.004,128.016 C855.796,127.152 856.444,125.784 856.66,124.488 C857.092,120.96 855.364,119.088 851.692,119.088 C850.612,119.088 849.028,119.16 847.804,119.736 C847.012,120.672 846.364,121.968 846.148,123.264 C845.716,126.792 847.444,128.664 851.044,128.664 Z M839.668,171 L848.812,171 L854.716,133.56 L845.572,133.56 L839.668,171 Z M874.808,171.432 C878.12,171.432 881.432,170.928 884.816,169.704 L886.472,163.008 C883.16,163.656 880.424,163.944 877.04,163.944 C871.064,163.944 868.256,160.416 869.408,152.784 C870.2,148.032 872.216,144.432 873.584,142.92 C875.24,141.84 878.192,140.544 881.36,140.472 C884.312,140.472 886.472,140.76 888.776,141.48 L890.864,135.144 C888.272,134.064 884.816,133.056 881,133.056 C870.992,133.056 862.352,139.464 860.408,151.632 C858.464,164.304 864.368,171.432 874.808,171.432 Z M934.432,133.056 C931.12,133.056 927.232,134.712 923.92,136.872 L923.488,133.56 L916.072,133.56 L908.872,179.208 L909.16,185.688 L916.864,185.688 L919.6,168.264 C921.904,170.064 924.784,171.36 927.952,171.36 C937.384,171.36 944.656,165.384 946.672,152.856 C948.472,141.192 944.152,133.056 934.432,133.056 Z M937.672,151.632 C936.808,156.96 935.224,160.632 933.928,161.928 C932.2,163.152 929.608,164.232 926.728,164.232 C924.784,164.232 922.264,163.872 920.392,163.08 L923.704,142.2 C926.08,141.48 928.672,140.688 930.904,140.4 C936.232,140.4 938.896,143.424 937.672,151.632 Z M973.604,133.056 C963.092,133.056 955.028,139.752 953.156,151.56 C951.14,164.448 956.108,171.432 968.708,171.432 C972.02,171.432 975.692,170.856 979.508,169.416 L981.236,162.72 C977.996,163.584 973.676,164.16 970.292,164.16 C963.74,164.16 960.716,161.568 961.292,154.656 C965.468,155.088 970.148,155.304 972.092,155.304 C980.444,155.304 984.62,152.64 985.7,145.872 C987.068,137.304 982.172,133.056 973.604,133.056 Z M978.14,144.504 C977.996,145.584 977.636,147.24 976.628,148.104 C975.62,148.464 974.18,148.752 972.308,148.896 C969.788,149.112 966.476,149.256 962.372,149.328 C963.308,145.944 964.46,143.64 965.252,142.56 C967.052,141.336 969.5,139.896 973.028,139.896 C976.844,139.896 978.572,141.984 978.14,144.504 Z M1014.144,133.056 C1010.472,133.056 1006.296,135.144 1002.768,137.016 L1002.264,133.56 L994.776,133.56 L988.872,171 L998.016,171 L1002.48,142.488 C1005.288,141.768 1008.384,140.976 1010.976,140.544 C1015.944,140.544 1017.024,142.992 1016.304,147.816 L1012.632,171 L1021.776,171 L1025.448,147.888 C1026.672,140.112 1024.368,133.056 1014.144,133.056 Z M136.64,219.056 C133.472,219.056 130.016,220.496 126.92,222.584 L128.648,211.568 L128.432,205.16 L120.728,205.16 L112.52,257 L120.44,257 L121.808,253.616 C124.04,255.776 126.56,257.432 131.096,257.432 C139.808,257.432 147.008,251.744 149.024,239.144 C150.824,227.84 146.36,219.056 136.64,219.056 Z M139.952,237.92 C139.16,243.68 137.504,246.704 136.352,248 C134.768,249.152 132.608,250.304 129.152,250.304 C126.848,250.304 124.616,249.584 122.888,248.576 L126.056,228.2 C128.432,227.48 131.096,226.688 133.328,226.4 C138.8,226.4 141.176,230.144 139.952,237.92 Z M178.692,219.056 C175.452,219.056 172.212,220.784 168.54,222.944 L168.036,219.56 L160.548,219.56 L154.644,257 L163.788,257 L168.324,228.416 C170.916,227.768 173.796,227.192 175.956,226.832 C177.756,226.832 179.412,226.832 180.636,227.12 L182.94,219.56 C181.86,219.272 180.492,219.056 178.692,219.056 Z M203.248,219.056 C192.736,219.056 184.672,225.752 182.8,237.56 C180.784,250.448 185.752,257.432 198.352,257.432 C201.664,257.432 205.336,256.856 209.152,255.416 L210.88,248.72 C207.64,249.584 203.32,250.16 199.936,250.16 C193.384,250.16 190.36,247.568 190.936,240.656 C195.112,241.088 199.792,241.304 201.736,241.304 C210.088,241.304 214.264,238.64 215.344,231.872 C216.712,223.304 211.816,219.056 203.248,219.056 Z M207.784,230.504 C207.64,231.584 207.28,233.24 206.272,234.104 C205.264,234.464 203.824,234.752 201.952,234.896 C199.432,235.112 196.12,235.256 192.016,235.328 C192.952,231.944 194.104,229.64 194.896,228.56 C196.696,227.336 199.144,225.896 202.672,225.896 C206.488,225.896 208.216,227.984 207.784,230.504 Z M237.02,219.056 C233.708,219.056 229.388,219.92 225.932,221.288 L224.204,227.768 C227.012,226.904 231.548,226.328 235.22,226.328 C240.044,226.328 242.78,227.552 242.78,231.296 C242.78,231.872 242.708,232.448 242.636,233.096 L242.276,235.4 C238.532,235.04 234.5,234.896 232.7,234.896 C224.132,235.112 218.444,239.504 218.444,248 C218.444,254.552 222.692,257.432 229.244,257.432 C233.132,257.432 237.236,255.272 239.972,253.688 L240.26,257 L247.46,257 L250.916,235.4 C251.204,233.816 251.276,232.232 251.276,230.864 C251.276,223.376 247.388,219.056 237.02,219.056 Z M226.58,246.776 C226.58,245.192 227.3,243.248 228.524,242.384 C229.964,241.88 231.98,241.448 235.22,241.16 C236.876,241.016 238.964,240.944 241.412,240.872 L240.188,248.792 C237.74,249.512 234.572,250.448 232.196,250.664 C227.948,250.736 226.58,248.864 226.58,246.776 Z M280.44,236.48 L295.416,219.56 L285.192,219.56 L273.888,233.096 C272.376,233.096 270.72,233.168 268.848,233.456 L272.304,211.568 L271.944,205.16 L264.456,205.16 L256.248,257 L265.176,257 L267.84,240.08 L269.928,240.08 C272.52,240.08 273.816,241.448 274.752,243.392 L280.728,257 L290.736,257 L283.032,240.8 C282.312,239.216 281.448,237.704 280.44,236.48 Z M329.696,226.688 L340.712,226.688 L342.872,219.56 L330.848,219.56 L332.288,210.416 L325.52,210.416 L322.064,219.56 L316.088,219.56 L313.928,226.688 L320.552,226.688 L318.104,242.024 C316.664,251.456 318.896,257.36 328.904,257.36 C331.568,257.36 334.088,256.928 336.248,256.208 L338.048,249.296 C336.032,249.8 333.8,249.944 331.424,249.944 C327.536,249.944 326.384,247.784 327.176,242.744 L329.696,226.688 Z M368.94,219.056 C365.412,219.056 361.524,221.072 358.14,222.944 L359.94,211.568 L359.652,205.16 L351.876,205.16 L343.668,257 L352.812,257 L357.276,228.488 C360.084,227.768 363.18,226.976 365.772,226.544 C370.74,226.544 371.82,228.992 371.1,233.816 L367.428,257 L376.572,257 L380.244,233.888 C381.468,226.112 379.164,219.056 368.94,219.056 Z M407.536,219.056 C397.024,219.056 388.96,225.752 387.088,237.56 C385.072,250.448 390.04,257.432 402.64,257.432 C405.952,257.432 409.624,256.856 413.44,255.416 L415.168,248.72 C411.928,249.584 407.608,250.16 404.224,250.16 C397.672,250.16 394.648,247.568 395.224,240.656 C399.4,241.088 404.08,241.304 406.024,241.304 C414.376,241.304 418.552,238.64 419.632,231.872 C421,223.304 416.104,219.056 407.536,219.056 Z M412.072,230.504 C411.928,231.584 411.568,233.24 410.56,234.104 C409.552,234.464 408.112,234.752 406.24,234.896 C403.72,235.112 400.408,235.256 396.304,235.328 C397.24,231.944 398.392,229.64 399.184,228.56 C400.984,227.336 403.432,225.896 406.96,225.896 C410.776,225.896 412.504,227.984 412.072,230.504 Z M464.928,219.056 C461.616,219.056 457.728,220.712 454.416,222.872 L453.984,219.56 L446.568,219.56 L439.368,265.208 L439.656,271.688 L447.36,271.688 L450.096,254.264 C452.4,256.064 455.28,257.36 458.448,257.36 C467.88,257.36 475.152,251.384 477.168,238.856 C478.968,227.192 474.648,219.056 464.928,219.056 Z M468.168,237.632 C467.304,242.96 465.72,246.632 464.424,247.928 C462.696,249.152 460.104,250.232 457.224,250.232 C455.28,250.232 452.76,249.872 450.888,249.08 L454.2,228.2 C456.576,227.48 459.168,226.688 461.4,226.4 C466.728,226.4 469.392,229.424 468.168,237.632 Z M506.836,219.056 C503.596,219.056 500.356,220.784 496.684,222.944 L496.18,219.56 L488.692,219.56 L482.788,257 L491.932,257 L496.468,228.416 C499.06,227.768 501.94,227.192 504.1,226.832 C505.9,226.832 507.556,226.832 508.78,227.12 L511.084,219.56 C510.004,219.272 508.636,219.056 506.836,219.056 Z M522.32,214.664 C523.472,214.664 524.984,214.592 526.28,214.016 C527.072,213.152 527.72,211.784 527.936,210.488 C528.368,206.96 526.64,205.088 522.968,205.088 C521.888,205.088 520.304,205.16 519.08,205.736 C518.288,206.672 517.64,207.968 517.424,209.264 C516.992,212.792 518.72,214.664 522.32,214.664 Z M510.944,257 L520.088,257 L525.992,219.56 L516.848,219.56 L510.944,257 Z M541.116,257.432 C550.116,257.432 556.452,254.624 557.676,246.848 C558.684,240.512 556.164,236.624 548.244,234.824 C543.78,233.672 540.972,233.168 541.188,230.216 C541.26,229.136 541.764,228.128 542.412,227.48 C543.78,226.76 546.372,226.328 549.468,226.4 C552.564,226.4 555.444,226.832 558.036,227.48 L560.052,221.216 C557.46,220.136 553.14,219.056 549.9,219.056 C540.468,219.056 533.916,222.152 532.692,229.784 C531.54,236.984 535.644,239.792 541.476,241.304 C546.588,242.6 549.036,243.104 548.676,246.416 C548.532,247.712 548.028,248.576 547.38,249.224 C545.724,249.8 543.492,250.088 541.188,250.088 C537.084,250.088 533.052,249.44 530.244,248.576 L528.3,254.84 C531.324,256.136 535.932,257.432 541.116,257.432 Z M579.568,226.688 L590.584,226.688 L592.744,219.56 L580.72,219.56 L582.16,210.416 L575.392,210.416 L571.936,219.56 L565.96,219.56 L563.8,226.688 L570.424,226.688 L567.976,242.024 C566.536,251.456 568.768,257.36 578.776,257.36 C581.44,257.36 583.96,256.928 586.12,256.208 L587.92,249.296 C585.904,249.8 583.672,249.944 581.296,249.944 C577.408,249.944 576.256,247.784 577.048,242.744 L579.568,226.688 Z M604.916,214.664 C606.068,214.664 607.58,214.592 608.876,214.016 C609.668,213.152 610.316,211.784 610.532,210.488 C610.964,206.96 609.236,205.088 605.564,205.088 C604.484,205.088 602.9,205.16 601.676,205.736 C600.884,206.672 600.236,207.968 600.02,209.264 C599.588,212.792 601.316,214.664 604.916,214.664 Z M593.54,257 L602.684,257 L608.588,219.56 L599.444,219.56 L593.54,257 Z M638.4,219.056 C634.728,219.056 630.552,221.144 627.024,223.016 L626.52,219.56 L619.032,219.56 L613.128,257 L622.272,257 L626.736,228.488 C629.544,227.768 632.64,226.976 635.232,226.544 C640.2,226.544 641.28,228.992 640.56,233.816 L636.888,257 L646.032,257 L649.704,233.888 C650.928,226.112 648.624,219.056 638.4,219.056 Z M676.996,219.056 C666.484,219.056 658.42,225.752 656.548,237.56 C654.532,250.448 659.5,257.432 672.1,257.432 C675.412,257.432 679.084,256.856 682.9,255.416 L684.628,248.72 C681.388,249.584 677.068,250.16 673.684,250.16 C667.132,250.16 664.108,247.568 664.684,240.656 C668.86,241.088 673.54,241.304 675.484,241.304 C683.836,241.304 688.012,238.64 689.092,231.872 C690.46,223.304 685.564,219.056 676.996,219.056 Z M681.532,230.504 C681.388,231.584 681.028,233.24 680.02,234.104 C679.012,234.464 677.572,234.752 675.7,234.896 C673.18,235.112 669.868,235.256 665.764,235.328 C666.7,231.944 667.852,229.64 668.644,228.56 C670.444,227.336 672.892,225.896 676.42,225.896 C680.236,225.896 681.964,227.984 681.532,230.504 Z M720.708,257.432 C729.708,257.432 736.044,254.624 737.268,246.848 C738.276,240.512 735.756,236.624 727.836,234.824 C723.372,233.672 720.564,233.168 720.78,230.216 C720.852,229.136 721.356,228.128 722.004,227.48 C723.372,226.76 725.964,226.328 729.06,226.4 C732.156,226.4 735.036,226.832 737.628,227.48 L739.644,221.216 C737.052,220.136 732.732,219.056 729.492,219.056 C720.06,219.056 713.508,222.152 712.284,229.784 C711.132,236.984 715.236,239.792 721.068,241.304 C726.18,242.6 728.628,243.104 728.268,246.416 C728.124,247.712 727.62,248.576 726.972,249.224 C725.316,249.8 723.084,250.088 720.78,250.088 C716.676,250.088 712.644,249.44 709.836,248.576 L707.892,254.84 C710.916,256.136 715.524,257.432 720.708,257.432 Z M761.608,219.056 C758.296,219.056 753.976,219.92 750.52,221.288 L748.792,227.768 C751.6,226.904 756.136,226.328 759.808,226.328 C764.632,226.328 767.368,227.552 767.368,231.296 C767.368,231.872 767.296,232.448 767.224,233.096 L766.864,235.4 C763.12,235.04 759.088,234.896 757.288,234.896 C748.72,235.112 743.032,239.504 743.032,248 C743.032,254.552 747.28,257.432 753.832,257.432 C757.72,257.432 761.824,255.272 764.56,253.688 L764.848,257 L772.048,257 L775.504,235.4 C775.792,233.816 775.864,232.232 775.864,230.864 C775.864,223.376 771.976,219.056 761.608,219.056 Z M751.168,246.776 C751.168,245.192 751.888,243.248 753.112,242.384 C754.552,241.88 756.568,241.448 759.808,241.16 C761.464,241.016 763.552,240.944 766,240.872 L764.776,248.792 C762.328,249.512 759.16,250.448 756.784,250.664 C752.536,250.736 751.168,248.864 751.168,246.776 Z M806.108,219.056 C802.436,219.056 798.26,221.144 794.732,223.016 L794.228,219.56 L786.74,219.56 L780.836,257 L789.98,257 L794.444,228.488 C797.252,227.768 800.348,226.976 802.94,226.544 C807.908,226.544 808.988,228.992 808.268,233.816 L804.596,257 L813.74,257 L817.412,233.888 C818.636,226.112 816.332,219.056 806.108,219.056 Z M833.976,257.432 C842.976,257.432 849.312,254.624 850.536,246.848 C851.544,240.512 849.024,236.624 841.104,234.824 C836.64,233.672 833.832,233.168 834.048,230.216 C834.12,229.136 834.624,228.128 835.272,227.48 C836.64,226.76 839.232,226.328 842.328,226.4 C845.424,226.4 848.304,226.832 850.896,227.48 L852.912,221.216 C850.32,220.136 846,219.056 842.76,219.056 C833.328,219.056 826.776,222.152 825.552,229.784 C824.4,236.984 828.504,239.792 834.336,241.304 C839.448,242.6 841.896,243.104 841.536,246.416 C841.392,247.712 840.888,248.576 840.24,249.224 C838.584,249.8 836.352,250.088 834.048,250.088 C829.944,250.088 825.912,249.44 823.104,248.576 L821.16,254.84 C824.184,256.136 828.792,257.432 833.976,257.432 Z M856.66,240.584 L879.772,240.584 L881.788,233.168 L858.748,233.168 L856.66,240.584 Z M897.272,257.432 C906.272,257.432 912.608,254.624 913.832,246.848 C914.84,240.512 912.32,236.624 904.4,234.824 C899.936,233.672 897.128,233.168 897.344,230.216 C897.416,229.136 897.92,228.128 898.568,227.48 C899.936,226.76 902.528,226.328 905.624,226.4 C908.72,226.4 911.6,226.832 914.192,227.48 L916.208,221.216 C913.616,220.136 909.296,219.056 906.056,219.056 C896.624,219.056 890.072,222.152 888.848,229.784 C887.696,236.984 891.8,239.792 897.632,241.304 C902.744,242.6 905.192,243.104 904.832,246.416 C904.688,247.712 904.184,248.576 903.536,249.224 C901.88,249.8 899.648,250.088 897.344,250.088 C893.24,250.088 889.208,249.44 886.4,248.576 L884.456,254.84 C887.48,256.136 892.088,257.432 897.272,257.432 Z M940.98,219.056 C930.468,219.056 922.404,225.752 920.532,237.56 C918.516,250.448 923.484,257.432 936.084,257.432 C939.396,257.432 943.068,256.856 946.884,255.416 L948.612,248.72 C945.372,249.584 941.052,250.16 937.668,250.16 C931.116,250.16 928.092,247.568 928.668,240.656 C932.844,241.088 937.524,241.304 939.468,241.304 C947.82,241.304 951.996,238.64 953.076,231.872 C954.444,223.304 949.548,219.056 940.98,219.056 Z M945.516,230.504 C945.372,231.584 945.012,233.24 944.004,234.104 C942.996,234.464 941.556,234.752 939.684,234.896 C937.164,235.112 933.852,235.256 929.748,235.328 C930.684,231.944 931.836,229.64 932.628,228.56 C934.428,227.336 936.876,225.896 940.404,225.896 C944.22,225.896 945.948,227.984 945.516,230.504 Z M980.296,219.056 C977.056,219.056 973.816,220.784 970.144,222.944 L969.64,219.56 L962.152,219.56 L956.248,257 L965.392,257 L969.928,228.416 C972.52,227.768 975.4,227.192 977.56,226.832 C979.36,226.832 981.016,226.832 982.24,227.12 L984.544,219.56 C983.464,219.272 982.096,219.056 980.296,219.056 Z M995.78,214.664 C996.932,214.664 998.444,214.592 999.74,214.016 C1000.532,213.152 1001.18,211.784 1001.396,210.488 C1001.828,206.96 1000.1,205.088 996.428,205.088 C995.348,205.088 993.764,205.16 992.54,205.736 C991.748,206.672 991.1,207.968 990.884,209.264 C990.452,212.792 992.18,214.664 995.78,214.664 Z M984.404,257 L993.548,257 L999.452,219.56 L990.308,219.56 L984.404,257 Z M1029.552,211.856 C1031.208,211.856 1033.224,212.072 1034.952,212.576 L1037.04,206.528 C1034.664,205.52 1031.352,204.728 1028.4,204.728 C1019.472,204.728 1014.216,210.128 1012.488,219.56 L1006.872,219.56 L1004.712,226.688 L1011.336,226.688 L1006.512,257 L1015.656,257 L1020.48,226.688 L1031.064,226.688 L1033.224,219.56 L1021.632,219.56 C1022.136,216.68 1023.216,214.232 1024.08,213.296 C1025.448,212.504 1027.32,211.856 1029.552,211.856 Z M123.104,343.432 C132.104,343.432 138.44,340.624 139.664,332.848 C140.672,326.512 138.152,322.624 130.232,320.824 C125.768,319.672 122.96,319.168 123.176,316.216 C123.248,315.136 123.752,314.128 124.4,313.48 C125.768,312.76 128.36,312.328 131.456,312.4 C134.552,312.4 137.432,312.832 140.024,313.48 L142.04,307.216 C139.448,306.136 135.128,305.056 131.888,305.056 C122.456,305.056 115.904,308.152 114.68,315.784 C113.528,322.984 117.632,325.792 123.464,327.304 C128.576,328.6 131.024,329.104 130.664,332.416 C130.52,333.712 130.016,334.576 129.368,335.224 C127.712,335.8 125.48,336.088 123.176,336.088 C119.072,336.088 115.04,335.44 112.232,334.576 L110.288,340.84 C113.312,342.136 117.92,343.432 123.104,343.432 Z M170.772,305.056 C167.244,305.056 163.356,307.072 159.972,308.944 L161.772,297.568 L161.484,291.16 L153.708,291.16 L145.5,343 L154.644,343 L159.108,314.488 C161.916,313.768 165.012,312.976 167.604,312.544 C172.572,312.544 173.652,314.992 172.932,319.816 L169.26,343 L178.404,343 L182.076,319.888 C183.3,312.112 180.996,305.056 170.772,305.056 Z M206.56,305.056 C203.248,305.056 198.928,305.92 195.472,307.288 L193.744,313.768 C196.552,312.904 201.088,312.328 204.76,312.328 C209.584,312.328 212.32,313.552 212.32,317.296 C212.32,317.872 212.248,318.448 212.176,319.096 L211.816,321.4 C208.072,321.04 204.04,320.896 202.24,320.896 C193.672,321.112 187.984,325.504 187.984,334 C187.984,340.552 192.232,343.432 198.784,343.432 C202.672,343.432 206.776,341.272 209.512,339.688 L209.8,343 L217,343 L220.456,321.4 C220.744,319.816 220.816,318.232 220.816,316.864 C220.816,309.376 216.928,305.056 206.56,305.056 Z M196.12,332.776 C196.12,331.192 196.84,329.248 198.064,328.384 C199.504,327.88 201.52,327.448 204.76,327.16 C206.416,327.016 208.504,326.944 210.952,326.872 L209.728,334.792 C207.28,335.512 204.112,336.448 201.736,336.664 C197.488,336.736 196.12,334.864 196.12,332.776 Z M250.052,305.056 C246.74,305.056 242.852,306.712 239.54,308.872 L239.108,305.56 L231.692,305.56 L224.492,351.208 L224.78,357.688 L232.484,357.688 L235.22,340.264 C237.524,342.064 240.404,343.36 243.572,343.36 C253.004,343.36 260.276,337.384 262.292,324.856 C264.092,313.192 259.772,305.056 250.052,305.056 Z M253.292,323.632 C252.428,328.96 250.844,332.632 249.548,333.928 C247.82,335.152 245.228,336.232 242.348,336.232 C240.404,336.232 237.884,335.872 236.012,335.08 L239.324,314.2 C241.7,313.48 244.292,312.688 246.524,312.4 C251.852,312.4 254.516,315.424 253.292,323.632 Z M289.224,305.056 C278.712,305.056 270.648,311.752 268.776,323.56 C266.76,336.448 271.728,343.432 284.328,343.432 C287.64,343.432 291.312,342.856 295.128,341.416 L296.856,334.72 C293.616,335.584 289.296,336.16 285.912,336.16 C279.36,336.16 276.336,333.568 276.912,326.656 C281.088,327.088 285.768,327.304 287.712,327.304 C296.064,327.304 300.24,324.64 301.32,317.872 C302.688,309.304 297.792,305.056 289.224,305.056 Z M293.76,316.504 C293.616,317.584 293.256,319.24 292.248,320.104 C291.24,320.464 289.8,320.752 287.928,320.896 C285.408,321.112 282.096,321.256 277.992,321.328 C278.928,317.944 280.08,315.64 280.872,314.56 C282.672,313.336 285.12,311.896 288.648,311.896 C292.464,311.896 294.192,313.984 293.76,316.504 Z M315.076,343.432 C324.076,343.432 330.412,340.624 331.636,332.848 C332.644,326.512 330.124,322.624 322.204,320.824 C317.74,319.672 314.932,319.168 315.148,316.216 C315.22,315.136 315.724,314.128 316.372,313.48 C317.74,312.76 320.332,312.328 323.428,312.4 C326.524,312.4 329.404,312.832 331.996,313.48 L334.012,307.216 C331.42,306.136 327.1,305.056 323.86,305.056 C314.428,305.056 307.876,308.152 306.652,315.784 C305.5,322.984 309.604,325.792 315.436,327.304 C320.548,328.6 322.996,329.104 322.636,332.416 C322.492,333.712 321.988,334.576 321.34,335.224 C319.684,335.8 317.452,336.088 315.148,336.088 C311.044,336.088 307.012,335.44 304.204,334.576 L302.26,340.84 C305.284,342.136 309.892,343.432 315.076,343.432 Z M332.648,351.352 L338.336,351.352 C341.864,346.96 346.4,339.544 348.704,334.288 L339.56,334.288 L332.648,351.352 Z M388.96,343.432 C392.272,343.432 395.584,342.928 398.968,341.704 L400.624,335.008 C397.312,335.656 394.576,335.944 391.192,335.944 C385.216,335.944 382.408,332.416 383.56,324.784 C384.352,320.032 386.368,316.432 387.736,314.92 C389.392,313.84 392.344,312.544 395.512,312.472 C398.464,312.472 400.624,312.76 402.928,313.48 L405.016,307.144 C402.424,306.064 398.968,305.056 395.152,305.056 C385.144,305.056 376.504,311.464 374.56,323.632 C372.616,336.304 378.52,343.432 388.96,343.432 Z M430.508,305.056 C427.268,305.056 424.028,306.784 420.356,308.944 L419.852,305.56 L412.364,305.56 L406.46,343 L415.604,343 L420.14,314.416 C422.732,313.768 425.612,313.192 427.772,312.832 C429.572,312.832 431.228,312.832 432.452,313.12 L434.756,305.56 C433.676,305.272 432.308,305.056 430.508,305.056 Z M455.064,305.056 C444.552,305.056 436.488,311.752 434.616,323.56 C432.6,336.448 437.568,343.432 450.168,343.432 C453.48,343.432 457.152,342.856 460.968,341.416 L462.696,334.72 C459.456,335.584 455.136,336.16 451.752,336.16 C445.2,336.16 442.176,333.568 442.752,326.656 C446.928,327.088 451.608,327.304 453.552,327.304 C461.904,327.304 466.08,324.64 467.16,317.872 C468.528,309.304 463.632,305.056 455.064,305.056 Z M459.6,316.504 C459.456,317.584 459.096,319.24 458.088,320.104 C457.08,320.464 455.64,320.752 453.768,320.896 C451.248,321.112 447.936,321.256 443.832,321.328 C444.768,317.944 445.92,315.64 446.712,314.56 C448.512,313.336 450.96,311.896 454.488,311.896 C458.304,311.896 460.032,313.984 459.6,316.504 Z M488.836,305.056 C485.524,305.056 481.204,305.92 477.748,307.288 L476.02,313.768 C478.828,312.904 483.364,312.328 487.036,312.328 C491.86,312.328 494.596,313.552 494.596,317.296 C494.596,317.872 494.524,318.448 494.452,319.096 L494.092,321.4 C490.348,321.04 486.316,320.896 484.516,320.896 C475.948,321.112 470.26,325.504 470.26,334 C470.26,340.552 474.508,343.432 481.06,343.432 C484.948,343.432 489.052,341.272 491.788,339.688 L492.076,343 L499.276,343 L502.732,321.4 C503.02,319.816 503.092,318.232 503.092,316.864 C503.092,309.376 499.204,305.056 488.836,305.056 Z M478.396,332.776 C478.396,331.192 479.116,329.248 480.34,328.384 C481.78,327.88 483.796,327.448 487.036,327.16 C488.692,327.016 490.78,326.944 493.228,326.872 L492.004,334.792 C489.556,335.512 486.388,336.448 484.012,336.664 C479.764,336.736 478.396,334.864 478.396,332.776 Z M524.12,312.688 L535.136,312.688 L537.296,305.56 L525.272,305.56 L526.712,296.416 L519.944,296.416 L516.488,305.56 L510.512,305.56 L508.352,312.688 L514.976,312.688 L512.528,328.024 C511.088,337.456 513.32,343.36 523.328,343.36 C525.992,343.36 528.512,342.928 530.672,342.208 L532.472,335.296 C530.456,335.8 528.224,335.944 525.848,335.944 C521.96,335.944 520.808,333.784 521.6,328.744 L524.12,312.688 Z M549.468,300.664 C550.62,300.664 552.132,300.592 553.428,300.016 C554.22,299.152 554.868,297.784 555.084,296.488 C555.516,292.96 553.788,291.088 550.116,291.088 C549.036,291.088 547.452,291.16 546.228,291.736 C545.436,292.672 544.788,293.968 544.572,295.264 C544.14,298.792 545.868,300.664 549.468,300.664 Z M538.092,343 L547.236,343 L553.14,305.56 L543.996,305.56 L538.092,343 Z M582.952,305.056 C579.28,305.056 575.104,307.144 571.576,309.016 L571.072,305.56 L563.584,305.56 L557.68,343 L566.824,343 L571.288,314.488 C574.096,313.768 577.192,312.976 579.784,312.544 C584.752,312.544 585.832,314.992 585.112,319.816 L581.44,343 L590.584,343 L594.256,319.888 C595.48,312.112 593.176,305.056 582.952,305.056 Z M638.972,305.848 L625.652,305.848 C623.924,305.344 621.836,305.056 619.46,305.056 C610.892,305.056 603.98,309.232 602.828,317.368 C602.18,321.904 603.332,325.36 605.924,327.664 L599.948,338.968 C601.388,340.696 604.052,342.568 608.3,342.928 L617.588,343.864 C621.116,344.224 621.98,345.52 621.836,347.248 C621.692,348.4 621.332,349.192 620.612,349.912 C618.884,350.56 615.788,350.92 611.396,350.92 C606.356,350.92 601.532,350.128 597.86,348.616 L595.7,354.952 C600.236,356.896 604.7,357.976 611.612,357.976 C622.7,357.976 629.684,355.384 630.692,347.896 C631.7,340.408 627.884,337.456 619.316,336.664 L611.612,336.016 C610.244,335.944 609.092,335.584 608.516,335.08 L610.892,330.328 C612.62,330.76 614.636,331.048 616.796,331.048 C626.084,331.048 632.276,326.8 633.356,318.88 C633.788,315.856 632.996,313.552 631.844,311.608 L637.532,311.104 L638.972,305.848 Z M625.58,317.8 C625.148,320.608 623.996,322.336 622.988,323.2 C621.62,323.848 619.82,324.496 617.012,324.496 C612.836,324.496 610.388,322.12 610.82,318.376 C611.18,315.496 612.26,313.912 613.268,312.976 C614.636,312.4 616.436,311.752 619.244,311.752 C623.348,311.752 625.94,314.056 625.58,317.8 Z M675.628,305.056 C672.316,305.056 667.996,305.92 664.54,307.288 L662.812,313.768 C665.62,312.904 670.156,312.328 673.828,312.328 C678.652,312.328 681.388,313.552 681.388,317.296 C681.388,317.872 681.316,318.448 681.244,319.096 L680.884,321.4 C677.14,321.04 673.108,320.896 671.308,320.896 C662.74,321.112 657.052,325.504 657.052,334 C657.052,340.552 661.3,343.432 667.852,343.432 C671.74,343.432 675.844,341.272 678.58,339.688 L678.868,343 L686.068,343 L689.524,321.4 C689.812,319.816 689.884,318.232 689.884,316.864 C689.884,309.376 685.996,305.056 675.628,305.056 Z M665.188,332.776 C665.188,331.192 665.908,329.248 667.132,328.384 C668.572,327.88 670.588,327.448 673.828,327.16 C675.484,327.016 677.572,326.944 680.02,326.872 L678.796,334.792 C676.348,335.512 673.18,336.448 670.804,336.664 C666.556,336.736 665.188,334.864 665.188,332.776 Z M720.128,305.056 C716.456,305.056 712.28,307.144 708.752,309.016 L708.248,305.56 L700.76,305.56 L694.856,343 L704,343 L708.464,314.488 C711.272,313.768 714.368,312.976 716.96,312.544 C721.928,312.544 723.008,314.992 722.288,319.816 L718.616,343 L727.76,343 L731.432,319.888 C732.656,312.112 730.352,305.056 720.128,305.056 Z M784.72,305.56 L780.184,334.072 C777.448,334.792 774.424,335.512 771.904,335.872 C766.936,335.872 765.928,333.424 766.72,328.6 L770.32,305.56 L761.176,305.56 L757.504,328.6 C756.28,336.376 758.512,343.432 768.664,343.432 C772.408,343.432 776.512,341.416 779.968,339.544 L780.4,343 L787.888,343 L793.864,305.56 L784.72,305.56 Z M823.604,305.056 C819.932,305.056 815.756,307.144 812.228,309.016 L811.724,305.56 L804.236,305.56 L798.332,343 L807.476,343 L811.94,314.488 C814.748,313.768 817.844,312.976 820.436,312.544 C825.404,312.544 826.484,314.992 825.764,319.816 L822.092,343 L831.236,343 L834.908,319.888 C836.132,312.112 833.828,305.056 823.604,305.056 Z M852.264,300.664 C853.416,300.664 854.928,300.592 856.224,300.016 C857.016,299.152 857.664,297.784 857.88,296.488 C858.312,292.96 856.584,291.088 852.912,291.088 C851.832,291.088 850.248,291.16 849.024,291.736 C848.232,292.672 847.584,293.968 847.368,295.264 C846.936,298.792 848.664,300.664 852.264,300.664 Z M840.888,343 L850.032,343 L855.936,305.56 L846.792,305.56 L840.888,343 Z M890.068,305.56 L888.916,308.512 C886.756,306.568 883.948,305.056 880.204,305.056 C870.844,305.056 863.572,311.536 861.628,323.632 C859.756,335.368 864.436,343.432 873.796,343.432 C876.82,343.432 880.42,341.992 883.588,340.048 L881.932,350.56 L882.22,356.968 L889.924,356.968 L898.06,305.56 L890.068,305.56 Z M877.396,336.088 C872.428,336.088 869.476,332.992 870.7,324.784 C871.564,318.952 873.148,315.784 874.3,314.488 C875.884,313.264 878.476,312.184 881.644,312.184 C884.02,312.184 886.108,312.688 887.764,313.48 L884.524,334.216 C882.148,335.008 879.628,335.8 877.396,336.088 Z M931.976,305.56 L927.44,334.072 C924.704,334.792 921.68,335.512 919.16,335.872 C914.192,335.872 913.184,333.424 913.976,328.6 L917.576,305.56 L908.432,305.56 L904.76,328.6 C903.536,336.376 905.768,343.432 915.92,343.432 C919.664,343.432 923.768,341.416 927.224,339.544 L927.656,343 L935.144,343 L941.12,305.56 L931.976,305.56 Z M966.9,305.056 C956.388,305.056 948.324,311.752 946.452,323.56 C944.436,336.448 949.404,343.432 962.004,343.432 C965.316,343.432 968.988,342.856 972.804,341.416 L974.532,334.72 C971.292,335.584 966.972,336.16 963.588,336.16 C957.036,336.16 954.012,333.568 954.588,326.656 C958.764,327.088 963.444,327.304 965.388,327.304 C973.74,327.304 977.916,324.64 978.996,317.872 C980.364,309.304 975.468,305.056 966.9,305.056 Z M971.436,316.504 C971.292,317.584 970.932,319.24 969.924,320.104 C968.916,320.464 967.476,320.752 965.604,320.896 C963.084,321.112 959.772,321.256 955.668,321.328 C956.604,317.944 957.756,315.64 958.548,314.56 C960.348,313.336 962.796,311.896 966.324,311.896 C970.14,311.896 971.868,313.984 971.436,316.504 Z M128.504,429.432 C138.224,429.432 146.504,423.456 148.52,410.928 C150.536,398.184 144.56,391.056 133.688,391.056 C124.112,391.056 115.616,397.464 113.744,409.416 C111.656,422.304 117.632,429.432 128.504,429.432 Z M129.152,422.232 C123.608,422.232 121.52,417.912 122.744,410.352 C123.536,405.24 125.048,401.856 126.272,400.488 C127.856,399.408 130.088,398.184 132.968,398.184 C138.512,398.184 140.6,402.36 139.448,409.992 C138.656,415.032 137.072,418.632 135.776,420 C134.192,421.08 132.176,422.232 129.152,422.232 Z M162.852,429 L171.924,429 L192.156,391.56 L182.652,391.56 L168.756,419.712 L164.364,391.56 L154.284,391.56 L162.852,429 Z M212.032,391.056 C201.52,391.056 193.456,397.752 191.584,409.56 C189.568,422.448 194.536,429.432 207.136,429.432 C210.448,429.432 214.12,428.856 217.936,427.416 L219.664,420.72 C216.424,421.584 212.104,422.16 208.72,422.16 C202.168,422.16 199.144,419.568 199.72,412.656 C203.896,413.088 208.576,413.304 210.52,413.304 C218.872,413.304 223.048,410.64 224.128,403.872 C225.496,395.304 220.6,391.056 212.032,391.056 Z M216.568,402.504 C216.424,403.584 216.064,405.24 215.056,406.104 C214.048,406.464 212.608,406.752 210.736,406.896 C208.216,407.112 204.904,407.256 200.8,407.328 C201.736,403.944 202.888,401.64 203.68,400.56 C205.48,399.336 207.928,397.896 211.456,397.896 C215.272,397.896 217,399.984 216.568,402.504 Z M251.348,391.056 C248.108,391.056 244.868,392.784 241.196,394.944 L240.692,391.56 L233.204,391.56 L227.3,429 L236.444,429 L240.98,400.416 C243.572,399.768 246.452,399.192 248.612,398.832 C250.412,398.832 252.068,398.832 253.292,399.12 L255.596,391.56 C254.516,391.272 253.148,391.056 251.348,391.056 Z M263.376,429.36 C265.968,429.36 268.56,429 270.72,428.352 L271.944,422.952 L265.752,421.872 L271.728,383.568 L271.44,377.16 L263.664,377.16 L256.752,420.792 C255.888,426.192 258.696,429.36 263.376,429.36 Z M294.772,391.056 C291.46,391.056 287.14,391.92 283.684,393.288 L281.956,399.768 C284.764,398.904 289.3,398.328 292.972,398.328 C297.796,398.328 300.532,399.552 300.532,403.296 C300.532,403.872 300.46,404.448 300.388,405.096 L300.028,407.4 C296.284,407.04 292.252,406.896 290.452,406.896 C281.884,407.112 276.196,411.504 276.196,420 C276.196,426.552 280.444,429.432 286.996,429.432 C290.884,429.432 294.988,427.272 297.724,425.688 L298.012,429 L305.212,429 L308.668,407.4 C308.956,405.816 309.028,404.232 309.028,402.864 C309.028,395.376 305.14,391.056 294.772,391.056 Z M284.332,418.776 C284.332,417.192 285.052,415.248 286.276,414.384 C287.716,413.88 289.732,413.448 292.972,413.16 C294.628,413.016 296.716,412.944 299.164,412.872 L297.94,420.792 C295.492,421.512 292.324,422.448 289.948,422.664 C285.7,422.736 284.332,420.864 284.332,418.776 Z M338.264,391.056 C334.952,391.056 331.064,392.712 327.752,394.872 L327.32,391.56 L319.904,391.56 L312.704,437.208 L312.992,443.688 L320.696,443.688 L323.432,426.264 C325.736,428.064 328.616,429.36 331.784,429.36 C341.216,429.36 348.488,423.384 350.504,410.856 C352.304,399.192 347.984,391.056 338.264,391.056 Z M341.504,409.632 C340.64,414.96 339.056,418.632 337.76,419.928 C336.032,421.152 333.44,422.232 330.56,422.232 C328.616,422.232 326.096,421.872 324.224,421.08 L327.536,400.2 C329.912,399.48 332.504,398.688 334.736,398.4 C340.064,398.4 342.728,401.424 341.504,409.632 Z M380.388,391.056 C377.076,391.056 373.188,392.712 369.876,394.872 L369.444,391.56 L362.028,391.56 L354.828,437.208 L355.116,443.688 L362.82,443.688 L365.556,426.264 C367.86,428.064 370.74,429.36 373.908,429.36 C383.34,429.36 390.612,423.384 392.628,410.856 C394.428,399.192 390.108,391.056 380.388,391.056 Z M383.628,409.632 C382.764,414.96 381.18,418.632 379.884,419.928 C378.156,421.152 375.564,422.232 372.684,422.232 C370.74,422.232 368.22,421.872 366.348,421.08 L369.66,400.2 C372.036,399.48 374.628,398.688 376.86,398.4 C382.188,398.4 384.852,401.424 383.628,409.632 Z M409.624,386.664 C410.776,386.664 412.288,386.592 413.584,386.016 C414.376,385.152 415.024,383.784 415.24,382.488 C415.672,378.96 413.944,377.088 410.272,377.088 C409.192,377.088 407.608,377.16 406.384,377.736 C405.592,378.672 404.944,379.968 404.728,381.264 C404.296,384.792 406.024,386.664 409.624,386.664 Z M398.248,429 L407.392,429 L413.296,391.56 L404.152,391.56 L398.248,429 Z M443.108,391.056 C439.436,391.056 435.26,393.144 431.732,395.016 L431.228,391.56 L423.74,391.56 L417.836,429 L426.98,429 L431.444,400.488 C434.252,399.768 437.348,398.976 439.94,398.544 C444.908,398.544 445.988,400.992 445.268,405.816 L441.596,429 L450.74,429 L454.412,405.888 C455.636,398.112 453.332,391.056 443.108,391.056 Z M499.128,391.848 L485.808,391.848 C484.08,391.344 481.992,391.056 479.616,391.056 C471.048,391.056 464.136,395.232 462.984,403.368 C462.336,407.904 463.488,411.36 466.08,413.664 L460.104,424.968 C461.544,426.696 464.208,428.568 468.456,428.928 L477.744,429.864 C481.272,430.224 482.136,431.52 481.992,433.248 C481.848,434.4 481.488,435.192 480.768,435.912 C479.04,436.56 475.944,436.92 471.552,436.92 C466.512,436.92 461.688,436.128 458.016,434.616 L455.856,440.952 C460.392,442.896 464.856,443.976 471.768,443.976 C482.856,443.976 489.84,441.384 490.848,433.896 C491.856,426.408 488.04,423.456 479.472,422.664 L471.768,422.016 C470.4,421.944 469.248,421.584 468.672,421.08 L471.048,416.328 C472.776,416.76 474.792,417.048 476.952,417.048 C486.24,417.048 492.432,412.8 493.512,404.88 C493.944,401.856 493.152,399.552 492,397.608 L497.688,397.104 L499.128,391.848 Z M485.736,403.8 C485.304,406.608 484.152,408.336 483.144,409.2 C481.776,409.848 479.976,410.496 477.168,410.496 C472.992,410.496 470.544,408.12 470.976,404.376 C471.336,401.496 472.416,399.912 473.424,398.976 C474.792,398.4 476.592,397.752 479.4,397.752 C483.504,397.752 486.096,400.056 485.736,403.8 Z M533.264,429.432 C542.984,429.432 551.264,423.456 553.28,410.928 C555.296,398.184 549.32,391.056 538.448,391.056 C528.872,391.056 520.376,397.464 518.504,409.416 C516.416,422.304 522.392,429.432 533.264,429.432 Z M533.912,422.232 C528.368,422.232 526.28,417.912 527.504,410.352 C528.296,405.24 529.808,401.856 531.032,400.488 C532.616,399.408 534.848,398.184 537.728,398.184 C543.272,398.184 545.36,402.36 544.208,409.992 C543.416,415.032 541.832,418.632 540.536,420 C538.952,421.08 536.936,422.232 533.912,422.232 Z M584.46,383.856 C586.116,383.856 588.132,384.072 589.86,384.576 L591.948,378.528 C589.572,377.52 586.26,376.728 583.308,376.728 C574.38,376.728 569.124,382.128 567.396,391.56 L561.78,391.56 L559.62,398.688 L566.244,398.688 L561.42,429 L570.564,429 L575.388,398.688 L585.972,398.688 L588.132,391.56 L576.54,391.56 C577.044,388.68 578.124,386.232 578.988,385.296 C580.356,384.504 582.228,383.856 584.46,383.856 Z M626.732,391.056 C616.22,391.056 608.156,397.752 606.284,409.56 C604.268,422.448 609.236,429.432 621.836,429.432 C625.148,429.432 628.82,428.856 632.636,427.416 L634.364,420.72 C631.124,421.584 626.804,422.16 623.42,422.16 C616.868,422.16 613.844,419.568 614.42,412.656 C618.596,413.088 623.276,413.304 625.22,413.304 C633.572,413.304 637.748,410.64 638.828,403.872 C640.196,395.304 635.3,391.056 626.732,391.056 Z M631.268,402.504 C631.124,403.584 630.764,405.24 629.756,406.104 C628.748,406.464 627.308,406.752 625.436,406.896 C622.916,407.112 619.604,407.256 615.5,407.328 C616.436,403.944 617.588,401.64 618.38,400.56 C620.18,399.336 622.628,397.896 626.156,397.896 C629.972,397.896 631.7,399.984 631.268,402.504 Z M636.24,429 L645.96,429 L657.192,415.248 L663.96,429 L673.896,429 L663.168,409.128 L678.432,391.56 L668.712,391.56 L659.136,403.08 L653.448,391.56 L643.512,391.56 L653.232,409.272 L636.24,429 Z M703.06,391.056 C699.748,391.056 695.86,392.712 692.548,394.872 L692.116,391.56 L684.7,391.56 L677.5,437.208 L677.788,443.688 L685.492,443.688 L688.228,426.264 C690.532,428.064 693.412,429.36 696.58,429.36 C706.012,429.36 713.284,423.384 715.3,410.856 C717.1,399.192 712.78,391.056 703.06,391.056 Z M706.3,409.632 C705.436,414.96 703.852,418.632 702.556,419.928 C700.828,421.152 698.236,422.232 695.356,422.232 C693.412,422.232 690.892,421.872 689.02,421.08 L692.332,400.2 C694.708,399.48 697.3,398.688 699.532,398.4 C704.86,398.4 707.524,401.424 706.3,409.632 Z M744.968,391.056 C741.728,391.056 738.488,392.784 734.816,394.944 L734.312,391.56 L726.824,391.56 L720.92,429 L730.064,429 L734.6,400.416 C737.192,399.768 740.072,399.192 742.232,398.832 C744.032,398.832 745.688,398.832 746.912,399.12 L749.216,391.56 C748.136,391.272 746.768,391.056 744.968,391.056 Z M769.524,391.056 C759.012,391.056 750.948,397.752 749.076,409.56 C747.06,422.448 752.028,429.432 764.628,429.432 C767.94,429.432 771.612,428.856 775.428,427.416 L777.156,420.72 C773.916,421.584 769.596,422.16 766.212,422.16 C759.66,422.16 756.636,419.568 757.212,412.656 C761.388,413.088 766.068,413.304 768.012,413.304 C776.364,413.304 780.54,410.64 781.62,403.872 C782.988,395.304 778.092,391.056 769.524,391.056 Z M774.06,402.504 C773.916,403.584 773.556,405.24 772.548,406.104 C771.54,406.464 770.1,406.752 768.228,406.896 C765.708,407.112 762.396,407.256 758.292,407.328 C759.228,403.944 760.38,401.64 761.172,400.56 C762.972,399.336 765.42,397.896 768.948,397.896 C772.764,397.896 774.492,399.984 774.06,402.504 Z M795.376,429.432 C804.376,429.432 810.712,426.624 811.936,418.848 C812.944,412.512 810.424,408.624 802.504,406.824 C798.04,405.672 795.232,405.168 795.448,402.216 C795.52,401.136 796.024,400.128 796.672,399.48 C798.04,398.76 800.632,398.328 803.728,398.4 C806.824,398.4 809.704,398.832 812.296,399.48 L814.312,393.216 C811.72,392.136 807.4,391.056 804.16,391.056 C794.728,391.056 788.176,394.152 786.952,401.784 C785.8,408.984 789.904,411.792 795.736,413.304 C800.848,414.6 803.296,415.104 802.936,418.416 C802.792,419.712 802.288,420.576 801.64,421.224 C799.984,421.8 797.752,422.088 795.448,422.088 C791.344,422.088 787.312,421.44 784.504,420.576 L782.56,426.84 C785.584,428.136 790.192,429.432 795.376,429.432 Z M828.356,429.432 C837.356,429.432 843.692,426.624 844.916,418.848 C845.924,412.512 843.404,408.624 835.484,406.824 C831.02,405.672 828.212,405.168 828.428,402.216 C828.5,401.136 829.004,400.128 829.652,399.48 C831.02,398.76 833.612,398.328 836.708,398.4 C839.804,398.4 842.684,398.832 845.276,399.48 L847.292,393.216 C844.7,392.136 840.38,391.056 837.14,391.056 C827.708,391.056 821.156,394.152 819.932,401.784 C818.78,408.984 822.884,411.792 828.716,413.304 C833.828,414.6 836.276,415.104 835.916,418.416 C835.772,419.712 835.268,420.576 834.62,421.224 C832.964,421.8 830.732,422.088 828.428,422.088 C824.324,422.088 820.292,421.44 817.484,420.576 L815.54,426.84 C818.564,428.136 823.172,429.432 828.356,429.432 Z M862.128,386.664 C863.28,386.664 864.792,386.592 866.088,386.016 C866.88,385.152 867.528,383.784 867.744,382.488 C868.176,378.96 866.448,377.088 862.776,377.088 C861.696,377.088 860.112,377.16 858.888,377.736 C858.096,378.672 857.448,379.968 857.232,381.264 C856.8,384.792 858.528,386.664 862.128,386.664 Z M850.752,429 L859.896,429 L865.8,391.56 L856.656,391.56 L850.752,429 Z M886.324,429.432 C896.044,429.432 904.324,423.456 906.34,410.928 C908.356,398.184 902.38,391.056 891.508,391.056 C881.932,391.056 873.436,397.464 871.564,409.416 C869.476,422.304 875.452,429.432 886.324,429.432 Z M886.972,422.232 C881.428,422.232 879.34,417.912 880.564,410.352 C881.356,405.24 882.868,401.856 884.092,400.488 C885.676,399.408 887.908,398.184 890.788,398.184 C896.332,398.184 898.42,402.36 897.268,409.992 C896.476,415.032 894.892,418.632 893.596,420 C892.012,421.08 889.996,422.232 886.972,422.232 Z M937.232,391.056 C933.56,391.056 929.384,393.144 925.856,395.016 L925.352,391.56 L917.864,391.56 L911.96,429 L921.104,429 L925.568,400.488 C928.376,399.768 931.472,398.976 934.064,398.544 C939.032,398.544 940.112,400.992 939.392,405.816 L935.72,429 L944.864,429 L948.536,405.888 C949.76,398.112 947.456,391.056 937.232,391.056 Z M965.1,429.432 C974.1,429.432 980.436,426.624 981.66,418.848 C982.668,412.512 980.148,408.624 972.228,406.824 C967.764,405.672 964.956,405.168 965.172,402.216 C965.244,401.136 965.748,400.128 966.396,399.48 C967.764,398.76 970.356,398.328 973.452,398.4 C976.548,398.4 979.428,398.832 982.02,399.48 L984.036,393.216 C981.444,392.136 977.124,391.056 973.884,391.056 C964.452,391.056 957.9,394.152 956.676,401.784 C955.524,408.984 959.628,411.792 965.46,413.304 C970.572,414.6 973.02,415.104 972.66,418.416 C972.516,419.712 972.012,420.576 971.364,421.224 C969.708,421.8 967.476,422.088 965.172,422.088 C961.068,422.088 957.036,421.44 954.228,420.576 L952.284,426.84 C955.308,428.136 959.916,429.432 965.1,429.432 Z M991.672,429.36 C993.112,429.36 994.48,429.216 995.848,428.784 C996.496,427.848 997.288,426.192 997.504,424.752 C998.152,420.864 996.136,418.848 992.392,418.848 C991.024,418.848 989.656,418.992 988.36,419.496 C987.64,420.432 986.92,422.088 986.704,423.528 C986.2,427.416 988,429.36 991.672,429.36 Z" id="calligraphic-pen"></path>
            </g>
        </g>
    </g>
</svg>