<?xml version="1.0" encoding="UTF-8"?>
<svg width="472px" height="368px" viewBox="0 0 472 368" version="1.1" xmlns="http://www.w3.org/2000/svg" xmlns:xlink="http://www.w3.org/1999/xlink">
    <!-- Generator: Sketch 41 (35326) - http://www.bohemiancoding.com/sketch -->
    <title>exhibition</title>
    <desc>Created with Sketch.</desc>
    <defs>
        <rect id="path-1" x="0" y="0" width="472" height="368"></rect>
        <mask id="mask-2" maskContentUnits="userSpaceOnUse" maskUnits="objectBoundingBox" x="0" y="0" width="472" height="368" fill="white">
            <use xlink:href="#path-1"></use>
        </mask>
    </defs>
    <g id="Page-1" stroke="none" stroke-width="1" fill="none" fill-rule="evenodd">
        <g id="Artboard" transform="translate(-491.000000, -2796.000000)">
            <g id="section-exhibition" transform="translate(0.000000, 2708.000000)">
                <g id="exhibition" transform="translate(491.000000, 88.000000)">
                    <use id="border" stroke="#FFFFFF" mask="url(#mask-2)" stroke-width="10" xlink:href="#path-1"></use>
                    <path d="M47.843,111.155 C52.493,111.155 55.965,109.667 55.965,104.769 C55.965,101.39 54.477,99.778 50.106,98.724 C47.223,97.949 44.216,98.104 44.216,94.508 C44.216,93.33 44.557,92.431 45.022,91.842 C46.045,91.129 47.564,90.664 49.548,90.695 C51.47,90.726 53.144,91.067 54.601,91.47 L55.066,89.548 C53.423,88.959 51.625,88.525 49.951,88.525 C45.363,88.525 41.767,90.354 41.767,94.973 C41.767,98.631 44.216,99.809 46.758,100.398 C51.346,101.297 53.392,101.917 53.392,105.079 C53.299,106.35 53.237,107.218 52.524,108.086 C51.408,108.799 49.517,108.985 47.595,108.985 C45.766,108.985 43.348,108.427 41.891,107.993 L41.364,109.915 C43.038,110.597 45.363,111.155 47.843,111.155 Z M69.064,111.155 C70.707,111.155 72.815,110.69 74.272,110.163 L74.582,108.148 C72.753,108.644 70.583,108.923 68.878,108.923 C64.29,108.923 61.81,106.102 61.81,99.809 C61.81,96.523 62.771,93.454 63.608,92.462 C64.817,91.563 66.429,90.726 69.529,90.726 C71.141,90.726 72.629,91.005 73.962,91.377 L74.396,89.486 C73.249,88.99 71.265,88.525 69.498,88.525 C63.577,88.525 59.268,91.563 59.268,99.809 C59.268,108.365 63.36,111.155 69.064,111.155 Z M85.449,111.155 C90.502,111.155 93.416,108.055 93.416,102.444 L93.447,90.757 L92.982,88.68 L90.936,88.68 L90.905,102.196 C90.905,104.831 90.285,107.032 89.479,107.9 C88.487,108.582 87.526,108.923 85.449,108.923 C81.419,108.923 80.117,107.063 80.148,102.444 L80.148,90.757 L79.683,88.68 L77.637,88.68 L77.637,103.126 C77.637,108.737 81.016,111.155 85.449,111.155 Z M101.152,108.799 L101.152,90.757 L100.656,88.68 L98.641,88.68 L98.641,111 L111.413,111 L111.692,108.799 L101.152,108.799 Z M121.226,88.68 L114.871,88.68 L114.871,111 L117.413,111 L117.413,101.886 L121.412,101.886 C126.279,101.886 129.534,100.336 129.627,95.283 C129.72,90.478 126.031,88.68 121.226,88.68 Z M126.031,98.848 C125.008,99.561 123.272,99.716 121.009,99.716 L117.413,99.716 L117.413,90.881 L121.009,90.881 C124.574,90.881 127.054,91.625 127.054,95.283 C127.054,96.957 126.651,98.042 126.031,98.848 Z M147.562,88.68 L131.008,88.68 L130.698,90.881 L137.89,90.881 L137.89,111 L140.401,111 L140.401,90.881 L147.252,90.881 L147.562,88.68 Z M157.778,111.155 C162.831,111.155 165.745,108.055 165.745,102.444 L165.776,90.757 L165.311,88.68 L163.265,88.68 L163.234,102.196 C163.234,104.831 162.614,107.032 161.808,107.9 C160.816,108.582 159.855,108.923 157.778,108.923 C153.748,108.923 152.446,107.063 152.477,102.444 L152.477,90.757 L152.012,88.68 L149.966,88.68 L149.966,103.126 C149.966,108.737 153.345,111.155 157.778,111.155 Z M182.874,102.785 C182.409,101.917 182.037,101.297 181.479,100.832 C184.083,99.964 185.509,98.104 185.571,95.066 C185.478,90.261 182.409,88.68 177.17,88.68 L170.97,88.68 L170.97,111 L173.419,111 L173.419,101.421 L175.868,101.421 C178.658,101.421 179.557,101.886 180.239,103.188 L184.362,111 L187.307,111 L182.874,102.785 Z M173.419,99.313 L173.419,90.881 L177.015,90.881 C181.045,90.881 182.936,91.47 182.998,95.097 C182.998,96.709 182.595,97.701 181.975,98.476 C180.952,99.158 179.216,99.313 176.953,99.313 L173.419,99.313 Z M192.563,108.83 L192.563,100.553 L202.018,100.553 L202.018,98.352 L192.563,98.352 L192.563,90.85 L203.506,90.85 L203.816,88.68 L190.052,88.68 L190.052,111 L203.816,111 L204.126,108.83 L192.563,108.83 Z M231.781,100.46 L232.06,98.693 L227.193,98.693 L227.162,101.669 C227.162,102.847 227.007,103.932 226.759,104.893 L219.815,96.182 C218.792,94.911 218.42,94.012 218.42,93.02 C218.42,92.276 218.637,91.718 218.947,91.346 C219.691,90.881 220.869,90.602 222.295,90.633 C223.659,90.633 224.744,90.881 225.829,91.253 L226.325,89.455 C225.24,88.99 223.597,88.587 222.233,88.587 C218.823,88.587 216.126,89.858 216.126,93.237 C216.126,95.19 217.242,96.647 218.234,97.887 C214.824,98.693 213.305,100.956 213.305,104.552 C213.305,109.295 216.994,111.155 220.931,111.155 C224.031,111.155 225.953,110.287 227.162,108.954 L228.836,111 L231.657,111 L228.402,106.908 C229.146,104.955 229.208,102.599 229.27,100.46 L231.781,100.46 Z M225.116,108.272 C224.248,108.706 223.535,109.171 221.179,109.171 C218.575,109.171 215.785,108.148 215.785,104.428 C215.785,102.134 216.219,101.297 216.715,100.584 C217.273,100.15 218.265,99.716 219.536,99.499 L225.829,107.28 C225.612,107.652 225.364,107.993 225.116,108.272 Z M256.367,111 L259.126,111 L250.973,88.68 L248.462,88.68 L240.092,111 L242.51,111 L244.959,104.335 L254.073,104.335 L256.367,111 Z M249.64,91.16 L253.391,102.165 L245.641,102.165 L249.64,91.16 Z M273.744,102.785 C273.279,101.917 272.907,101.297 272.349,100.832 C274.953,99.964 276.379,98.104 276.441,95.066 C276.348,90.261 273.279,88.68 268.04,88.68 L261.84,88.68 L261.84,111 L264.289,111 L264.289,101.421 L266.738,101.421 C269.528,101.421 270.427,101.886 271.109,103.188 L275.232,111 L278.177,111 L273.744,102.785 Z M264.289,99.313 L264.289,90.881 L267.885,90.881 C271.915,90.881 273.806,91.47 273.868,95.097 C273.868,96.709 273.465,97.701 272.845,98.476 C271.822,99.158 270.086,99.313 267.823,99.313 L264.289,99.313 Z M294.996,88.68 L278.442,88.68 L278.132,90.881 L285.324,90.881 L285.324,111 L287.835,111 L287.835,90.881 L294.686,90.881 L294.996,88.68 Z" id="sculpture-&amp;-art" fill="#FFFFFF"></path>
                    <path d="M51.818,174.444 L51.818,164.524 L68.372,164.524 L68.372,155.968 L51.818,155.968 L51.818,146.916 L70.728,146.916 L71.844,138.36 L41.526,138.36 L41.526,183 L71.162,183 L72.278,174.444 L51.818,174.444 Z M77.3480001,183 L88.6320001,183 L98.1800001,167.128 L107.604,183 L119.818,183 L104.814,159.564 L118.268,138.36 L106.612,138.36 L98.6140001,152.31 L90.9260001,138.36 L78.7740001,138.36 L92.1040001,159.564 L77.3480001,183 Z M161.964,138.36 L152.726,138.36 L152.726,155.968 L137.97,155.968 L137.97,145.552 L136.544,138.36 L127.368,138.36 L127.368,183 L137.97,183 L137.97,165.02 L152.726,165.02 L152.726,183 L163.328,183 L163.328,145.614 L161.964,138.36 Z M175.342,183 L185.944,183 L185.944,145.614 L184.518,138.36 L175.342,138.36 L175.342,183 Z M225.548,159.564 C228.276,157.642 230.508,155.038 230.446,150.636 C230.322,141.832 224.37,138.298 213.148,138.298 L200.438,138.298 L200.438,138.36 L197.896,138.36 L197.896,183 L214.636,183 C225.858,183 231.872,178.784 231.996,169.67 C231.934,163.904 229.206,161.176 225.548,159.564 Z M220.464,151.628 C220.464,153.302 220.154,154.48 219.348,155.472 C217.984,156.216 215.69,156.402 212.838,156.402 L207.568,156.402 L207.568,146.296 L212.962,146.296 C218.418,146.296 220.464,147.474 220.464,151.628 Z M220.836,173.886 C219.596,174.63 216.93,175.002 213.21,175.002 L207.568,175.002 L207.568,164.152 L214.698,164.152 C220.65,164.152 222.138,165.764 222.138,169.546 C222.138,171.468 221.704,172.894 220.836,173.886 Z M241.716,183 L252.318,183 L252.318,145.614 L250.892,138.36 L241.716,138.36 L241.716,183 Z M296.758001,138.36 L261.170001,138.36 L260.054001,147.102 L273.012001,147.102 L273.012001,183 L283.614001,183 L283.614001,147.102 L295.642001,147.102 L296.758001,138.36 Z M304.556001,183 L315.158001,183 L315.158001,145.614 L313.732001,138.36 L304.556001,138.36 L304.556001,183 Z M345.834001,183.434 C357.676001,183.434 365.674001,175.684 365.674001,160.742 C365.674001,145.056 358.482001,137.926 345.834001,137.926 C333.930001,137.926 325.932001,145.614 325.932001,160.618 C325.932001,176.18 333.248001,183.434 345.834001,183.434 Z M345.648001,174.816 C339.324001,174.816 336.720001,170.6 336.534001,160.556 C336.472001,154.976 337.588001,150.76 339.076001,148.714 C340.626001,147.598 342.858001,146.544 346.082001,146.544 C352.406001,146.544 354.824001,150.822 355.072001,160.742 C355.196001,166.136 354.080001,170.848 352.530001,172.894 C350.794001,174.196 348.562001,174.816 345.648001,174.816 Z M376.448001,183 L385.810001,183 L385.810001,156.03 L403.108001,183 L411.850001,183 L411.850001,145.676 L410.424001,138.36 L402.550001,138.36 L402.550001,165.95 L385.128001,138.36 L376.448001,138.36 L376.448001,183 Z" fill="#FFFFFF"></path>
                    <path d="M56.358,225.546 C67.668,225.546 76.56,218.838 78.744,205.578 C80.928,191.694 74.22,183.426 61.818,183.426 C50.586,183.426 41.538,190.602 39.51,203.316 C37.248,217.512 43.878,225.546 56.358,225.546 Z M57.45,215.718 C52.38,215.718 50.586,211.506 51.756,204.408 C52.614,199.338 53.862,196.296 54.954,194.97 C56.436,194.034 58.23,193.098 60.648,193.098 C65.718,193.098 67.356,197.31 66.264,204.33 C65.562,209.478 64.158,212.598 63.066,213.846 C61.584,214.782 59.868,215.718 57.45,215.718 Z M112.62,183.426 C108.798,183.426 104.508,185.532 100.92,187.638 L100.296,183.972 L90.156,183.972 L83.682,225 L96.084,225 L100.764,195.204 C103.182,194.58 105.678,193.956 108.018,193.644 C112.074,193.644 113.244,195.672 112.62,199.728 L108.642,225 L121.044,225 L125.022,199.962 C126.582,190.212 123.15,183.426 112.62,183.426 Z M178.656,183.426 C174.834,183.426 170.544,185.532 166.956,187.638 L166.332,183.972 L156.192,183.972 L149.718,225 L162.12,225 L166.8,195.204 C169.218,194.58 171.714,193.956 174.054,193.644 C178.11,193.644 179.28,195.672 178.656,199.728 L174.678,225 L187.08,225 L191.058,199.962 C192.618,190.212 189.186,183.426 178.656,183.426 Z M214.638,225.546 C225.948,225.546 234.84,218.838 237.024,205.578 C239.208,191.694 232.5,183.426 220.098,183.426 C208.866,183.426 199.818,190.602 197.79,203.316 C195.528,217.512 202.158,225.546 214.638,225.546 Z M215.73,215.718 C210.66,215.718 208.866,211.506 210.036,204.408 C210.894,199.338 212.142,196.296 213.234,194.97 C214.716,194.034 216.51,193.098 218.928,193.098 C223.998,193.098 225.636,197.31 224.544,204.33 C223.842,209.478 222.438,212.598 221.346,213.846 C219.864,214.782 218.148,215.718 215.73,215.718 Z M248.358,225 L259.59,225 L269.808,200.742 L271.836,225 L283.068,225 L301.008,183.972 L289.074,183.972 L279.168,210.024 L277.452,184.596 L267.312,185.376 L257.328,210.258 L256.08,183.972 L243.834,183.972 L248.358,225 Z" id="ON-NOW" fill="#FFFFFF"></path>
                    <path d="M42.264,295.13 C44.968,295.13 47.334,294.298 47.802,291.516 C48.14,289.514 47.282,288.136 44.682,287.486 C43.044,287.07 41.484,286.94 41.64,285.12 C41.692,284.522 41.952,284.028 42.316,283.69 C42.992,283.326 44.006,283.092 45.28,283.118 C46.424,283.144 47.464,283.274 48.348,283.534 L48.79,282.234 C47.88,281.844 46.632,281.506 45.54,281.506 C42.836,281.506 40.288,282.416 39.846,285.172 C39.482,287.434 41.068,288.5 42.628,288.864 C45.02,289.436 46.242,289.644 45.956,291.542 C45.852,292.244 45.618,292.712 45.254,292.998 C44.474,293.336 43.512,293.466 42.576,293.466 C41.146,293.466 39.638,293.206 38.728,292.92 L38.26,294.246 C39.222,294.688 40.678,295.13 42.264,295.13 Z M57.544,295.13 C58.584,295.13 59.884,294.896 60.976,294.506 L61.314,293.05 C59.91,293.388 58.922,293.492 57.492,293.492 C55.256,293.492 53.904,291.828 54.424,288.448 C54.762,286.394 55.698,284.782 56.218,284.236 C56.92,283.742 58.22,283.144 59.468,283.144 C60.638,283.144 61.548,283.274 62.458,283.56 L62.9,282.234 C62.016,281.87 60.924,281.506 59.572,281.506 C56.244,281.506 53.15,283.69 52.448,288.162 C51.72,292.764 53.904,295.13 57.544,295.13 Z M76.594,281.714 L74.878,292.53 C73.63,292.842 72.018,293.232 70.926,293.414 C68.456,293.414 68.118,292.244 68.482,289.93 L69.782,281.714 L67.754,281.714 L66.428,289.982 C66.09,292.14 66.376,295.13 70.328,295.13 C71.68,295.13 73.084,294.584 74.748,293.856 L74.8,295 L76.516,295 L78.622,281.714 L76.594,281.714 Z M84.62,295.078 C85.53,295.078 86.206,295 86.752,294.87 L87.064,293.726 L84.75,293.362 L87.194,277.918 L87.09,276.28 L85.426,276.28 L82.8,292.764 C82.566,294.35 83.424,295.078 84.62,295.078 Z M98.548,281.506 C97.404,281.506 95.792,282.156 94.596,282.65 L94.492,281.714 L92.802,281.714 L90.098,298.692 L90.202,300.304 L91.892,300.304 L92.88,294.116 C93.66,294.688 94.752,295.13 96,295.13 C99.38,295.13 102.24,292.92 102.968,288.474 C103.618,284.34 102.084,281.506 98.548,281.506 Z M100.966,288.214 C100.654,290.19 99.926,291.828 99.302,292.4 C98.574,292.946 97.43,293.518 96.13,293.518 C95.22,293.518 93.92,293.336 93.062,292.816 L94.466,284.054 C95.558,283.69 96.832,283.326 97.898,283.196 C100.264,283.196 101.564,284.418 100.966,288.214 Z M113.204,281.506 C112.19,281.506 110.526,281.896 109.59,282.312 L109.226,283.742 C110.396,283.326 111.878,283.144 113.204,283.144 C114.868,283.144 116.09,283.664 116.09,285.51 C116.09,285.77 116.064,286.056 116.012,286.368 L115.856,287.434 C114.348,287.252 112.996,287.278 112.216,287.252 C109.226,287.252 107.016,288.76 107.016,291.802 C107.016,294.168 108.68,295.13 111.02,295.13 C112.268,295.13 113.698,294.558 114.92,293.96 L114.972,295 L116.584,295 L117.832,287.148 C117.936,286.576 117.962,286.03 117.962,285.536 C117.962,283.066 116.74,281.506 113.204,281.506 Z M108.862,291.672 C108.862,290.97 109.174,289.852 109.746,289.41 C110.344,289.098 111.124,288.916 112.71,288.838 C113.464,288.786 114.426,288.76 115.622,288.76 L115.024,292.686 C114.01,292.998 112.658,293.388 111.67,293.57 C109.72,293.57 108.862,292.972 108.862,291.672 Z M130.642,281.506 C129.316,281.506 127.86,282.13 126.17,282.832 L126.066,281.714 L124.402,281.714 L122.296,295 L124.324,295 L126.04,284.184 C127.34,283.846 128.952,283.404 130.07,283.222 C132.54,283.222 132.93,284.392 132.566,286.706 L131.266,295 L133.294,295 L134.62,286.654 C134.958,284.496 134.594,281.506 130.642,281.506 Z M144.986,281.506 C143.972,281.506 142.308,281.896 141.372,282.312 L141.008,283.742 C142.178,283.326 143.66,283.144 144.986,283.144 C146.65,283.144 147.872,283.664 147.872,285.51 C147.872,285.77 147.846,286.056 147.794,286.368 L147.638,287.434 C146.13,287.252 144.778,287.278 143.998,287.252 C141.008,287.252 138.798,288.76 138.798,291.802 C138.798,294.168 140.462,295.13 142.802,295.13 C144.05,295.13 145.48,294.558 146.702,293.96 L146.754,295 L148.366,295 L149.614,287.148 C149.718,286.576 149.744,286.03 149.744,285.536 C149.744,283.066 148.522,281.506 144.986,281.506 Z M140.644,291.672 C140.644,290.97 140.956,289.852 141.528,289.41 C142.126,289.098 142.906,288.916 144.492,288.838 C145.246,288.786 146.208,288.76 147.404,288.76 L146.806,292.686 C145.792,292.998 144.44,293.388 143.452,293.57 C141.502,293.57 140.644,292.972 140.644,291.672 Z M162.008,281.506 C160.942,281.506 159.616,282.052 157.952,282.78 L157.848,281.714 L156.184,281.714 L154.078,295 L156.106,295 L157.848,284.054 C159.096,283.768 160.032,283.456 161.15,283.274 C161.852,283.274 162.346,283.248 162.866,283.352 L163.568,281.714 C163.204,281.61 162.658,281.506 162.008,281.506 Z M170.242,283.3 L174.532,283.3 L175.026,281.714 L170.476,281.714 L170.996,278.438 L169.67,278.438 L168.5,281.714 L166.316,281.714 L165.822,283.3 L168.188,283.3 L167.148,289.956 C166.68,292.92 166.888,295.078 170.554,295.078 C171.1,295.078 172.14,294.896 172.868,294.584 L173.258,293.128 C172.348,293.414 171.464,293.44 170.606,293.44 C168.968,293.44 168.812,292.322 169.124,290.372 L170.242,283.3 Z M178.658,295.13 C178.97,295.13 179.386,295.078 179.724,294.922 C179.906,294.688 180.14,294.22 180.192,293.804 C180.374,292.764 179.88,292.192 178.918,292.192 C178.632,292.192 178.216,292.244 177.904,292.4 C177.696,292.66 177.488,293.128 177.41,293.544 C177.254,294.584 177.748,295.13 178.658,295.13 Z M190.506,295.13 C191.546,295.13 192.846,294.896 193.938,294.506 L194.276,293.05 C192.872,293.388 191.884,293.492 190.454,293.492 C188.218,293.492 186.866,291.828 187.386,288.448 C187.724,286.394 188.66,284.782 189.18,284.236 C189.882,283.742 191.182,283.144 192.43,283.144 C193.6,283.144 194.51,283.274 195.42,283.56 L195.862,282.234 C194.978,281.87 193.886,281.506 192.534,281.506 C189.206,281.506 186.112,283.69 185.41,288.162 C184.682,292.764 186.866,295.13 190.506,295.13 Z M203.524,295.13 C206.67,295.13 209.66,293.102 210.414,288.396 C211.142,283.846 209.062,281.506 205.474,281.506 C202.406,281.506 199.312,283.742 198.61,288.162 C197.882,292.712 199.91,295.13 203.524,295.13 Z M203.602,293.518 C201.106,293.518 200.066,291.776 200.612,288.422 C200.924,286.42 201.652,284.834 202.224,284.236 C202.9,283.742 204.018,283.118 205.448,283.118 C207.918,283.118 208.958,284.808 208.412,288.136 C208.1,290.138 207.346,291.854 206.748,292.452 C206.046,292.92 205.11,293.518 203.602,293.518 Z M230.4,281.506 C229.048,281.506 226.968,282.416 225.46,283.092 C224.914,282.156 223.952,281.506 222.366,281.506 C221.04,281.506 219.974,282.104 218.518,282.832 L218.414,281.714 L216.75,281.714 L214.644,295 L216.672,295 L218.388,284.184 C219.428,283.872 220.702,283.352 221.82,283.17 C223.796,283.17 224.342,284.262 223.952,286.706 L222.626,295 L224.68,295 L225.98,286.732 C226.11,285.952 226.11,285.042 225.902,284.21 C227.046,283.872 228.814,283.326 229.802,283.17 C231.726,283.17 232.324,284.262 231.96,286.706 L230.634,295 L232.662,295 L233.988,286.732 C234.326,284.574 233.754,281.506 230.4,281.506 Z" id="sculpanart.com" fill="#FFFFFF"></path>
                </g>
            </g>
        </g>
    </g>
</svg>