<?xml version="1.0" encoding="UTF-8"?>
<svg width="342px" height="119px" viewBox="0 0 342 119" version="1.1" xmlns="http://www.w3.org/2000/svg" xmlns:xlink="http://www.w3.org/1999/xlink">
    <!-- Generator: Sketch 41 (35326) - http://www.bohemiancoding.com/sketch -->
    <title>fabio-haag-type</title>
    <desc>Created with Sketch.</desc>
    <defs></defs>
    <g id="Page-1" stroke="none" stroke-width="1" fill="none" fill-rule="evenodd">
        <path d="M16.2543607,14.7875768 L16.2543607,15.0370299 L28.9365538,15.0370299 L27.9387416,22.0217153 L16.2543607,22.0217153 L16.2543607,52.1955562 L6.9846854,52.1955562 L6.9846854,21.9518684 L0,21.9518684 L0.9978122,14.967183 L6.9846854,14.967183 C7.35387591,5.55781395 11.8440308,0 21.9518684,0 C25.1450409,0.0378767281 28.3027988,0.674166639 31.2614562,1.87588694 L29.8146285,8.08227882 C27.6835794,7.50398737 25.4870053,7.20216803 23.2789586,7.18424784 C21.3830295,7.13680744 19.5047345,7.55839554 17.8109478,8.41155684 C16.6679045,10.3341321 16.125826,12.5545693 16.2543607,14.7875768 L16.2543607,14.7875768 Z M61.345494,30.3833815 L61.345494,52.1955562 L54.0714431,52.1955562 L53.0736309,48.6832572 C50.5391879,50.3196692 46.617786,52.674506 42.3770841,52.674506 C35.1030332,52.674506 30.1239503,49.2420321 30.1239503,40.8304752 C30.1239503,34.1351554 35.1130113,30.3734034 43.1952901,29.9643004 C44.8317021,29.8844754 48.7531041,30.1239503 52.5847029,30.4532283 L52.5847029,28.5873195 C52.5847029,23.1991336 49.2320539,21.4828967 43.4347651,21.4828967 C39.8283225,21.4645674 36.2341204,21.9037843 32.7382183,22.7900306 L33.7958992,16.6634637 C37.3825257,15.2172228 41.2044757,14.442686 45.0711771,14.3784738 C57.3442671,14.3784738 61.345494,20.0959377 61.345494,30.3833815 Z M45.0013302,45.9891643 C46.8772171,45.5800613 50.1500412,44.8416803 52.5946811,44.1931023 L52.5946811,36.0210204 C45.6099957,36.1008454 41.5688562,36.5897734 39.4435163,37.4878043 C38.6935678,38.4012368 38.3349251,39.5739984 38.4457041,40.7506502 C38.4756384,43.6143713 40.1020723,45.9891643 45.0013302,45.9891643 Z M103.87225,33.5763805 C103.87225,46.3982673 96.5183741,52.6944623 88.1866422,52.6944623 C84.6153693,52.7341324 81.1549481,51.4551266 78.4679514,49.1023384 L77.6497454,52.2055343 L69.5674666,52.2055343 L69.5674666,0.488927978 L77.4900954,0.488927978 L78.8271638,6.86494794 L78.8271638,18.0504227 C81.5992136,15.8335341 85.0004412,14.5484707 88.5458546,14.3784738 C98.7834078,14.3784738 103.902184,22.2212777 103.902184,33.5763805 L103.87225,33.5763805 Z M94.3930341,33.5763805 C94.3930341,25.0849987 91.3995975,21.6026341 85.5723743,21.6026341 C83.28011,21.9671931 81.0234073,22.5280305 78.8271638,23.2789586 L78.8271638,43.6143713 C81.0263963,44.8480962 83.4909502,45.5326945 86.0114116,45.6099957 C88.3272463,45.6309292 90.5793552,44.8520309 92.3874316,43.4048307 C93.4451125,41.9879374 94.4229685,38.5554634 94.4229685,33.5763805 L94.3930341,33.5763805 Z M109.938948,5.22853593 C109.940267,3.75273842 110.427707,2.31847331 111.325907,1.14748403 C112.663846,0.552437428 114.112295,0.246427027 115.576587,0.24945305 C119.088886,0.24945305 121.134401,1.80604008 121.134401,5.23851405 C121.209044,6.67644845 120.706128,8.08461321 119.737464,9.14993787 C118.452206,9.82532387 117.01837,10.168347 115.566609,10.1477501 C111.984463,10.1277938 109.938948,8.58118492 109.938948,5.22853593 Z M110.93676,14.8674018 L120.246348,14.8674018 L120.246348,52.1955562 L110.93676,52.1955562 L110.93676,14.8674018 Z M127.191121,33.4067525 C127.191121,21.1536186 135.11375,14.3784738 145.081894,14.3784738 C155.948069,14.3784738 163.042513,20.9939687 163.042513,33.4965555 C163.042513,46.3184423 155.279535,52.6944623 145.081894,52.6944623 C134.285566,52.6844842 127.181143,45.9891643 127.181143,33.4067525 L127.191121,33.4067525 Z M151.527761,43.4547213 C152.675245,41.9879374 153.523385,38.4656603 153.523385,33.4765993 C153.523385,25.2246924 150.829292,21.5028529 145.191653,21.5028529 C142.853496,21.4355559 140.557736,22.1365514 138.655983,23.4984773 C137.598302,25.0550643 136.660359,28.6471883 136.660359,33.3867962 C136.660359,41.7983531 139.354452,45.4802801 145.071916,45.4802801 C147.389716,45.5677511 149.666631,44.8522499 151.517783,43.4547213 L151.527761,43.4547213 Z M186.451188,94.9917214 C186.300025,95.9659492 186.216674,96.9494953 186.201735,97.9352674 C186.201735,100.709185 187.429044,102.265772 190.452415,102.265772 C192.856653,102.283046 195.250375,101.946849 197.556837,101.26796 L196.658806,104.860084 C194.628421,105.6609 192.474431,106.103177 190.292765,106.167218 C183.51762,106.167218 181.312455,103.064022 181.312455,98.3244142 C181.338141,96.8725893 181.474908,95.4248596 181.721558,93.9939092 L184.176176,78.1486515 L178.049609,78.1486515 L179.047421,74.3868995 L184.924535,74.3868995 L187.588694,66.57403 L190.941343,66.57403 L189.714034,74.4168339 L198.943796,74.4168339 L199.682177,78.1785859 L189.09539,78.1785859 L186.451188,94.9917214 Z M220.785905,8.74083487 L220.785905,52.1955562 L208.54275,52.1955562 L208.54275,31.2415 L191.300555,31.2415 L191.300555,52.1955562 L178.967596,52.1955562 L178.967596,0.24945305 L189.584318,0.24945305 L191.300555,8.66100989 L191.300555,20.7445156 L208.54275,20.7445156 L208.54275,0.24945305 L219.319122,0.24945305 L220.785905,8.74083487 Z M195.052329,117.212999 L196.11001,114.029978 C197.365718,114.497045 198.691827,114.746745 200.031412,114.768359 C201.542215,114.876282 203.050672,114.528711 204.361917,113.770547 C206.529654,111.204701 208.36978,108.379153 209.839906,105.35899 L202.246555,74.426812 L207.235616,74.426812 L212.703627,100.160389 L225.934616,74.426812 L230.674224,74.426812 L214.529623,104.770281 C209.051634,114.9779 206.936272,118.570024 200.151149,118.570024 C198.364078,118.556552 196.609676,118.089627 195.052329,117.212999 Z M259.830297,30.4033377 L259.830297,52.1955562 L250.520709,52.1955562 L249.45305,48.5236073 C246.918607,50.3196692 243.166833,52.7742873 238.6667,52.7742873 C231.312824,52.7742873 226.692954,49.1821633 226.692954,40.6808034 C226.692954,33.696118 232.08114,29.4055255 240.742149,29.4055255 C242.538211,29.4055255 245.641407,29.6549786 248.724647,29.8944535 L248.724647,28.5873195 C248.724647,24.3366396 246.110379,22.8698556 239.903987,22.8698556 C236.331072,22.8932008 232.771271,23.3047191 229.287265,24.0971646 L230.594399,16.114667 C234.477096,14.6012895 238.600802,13.8002089 242.767708,13.7498521 C255.250339,13.7199177 259.830297,19.4373817 259.830297,30.3833815 L259.830297,30.4033377 Z M259.341369,86.8096614 C259.341369,97.9153112 253.055152,106.247043 242.927358,106.247043 C240.142894,106.210876 237.424891,105.391325 235.084554,103.882228 L232.719739,118.580002 L228.728491,118.580002 L228.498994,114.748403 L234.875014,74.3968776 L238.956066,74.3968776 L239.205519,76.6020426 C241.979437,75.4545586 245.332086,73.9079496 248.106003,73.9079496 C255.340142,73.9179278 259.341369,79.3160918 259.341369,86.8096614 Z M246.519482,77.9291328 C243.901371,78.2918822 241.327028,78.9204231 238.836328,79.8050197 L235.573482,100.62936 C237.929176,101.900821 240.581416,102.520825 243.256636,102.425422 C245.782146,102.346334 248.221573,101.489049 250.241322,99.9708043 C251.708106,98.5040204 253.424343,94.9019183 254.23257,90.1722885 C254.450674,88.8765209 254.560811,87.5648811 254.561848,86.2508866 C254.601761,80.1342978 251.658215,77.9291328 246.519482,77.9291328 Z M241.859699,44.2729273 C243.416286,44.0234743 246.349854,43.4547213 248.724647,42.8859683 L248.724647,36.3502984 C243.256636,36.5099484 239.744337,36.7594014 237.748713,37.4977825 C237.185288,38.3073992 236.923967,39.2891183 237.010332,40.2717004 C237.040266,42.4768653 238.267575,44.2729273 241.859699,44.2729273 L241.859699,44.2729273 Z M290.952059,82.0900097 C290.952059,88.8651545 287.43976,91.9783286 279.596957,91.9783286 C277.72107,91.9783286 272.901637,91.8186786 269.139885,91.4095756 C269.06006,92.3076066 268.980235,93.1258126 268.980235,93.9440186 C268.980235,99.5018326 271.594503,102.355575 277.391792,102.355575 C280.45742,102.368635 283.50999,101.955581 286.461904,101.128266 L285.374289,104.470937 C282.867226,105.54365 280.177897,106.126225 277.45166,106.187174 C268.631,106.187174 264.300495,101.936494 264.300495,93.9340405 C264.322317,92.4555476 264.459097,90.9809912 264.709599,89.5237106 C266.415857,78.8271638 273.719843,73.8381028 281.233369,73.8381028 C286.701379,73.8381028 290.952059,76.2128958 290.952059,82.0900097 L290.952059,82.0900097 Z M298.934557,30.3833815 L298.934557,52.1955562 L289.455341,52.1955562 L288.39766,48.5236073 C285.943042,50.3196692 282.191268,52.7742873 277.780938,52.7742873 C270.347237,52.7742873 265.807192,49.1821633 265.807192,40.6808034 C265.807192,33.696118 271.035728,29.4055255 279.776563,29.4055255 C281.572625,29.4055255 284.675821,29.6549786 287.699192,29.8944535 L287.699192,28.5873195 C287.699192,24.3366396 285.164749,22.8698556 279.038182,22.8698556 C275.438357,22.8839313 271.851096,23.2955293 268.341635,24.0971646 L269.648769,16.114667 C273.559243,14.6013052 277.709109,13.8003945 281.901903,13.7498521 C294.354599,13.7199177 298.954513,19.4373817 298.954513,30.3833815 L298.934557,30.3833815 Z M281.06374,77.5200298 C278.255958,77.6427102 275.550467,78.6094538 273.300762,80.2939477 C271.623963,82.7021412 270.43109,85.4132169 269.788463,88.2764453 L272.482556,88.2764453 C278.9384,88.2764453 283.099277,88.0269923 284.895339,87.2187644 C286.109302,85.787686 286.724099,83.9432935 286.611576,82.0700534 C286.621554,79.4757417 284.745667,77.5200298 281.06374,77.5200298 Z M280.814287,44.2729273 C282.530524,44.0234743 285.384267,43.4547213 287.679235,42.8859683 L287.679235,36.3502984 C282.291049,36.5099484 278.858575,36.7594014 276.81306,37.4977825 C276.286119,38.3238684 276.028157,39.2929657 276.074679,40.2717004 C276.084658,42.4768653 277.311967,44.2729273 280.824266,44.2729273 L280.814287,44.2729273 Z M341.351554,20.7445156 L335.79374,21.1536186 C337.208514,22.9849328 338.008267,25.2165601 338.07873,27.5296386 C338.07873,35.8613705 332.281441,40.5011972 321.574916,40.5011972 C319.872809,40.5165959 318.173813,40.3527164 316.50603,40.0122692 L315.308655,43.2152464 C315.877408,43.7041744 316.945067,43.8638243 318.491676,44.1132774 L325.765727,44.6820303 C336.053171,45.5002363 339.56547,48.9327103 339.56547,55.9573082 C339.56547,63.9398058 332.461047,67.232586 320.367563,67.232586 C313.382878,67.232586 309.01246,66.494205 303.135346,64.2391494 L305.011233,56.0670675 C309.839836,57.6502124 314.897392,58.4223325 319.978416,58.3520574 C322.317827,58.4697632 324.662904,58.3056079 326.963102,57.8631295 C327.553798,57.3816764 327.836547,56.6174899 327.701483,55.8675051 C327.701483,54.720021 327.052905,53.6623401 324.438637,53.4128871 L315.129049,52.5946811 C311.428434,52.4415308 307.898208,50.9976682 305.150927,48.5136292 L309.81071,37.0787013 C306.817273,34.8735364 305.071102,31.5208874 305.071102,26.9509075 C305.071102,18.3697226 312.055787,13.7199177 321.574916,13.7199177 C323.860425,13.6749348 326.140967,13.9503464 328.350061,14.5381238 L341.990153,14.5381238 L341.351554,20.7445156 Z M327.711461,27.2003606 C327.711461,24.0173397 325.586121,22.2112996 321.664719,22.2112996 C320.08118,22.1482124 318.50787,22.49173 317.094739,23.2091118 C316.162696,24.326742 315.669645,25.7455935 315.70778,27.2003606 C315.70778,30.5530096 317.83312,32.2692465 321.694653,32.2692465 C323.313427,32.3174142 324.925328,32.0391492 326.434261,31.4510405 C327.328031,30.2191493 327.778221,28.7208616 327.711461,27.2003606 L327.711461,27.2003606 Z" id="fabio-haag-type" fill="#231F20"></path>
    </g>
</svg>