<?xml version="1.0" encoding="UTF-8"?>
<svg width="942px" height="505px" viewBox="0 0 942 505" version="1.1" xmlns="http://www.w3.org/2000/svg" xmlns:xlink="http://www.w3.org/1999/xlink">
    <!-- Generator: Sketch 41 (35326) - http://www.bohemiancoding.com/sketch -->
    <title>packed-with-everything</title>
    <desc>Created with Sketch.</desc>
    <defs>
        <polygon id="path-1" points="0.0004 505 942.046 505 942.046 0.517 0.0004 0.517"></polygon>
    </defs>
    <g id="Page-1" stroke="none" stroke-width="1" fill="none" fill-rule="evenodd">
        <g id="Artboard" transform="translate(-99.000000, -2192.000000)">
            <g id="section-packed" transform="translate(0.000000, 2179.000000)">
                <g id="packed-with-everything" transform="translate(99.000000, 12.483000)">
                    <mask id="mask-2" fill="white">
                        <use xlink:href="#path-1"></use>
                    </mask>
                    <g id="Clip-3"></g>
                    <path d="M872.859,29.246 L876.051,29.246 L876.051,8.856 L872.859,8.856 L872.859,29.246 Z M872.42,3.19 C872.42,2.512 872.659,1.834 872.938,1.515 C873.338,1.235 873.937,1.075 874.455,1.075 C875.692,1.075 876.49,1.794 876.49,3.19 C876.49,3.868 876.291,4.587 875.972,4.866 C875.572,5.146 874.974,5.305 874.455,5.305 C873.218,5.305 872.42,4.587 872.42,3.19 L872.42,3.19 Z" id="Fill-2" fill="#3C3B41" mask="url(#mask-2)"></path>
                    <path d="M895.4033,15.4805 C895.4033,12.5675 893.2493,10.8515 890.2163,10.8515 C888.4603,10.8515 887.2633,11.2505 886.3453,11.7295 C885.7073,12.3285 885.0683,13.4455 885.0683,15.4805 C885.0683,18.3925 887.1033,20.1885 890.1753,20.1885 C891.9313,20.1885 893.1693,19.7895 894.0473,19.3105 C894.6853,18.7115 895.4033,17.5145 895.4033,15.4805 L895.4033,15.4805 Z M900.1513,11.1705 L897.0393,11.4905 C897.8773,12.4875 898.3953,13.8435 898.3953,15.4805 C898.3953,20.0285 894.9653,22.5025 890.2163,22.5025 C888.9793,22.5025 887.8223,22.3425 886.8243,22.0235 L885.5483,25.5755 C886.0263,25.8945 886.7453,26.0135 887.4633,26.0935 L892.4903,26.5725 C896.2813,26.9715 899.0343,27.8895 899.0343,31.9595 C899.0343,36.1495 895.3233,37.5855 889.4983,37.5455 C885.7873,37.5055 883.2333,36.9075 881.0393,35.9895 L881.5973,33.7145 C883.9123,34.5125 886.3853,35.0325 889.2583,35.0325 C892.3313,35.0325 894.4453,34.6725 895.4433,34.1145 C895.8413,33.5955 896.0423,33.0375 896.0423,32.0795 C896.0423,30.5625 894.9653,29.7645 891.9713,29.4855 L886.3853,28.9265 C884.1113,28.7275 882.7553,27.7295 882.3153,27.0515 L884.8293,21.1065 C883.0733,19.9095 882.0763,18.0345 882.0763,15.5195 C882.0763,10.9705 885.6273,8.5375 890.2163,8.5375 C891.6523,8.5375 892.8893,8.6965 894.0073,9.0955 L900.5503,9.0955 L900.1513,11.1705 Z" id="Fill-4" fill="#3C3B41" mask="url(#mask-2)"></path>
                    <path d="M921.8965,16.3184 L921.8965,29.2464 L918.7045,29.2464 L918.7045,16.6364 C918.7045,12.8864 917.5865,11.1714 913.7565,11.1714 C912.1605,11.4504 909.7665,12.0884 907.8515,12.6074 L907.8515,29.2464 L904.6595,29.2464 L904.6595,0.5164 L907.2525,0.5164 L907.8515,3.0304 L907.8515,10.5724 C910.2855,9.5344 912.4395,8.5374 914.5545,8.5374 C920.6595,8.5374 921.8965,13.0054 921.8965,16.3184" id="Fill-5" fill="#3C3B41" mask="url(#mask-2)"></path>
                    <path d="M940.21,26.373 L939.812,28.607 C938.734,29.087 937.138,29.366 936.22,29.366 C930.554,29.366 929.756,26.174 929.756,21.625 L929.756,11.29 L926.045,11.29 L926.404,8.856 L929.836,8.856 L930.993,3.829 L932.948,3.829 L932.948,8.856 L940.051,8.856 L939.691,11.29 L932.948,11.29 L932.948,22.023 C932.948,25.017 933.348,26.852 936.22,26.852 C937.457,26.852 938.854,26.812 940.21,26.373" id="Fill-6" fill="#3C3B41" mask="url(#mask-2)"></path>
                    <polygon id="Fill-7" fill="#3C3B41" mask="url(#mask-2)" points="773.1914 69.6377 772.3934 72.4707 756.2734 72.4707 760.8224 43.7417 763.3764 43.7417 763.5754 46.4147 759.9044 69.6377"></polygon>
                    <path d="M780.4922,46.2158 C780.5722,45.6168 780.8912,44.9788 781.2512,44.5388 C781.6892,44.3398 782.2482,44.2998 782.7262,44.2998 C784.0842,44.2998 784.7622,45.1378 784.5622,46.6538 C784.4822,47.2128 784.1632,47.8918 783.8442,48.2498 C783.3652,48.4898 782.8062,48.5288 782.2882,48.5288 C781.0112,48.5288 780.2932,47.7318 780.4922,46.2158 L780.4922,46.2158 Z M780.2532,52.0808 L783.3652,52.0808 L780.1342,72.4708 L777.0212,72.4708 L780.2532,52.0808 Z" id="Fill-8" fill="#3C3B41" mask="url(#mask-2)"></path>
                    <path d="M796.8516,54.0762 C794.9366,54.0762 793.6196,54.5142 792.6226,54.9942 C791.9436,55.5922 791.3046,56.7892 791.0256,58.9042 C790.6666,61.7372 792.4216,63.4132 795.3346,63.4132 C797.2496,63.4132 798.5676,62.9732 799.4856,62.4952 C800.1636,61.8562 800.9606,60.6202 801.2406,58.5052 C801.5596,55.6722 799.7246,54.0762 796.8516,54.0762 L796.8516,54.0762 Z M806.3076,54.3152 L803.1166,54.6752 C803.9136,55.7122 804.3136,57.1482 804.1136,58.9042 C803.5546,63.3732 799.9636,65.7272 795.4146,65.7272 C794.0986,65.7272 792.9016,65.5272 791.9036,65.1692 L790.0286,68.8402 C790.4266,69.1592 791.1456,69.2382 791.8246,69.3182 L796.6916,69.7972 C800.3626,70.1962 802.9556,71.4732 802.3976,75.6232 C801.8386,79.7322 798.0486,80.8102 792.4216,80.7702 C788.7106,80.7302 786.3176,80.0922 784.2826,79.1742 L785.0396,76.9792 C787.1956,77.7772 789.5096,78.2172 792.2626,78.2172 C795.3346,78.2172 796.9706,78.1372 798.6076,77.4192 C799.2056,76.8992 799.4056,76.3412 799.5246,75.5432 C799.7646,73.7082 798.8866,72.9492 795.9736,72.6302 L790.5866,72.0712 C788.3526,71.8722 787.0356,70.8352 786.6766,70.1562 L789.9886,64.0922 C788.5516,62.8942 787.8726,60.9782 788.1526,58.5452 C788.7106,54.0762 792.4216,51.7622 796.8116,51.7622 C798.2076,51.7622 799.4056,51.9212 800.4426,52.3202 L806.9866,52.3202 L806.3076,54.3152 Z" id="Fill-9" fill="#3C3B41" mask="url(#mask-2)"></path>
                    <path d="M827.335,59.6621 L825.3,72.4711 L822.188,72.4711 L824.183,59.7421 C824.741,56.1901 824.143,54.3951 820.352,54.3951 C818.637,54.6751 816.162,55.3521 814.167,55.8711 L811.534,72.4711 L808.422,72.4711 L812.97,43.7411 L815.484,43.7411 L815.684,46.2551 L814.486,53.7571 C817.04,52.6801 819.234,51.7621 821.23,51.7621 C827.295,51.7621 827.854,56.3501 827.335,59.6621" id="Fill-10" fill="#3C3B41" mask="url(#mask-2)"></path>
                    <path d="M837.0293,65.3682 C836.5503,68.3602 836.7903,70.0762 839.3033,70.0762 C840.6203,70.0762 841.9773,70.0372 843.3743,69.5972 L842.7753,71.8322 C841.6583,72.3112 840.0613,72.5912 839.2233,72.5912 C833.5973,72.5912 833.2783,69.2782 833.9973,64.7292 L835.5923,54.5142 L831.9623,54.5142 L832.7193,52.0812 L836.0713,52.0812 L837.8673,47.0542 L839.9023,47.0542 L839.1043,52.0812 L846.0873,52.0812 L845.3293,54.5142 L838.7453,54.5142 L837.0293,65.3682 Z" id="Fill-11" fill="#3C3B41" mask="url(#mask-2)"></path>
                    <polygon id="Fill-12" fill="#3C3B41" mask="url(#mask-2)" points="862.4854 43.7412 865.0394 43.7412 865.2384 46.4152 861.1284 72.4702 857.9364 72.4702"></polygon>
                    <path d="M873.498,65.3682 C873.019,68.3602 873.259,70.0762 875.772,70.0762 C877.089,70.0762 878.446,70.0372 879.843,69.5972 L879.244,71.8322 C878.127,72.3112 876.53,72.5912 875.692,72.5912 C870.066,72.5912 869.747,69.2782 870.466,64.7292 L872.061,54.5142 L868.431,54.5142 L869.188,52.0812 L872.54,52.0812 L874.336,47.0542 L876.371,47.0542 L875.573,52.0812 L882.556,52.0812 L881.798,54.5142 L875.214,54.5142 L873.498,65.3682 Z" id="Fill-13" fill="#3C3B41" mask="url(#mask-2)"></path>
                    <path d="M890.2158,70.2764 C891.7328,69.9974 893.8078,69.3984 895.3628,68.9204 L896.2808,62.8944 C894.4458,62.8944 892.9698,62.9344 891.8128,63.0134 C889.3778,63.1334 888.1818,63.4134 887.2638,63.8914 C886.3858,64.5704 885.9068,66.2864 885.9068,67.3634 C885.9068,69.3584 887.2238,70.2764 890.2158,70.2764 M899.8718,57.9464 C899.8718,58.7054 899.8328,59.5434 899.6728,60.4204 L897.7578,72.4704 L895.2838,72.4704 L895.2038,70.8754 C893.3288,71.7924 891.1338,72.6704 889.2188,72.6704 C885.6278,72.6704 883.0738,71.1934 883.0738,67.5624 C883.0738,62.8944 886.4658,60.5804 891.0548,60.5804 C892.2508,60.6204 894.3258,60.5804 896.6408,60.8594 L896.8798,59.2234 C896.9598,58.7444 896.9998,58.3054 896.9998,57.9064 C896.9998,55.0734 895.1238,54.2754 892.5698,54.2754 C890.5348,54.2754 888.2608,54.5544 886.4658,55.1934 L887.0248,52.9994 C888.4608,52.3604 891.0148,51.7614 892.5698,51.7614 C897.9968,51.7614 899.8718,54.1564 899.8718,57.9464" id="Fill-14" fill="#3C3B41" mask="url(#mask-2)"></path>
                    <path d="M904.7393,69.0391 L908.7683,43.7411 L911.3233,43.7411 L911.4823,46.2551 L907.7313,69.9571 L911.2833,70.5161 L910.8033,72.2711 C909.9663,72.4711 908.9283,72.5911 907.5323,72.5911 C905.6963,72.5911 904.3803,71.4741 904.7393,69.0391" id="Fill-15" fill="#3C3B41" mask="url(#mask-2)"></path>
                    <path d="M918.0254,46.2158 C918.1054,45.6168 918.4244,44.9788 918.7844,44.5388 C919.2224,44.3398 919.7814,44.2998 920.2594,44.2998 C921.6174,44.2998 922.2954,45.1378 922.0954,46.6538 C922.0154,47.2128 921.6964,47.8918 921.3774,48.2498 C920.8984,48.4898 920.3394,48.5288 919.8214,48.5288 C918.5444,48.5288 917.8264,47.7318 918.0254,46.2158 L918.0254,46.2158 Z M917.7864,52.0808 L920.8984,52.0808 L917.6674,72.4708 L914.5544,72.4708 L917.7864,52.0808 Z" id="Fill-16" fill="#3C3B41" mask="url(#mask-2)"></path>
                    <path d="M925.167,61.9766 C926.244,55.1136 930.993,51.7616 936.101,51.7616 C938.175,51.7616 939.852,52.3206 941.208,52.8786 L940.529,54.9146 C939.133,54.4746 937.736,54.2756 935.94,54.2756 C934.025,54.2756 932.03,55.1936 930.953,55.9516 C930.155,56.7896 928.719,59.2636 928.2,62.4146 C927.401,67.6026 929.477,70.1566 932.908,70.1566 C935.103,70.1566 936.619,69.9976 938.773,69.4786 L938.255,71.7126 C936.579,72.3116 934.584,72.6696 932.988,72.6696 C927.401,72.6696 924.05,69.0386 925.167,61.9766" id="Fill-17" fill="#3C3B41" mask="url(#mask-2)"></path>
                    <path d="M812.0537,100.5332 C814.8067,100.5332 816.8817,100.3342 818.0787,99.5362 C818.7967,98.6182 819.2357,97.3822 819.2357,95.4662 C819.1967,91.1962 816.9617,90.3982 812.0537,90.3982 L807.9437,90.3982 L807.9437,100.5332 L812.0537,100.5332 Z M825.5797,115.6962 L820.9117,115.6962 L815.9237,106.0002 C815.0457,104.3642 813.8887,103.8862 810.6167,103.8862 L807.9437,103.8862 L807.9437,115.6962 L803.9927,115.6962 L803.9927,86.9672 L812.5327,86.9672 C819.3557,86.9672 823.2657,89.2812 823.3857,95.4662 C823.3057,99.4162 821.3507,101.8102 818.3187,102.9682 C818.9557,103.5262 819.4357,104.2842 819.9937,105.2822 L825.5797,115.6962 Z" id="Fill-18" fill="#3C3B41" mask="url(#mask-2)"></path>
                    <path d="M833.3604,99.3369 C832.7614,100.0549 832.1634,101.7709 832.0034,104.0449 C834.6364,104.0049 836.6724,103.9649 838.1884,103.8459 C839.5454,103.7659 840.5024,103.5659 841.1404,103.2869 C841.6594,102.7289 841.6594,101.5709 841.6594,101.0529 C841.6594,99.2169 840.3824,97.8199 837.7494,97.8199 C835.8344,97.8199 834.3174,98.5779 833.3604,99.3369 M838.4274,112.7829 C840.1034,112.7829 842.2574,112.6239 844.2134,112.0249 L843.7344,114.7379 C841.8594,115.4969 839.9034,115.8959 838.1884,115.8959 C831.3654,115.8959 828.0924,112.3049 828.0924,105.3609 C828.0924,98.4989 832.3224,94.8669 837.7494,94.8669 C842.0584,94.8669 845.2114,96.7029 845.2114,101.4909 C845.2114,105.1219 843.0554,106.9179 838.3474,106.9179 C837.2704,106.9179 834.3974,106.7979 831.9634,106.5589 C832.2824,110.7879 834.1984,112.7829 838.4274,112.7829" id="Fill-19" fill="#3C3B41" mask="url(#mask-2)"></path>
                    <path d="M862.2471,101.9307 C862.2471,99.2967 860.3721,97.7807 857.5391,97.7807 C855.9431,97.7807 854.8261,98.0997 853.9881,98.5377 C853.4301,99.0577 852.8311,100.1747 852.8311,101.9307 C852.8311,104.5637 854.6661,106.1597 857.5391,106.1597 C859.0961,106.1597 860.2521,105.8007 861.0511,105.4017 C861.6491,104.8427 862.2471,103.6857 862.2471,101.9307 L862.2471,101.9307 Z M867.7141,97.7807 L864.6011,98.0597 C865.3991,99.0977 865.9581,100.4137 865.9581,101.9697 C865.9581,106.5187 862.5661,109.0327 857.5391,109.0327 C856.3421,109.0327 855.2251,108.8727 854.2681,108.6337 L853.1491,111.7057 C853.5891,111.9857 854.2681,112.1057 855.0251,112.1847 L859.8131,112.6237 C864.0831,113.0627 866.5971,114.2197 866.5971,118.2497 C866.5971,122.4797 862.8461,124.0357 856.8211,123.9957 C853.0701,123.9557 850.5171,123.3977 848.0821,122.3997 L848.7611,119.5667 C851.0751,120.3257 853.6691,120.8837 856.5811,120.8837 C859.3351,120.8837 861.2501,120.5647 862.2081,120.0857 C862.5661,119.6467 862.7261,119.1677 862.7261,118.3297 C862.7261,117.0127 861.8491,116.2947 859.2551,116.0557 L853.7481,115.4967 C851.4341,115.2967 849.9981,114.3397 849.3591,113.5417 L851.8331,107.4767 C850.1171,106.2797 849.1601,104.4047 849.1601,101.9307 C849.1601,97.3017 852.7511,94.8677 857.5391,94.8677 C858.9351,94.8677 860.2131,95.0277 861.3301,95.3867 L868.1131,95.3867 L867.7141,97.7807 Z" id="Fill-20" fill="#3C3B41" mask="url(#mask-2)"></path>
                    <path d="M889.6182,95.1465 L889.6182,115.6965 L886.2662,115.6965 L885.7482,113.7415 C883.7132,114.7785 881.5182,115.8955 879.2442,115.8955 C873.3392,115.8955 871.9812,111.7465 871.9812,107.9955 L871.9812,95.1465 L876.0122,95.1465 L876.0122,107.6755 C876.0122,110.9485 876.8892,112.6245 880.4012,112.6245 C881.8382,112.3845 883.8722,111.9055 885.5882,111.5065 L885.5882,95.1465 L889.6182,95.1465 Z" id="Fill-21" fill="#3C3B41" mask="url(#mask-2)"></path>
                    <path d="M896.2402,111.9453 L896.2402,86.9663 L899.5932,86.9663 L900.2702,89.9203 L900.2702,112.5843 L903.9412,113.1423 L903.6222,115.3773 C902.6652,115.6563 901.4272,115.8553 899.9112,115.8553 C897.8372,115.8553 896.2402,114.6193 896.2402,111.9453" id="Fill-22" fill="#3C3B41" mask="url(#mask-2)"></path>
                    <path d="M914.2354,112.9834 C915.4724,112.7434 917.3874,112.2244 918.8244,111.7864 L918.8244,106.3594 C917.2284,106.3994 915.9114,106.3994 914.8344,106.4784 C912.5994,106.6384 911.2834,106.8784 910.4054,107.2774 C909.8854,107.8364 909.7664,108.7134 909.7664,109.5914 C909.7664,111.3864 910.8434,112.9834 914.2354,112.9834 M922.6154,103.5264 L922.6154,115.6964 L919.4634,115.6964 L919.0234,113.9004 C917.4274,114.7784 915.3124,115.8954 913.0784,115.8954 C909.0084,115.8954 906.1354,114.1394 906.1354,109.4714 C906.1354,105.7204 908.9284,103.6854 913.3974,103.6064 C914.4344,103.6454 916.5894,103.6854 918.8244,103.8454 L918.8244,102.5684 C918.8244,99.0574 916.7094,97.9794 913.5574,97.9794 C911.6014,97.9794 909.2084,98.2194 907.6114,98.7784 L908.0504,96.1444 C909.6464,95.4254 912.0414,94.8674 913.9164,94.8674 C920.5804,94.8674 922.6154,98.0994 922.6154,103.5264" id="Fill-23" fill="#3C3B41" mask="url(#mask-2)"></path>
                    <path d="M940.9287,95.1074 L940.1307,98.4194 C939.3317,98.2984 938.5747,98.2194 937.3767,98.2194 C935.9807,98.4594 934.4637,98.8174 932.8677,99.2564 L932.8677,115.6964 L928.8377,115.6964 L928.8377,95.1464 L932.1507,95.1464 L932.7087,97.1024 C934.7437,95.9844 936.7387,94.8674 938.6147,94.8674 C939.4917,94.8674 940.3297,94.9474 940.9287,95.1074" id="Fill-24" fill="#3C3B41" mask="url(#mask-2)"></path>
                    <polygon id="Fill-25" fill="#3C3B41" mask="url(#mask-2)" points="859.9316 130.1914 863.2846 130.1914 863.4836 133.3434 859.4526 158.9204 855.3826 158.9204"></polygon>
                    <path d="M872.3799,151.499 C871.9009,154.372 872.3009,155.889 874.6939,155.889 C876.0109,155.889 877.2879,155.849 878.6049,155.449 L877.8069,158.362 C876.6899,158.801 875.1729,159.08 874.0559,159.08 C868.4699,159.08 867.7519,155.769 868.5099,150.94 L870.0259,141.444 L866.3559,141.444 L867.3129,138.371 L870.6239,138.371 L872.4999,133.344 L875.2129,133.344 L874.4149,138.371 L881.2779,138.371 L880.3199,141.444 L873.9369,141.444 L872.3799,151.499 Z" id="Fill-26" fill="#3C3B41" mask="url(#mask-2)"></path>
                    <path d="M889.0986,156.168 C890.5356,155.968 892.4906,155.37 893.9266,154.971 L894.7646,149.584 C893.1286,149.624 891.8116,149.664 890.7346,149.743 C888.5796,149.903 887.4226,150.143 886.5446,150.542 C885.7466,151.14 885.3076,152.576 885.3076,153.574 C885.3076,155.21 886.3856,156.208 889.0986,156.168 M899.1546,144.397 C899.1546,145.155 899.1146,146.032 898.9536,146.91 L897.0386,158.921 L893.9266,158.921 L893.8066,157.245 C892.1306,158.083 889.8966,159.12 887.8616,159.12 C884.2306,159.12 881.7566,157.605 881.7566,153.973 C881.7566,149.305 885.0686,146.91 889.7376,146.87 C890.8546,146.91 893.0486,146.91 895.1636,147.149 L895.4036,145.674 C895.4836,145.234 895.5226,144.836 895.5226,144.477 C895.5226,141.963 893.8066,141.244 891.1736,141.244 C889.1386,141.244 886.7846,141.523 885.0686,142.082 L885.7866,139.329 C887.4226,138.611 889.9366,138.092 891.6126,138.092 C897.1596,138.092 899.1546,140.486 899.1546,144.397" id="Fill-27" fill="#3C3B41" mask="url(#mask-2)"></path>
                    <path d="M903.542,155.0107 L907.492,130.1917 L910.805,130.1917 L910.964,133.1447 L907.373,155.8087 L910.884,156.3667 L910.325,158.6417 C909.328,158.9207 908.131,159.0797 906.734,159.0797 C904.579,159.0797 903.144,157.6837 903.542,155.0107" id="Fill-28" fill="#3C3B41" mask="url(#mask-2)"></path>
                    <path d="M917.4268,132.5859 C917.5058,131.9469 917.8648,131.2689 918.2248,130.7899 C918.7828,130.5509 919.4618,130.5109 920.0208,130.5109 C921.6558,130.5109 922.4138,131.4289 922.2148,133.1449 C922.1348,133.7429 921.7758,134.4609 921.4168,134.8599 C920.8588,135.1399 920.1798,135.1799 919.5808,135.1799 C918.0258,135.1799 917.1878,134.3019 917.4268,132.5859 L917.4268,132.5859 Z M917.1478,138.3709 L921.0578,138.3709 L917.8248,158.9209 L913.8748,158.9209 L917.1478,138.3709 Z" id="Fill-29" fill="#3C3B41" mask="url(#mask-2)"></path>
                    <path d="M925.0078,148.3066 C926.0848,141.5236 930.8328,138.0916 936.1408,138.0916 C938.2148,138.0916 939.9708,138.6506 941.3668,139.2086 L940.4888,141.8426 C939.1728,141.4446 937.8568,141.2446 936.1008,141.2446 C934.2648,141.2846 932.4298,142.1216 931.3918,142.8006 C930.6338,143.6386 929.3178,145.9126 928.8378,148.8656 C928.0798,153.6546 929.9548,155.9286 933.3468,155.9286 C935.4218,155.9286 936.9388,155.7686 938.9338,155.3296 L938.2548,158.1626 C936.4988,158.8006 934.5438,159.1196 932.8678,159.1196 C927.2018,159.1196 923.8908,155.3696 925.0078,148.3066" id="Fill-30" fill="#3C3B41" mask="url(#mask-2)"></path>
                    <polygon id="Fill-31" fill="#3C3B41" mask="url(#mask-2)" points="795.0947 173.417 800.6807 173.417 807.7427 191.333 814.9257 173.417 820.5517 173.417 822.0287 202.146 816.9207 202.146 816.1227 181.278 809.8977 197.159 805.3497 197.159 799.2037 181.757 798.4867 202.146 793.6177 202.146"></polygon>
                    <path d="M832.6406,186.1455 C832.1616,186.7845 831.6826,188.1015 831.5236,190.1355 C833.9566,190.0565 835.7926,189.9765 837.1496,189.8165 C838.2266,189.6975 839.0246,189.5375 839.6226,189.3375 C840.0626,188.8195 840.0626,188.1805 840.0626,187.6625 C840.0626,186.1455 839.1046,184.9495 836.6306,184.9495 C834.9546,184.9495 833.4786,185.5465 832.6406,186.1455 M837.6276,198.3555 C839.4236,198.3555 841.8176,198.1165 843.5336,197.5975 L842.9746,201.2285 C840.8606,201.9875 838.7446,202.3855 836.9106,202.3855 C829.9266,202.3855 826.5756,198.6745 826.5756,191.6925 C826.5756,185.0285 830.6456,181.1185 836.7096,181.1185 C841.4586,181.1185 844.4516,183.2335 844.4516,187.8615 C844.4516,191.7725 842.2166,193.6075 837.3486,193.6075 C836.3516,193.6075 833.8376,193.4885 831.5636,193.2485 C831.9216,196.8795 833.5976,198.3555 837.6276,198.3555" id="Fill-32" fill="#3C3B41" mask="url(#mask-2)"></path>
                    <path d="M857.9766,198.3164 C859.0536,198.1564 860.4516,197.7564 861.6876,197.3584 L861.6876,185.8664 C860.6106,185.3874 859.2136,185.1084 857.6576,185.1084 C856.4206,185.1084 855.0246,185.6274 854.2256,186.2654 C853.6276,187.0234 853.0296,189.0584 853.0296,191.7324 C853.0296,196.5604 854.7456,198.3164 857.9766,198.3164 L857.9766,198.3164 Z M866.7946,177.0084 L866.7946,202.1464 L862.6056,202.1464 L862.0066,200.0714 C860.2906,201.3484 858.0966,202.3854 856.1416,202.3854 C850.4756,202.3854 847.8016,198.1164 847.8016,191.7324 C847.8016,184.8694 851.9126,181.1184 857.0196,181.1184 C858.8546,181.1184 860.4116,181.7564 861.6876,182.6344 L861.6876,173.4174 L866.0776,173.4174 L866.7946,177.0084 Z" id="Fill-33" fill="#3C3B41" mask="url(#mask-2)"></path>
                    <path d="M872.938,202.146 L878.125,202.146 L878.125,181.397 L872.938,181.397 L872.938,202.146 Z M872.54,176.051 C872.54,175.173 872.898,174.295 873.258,173.896 C873.896,173.577 874.774,173.377 875.532,173.377 C877.407,173.377 878.485,174.255 878.485,176.051 C878.485,176.929 878.206,177.767 877.767,178.166 C877.168,178.524 876.29,178.685 875.532,178.685 C873.657,178.685 872.54,177.807 872.54,176.051 L872.54,176.051 Z" id="Fill-34" fill="#3C3B41" mask="url(#mask-2)"></path>
                    <path d="M902.7441,181.3975 L902.7441,202.1465 L898.4741,202.1465 L897.8761,200.0715 C896.0811,201.1495 893.8861,202.3855 891.6511,202.3855 C886.0251,202.3855 884.2691,198.5955 884.2691,194.2865 L884.2691,181.3975 L889.4571,181.3975 L889.4571,193.9665 C889.4571,196.8395 890.3351,198.1965 893.2081,198.1965 C894.4441,197.9575 896.0811,197.6375 897.5571,197.2785 L897.5571,181.3975 L902.7441,181.3975 Z" id="Fill-35" fill="#3C3B41" mask="url(#mask-2)"></path>
                    <path d="M938.6543,189.1787 L938.6543,202.1467 L933.4673,202.1467 L933.4673,189.4577 C933.4673,186.5047 932.6303,185.2287 929.9963,185.2287 C928.8793,185.3877 927.3623,185.8267 926.0063,186.1857 C926.2453,187.1037 926.3653,188.1017 926.3653,189.0987 L926.3653,202.1467 L921.1773,202.1467 L921.1773,189.4577 C921.1773,186.5047 920.3803,185.2287 917.7063,185.2287 C916.5083,185.3877 915.2723,185.7867 914.0753,186.1857 L914.0753,202.1467 L908.8873,202.1467 L908.8873,181.3977 L913.1173,181.3977 L913.7563,183.3927 C915.3513,182.2357 917.1073,181.1177 919.5023,181.1177 C921.9353,181.1177 923.6513,182.0357 924.7283,183.4727 C926.7233,182.2357 929.0383,181.1177 931.4723,181.1177 C936.6193,181.1177 938.6543,184.8287 938.6543,189.1787" id="Fill-36" fill="#3C3B41" mask="url(#mask-2)"></path>
                    <polygon id="Fill-37" fill="#3C3B41" mask="url(#mask-2)" points="700.0156 216.6416 705.3626 216.6416 709.5516 234.5576 719.3276 216.6416 724.9136 216.6416 721.8416 245.3706 716.8536 245.3706 719.4076 224.5026 710.8286 240.3836 706.3996 240.3836 702.7686 224.9816 698.7386 245.3706 693.9906 245.3706"></polygon>
                    <path d="M738.8389,228.1338 C736.8829,228.1338 735.5259,228.9318 734.5289,229.6108 C734.0899,230.2078 733.4519,231.4858 732.9329,233.3608 C735.2069,233.3208 737.0429,233.2408 738.4399,233.1208 C739.4769,233.0408 740.2759,232.8818 740.8339,232.6828 C741.3929,232.2028 741.5919,231.2858 741.6719,230.6878 C741.9109,229.2908 740.9529,228.1338 738.8389,228.1338 M745.8609,231.4458 C745.2629,235.1958 742.9479,236.6728 738.3189,236.6728 C737.2419,236.6728 734.6489,236.5528 732.3349,236.3138 C732.0159,240.1438 733.6919,241.5798 737.3219,241.5798 C739.1969,241.5798 741.5919,241.2608 743.3879,240.7818 L742.4299,244.4928 C740.3149,245.2908 738.2799,245.6108 736.4439,245.6108 C729.4619,245.6108 726.7079,241.7398 727.8249,234.5978 C728.8629,228.0538 733.3319,224.3428 739.1569,224.3428 C743.9059,224.3428 746.6189,226.6968 745.8609,231.4458" id="Fill-38" fill="#3C3B41" mask="url(#mask-2)"></path>
                    <path d="M757.2715,241.541 C758.5085,241.381 759.9845,240.902 761.3415,240.463 L763.1365,229.131 C762.1795,228.612 760.9825,228.293 759.6255,228.293 C757.8705,228.293 756.4335,228.892 755.5555,229.57 C754.9175,230.288 754.0395,232.044 753.5605,235.276 C752.8815,239.825 754.5185,241.541 757.2715,241.541 L757.2715,241.541 Z M769.5215,220.233 L765.5315,245.371 L761.4205,245.371 L761.2215,243.416 C759.3465,244.653 757.1125,245.61 755.2765,245.61 C750.0885,245.61 747.4955,241.142 748.5335,234.638 C749.6105,227.934 753.6405,224.343 759.0275,224.343 C760.9825,224.343 762.4585,225.062 763.6165,226.019 L765.0915,216.642 L769.3615,216.642 L769.5215,220.233 Z" id="Fill-39" fill="#3C3B41" mask="url(#mask-2)"></path>
                    <path d="M775.1455,218.916 C775.2655,218.198 775.6245,217.479 776.0635,216.961 C776.7425,216.642 777.6205,216.602 778.2185,216.602 C780.2525,216.602 781.2105,217.64 780.9715,219.595 C780.8515,220.312 780.4935,221.071 780.0535,221.55 C779.3355,221.869 778.4985,221.909 777.8595,221.909 C775.8645,221.909 774.9065,220.871 775.1455,218.916 L775.1455,218.916 Z M774.8275,224.622 L779.8945,224.622 L776.6225,245.371 L771.5545,245.371 L774.8275,224.622 Z" id="Fill-40" fill="#3C3B41" mask="url(#mask-2)"></path>
                    <path d="M804.0742,224.6221 L800.7612,245.3711 L796.6122,245.3711 L796.3732,243.4561 C794.4582,244.4931 792.1832,245.6101 790.1082,245.6101 C784.4822,245.6101 783.2452,241.7001 783.9242,237.3911 L785.9592,224.6221 L791.0262,224.6221 L789.0312,237.3911 C788.5922,240.0641 789.1502,241.4211 791.9042,241.4211 C793.3012,241.2221 794.9762,240.8221 796.4922,240.4231 L799.0072,224.6221 L804.0742,224.6221 Z" id="Fill-41" fill="#3C3B41" mask="url(#mask-2)"></path>
                    <path d="M837.9893,232.6025 L835.9543,245.3715 L830.8863,245.3715 L832.9623,232.4825 C833.4003,229.5305 832.4833,228.4535 830.3283,228.4535 C829.0513,228.6525 827.4553,229.1305 826.0983,229.5705 C826.1783,230.4875 826.1383,231.4855 825.9793,232.4825 L823.9443,245.3715 L818.8373,245.3715 L820.9113,232.4825 C821.3903,229.5305 820.4723,228.4535 818.3183,228.4535 C816.9613,228.6525 815.6443,229.1305 814.4073,229.5305 L811.8933,245.3715 L806.8263,245.3715 L810.0983,224.6225 L814.2483,224.6225 L814.5273,226.5375 C816.2033,225.4595 818.1983,224.3425 820.2333,224.3425 C822.6673,224.3425 824.2633,225.2605 825.1413,226.6575 C827.2963,225.4195 829.7293,224.3425 832.0043,224.3425 C836.8323,224.3425 838.6683,228.2525 837.9893,232.6025" id="Fill-42" fill="#3C3B41" mask="url(#mask-2)"></path>
                    <polygon id="Fill-43" fill="#3C3B41" mask="url(#mask-2)" points="856.4609 216.6416 860.9309 216.6416 861.0899 220.5126 857.1799 245.3706 851.9129 245.3706"></polygon>
                    <path d="M870.8652,237.4707 C870.4262,240.2637 871.0642,241.4607 873.2192,241.4607 C874.5362,241.4607 875.7722,241.3807 876.8892,241.1017 L875.8922,244.9327 C874.6952,245.3307 873.2992,245.5707 871.8222,245.5707 C866.2762,245.5707 865.0392,242.2987 865.8372,237.0717 L867.1942,228.5727 L863.5232,228.5727 L864.7192,224.6217 L868.0322,224.6217 L869.9472,219.5547 L873.6982,219.5547 L872.8992,224.6217 L879.5632,224.6217 L878.3662,228.5727 L872.2612,228.5727 L870.8652,237.4707 Z" id="Fill-44" fill="#3C3B41" mask="url(#mask-2)"></path>
                    <path d="M887.542,241.8594 C888.859,241.7404 890.615,241.2214 891.972,240.8224 L892.649,236.4334 C891.293,236.4724 890.136,236.5124 889.218,236.5924 C887.423,236.7524 886.306,236.9924 885.508,237.2714 C884.829,237.7504 884.43,238.8274 884.43,239.7054 C884.43,240.8624 885.188,241.8994 887.542,241.8594 M898.116,230.8864 C898.116,231.6444 898.076,232.5224 897.917,233.4004 L896.002,245.3714 L892.012,245.3714 L891.852,243.5354 C890.336,244.4134 888.062,245.6104 885.906,245.6104 C882.275,245.6104 879.921,244.0144 879.921,240.3834 C879.921,235.6744 883.073,233.2414 887.821,233.1214 C888.819,233.1214 891.054,233.2014 893.129,233.4004 L893.328,232.1244 C893.368,231.7644 893.408,231.4454 893.408,231.1264 C893.408,229.0514 891.892,228.3734 889.218,228.3734 C887.184,228.3734 884.669,228.6924 883.113,229.1714 L884.071,225.5804 C885.986,224.8214 888.38,224.3424 890.216,224.3424 C895.962,224.3424 898.116,226.7374 898.116,230.8864" id="Fill-45" fill="#3C3B41" mask="url(#mask-2)"></path>
                    <path d="M901.8662,240.8223 L905.6962,216.6413 L910.0062,216.6413 L910.1652,220.1933 L906.8532,241.4213 L910.2852,242.0193 L909.6062,245.0113 C908.4092,245.3713 906.9732,245.5703 905.5372,245.5703 C902.9432,245.5703 901.3872,243.8143 901.8662,240.8223" id="Fill-46" fill="#3C3B41" mask="url(#mask-2)"></path>
                    <path d="M916.5488,218.916 C916.6688,218.198 917.0278,217.479 917.4668,216.961 C918.1458,216.642 919.0238,216.602 919.6218,216.602 C921.6558,216.602 922.6138,217.64 922.3748,219.595 C922.2548,220.312 921.8968,221.071 921.4568,221.55 C920.7388,221.869 919.9018,221.909 919.2628,221.909 C917.2678,221.909 916.3098,220.871 916.5488,218.916 L916.5488,218.916 Z M916.2308,224.622 L921.2978,224.622 L918.0258,245.371 L912.9578,245.371 L916.2308,224.622 Z" id="Fill-47" fill="#3C3B41" mask="url(#mask-2)"></path>
                    <path d="M924.7285,234.6377 C925.8055,227.8947 930.5935,224.3427 936.1405,224.3427 C938.2545,224.3427 940.1695,224.9017 941.6065,225.4997 L940.4495,229.0117 C939.1725,228.6127 937.9755,228.4527 936.3395,228.4527 C934.5835,228.4917 932.9485,229.2107 932.0305,229.8097 C931.2725,230.6477 930.1555,232.6427 929.7155,235.2767 C929.0775,239.5057 930.6335,241.4607 933.9455,241.4607 C935.8215,241.4607 937.3365,241.3007 939.1725,240.9427 L938.2545,244.6537 C936.3795,245.3307 934.5435,245.6107 932.7085,245.6107 C926.9225,245.6107 923.6515,241.6597 924.7285,234.6377" id="Fill-48" fill="#3C3B41" mask="url(#mask-2)"></path>
                    <path d="M873.3779,280.0566 C873.3379,277.1836 872.1409,276.2656 867.9909,276.2656 L863.2419,276.2656 L863.2419,283.9266 L867.1919,283.9266 C869.7459,283.9266 871.6219,283.6476 872.4199,283.0886 C873.0589,282.4106 873.4169,281.4526 873.3779,280.0566 M866.9529,264.5356 L863.2419,264.5356 L863.2419,271.6376 L866.9929,271.6376 C869.1079,271.6376 870.5839,271.5176 871.5019,270.9586 C872.1009,270.2416 872.2999,269.5226 872.2999,268.2056 C872.2609,265.2526 870.7039,264.5356 866.9529,264.5356 M879.1229,280.0566 C879.0439,285.9216 875.1329,288.5956 867.9909,288.5956 L857.6559,288.5956 L857.6559,259.8666 L867.0729,259.8666 C874.1359,259.8666 878.0459,262.0616 878.0859,267.7666 C878.1259,270.5606 876.6899,272.3156 874.9339,273.5526 C877.2879,274.5506 879.0839,276.3456 879.1229,280.0566" id="Fill-49" fill="#3C3B41" mask="url(#mask-2)"></path>
                    <path d="M895.7617,283.3682 C896.3207,282.5302 896.8387,280.8542 896.8387,278.1812 C896.8387,273.7922 895.4827,271.9172 892.6097,271.9172 C891.0927,271.9172 890.0957,272.3552 889.3367,272.9542 C888.7787,273.7522 888.2997,275.5482 888.2997,278.0612 C888.2997,282.6102 889.6567,284.3662 892.5297,284.3662 C894.0847,284.3662 895.0427,283.9272 895.7617,283.3682 M882.4347,278.0612 C882.4347,271.3182 886.7427,267.4482 892.5697,267.4482 C898.7137,267.4482 902.7037,271.2782 902.7037,278.1812 C902.7037,285.2042 898.4347,288.8352 892.5697,288.8352 C886.3847,288.8352 882.4347,285.1242 882.4347,278.0612" id="Fill-50" fill="#3C3B41" mask="url(#mask-2)"></path>
                    <path d="M907.4512,283.8877 L907.4512,259.8667 L912.4782,259.8667 L913.3162,263.7767 L913.3162,284.1667 L916.9072,284.7657 L916.5892,288.1167 C915.3112,288.5557 913.6762,288.7947 912.0792,288.7947 C909.3262,288.7947 907.4512,287.0387 907.4512,283.8877" id="Fill-51" fill="#3C3B41" mask="url(#mask-2)"></path>
                    <path d="M929.3164,284.2861 C930.2734,284.1671 931.4704,283.8071 932.6284,283.4481 L932.6284,272.5951 C931.6304,272.1561 930.3934,271.9171 929.0374,271.9171 C927.8394,271.9171 926.6024,272.3951 925.8444,272.9941 C925.3264,273.6731 924.7674,275.5881 924.7674,278.1411 C924.7674,282.5701 926.2844,284.2461 929.3164,284.2861 L929.3164,284.2861 Z M938.3744,263.8561 L938.3744,288.5961 L933.6654,288.5961 L933.0674,286.5601 C931.3114,287.8381 929.1564,288.8351 927.1614,288.8351 C921.4954,288.8351 918.9024,284.5251 918.9024,278.1411 C918.9024,271.3181 922.8914,267.4871 928.0794,267.4871 C929.8754,267.4871 931.3514,268.0461 932.6284,268.9241 L932.6284,259.8661 L937.5764,259.8661 L938.3744,263.8561 Z" id="Fill-52" fill="#3C3B41" mask="url(#mask-2)"></path>
                    <path d="M761.0615,308.1992 L760.0245,314.7432 L763.4155,314.7432 C765.4505,314.7432 766.9265,314.4642 767.7245,314.0252 C768.2445,313.4272 768.5625,312.8282 768.7625,311.4712 C769.1615,309.2372 767.6855,308.1992 764.4135,308.1992 L761.0615,308.1992 Z M763.6555,319.6512 L759.2655,319.6512 L758.1485,326.6742 L761.9795,326.6742 C764.3325,326.6742 766.0485,326.2752 766.8075,325.8762 C767.3665,325.2372 767.7645,324.5592 768.0035,323.1232 C768.3635,320.8082 767.0465,319.6512 763.6555,319.6512 L763.6555,319.6512 Z M771.0775,316.9772 C773.1515,318.1352 774.6275,320.1302 774.0695,323.8812 C773.0725,329.5472 769.1215,331.8212 762.0185,331.8212 L751.2455,331.8212 L755.7935,303.0922 L757.4705,303.0922 L757.4705,303.0522 L765.2905,303.0522 C772.2735,303.0522 775.9055,305.7652 775.0275,311.6312 C774.6275,314.3452 772.9525,315.8602 771.0775,316.9772 L771.0775,316.9772 Z" id="Fill-53" fill="#3C3B41" mask="url(#mask-2)"></path>
                    <path d="M789.4697,326.1152 C790.0287,325.4762 790.7467,323.8812 791.1057,321.2472 C791.6637,317.6562 790.8257,315.5022 788.2337,315.5022 C786.9957,315.5022 786.0777,315.9802 785.3207,316.4592 C784.7617,317.1372 784.1227,318.6932 783.6847,321.2872 C783.0857,324.9182 784.0027,327.0732 786.5967,327.0732 C787.8337,327.0732 788.7117,326.5942 789.4697,326.1152 M777.4197,320.7282 C778.4567,314.2242 783.0857,310.5532 788.8307,310.5532 C795.1757,310.5532 798.6077,314.7832 797.4907,321.8862 C796.3727,328.6692 791.8237,332.1002 786.0377,332.1002 C779.6547,332.1002 776.2627,327.9902 777.4197,320.7282" id="Fill-54" fill="#3C3B41" mask="url(#mask-2)"></path>
                    <path d="M801.1201,326.5547 L804.8711,303.0917 L810.3381,303.0917 L810.4971,307.3617 L807.4651,326.9127 L810.8161,327.5517 L810.0581,331.3827 C808.5821,331.8617 806.8661,332.0607 805.3901,332.0607 C802.3171,332.0607 800.6011,329.8667 801.1201,326.5547" id="Fill-55" fill="#3C3B41" mask="url(#mask-2)"></path>
                    <path d="M823.1455,326.9932 C824.1825,326.8732 825.3395,326.5552 826.4165,326.1952 L828.0135,316.0602 C827.2545,315.7412 826.2975,315.5022 825.3395,315.5022 C823.8235,315.5022 822.6265,315.9402 821.8285,316.4992 C821.3495,317.1382 820.5915,318.4142 820.1125,321.7262 C819.5935,325.4372 820.7915,326.9932 823.1455,326.9932 L823.1455,326.9932 Z M835.5945,307.4412 L831.7245,331.8212 L826.6565,331.8212 L826.4165,329.9462 C824.5015,331.2222 822.3865,332.1002 820.5115,332.1002 C815.3645,332.1002 812.7305,327.5122 813.7685,320.8892 C814.8455,314.3052 818.7955,310.5942 824.3025,310.5942 C826.1375,310.5942 827.5345,311.1922 828.6515,312.1092 L830.0475,303.0922 L835.4345,303.0922 L835.5945,307.4412 Z" id="Fill-56" fill="#3C3B41" mask="url(#mask-2)"></path>
                    <polygon id="Fill-57" fill="#3C3B41" mask="url(#mask-2)" points="851.9922 303.0918 857.7782 303.0918 857.8972 307.7608 854.1462 331.8208 847.4432 331.8208"></polygon>
                    <path d="M868.709,323.3623 C868.311,326.0353 869.188,326.8733 871.104,326.8733 C872.42,326.8733 873.617,326.7943 874.535,326.6333 L873.258,331.5023 C872.022,331.8613 870.744,332.0603 868.869,332.0603 C863.322,332.0603 861.487,328.8293 862.365,323.1633 L863.522,315.7813 L859.892,315.7813 L861.327,310.8333 L864.64,310.8333 L866.635,305.7653 L871.503,305.7653 L870.704,310.8333 L877.129,310.8333 L875.692,315.7813 L869.906,315.7813 L868.709,323.3623 Z" id="Fill-58" fill="#3C3B41" mask="url(#mask-2)"></path>
                    <path d="M885.1084,327.4316 C886.3054,327.3526 887.8214,326.9526 889.0184,326.6336 L889.5774,323.0426 C888.5804,323.0426 887.6624,323.1226 886.9034,323.1626 C885.4274,323.2826 884.3894,323.4816 883.7124,323.6816 C883.1934,324.0396 882.8344,325.0376 882.8344,325.7556 C882.8344,326.5936 883.3924,327.4716 885.1084,327.4316 M896.3204,317.3766 C896.3204,318.1346 896.2804,319.0126 896.1214,319.9306 L894.2064,331.8216 L889.1774,331.8216 L888.9784,329.9066 C887.5024,330.8246 885.2674,332.1006 883.0734,332.1006 C879.4424,332.1006 877.2084,330.3446 877.2084,326.7136 C877.2084,321.9656 880.1204,319.4116 885.0284,319.2916 C885.9464,319.2516 888.0604,319.3316 890.1354,319.5316 L890.2554,318.6936 C890.2954,318.4136 890.3354,318.1746 890.3354,317.8956 C890.3354,316.1796 888.8984,315.5806 886.3444,315.5806 C884.3104,315.5806 881.6364,315.9806 880.2404,316.3396 L881.4774,311.7906 C883.7124,310.9926 885.9864,310.5536 888.0214,310.5536 C893.9664,310.5536 896.3204,312.9876 896.3204,317.3766" id="Fill-59" fill="#3C3B41" mask="url(#mask-2)"></path>
                    <path d="M899.8711,326.5547 L903.6221,303.0917 L909.0891,303.0917 L909.2481,307.3617 L906.2161,326.9127 L909.5671,327.5517 L908.8091,331.3827 C907.3331,331.8617 905.6171,332.0607 904.1411,332.0607 C901.0681,332.0607 899.3521,329.8667 899.8711,326.5547" id="Fill-60" fill="#3C3B41" mask="url(#mask-2)"></path>
                    <path d="M915.5518,305.2471 C915.6718,304.4481 916.0708,303.6501 916.5498,303.0521 C917.4278,302.6931 918.4648,302.6531 919.1828,302.6531 C921.6568,302.6531 922.8148,303.8511 922.4948,306.0851 C922.3748,306.8831 921.9758,307.7211 921.4968,308.2791 C920.6188,308.6391 919.5818,308.6791 918.8638,308.6791 C916.3898,308.6791 915.2728,307.5211 915.5518,305.2471 L915.5518,305.2471 Z M915.1928,310.8331 L921.5368,310.8331 L918.2258,331.8211 L911.8808,331.8211 L915.1928,310.8331 Z" id="Fill-61" fill="#3C3B41" mask="url(#mask-2)"></path>
                    <path d="M924.4092,320.9277 C925.4862,314.2647 930.3142,310.5537 936.1392,310.5537 C938.2552,310.5537 940.3702,311.1527 941.8462,311.7507 L940.3702,316.2197 C939.1732,315.9007 938.1352,315.7407 936.5392,315.7817 C934.9032,315.8207 933.5072,316.4187 932.7092,316.9377 C931.9502,317.7367 931.0322,319.4517 930.6742,321.6867 C930.1152,325.2777 931.3512,326.8727 934.5842,326.8727 C936.2602,326.8727 937.7762,326.7137 939.4122,326.3947 L938.2552,331.1427 C936.2202,331.8617 934.4642,332.1007 932.4692,332.1007 C926.6032,332.1007 923.3322,327.9107 924.4092,320.9277" id="Fill-62" fill="#3C3B41" mask="url(#mask-2)"></path>
                    <polygon id="Fill-63" fill="#3C3B41" mask="url(#mask-2)" points="835.5127 359.9629 826.9337 346.3169 834.7547 346.3169 839.7017 355.2949 844.8497 346.3169 852.3517 346.3169 843.6927 359.9629 853.3487 375.0459 845.4887 375.0459 839.4227 364.8309 833.2787 375.0459 826.0167 375.0459"></polygon>
                    <path d="M871.9424,366.3877 C871.9424,363.9527 870.9844,362.9157 867.1544,362.9157 L862.5654,362.9157 L862.5654,369.8987 L866.1964,369.8987 C868.5904,369.8987 870.3064,369.6587 871.1044,369.1807 C871.6634,368.5417 871.9424,367.6237 871.9424,366.3877 M866.0374,351.4237 L862.5654,351.4237 L862.5654,357.9277 L865.9574,357.9277 C867.7924,357.9277 869.2684,357.8087 870.1464,357.3287 C870.6654,356.6917 870.8654,355.9327 870.8654,354.8557 C870.8654,352.1827 869.5474,351.4237 866.0374,351.4237 M878.2864,366.4667 C878.2074,372.3327 874.3364,375.0457 867.1144,375.0457 L856.3404,375.0457 L856.3404,346.3167 L857.9764,346.3167 L857.9764,346.2767 L866.1564,346.2767 C873.3794,346.2767 877.2094,348.5507 877.2894,354.2167 C877.3294,357.0497 875.8924,358.7267 874.1364,359.9627 C876.4914,360.9997 878.2474,362.7557 878.2864,366.4667" id="Fill-64" fill="#3C3B41" mask="url(#mask-2)"></path>
                    <path d="M894.6445,369.46 C895.1635,368.662 895.6015,367.226 895.6015,364.592 C895.6015,360.441 894.4445,358.727 891.8505,358.727 C890.4945,358.727 889.5765,359.125 888.9385,359.644 C888.4185,360.441 887.9805,362.078 887.9805,364.472 C887.9805,368.821 889.1375,370.298 891.7315,370.298 C893.1275,370.298 894.0055,369.939 894.6445,369.46 M881.4365,364.472 C881.4365,357.729 885.7465,353.778 891.7715,353.778 C898.1155,353.778 902.1455,357.689 902.1455,364.592 C902.1455,371.574 897.8755,375.325 891.7715,375.325 C885.4665,375.325 881.4365,371.534 881.4365,364.472" id="Fill-65" fill="#3C3B41" mask="url(#mask-2)"></path>
                    <path d="M906.6133,369.9785 L906.6133,346.3165 L912.2393,346.3165 L913.1173,350.5855 L913.1173,370.1375 L916.6693,370.7765 L916.3493,374.5275 C914.9533,375.0055 913.1973,375.2855 911.5613,375.2855 C908.5683,375.2855 906.6133,373.2905 906.6133,369.9785" id="Fill-66" fill="#3C3B41" mask="url(#mask-2)"></path>
                    <path d="M929.2373,370.2578 C930.0753,370.1378 931.1133,369.8588 932.1103,369.5388 L932.1103,359.2848 C931.2323,358.9658 930.1153,358.7658 928.9583,358.7658 C927.8413,358.7658 926.7633,359.1248 926.0863,359.6838 C925.6463,360.3218 925.0883,362.0778 925.0883,364.5518 C925.0883,368.6218 926.4443,370.2178 929.2373,370.2578 L929.2373,370.2578 Z M938.4953,350.6658 L938.4953,375.0458 L933.2673,375.0458 L932.6693,373.0508 C930.9133,374.3668 928.7993,375.3248 926.7633,375.3248 C921.0573,375.3248 918.5443,370.9758 918.5443,364.5518 C918.5443,357.7288 922.4143,353.8188 927.7613,353.8188 C929.4773,353.8188 930.9133,354.3368 932.1103,355.1348 L932.1103,346.3168 L937.6573,346.3168 L938.4953,350.6658 Z" id="Fill-67" fill="#3C3B41" mask="url(#mask-2)"></path>
                    <polygon id="Fill-68" fill="#3C3B41" mask="url(#mask-2)" points="734.249 402.9092 727.864 389.5422 735.246 389.5422 738.997 398.3602 745.182 389.5422 752.763 389.5422 741.91 403.3082 749.052 418.2712 741.631 418.2712 737.082 408.1372 729.66 418.2712 722.238 418.2712"></polygon>
                    <path d="M761.0615,394.6494 L760.0245,401.1934 L763.4155,401.1934 C765.4505,401.1934 766.9265,400.9144 767.7245,400.4754 C768.2445,399.8774 768.5625,399.2784 768.7625,397.9214 C769.1615,395.6874 767.6855,394.6494 764.4135,394.6494 L761.0615,394.6494 Z M763.6555,406.1014 L759.2655,406.1014 L758.1485,413.1244 L761.9795,413.1244 C764.3325,413.1244 766.0485,412.7254 766.8075,412.3264 C767.3665,411.6874 767.7645,411.0094 768.0035,409.5734 C768.3635,407.2584 767.0465,406.1014 763.6555,406.1014 L763.6555,406.1014 Z M771.0775,403.4274 C773.1515,404.5854 774.6275,406.5804 774.0695,410.3314 C773.0725,415.9974 769.1215,418.2714 762.0185,418.2714 L751.2455,418.2714 L755.7935,389.5424 L757.4705,389.5424 L757.4705,389.5024 L765.2905,389.5024 C772.2735,389.5024 775.9055,392.2154 775.0275,398.0814 C774.6275,400.7954 772.9525,402.3104 771.0775,403.4274 L771.0775,403.4274 Z" id="Fill-69" fill="#3C3B41" mask="url(#mask-2)"></path>
                    <path d="M789.4697,412.5654 C790.0287,411.9264 790.7467,410.3314 791.1057,407.6974 C791.6637,404.1064 790.8257,401.9524 788.2337,401.9524 C786.9957,401.9524 786.0777,402.4304 785.3207,402.9094 C784.7617,403.5874 784.1227,405.1434 783.6847,407.7374 C783.0857,411.3684 784.0027,413.5234 786.5967,413.5234 C787.8337,413.5234 788.7117,413.0444 789.4697,412.5654 M777.4197,407.1784 C778.4567,400.6744 783.0857,397.0034 788.8307,397.0034 C795.1757,397.0034 798.6077,401.2334 797.4907,408.3364 C796.3727,415.1194 791.8237,418.5504 786.0377,418.5504 C779.6547,418.5504 776.2627,414.4414 777.4197,407.1784" id="Fill-70" fill="#3C3B41" mask="url(#mask-2)"></path>
                    <path d="M801.1191,413.0049 L804.8701,389.5419 L810.3371,389.5419 L810.4961,393.8119 L807.4641,413.3629 L810.8151,414.0019 L810.0571,417.8329 C808.5811,418.3119 806.8651,418.5109 805.3891,418.5109 C802.3161,418.5109 800.6001,416.3169 801.1191,413.0049" id="Fill-71" fill="#3C3B41" mask="url(#mask-2)"></path>
                    <path d="M823.1455,413.4434 C824.1825,413.3234 825.3395,413.0054 826.4165,412.6454 L828.0135,402.5104 C827.2545,402.1914 826.2975,401.9524 825.3395,401.9524 C823.8235,401.9524 822.6265,402.3904 821.8285,402.9494 C821.3495,403.5884 820.5915,404.8644 820.1125,408.1764 C819.5935,411.8864 820.7915,413.4434 823.1455,413.4434 L823.1455,413.4434 Z M835.5945,393.8914 L831.7245,418.2714 L826.6565,418.2714 L826.4165,416.3964 C824.5015,417.6724 822.3865,418.5504 820.5115,418.5504 C815.3645,418.5504 812.7305,413.9624 813.7685,407.3394 C814.8455,400.7554 818.7955,397.0444 824.3025,397.0444 C826.1375,397.0444 827.5345,397.6424 828.6515,398.5594 L830.0475,389.5424 L835.4345,389.5424 L835.5945,393.8914 Z" id="Fill-72" fill="#3C3B41" mask="url(#mask-2)"></path>
                    <polygon id="Fill-73" fill="#3C3B41" mask="url(#mask-2)" points="851.9912 389.542 857.7762 389.542 857.8962 394.211 854.1452 418.271 847.4422 418.271"></polygon>
                    <path d="M868.709,409.8125 C868.311,412.4855 869.188,413.3235 871.104,413.3235 C872.42,413.3235 873.617,413.2445 874.535,413.0835 L873.258,417.9525 C872.022,418.3115 870.744,418.5105 868.869,418.5105 C863.322,418.5105 861.487,415.2795 862.365,409.6135 L863.522,402.2315 L859.892,402.2315 L861.327,397.2835 L864.64,397.2835 L866.635,392.2155 L871.503,392.2155 L870.704,397.2835 L877.129,397.2835 L875.692,402.2315 L869.906,402.2315 L868.709,409.8125 Z" id="Fill-74" fill="#3C3B41" mask="url(#mask-2)"></path>
                    <path d="M885.1084,413.8818 C886.3054,413.8028 887.8214,413.4028 889.0184,413.0838 L889.5774,409.4928 C888.5804,409.4928 887.6624,409.5728 886.9034,409.6128 C885.4274,409.7328 884.3894,409.9318 883.7124,410.1318 C883.1934,410.4898 882.8344,411.4878 882.8344,412.2058 C882.8344,413.0438 883.3924,413.9218 885.1084,413.8818 M896.3204,403.8268 C896.3204,404.5848 896.2804,405.4628 896.1214,406.3808 L894.2064,418.2718 L889.1774,418.2718 L888.9784,416.3568 C887.5024,417.2748 885.2674,418.5508 883.0734,418.5508 C879.4424,418.5508 877.2084,416.7948 877.2084,413.1638 C877.2084,408.4158 880.1204,405.8618 885.0284,405.7418 C885.9464,405.7018 888.0604,405.7818 890.1354,405.9818 L890.2554,405.1438 C890.2954,404.8638 890.3354,404.6248 890.3354,404.3458 C890.3354,402.6298 888.8984,402.0308 886.3444,402.0308 C884.3104,402.0308 881.6364,402.4308 880.2404,402.7898 L881.4774,398.2408 C883.7124,397.4428 885.9864,397.0038 888.0214,397.0038 C893.9664,397.0038 896.3204,399.4378 896.3204,403.8268" id="Fill-75" fill="#3C3B41" mask="url(#mask-2)"></path>
                    <path d="M899.8701,413.0049 L903.6211,389.5419 L909.0881,389.5419 L909.2471,393.8119 L906.2151,413.3629 L909.5661,414.0019 L908.8081,417.8329 C907.3321,418.3119 905.6161,418.5109 904.1401,418.5109 C901.0671,418.5109 899.3511,416.3169 899.8701,413.0049" id="Fill-76" fill="#3C3B41" mask="url(#mask-2)"></path>
                    <path d="M915.5518,391.6973 C915.6718,390.8983 916.0708,390.1003 916.5498,389.5023 C917.4278,389.1433 918.4648,389.1033 919.1828,389.1033 C921.6568,389.1033 922.8148,390.3013 922.4948,392.5353 C922.3748,393.3333 921.9758,394.1713 921.4968,394.7293 C920.6188,395.0893 919.5818,395.1293 918.8638,395.1293 C916.3898,395.1293 915.2728,393.9713 915.5518,391.6973 L915.5518,391.6973 Z M915.1928,397.2833 L921.5368,397.2833 L918.2258,418.2713 L911.8808,418.2713 L915.1928,397.2833 Z" id="Fill-77" fill="#3C3B41" mask="url(#mask-2)"></path>
                    <path d="M924.4092,407.3779 C925.4862,400.7149 930.3142,397.0039 936.1392,397.0039 C938.2552,397.0039 940.3702,397.6029 941.8462,398.2009 L940.3702,402.6699 C939.1732,402.3509 938.1352,402.1909 936.5392,402.2319 C934.9032,402.2709 933.5072,402.8689 932.7092,403.3879 C931.9502,404.1869 931.0322,405.9019 930.6742,408.1369 C930.1152,411.7279 931.3512,413.3229 934.5842,413.3229 C936.2602,413.3229 937.7762,413.1639 939.4122,412.8449 L938.2552,417.5929 C936.2202,418.3119 934.4642,418.5509 932.4692,418.5509 C926.6032,418.5509 923.3322,414.3609 924.4092,407.3779" id="Fill-78" fill="#3C3B41" mask="url(#mask-2)"></path>
                    <path d="M852.749,452.7178 C852.749,450.8428 852.27,449.6458 848.799,449.6458 L844.49,449.6458 L844.49,455.6308 L847.722,455.6308 C849.757,455.6308 851.233,455.4708 852.031,455.0318 C852.51,454.4738 852.749,453.7148 852.749,452.7178 M847.682,438.5928 L844.49,438.5928 L844.49,444.0988 L847.362,444.0988 C848.759,444.0988 850.315,444.0198 851.033,443.6198 C851.473,443.1018 851.672,442.3828 851.672,441.5448 C851.672,439.3908 850.834,438.5928 847.682,438.5928 M860.052,452.7978 C859.932,458.6628 856.141,461.4958 848.799,461.4958 L837.348,461.4958 L837.348,432.7668 L838.983,432.7668 L838.983,432.7268 L847.722,432.7268 C855.144,432.7268 858.974,435.0408 859.054,440.7068 C859.094,443.5398 857.657,445.1768 855.941,446.3728 C858.216,447.4108 860.012,449.1268 860.052,452.7978" id="Fill-79" fill="#3C3B41" mask="url(#mask-2)"></path>
                    <path d="M864.041,455.9102 L864.041,432.7662 L870.545,432.7662 L871.542,437.5552 L871.542,455.8702 L875.054,456.5092 L874.694,460.8972 C873.139,461.4562 871.184,461.7752 869.468,461.7752 C866.116,461.7752 864.041,459.5012 864.041,455.9102" id="Fill-80" fill="#3C3B41" mask="url(#mask-2)"></path>
                    <path d="M885.1074,456.5088 C885.8664,456.3888 887.3414,456.1098 888.5794,455.8298 L888.5794,452.8768 C888.0604,452.8768 887.5824,452.8768 887.1424,452.9168 C885.4664,452.9968 884.3094,453.1558 883.5114,453.3968 C883.3124,453.7548 883.2324,454.1548 883.2324,454.6328 C883.2324,455.7498 883.7514,456.5088 885.1074,456.5088 M895.6814,449.4058 L895.6814,461.4958 L889.6964,461.4958 L889.0974,459.3808 C887.7414,460.4588 885.6264,461.7758 883.1924,461.7758 C879.0834,461.7758 876.6484,459.6998 876.6484,454.9918 C876.6484,451.3618 879.2824,449.0068 883.8314,448.7678 C884.5884,448.7278 886.5444,448.8078 888.5794,448.9668 L888.5794,448.4878 C888.5794,446.5328 887.4214,445.8548 883.9504,445.8548 C882.0354,445.8548 879.2424,446.2138 878.0454,446.5328 L878.9224,441.3858 C881.3174,440.5078 883.5114,440.0698 885.9854,440.0698 C893.0074,440.0698 895.6814,443.1818 895.6814,449.4058" id="Fill-81" fill="#3C3B41" mask="url(#mask-2)"></path>
                    <path d="M899.2314,450.9619 C899.2314,444.0989 903.3404,440.0689 910.1254,440.0689 C912.0804,440.0689 914.4334,440.5879 916.0304,441.1869 L914.8734,446.5729 C913.6754,446.2539 912.6784,446.0539 910.9224,446.0939 C909.5664,446.1339 908.4884,446.4529 907.7704,446.8919 C907.0124,447.7699 906.7334,449.1269 906.7334,450.8819 C906.7334,454.2339 907.6104,455.7499 911.5604,455.7499 C912.8774,455.7499 914.6334,455.7099 915.8704,455.3919 L915.0724,460.7379 C912.9974,461.5359 911.3214,461.7749 908.9674,461.7749 C903.0614,461.7749 899.2314,457.7049 899.2314,450.9619" id="Fill-82" fill="#3C3B41" mask="url(#mask-2)"></path>
                    <path d="M941.2861,461.4961 L933.1461,461.4961 L929.2761,454.3531 C928.7581,453.3961 928.1591,452.8771 926.9621,452.8771 L926.5621,452.8771 L926.5621,461.4961 L919.3011,461.4961 L919.3011,432.7671 L925.5651,432.7671 L926.5621,437.5551 L926.5621,447.5301 C927.1211,447.4511 927.6401,447.4111 928.1591,447.3711 L932.4681,440.3491 L940.6871,440.3491 L934.2641,449.6451 C934.8221,450.2441 935.3411,451.0021 935.8201,451.8401 L941.2861,461.4961 Z" id="Fill-83" fill="#3C3B41" mask="url(#mask-2)"></path>
                    <path d="M740.3545,481.8174 L739.4775,487.3234 L742.3495,487.3234 C744.1055,487.3234 745.5415,487.0044 746.1405,486.6854 C746.5405,486.2064 746.8195,485.7274 747.0585,484.5704 C747.3375,482.9344 746.3005,481.8174 743.5065,481.8174 L740.3545,481.8174 Z M742.5895,492.8704 L738.5995,492.8704 L737.6415,498.8554 L741.2325,498.8554 C743.1485,498.8554 744.7045,498.4964 745.3425,498.1764 C745.7815,497.6584 746.1005,497.0994 746.3395,495.8624 C746.6595,494.0674 745.6225,492.8704 742.5895,492.8704 L742.5895,492.8704 Z M750.3705,489.8774 C752.4055,491.0344 753.8415,492.9894 753.2835,496.7404 C752.2855,502.3664 748.3345,504.7204 741.1135,504.7204 L729.7415,504.7204 L734.2905,475.9914 L735.9255,475.9914 L735.9255,475.9514 L744.3055,475.9514 C751.5675,475.9514 755.0795,478.7454 754.2415,484.6504 C753.8815,487.3234 752.2065,488.7994 750.3705,489.8774 L750.3705,489.8774 Z" id="Fill-84" fill="#3C3B41" mask="url(#mask-2)"></path>
                    <path d="M756.6338,498.8955 L760.2648,475.9915 L766.6098,475.9915 L766.8088,480.7795 L763.9758,499.0945 L767.2868,499.7335 L766.4088,504.2025 C764.7738,504.7605 762.8188,504.9995 761.3418,504.9995 C757.8698,504.9995 756.0748,502.4865 756.6338,498.8955" id="Fill-85" fill="#3C3B41" mask="url(#mask-2)"></path>
                    <path d="M777.1416,499.6934 C778.2586,499.6534 779.5756,499.3344 780.6936,499.0144 L781.1316,496.0624 L779.0166,496.1814 C777.7806,496.2614 776.8226,496.3804 776.1836,496.5414 C775.7856,496.8204 775.5056,497.7384 775.5056,498.3364 C775.5056,498.9744 775.8656,499.7334 777.1416,499.6934 M788.8326,490.2764 C788.8326,491.0744 788.7526,491.9524 788.5936,492.8704 L786.7176,504.7204 L780.8926,504.7204 L780.6536,502.8054 C779.2166,503.7624 777.0216,505.0004 774.8276,505.0004 C771.1566,505.0004 769.0016,503.1644 769.0016,499.4934 C769.0016,494.7454 771.7546,492.0724 776.7826,491.9524 C777.6606,491.9124 779.6956,492.0324 781.7306,492.2314 L781.8106,491.7134 C781.8496,491.4734 781.8896,491.2734 781.8896,491.0344 C781.8896,489.5974 780.4936,489.0794 778.0596,489.0794 C775.9846,489.0794 773.1916,489.4784 771.9546,489.7974 L773.3506,484.5304 C775.8256,483.6524 778.0196,483.2944 780.2536,483.2944 C786.3196,483.2944 788.8326,485.7274 788.8326,490.2764" id="Fill-86" fill="#3C3B41" mask="url(#mask-2)"></path>
                    <path d="M792.0244,493.708 C793.1014,487.084 797.9294,483.294 803.9944,483.294 C806.1094,483.294 808.3434,483.892 809.8604,484.49 L808.1444,489.718 C807.0274,489.398 806.0694,489.278 804.5524,489.318 C802.9974,489.358 801.7994,489.877 801.0424,490.316 C800.3234,491.114 799.5654,492.591 799.2464,494.586 C798.7674,497.698 799.7244,498.975 802.9174,498.975 C804.4334,498.975 805.9494,498.815 807.4254,498.576 L806.0694,504.042 C803.9154,504.841 802.2394,505 800.1244,505 C794.1784,505 790.9464,500.69 792.0244,493.708" id="Fill-87" fill="#3C3B41" mask="url(#mask-2)"></path>
                    <path d="M827.6152,495.2637 L831.4452,504.7207 L823.6252,504.7207 L820.9912,497.3787 C820.6322,496.4207 819.9542,496.1017 818.7572,496.1017 L818.4372,496.1017 L817.0812,504.7207 L809.9782,504.7207 L814.5272,475.9917 L820.6322,475.9917 L820.8322,480.7797 L819.2752,490.6757 L820.8722,490.5557 L826.1382,483.5737 L834.3582,483.5737 L826.4182,493.1097 C826.8962,493.7077 827.2962,494.4657 827.6152,495.2637" id="Fill-88" fill="#3C3B41" mask="url(#mask-2)"></path>
                    <polygon id="Fill-89" fill="#3C3B41" mask="url(#mask-2)" points="848.8008 475.9912 855.5438 475.9912 855.6638 481.2592 851.9928 504.7202 844.2518 504.7202"></polygon>
                    <path d="M867.2334,495.8623 C866.8354,498.4163 867.9124,499.0143 869.6684,499.0143 C870.9844,499.0143 872.1014,498.9343 872.8994,498.8153 L871.4224,504.5213 C870.1464,504.8413 868.9494,505.0003 866.7544,505.0003 C861.2484,505.0003 858.9334,501.8073 859.8914,495.7833 L860.8894,489.2783 L857.2574,489.2783 L858.9334,483.5733 L862.2064,483.5733 L864.2814,478.4663 L869.9864,478.4663 L869.1884,483.5733 L875.4534,483.5733 L873.7774,489.2783 L868.2714,489.2783 L867.2334,495.8623 Z" id="Fill-90" fill="#3C3B41" mask="url(#mask-2)"></path>
                    <path d="M883.3535,499.6934 C884.4705,499.6534 885.7875,499.3344 886.9055,499.0144 L887.3435,496.0624 L885.2285,496.1814 C883.9925,496.2614 883.0345,496.3804 882.3955,496.5414 C881.9975,496.8204 881.7175,497.7384 881.7175,498.3364 C881.7175,498.9744 882.0775,499.7334 883.3535,499.6934 M895.0445,490.2764 C895.0445,491.0744 894.9645,491.9524 894.8055,492.8704 L892.9295,504.7204 L887.1045,504.7204 L886.8655,502.8054 C885.4285,503.7624 883.2335,505.0004 881.0395,505.0004 C877.3685,505.0004 875.2135,503.1644 875.2135,499.4934 C875.2135,494.7454 877.9665,492.0724 882.9945,491.9524 C883.8725,491.9124 885.9075,492.0324 887.9425,492.2314 L888.0225,491.7134 C888.0615,491.4734 888.1015,491.2734 888.1015,491.0344 C888.1015,489.5974 886.7055,489.0794 884.2715,489.0794 C882.1965,489.0794 879.4035,489.4784 878.1665,489.7974 L879.5625,484.5304 C882.0375,483.6524 884.2315,483.2944 886.4655,483.2944 C892.5315,483.2944 895.0445,485.7274 895.0445,490.2764" id="Fill-91" fill="#3C3B41" mask="url(#mask-2)"></path>
                    <path d="M898.4746,498.8955 L902.1056,475.9915 L908.4506,475.9915 L908.6496,480.7795 L905.8166,499.0945 L909.1276,499.7335 L908.2496,504.2025 C906.6146,504.7605 904.6596,504.9995 903.1826,504.9995 C899.7106,504.9995 897.9156,502.4865 898.4746,498.8955" id="Fill-92" fill="#3C3B41" mask="url(#mask-2)"></path>
                    <path d="M914.833,478.0664 C914.952,477.1884 915.392,476.3504 915.91,475.7124 C916.907,475.3134 918.104,475.2734 918.902,475.2734 C921.696,475.2734 922.973,476.5494 922.653,479.0244 C922.534,479.9014 922.095,480.7404 921.576,481.3784 C920.578,481.7774 919.382,481.8174 918.583,481.8174 C915.79,481.8174 914.514,480.5404 914.833,478.0664 L914.833,478.0664 Z M914.434,483.5734 L921.775,483.5734 L918.424,504.7204 L911.082,504.7204 L914.434,483.5734 Z" id="Fill-93" fill="#3C3B41" mask="url(#mask-2)"></path>
                    <path d="M924.21,493.708 C925.287,487.084 930.115,483.294 936.18,483.294 C938.295,483.294 940.529,483.892 942.046,484.49 L940.33,489.718 C939.213,489.398 938.255,489.278 936.738,489.318 C935.183,489.358 933.985,489.877 933.228,490.316 C932.509,491.114 931.751,492.591 931.432,494.586 C930.953,497.698 931.91,498.975 935.103,498.975 C936.619,498.975 938.135,498.815 939.611,498.576 L938.255,504.042 C936.101,504.841 934.425,505 932.31,505 C926.364,505 923.132,500.69 924.21,493.708" id="Fill-94" fill="#3C3B41" mask="url(#mask-2)"></path>
                    <path d="M32.9697,96.2471 C32.9697,88.6551 28.0487,86.9681 20.3157,86.9681 L12.9347,86.9681 L12.9347,105.5261 L20.3157,105.5261 C25.1657,105.5261 28.8217,105.1041 30.9307,103.6981 C32.1967,102.0121 32.9697,99.7621 32.9697,96.2471 M40.2097,96.2471 C40.0697,107.7051 32.9697,111.6421 21.5107,111.6421 L12.9347,111.6421 L12.9347,131.4661 L5.7647,131.4661 L5.7647,80.8511 L21.1587,80.8511 C32.3367,80.8511 40.4207,85.2801 40.2097,96.2471" id="Fill-95" fill="#FFFFFF" mask="url(#mask-2)"></path>
                    <path d="M59.8242,126.6855 C62.0042,126.2635 65.3782,125.3495 67.9082,124.5775 L67.9082,115.0165 C65.0962,115.0865 62.7762,115.0865 60.8792,115.2275 C56.9422,115.5085 54.6222,115.9295 53.0762,116.6325 C52.1622,117.6175 51.9512,119.1645 51.9512,120.7095 C51.9512,123.8735 53.8482,126.6855 59.8242,126.6855 M74.5872,110.0255 L74.5872,131.4655 L69.0332,131.4655 L68.2602,128.3025 C65.4482,129.8485 61.7222,131.8175 57.7852,131.8175 C50.6152,131.8175 45.5532,128.7245 45.5532,120.4985 C45.5532,113.8915 50.4742,110.3065 58.3472,110.1655 C60.1762,110.2365 63.9712,110.3065 67.9082,110.5875 L67.9082,108.3375 C67.9082,102.1525 64.1822,100.2535 58.6292,100.2535 C55.1842,100.2535 50.9672,100.6755 48.1552,101.6605 L48.9282,97.0205 C51.7402,95.7545 55.9582,94.7705 59.2622,94.7705 C71.0022,94.7705 74.5872,100.4645 74.5872,110.0255" id="Fill-96" fill="#FFFFFF" mask="url(#mask-2)"></path>
                    <path d="M83.6563,113.2588 C83.6563,101.0278 91.3183,94.7708 101.0903,94.7708 C104.6753,94.7708 108.0503,95.6848 110.6503,96.6688 L109.5253,101.4488 C106.9953,100.7458 104.6043,100.3238 101.3013,100.3238 C97.7863,100.3948 95.1853,101.5898 93.4273,102.9248 C92.1623,104.4718 90.7573,108.3378 90.7573,113.2588 C90.7573,121.9048 94.4823,126.1938 101.1603,126.1938 C103.9723,126.1938 107.4873,126.1228 110.9313,125.2088 L110.1583,130.0598 C107.2063,131.1848 103.7613,131.8178 100.5973,131.8178 C90.4753,131.8178 83.6563,125.4898 83.6563,113.2588" id="Fill-97" fill="#FFFFFF" mask="url(#mask-2)"></path>
                    <path d="M151.2832,131.4658 L143.1282,131.4658 L134.4112,118.1798 C133.0062,116.1408 131.4592,114.2428 128.6472,114.2428 L125.9052,114.2428 L125.9052,131.4658 L118.9462,131.4658 L118.9462,80.8518 L124.7102,80.8518 L125.9052,86.0538 L125.9052,109.3928 C128.0852,109.0408 130.0532,108.9008 131.9512,108.9008 L142.0742,95.2628 L149.5962,95.2628 L137.2232,111.4308 C138.4182,112.6258 139.6132,114.1728 140.7382,115.8598 L151.2832,131.4658 Z" id="Fill-98" fill="#FFFFFF" mask="url(#mask-2)"></path>
                    <path d="M163.1641,102.6436 C162.1091,103.9096 161.0561,106.9316 160.7741,110.9396 C165.4141,110.8696 168.9991,110.7986 171.6701,110.5876 C174.0601,110.4476 175.7471,110.0956 176.8721,109.6036 C177.7861,108.6196 177.7861,106.5816 177.7861,105.6666 C177.7861,102.4326 175.5361,99.9726 170.8961,99.9726 C167.5221,99.9726 164.8511,101.3086 163.1641,102.6436 M172.0921,126.3336 C175.0441,126.3336 178.8411,126.0526 182.2851,124.9976 L181.4411,129.7786 C178.1381,131.1146 174.6921,131.8176 171.6701,131.8176 C159.6491,131.8176 153.8851,125.4906 153.8851,113.2586 C153.8851,101.1676 161.3361,94.7706 170.8961,94.7706 C178.4891,94.7706 184.0421,98.0036 184.0421,106.4406 C184.0421,112.8366 180.2461,115.9996 171.9511,115.9996 C170.0541,115.9996 164.9921,115.7896 160.7041,115.3686 C161.2661,122.8196 164.6411,126.3336 172.0921,126.3336" id="Fill-99" fill="#FFFFFF" mask="url(#mask-2)"></path>
                    <path d="M207.8037,126.1934 C210.1947,125.9124 213.0757,124.9274 215.6777,124.0144 L215.6777,102.0824 C213.4277,100.8864 210.5457,100.1834 207.1707,100.1834 C204.7817,100.1834 201.8287,101.4494 200.2117,102.7844 C198.9467,104.1904 197.8227,108.1974 197.8227,113.2584 C197.8227,122.8194 201.4077,126.1934 207.8037,126.1934 L207.8037,126.1934 Z M222.7067,86.0534 L222.7067,131.4654 L216.8717,131.4654 L215.9587,127.9514 C212.9357,129.8484 208.9287,131.8174 205.5547,131.8174 C195.6427,131.8174 190.7217,124.3664 190.7217,113.2584 C190.7217,101.0974 198.2427,94.7704 206.8907,94.7704 C210.3347,94.7704 213.3577,96.1764 215.6777,97.7224 L215.6777,80.8514 L221.5817,80.8514 L222.7067,86.0534 Z" id="Fill-100" fill="#FFFFFF" mask="url(#mask-2)"></path>
                    <polygon id="Fill-101" fill="#FFFFFF" mask="url(#mask-2)" points="247.8047 95.2627 255.0447 95.2627 262.0047 124.0847 269.5267 96.5287 276.1337 95.8247 283.1637 124.0147 290.6857 95.2627 297.2237 95.2627 286.5377 131.4657 279.5787 131.4657 272.4087 103.9797 264.7457 131.4657 257.9977 131.4657"></polygon>
                    <path d="M304.044,131.466 L311.144,131.466 L311.144,95.263 L304.044,95.263 L304.044,131.466 Z M303.271,85.491 C303.271,84.156 303.763,82.891 304.325,82.258 C305.238,81.695 306.504,81.414 307.559,81.414 C310.229,81.414 311.847,82.75 311.847,85.491 C311.847,86.897 311.425,88.233 310.792,88.795 C309.948,89.357 308.684,89.639 307.559,89.639 C304.888,89.639 303.271,88.233 303.271,85.491 L303.271,85.491 Z" id="Fill-102" fill="#FFFFFF" mask="url(#mask-2)"></path>
                    <path d="M344.6055,125.3496 L343.7615,130.4816 C341.7925,131.2546 339.1225,131.7466 336.9435,131.7466 C327.1015,131.7466 324.9925,126.1936 324.9925,117.6876 L324.9925,100.6756 L318.4555,100.6756 L319.2275,95.2626 L325.2035,95.2626 L327.3825,86.4056 L332.0925,86.4056 L332.0925,95.2626 L344.3945,95.2626 L343.6215,100.6756 L332.0925,100.6756 L332.0925,118.1096 C332.0925,123.2416 333.0055,126.1226 337.7865,126.1226 C339.9655,126.1226 342.4255,126.0526 344.6055,125.3496" id="Fill-103" fill="#FFFFFF" mask="url(#mask-2)"></path>
                    <path d="M383.6211,108.6191 L383.6211,131.4661 L376.5201,131.4661 L376.5201,109.1811 C376.5201,103.2061 374.6931,100.4651 368.6471,100.4651 C366.1171,100.8871 362.5311,101.8711 359.3681,102.7141 L359.3681,131.4661 L352.2681,131.4661 L352.2681,80.8511 L358.1731,80.8511 L359.3681,86.0541 L359.3681,98.6371 C362.9531,96.8801 366.8191,94.7701 370.6861,94.7701 C380.9491,94.7701 383.6211,102.0821 383.6211,108.6191" id="Fill-104" fill="#FFFFFF" mask="url(#mask-2)"></path>
                    <path d="M12.583,174.8438 C11.528,176.1098 10.475,179.1318 10.193,183.1398 C14.833,183.0698 18.418,182.9988 21.089,182.7878 C23.479,182.6478 25.166,182.2958 26.291,181.8038 C27.205,180.8198 27.205,178.7818 27.205,177.8668 C27.205,174.6328 24.955,172.1728 20.315,172.1728 C16.941,172.1728 14.27,173.5088 12.583,174.8438 M21.511,198.5338 C24.463,198.5338 28.26,198.2528 31.704,197.1978 L30.86,201.9788 C27.557,203.3148 24.112,204.0178 21.089,204.0178 C9.068,204.0178 3.304,197.6908 3.304,185.4588 C3.304,173.3678 10.755,166.9708 20.315,166.9708 C27.908,166.9708 33.461,170.2038 33.461,178.6408 C33.461,185.0368 29.665,188.1998 21.37,188.1998 C19.473,188.1998 14.411,187.9898 10.123,187.5688 C10.685,195.0198 14.06,198.5338 21.511,198.5338" id="Fill-105" fill="#FFFFFF" mask="url(#mask-2)"></path>
                    <polygon id="Fill-106" fill="#FFFFFF" mask="url(#mask-2)" points="36.5547 167.4629 44.3577 167.4629 54.4097 196.9179 64.9547 167.4629 71.8437 167.4629 57.7837 203.6659 50.8257 203.6659"></polygon>
                    <path d="M84.71,174.8438 C83.655,176.1098 82.602,179.1318 82.32,183.1398 C86.96,183.0698 90.545,182.9988 93.216,182.7878 C95.606,182.6478 97.293,182.2958 98.418,181.8038 C99.332,180.8198 99.332,178.7818 99.332,177.8668 C99.332,174.6328 97.082,172.1728 92.442,172.1728 C89.068,172.1728 86.397,173.5088 84.71,174.8438 M93.638,198.5338 C96.59,198.5338 100.387,198.2528 103.831,197.1978 L102.987,201.9788 C99.684,203.3148 96.239,204.0178 93.216,204.0178 C81.195,204.0178 75.431,197.6908 75.431,185.4588 C75.431,173.3678 82.882,166.9708 92.442,166.9708 C100.035,166.9708 105.588,170.2038 105.588,178.6408 C105.588,185.0368 101.792,188.1998 93.497,188.1998 C91.6,188.1998 86.538,187.9898 82.25,187.5688 C82.812,195.0198 86.187,198.5338 93.638,198.5338" id="Fill-107" fill="#FFFFFF" mask="url(#mask-2)"></path>
                    <path d="M135.4648,167.3926 L134.0588,173.2276 C132.6528,173.0166 131.3178,172.8756 129.2078,172.8756 C126.7478,173.2976 124.0768,173.9306 121.2648,174.7036 L121.2648,203.6656 L114.1648,203.6656 L114.1648,167.4626 L119.9988,167.4626 L120.9838,170.9076 C124.5688,168.9396 128.0838,166.9706 131.3878,166.9706 C132.9348,166.9706 134.4098,167.1116 135.4648,167.3926" id="Fill-108" fill="#FFFFFF" mask="url(#mask-2)"></path>
                    <path d="M138.1357,216.46 L139.2607,211.609 C141.0177,212.172 142.5647,212.453 144.2507,212.453 C146.3607,212.453 147.4147,212.172 148.6807,211.469 C150.3667,209.782 151.7027,206.759 153.0387,203.033 L138.0657,167.463 L145.6567,167.463 L156.3427,196.074 L166.3247,167.463 L173.2837,167.463 L159.7867,202.471 C155.9207,212.594 153.0387,218.007 144.8837,218.007 C142.7047,218.007 140.1737,217.374 138.1357,216.46" id="Fill-109" fill="#FFFFFF" mask="url(#mask-2)"></path>
                    <path d="M202.3887,197.5498 L201.5447,202.6818 C199.5757,203.4548 196.9057,203.9468 194.7267,203.9468 C184.8847,203.9468 182.7757,198.3938 182.7757,189.8878 L182.7757,172.8758 L176.2387,172.8758 L177.0107,167.4628 L182.9867,167.4628 L185.1657,158.6058 L189.8757,158.6058 L189.8757,167.4628 L202.1777,167.4628 L201.4047,172.8758 L189.8757,172.8758 L189.8757,190.3098 C189.8757,195.4418 190.7887,198.3228 195.5697,198.3228 C197.7487,198.3228 200.2087,198.2528 202.3887,197.5498" id="Fill-110" fill="#FFFFFF" mask="url(#mask-2)"></path>
                    <path d="M241.4043,180.8193 L241.4043,203.6663 L234.3033,203.6663 L234.3033,181.3813 C234.3033,175.4063 232.4763,172.6653 226.4303,172.6653 C223.9003,173.0873 220.3143,174.0713 217.1513,174.9143 L217.1513,203.6663 L210.0513,203.6663 L210.0513,153.0513 L215.9563,153.0513 L217.1513,158.2543 L217.1513,170.8373 C220.7363,169.0803 224.6023,166.9703 228.4693,166.9703 C238.7323,166.9703 241.4043,174.2823 241.4043,180.8193" id="Fill-111" fill="#FFFFFF" mask="url(#mask-2)"></path>
                    <path d="M252.372,203.666 L259.472,203.666 L259.472,167.463 L252.372,167.463 L252.372,203.666 Z M251.599,157.691 C251.599,156.356 252.091,155.091 252.653,154.458 C253.566,153.896 254.832,153.614 255.887,153.614 C258.558,153.614 260.175,154.95 260.175,157.691 C260.175,159.098 259.753,160.434 259.12,160.995 C258.276,161.558 257.012,161.839 255.887,161.839 C253.216,161.839 251.599,160.434 251.599,157.691 L251.599,157.691 Z" id="Fill-112" fill="#FFFFFF" mask="url(#mask-2)"></path>
                    <path d="M302.4238,180.8193 L302.4238,203.6663 L295.3228,203.6663 L295.3228,181.3813 C295.3228,175.6873 293.6368,172.6653 287.4498,172.6653 C284.9198,173.1573 281.2638,174.0713 278.1708,174.9143 L278.1708,203.6663 L271.0708,203.6663 L271.0708,167.4633 L276.9048,167.4633 L277.8898,170.9073 C281.6148,169.0093 285.4818,166.9703 289.4188,166.9703 C299.8218,166.9703 302.4238,174.2823 302.4238,180.8193" id="Fill-113" fill="#FFFFFF" mask="url(#mask-2)"></path>
                    <path d="M334.8311,179.4131 C334.8311,174.7731 331.5271,172.1021 326.5361,172.1021 C323.7241,172.1021 321.7561,172.6651 320.2791,173.4381 C319.2951,174.3521 318.2411,176.3201 318.2411,179.4131 C318.2411,184.0531 321.4751,186.8651 326.5361,186.8651 C329.2771,186.8651 331.3161,186.2321 332.7221,185.5291 C333.7761,184.5451 334.8311,182.5071 334.8311,179.4131 L334.8311,179.4131 Z M344.4621,172.1021 L338.9781,172.5951 C340.3851,174.4221 341.3681,176.7421 341.3681,179.4831 C341.3681,187.4981 335.3931,191.9271 326.5361,191.9271 C324.4271,191.9271 322.4591,191.6451 320.7711,191.2241 L318.8041,196.6371 C319.5761,197.1281 320.7711,197.3391 322.1071,197.4791 L330.5431,198.2531 C338.0641,199.0261 342.4931,201.0651 342.4931,208.1651 C342.4931,215.6161 335.8861,218.3581 325.2701,218.2881 C318.6631,218.2181 314.1641,217.2331 309.8751,215.4761 L311.0701,210.4841 C315.1471,211.8201 319.7171,212.8051 324.8491,212.8051 C329.6991,212.8051 333.0731,212.2421 334.7611,211.3981 C335.3931,210.6251 335.6751,209.7821 335.6751,208.3061 C335.6751,205.9851 334.1281,204.7211 329.5591,204.2991 L319.8571,203.3141 C315.7801,202.9631 313.2501,201.2761 312.1251,199.8701 L316.4831,189.1841 C313.4611,187.0761 311.7731,183.7711 311.7731,179.4131 C311.7731,171.2591 318.1011,166.9711 326.5361,166.9711 C328.9961,166.9711 331.2461,167.2521 333.2141,167.8851 L345.1651,167.8851 L344.4621,172.1021 Z" id="Fill-114" fill="#FFFFFF" mask="url(#mask-2)"></path>
                    <path d="M379.4014,166.7598 L379.4014,167.4628 L391.4924,167.4628 L390.7184,172.8758 L379.4014,172.8758 L379.4014,203.6658 L372.3004,203.6658 L372.3004,172.8758 L365.7634,172.8758 L366.5374,167.4628 L372.3004,167.4628 C372.5114,158.6758 376.4484,152.6298 385.5874,152.6298 C387.6964,152.6298 390.7894,153.1928 393.3904,154.3178 L392.1254,159.0278 C390.1564,158.4648 388.1184,158.1138 386.3604,158.1138 C384.1814,158.1138 382.4234,158.6058 381.0174,159.5898 C380.1744,160.6448 379.4014,163.3858 379.4014,166.7598" id="Fill-115" fill="#FFFFFF" mask="url(#mask-2)"></path>
                    <path d="M418.6279,196.2148 C419.8929,194.5978 421.0879,190.5208 421.0879,185.3888 C421.0879,176.7418 417.7839,172.3838 411.3869,172.3838 C407.9419,172.3838 405.6929,173.5788 404.0059,174.8438 C402.7399,176.3198 401.6159,180.3978 401.6159,185.3888 C401.6159,194.2458 404.9199,198.6048 411.3869,198.6048 C415.0429,198.6048 417.0109,197.4088 418.6279,196.2148 M394.5159,185.3888 C394.5159,173.3678 402.2479,166.9708 411.3159,166.9708 C421.4399,166.9708 428.1889,173.2278 428.1889,185.3888 C428.1889,198.1118 420.6659,204.0178 411.3159,204.0178 C401.1939,204.0178 394.5159,197.6198 394.5159,185.3888" id="Fill-116" fill="#FFFFFF" mask="url(#mask-2)"></path>
                    <path d="M459.2607,167.3926 L457.8547,173.2276 C456.4487,173.0166 455.1137,172.8756 453.0037,172.8756 C450.5437,173.2976 447.8717,173.9306 445.0607,174.7036 L445.0607,203.6656 L437.9607,203.6656 L437.9607,167.4626 L443.7947,167.4626 L444.7797,170.9076 C448.3647,168.9396 451.8797,166.9706 455.1837,166.9706 C456.7307,166.9706 458.2057,167.1116 459.2607,167.3926" id="Fill-117" fill="#FFFFFF" mask="url(#mask-2)"></path>
                    <polygon id="Fill-118" fill="#000000" mask="url(#mask-2)" points="17.7852 247.0898 17.7852 257.0018 35.1482 257.0018 35.1482 268.2488 17.7852 268.2488 17.7852 286.3158 4.0072 286.3158 4.0072 235.7008 38.8742 235.7008 37.4692 247.0898"></polygon>
                    <polygon id="Fill-119" fill="#000000" mask="url(#mask-2)" points="44.8506 246.3164 56.2396 246.3164 57.7856 254.6814 57.7856 286.3154 44.8506 286.3154"></polygon>
                    <polygon id="Fill-120" fill="#000000" mask="url(#mask-2)" points="66.2207 246.3164 76.4847 246.3164 89.9817 266.6314 89.9817 246.3164 99.6127 246.3164 101.1587 254.8224 101.1587 286.3154 90.7547 286.3154 77.4687 266.9834 77.4687 286.3154 66.2207 286.3154"></polygon>
                    <polygon id="Fill-121" fill="#000000" mask="url(#mask-2)" points="139.8926 276.1924 138.5576 286.3154 109.5946 286.3154 109.5946 246.3164 139.5406 246.3164 138.2766 256.4394 122.0376 256.4394 122.0376 261.0794 136.3776 261.0794 136.3776 271.2014 122.0376 271.2014 122.0376 276.1924"></polygon>
                    <polygon id="Fill-122" fill="#000000" mask="url(#mask-2)" points="202.0371 247.0898 188.8911 247.0898 188.8911 286.3158 174.9731 286.3158 174.9731 247.0898 160.8431 247.0898 162.2491 235.7008 203.4421 235.7008"></polygon>
                    <polygon id="Fill-123" fill="#000000" mask="url(#mask-2)" points="218.1367 272.6777 204.2177 246.3167 218.1367 246.3167 224.7437 261.3607 231.6337 246.3167 245.1307 246.3167 231.0717 272.3967 231.0717 286.3157 218.1367 286.3157"></polygon>
                    <path d="M270.6494,260.4463 C270.6494,257.9153 269.5954,256.0883 264.4634,256.0883 L261.7214,256.0883 L261.7214,264.2423 L264.4634,264.2423 C267.2754,264.2423 269.2444,263.7503 269.8774,263.3983 C270.3684,262.6953 270.6494,261.8513 270.6494,260.4463 M266.8534,274.2953 L261.7214,274.2953 L261.7214,286.3153 L249.7714,286.3153 L249.7714,246.3163 L266.9234,246.3163 C277.1874,246.3163 282.6704,251.4483 282.7414,260.3053 C282.8114,269.5143 278.1014,274.2953 266.8534,274.2953" id="Fill-124" fill="#000000" mask="url(#mask-2)"></path>
                    <path d="M313.251,275.4893 C314.517,273.6623 315.008,270.4283 314.868,266.3503 C314.657,258.8993 313.251,256.2283 308.682,256.2283 C306.221,256.2283 305.026,256.8613 303.901,257.4933 C302.706,259.2513 301.862,261.8513 302.003,266.2103 C302.214,273.8733 303.831,276.4733 308.4,276.4733 C310.299,276.4733 311.774,276.3333 313.251,275.4893 M289.068,266.2803 C289.068,254.1893 295.817,245.8943 308.471,245.8943 C321.687,245.8943 327.803,253.2753 327.803,266.3503 C327.803,278.3723 321.054,286.7373 308.471,286.7373 C295.325,286.7373 289.068,279.2163 289.068,266.2803" id="Fill-125" fill="#000000" mask="url(#mask-2)"></path>
                    <path d="M368.9268,284.0664 L368.6458,283.9964 C366.4658,284.9094 361.0528,286.5964 354.8668,286.5964 C340.5268,286.5964 334.6918,279.7774 334.6918,266.2804 C334.6918,253.9784 341.7918,245.8944 355.4998,245.8944 C359.8588,245.8944 365.1298,246.8784 368.3648,248.2844 L365.9738,257.9154 C364.3578,257.2824 360.2098,256.2984 357.1158,256.2984 C353.1098,256.2984 350.4388,257.0724 349.3138,257.7044 C347.9778,259.6024 347.4148,262.3434 347.4858,266.2804 C347.6968,274.0844 349.8758,276.7544 355.7808,276.7544 C356.9058,276.7544 357.9598,276.6844 358.9448,276.4734 L358.9448,271.8344 L353.8128,271.8344 L353.8128,262.3434 L368.9268,262.3434 L368.9268,283.6444 L368.9968,283.8554 L368.9268,283.8554 L368.9268,284.0664 Z" id="Fill-126" fill="#000000" mask="url(#mask-2)"></path>
                    <path d="M391.7744,256.0176 L388.9614,256.0176 L388.9614,264.5236 L391.7744,264.5236 C394.4454,264.5236 396.2034,264.0316 397.0464,263.6796 C397.4684,262.9766 397.7494,261.5706 397.7494,260.0246 C397.7494,257.2826 396.5544,256.0176 391.7744,256.0176 L391.7744,256.0176 Z M413.0034,286.3156 L399.5064,286.3156 L394.4454,275.8406 C393.6714,274.2246 392.4774,273.9436 390.7904,273.8726 L388.9614,273.8726 L388.9614,286.3156 L377.1524,286.3156 L377.1524,246.3166 L393.9534,246.3166 C404.3574,246.3166 409.9814,251.6596 409.9814,260.3056 C409.9814,265.7186 407.4504,269.0226 404.2874,270.9906 C404.8494,271.6226 405.3414,272.3266 405.7634,273.1696 L413.0034,286.3156 Z" id="Fill-127" fill="#000000" mask="url(#mask-2)"></path>
                    <path d="M439.7881,269.8662 L436.4841,258.1262 L433.0401,269.8662 L439.7881,269.8662 Z M442.3191,278.9342 L430.4391,278.9342 L428.2601,286.3152 L415.6771,286.3152 L429.7361,246.3162 L443.6551,246.3162 L457.7141,286.3152 L444.4281,286.3152 L442.3191,278.9342 Z" id="Fill-128" fill="#000000" mask="url(#mask-2)"></path>
                    <path d="M483.6543,260.4463 C483.6543,257.9153 482.6003,256.0883 477.4683,256.0883 L474.7263,256.0883 L474.7263,264.2423 L477.4683,264.2423 C480.2803,264.2423 482.2493,263.7503 482.8823,263.3983 C483.3733,262.6953 483.6543,261.8513 483.6543,260.4463 M479.8583,274.2953 L474.7263,274.2953 L474.7263,286.3153 L462.7763,286.3153 L462.7763,246.3163 L479.9283,246.3163 C490.1923,246.3163 495.6753,251.4483 495.7463,260.3053 C495.8163,269.5143 491.1063,274.2953 479.8583,274.2953" id="Fill-129" fill="#000000" mask="url(#mask-2)"></path>
                    <polygon id="Fill-130" fill="#000000" mask="url(#mask-2)" points="538.7695 254.6816 538.7695 286.3156 525.8345 286.3156 525.8345 271.9746 515.7825 271.9746 515.7825 286.3156 502.8475 286.3156 502.8475 246.3166 514.2365 246.3166 515.7825 254.6116 515.7825 261.0786 525.8345 261.0786 525.8345 246.3166 537.2225 246.3166"></polygon>
                    <polygon id="Fill-131" fill="#000000" mask="url(#mask-2)" points="557.3291 272.6777 543.4101 246.3167 557.3291 246.3167 563.9361 261.3607 570.8261 246.3167 584.3231 246.3167 570.2641 272.3967 570.2641 286.3157 557.3291 286.3157"></polygon>
                    <path d="M0.7734,352.3242 C2.2494,343.3962 5.9054,339.9522 15.0444,336.1562 L18.5584,334.6792 C22.3544,333.1332 25.0254,332.2902 25.3064,329.6182 C25.5874,327.0172 23.7604,325.8222 18.2774,325.8222 C13.5674,325.8222 8.2944,326.8772 5.2724,327.5802 L7.2404,320.0572 C10.4044,319.1432 15.2534,318.2302 20.0344,318.2302 C30.2974,318.2302 36.2034,321.8862 34.9374,329.7592 C34.0234,335.3832 29.5244,338.0532 23.5494,340.4442 L20.3154,341.7792 C14.5514,344.0292 11.5284,345.6462 10.9654,349.3022 L10.8254,349.8642 L31.7744,349.9342 L29.5944,357.3152 L0.0004,357.3152 L0.7734,352.3242 Z" id="Fill-132" fill="#BBA76F" mask="url(#mask-2)"></path>
                    <path d="M64.8145,348.5283 C66.2205,346.9813 67.9075,342.9743 68.6105,337.8423 C69.7355,329.4073 67.2745,325.4003 61.2295,325.4003 C57.9955,325.4003 55.9575,326.2443 54.2695,327.2993 C52.8645,328.8443 51.1765,332.8513 50.4735,337.9833 C49.3485,346.4893 51.8095,350.4973 57.9955,350.4973 C61.2295,350.4973 63.1275,349.5123 64.8145,348.5283 M41.3355,337.4213 C42.8115,325.0493 51.0365,318.2303 61.5105,318.2303 C72.6875,318.2303 79.4365,324.7673 77.8195,338.4753 C76.2725,351.1993 68.1885,357.5963 57.5745,357.5963 C46.3965,357.5963 39.6485,351.2693 41.3355,337.4213" id="Fill-133" fill="#BBA76F" mask="url(#mask-2)"></path>
                    <polygon id="Fill-134" fill="#BBA76F" mask="url(#mask-2)" points="114.0957 349.9346 111.9157 357.3156 81.4777 357.3156 83.6567 349.9346 95.2557 349.9346 98.9817 326.6656 85.4137 328.9146 87.5237 321.9556 101.7927 318.5116 109.0337 318.5116 104.1137 349.9346"></polygon>
                    <path d="M115.9941,365.9619 L118.0331,359.2839 C121.6181,360.4789 124.7111,361.1109 129.5611,361.1109 C133.4281,361.1819 135.6071,360.7599 137.9271,359.6349 C139.3331,358.0889 140.3171,356.4719 140.7391,352.9569 C141.3711,348.2469 139.3331,345.2949 132.4431,345.2949 L120.4931,345.2949 L127.4521,318.5119 L152.9711,318.5119 L150.8611,325.9629 L133.4981,325.9629 L130.4751,338.0539 L135.0451,338.0539 C146.5031,338.0539 151.2131,344.0289 149.5971,354.0819 C148.0501,363.9239 142.3551,368.8439 129.9831,368.8439 C124.0781,368.8439 118.8761,367.1569 115.9941,365.9619" id="Fill-135" fill="#BBA76F" mask="url(#mask-2)"></path>
                    <polygon id="Fill-136" fill="#BBA76F" mask="url(#mask-2)" points="157.0498 334.0469 192.1978 334.0469 190.1588 341.2879 155.0108 341.2879"></polygon>
                    <path d="M196.418,352.3242 C197.894,343.3962 201.55,339.9522 210.689,336.1562 L214.203,334.6792 C217.999,333.1332 220.67,332.2902 220.951,329.6182 C221.232,327.0172 219.405,325.8222 213.922,325.8222 C209.212,325.8222 203.939,326.8772 200.917,327.5802 L202.885,320.0572 C206.049,319.1432 210.898,318.2302 215.679,318.2302 C225.942,318.2302 231.848,321.8862 230.582,329.7592 C229.668,335.3832 225.169,338.0532 219.194,340.4442 L215.96,341.7792 C210.196,344.0292 207.173,345.6462 206.61,349.3022 L206.47,349.8642 L227.419,349.9342 L225.239,357.3152 L195.645,357.3152 L196.418,352.3242 Z" id="Fill-137" fill="#BBA76F" mask="url(#mask-2)"></path>
                    <path d="M260.459,348.5283 C261.865,346.9813 263.552,342.9743 264.255,337.8423 C265.38,329.4073 262.919,325.4003 256.874,325.4003 C253.64,325.4003 251.602,326.2443 249.914,327.2993 C248.509,328.8443 246.821,332.8513 246.118,337.9833 C244.993,346.4893 247.454,350.4973 253.64,350.4973 C256.874,350.4973 258.772,349.5123 260.459,348.5283 M236.98,337.4213 C238.456,325.0493 246.681,318.2303 257.155,318.2303 C268.332,318.2303 275.081,324.7673 273.464,338.4753 C271.917,351.1993 263.833,357.5963 253.219,357.5963 C242.041,357.5963 235.293,351.2693 236.98,337.4213" id="Fill-138" fill="#BBA76F" mask="url(#mask-2)"></path>
                    <polygon id="Fill-139" fill="#BBA76F" mask="url(#mask-2)" points="309.7402 349.9346 307.5602 357.3156 277.1222 357.3156 279.3012 349.9346 290.9002 349.9346 294.6262 326.6656 281.0582 328.9146 283.1682 321.9556 297.4372 318.5116 304.6782 318.5116 299.7582 349.9346"></polygon>
                    <polygon id="Fill-140" fill="#BBA76F" mask="url(#mask-2)" points="338.2822 326.1035 314.3102 326.1035 316.5602 318.5115 349.2482 318.5115 348.1942 325.3305 323.3792 368.7035 313.1852 368.7035"></polygon>
                    <polygon id="Fill-1" fill="#3C3B41" mask="url(#mask-2)" points="851.7123 0.5167 851.7123 29.2467 868.1513 29.2467 868.5113 26.4137 854.9443 26.4137 854.9443 3.1907 854.3053 0.5167"></polygon>
                </g>
            </g>
        </g>
    </g>
</svg>