<?xml version="1.0" encoding="UTF-8"?>
<svg width="55px" height="55px" viewBox="0 0 55 55" version="1.1" xmlns="http://www.w3.org/2000/svg" xmlns:xlink="http://www.w3.org/1999/xlink">
    <!-- Generator: Sketch 41 (35326) - http://www.bohemiancoding.com/sketch -->
    <title>icn_email</title>
    <desc>Created with Sketch.</desc>
    <defs></defs>
    <g id="Page-1" stroke="none" stroke-width="1" fill="none" fill-rule="evenodd">
        <g id="Artboard" transform="translate(-479.000000, -1687.000000)">
            <g id="social-icons" transform="translate(479.000000, 1687.000000)">
                <g id="icn_email">
                    <rect id="Rectangle-7" fill="#DA5B35" x="0" y="0" width="55" height="55"></rect>
                    <path d="M26.6559876,32.491 C27.3249876,32.39 28.1279876,32.19 28.8959876,31.923 L30.7019876,24.468 C30.1339876,24.2 29.4309876,24.033 28.7289876,24.033 C27.6929876,24.033 26.8569876,24.266 26.0879876,24.701 C25.2189876,25.637 24.5509876,27.343 24.4169876,29.515 C24.3159876,31.354 25.1849876,32.491 26.6559876,32.491 M42.6359876,25.403 C41.7339876,31.655 37.0199876,35.566 31.3369876,35.566 L29.2299876,35.566 L28.9639876,34.33 C27.7259876,35.166 26.5219876,35.767 25.2519876,35.767 C21.8079876,35.767 19.9689876,32.825 20.2709876,29.281 C20.6719876,24.334 23.4799876,20.856 28.0269876,20.856 C29.5309876,20.856 30.6349876,21.425 31.4699876,22.194 L32.1729876,21.023 L35.8499876,21.023 L32.9749876,32.424 C36.6859876,31.889 38.6249876,29.248 39.2939876,24.501 C40.0959876,18.884 35.3829876,16.309 30.0659876,16.309 C22.4109876,16.309 17.1949876,21.458 16.5599876,29.382 C15.9919876,36.135 20.0039876,39.913 26.6229876,39.913 C31.1029876,39.913 33.5099876,38.976 35.7499876,38.274 L35.0809876,41.451 C33.2429876,42.22 30.1999876,43.222 26.1549876,43.222 C21.8429876,43.222 11.8119876,41.217 13.1159876,28.747 C14.1189876,19.285 21.2739876,13 30.0659876,13 C35.6829876,13 44.0079876,15.875 42.6359876,25.403" id="Fill-5" fill="#F8F7F7"></path>
                </g>
            </g>
        </g>
    </g>
</svg>