<?xml version="1.0" encoding="UTF-8"?>
<svg width="55px" height="55px" viewBox="0 0 55 55" version="1.1" xmlns="http://www.w3.org/2000/svg" xmlns:xlink="http://www.w3.org/1999/xlink">
    <!-- Generator: Sketch 41 (35326) - http://www.bohemiancoding.com/sketch -->
    <title>icn_twitter</title>
    <desc>Created with Sketch.</desc>
    <defs></defs>
    <g id="Page-1" stroke="none" stroke-width="1" fill="none" fill-rule="evenodd">
        <g id="Artboard" transform="translate(-609.000000, -1687.000000)">
            <g id="social-icons" transform="translate(479.000000, 1687.000000)">
                <g id="icn_twitter" transform="translate(130.000000, 0.000000)">
                    <rect id="Rectangle-7" fill="#76CAEC" x="0" y="0" width="55" height="55"></rect>
                    <path d="M41.814,19.678 C40.792,20.132 39.691,20.438 38.538,20.576 C39.716,19.87 40.621,18.751 41.045,17.42 C39.943,18.074 38.723,18.547 37.421,18.802 C36.382,17.695 34.898,17 33.256,17 C30.106,17 27.551,19.558 27.551,22.708 C27.551,23.157 27.6,23.59 27.698,24.008 C22.956,23.769 18.752,21.5 15.936,18.043 C15.445,18.89 15.164,19.87 15.164,20.916 C15.164,22.894 16.171,24.643 17.703,25.666 C16.767,25.637 15.886,25.379 15.117,24.953 L15.117,25.024 C15.117,27.789 17.083,30.097 19.695,30.619 C19.216,30.753 18.712,30.821 18.191,30.821 C17.824,30.821 17.464,30.787 17.118,30.72 C17.843,32.986 19.951,34.637 22.448,34.682 C20.495,36.212 18.034,37.124 15.361,37.124 C14.9,37.124 14.445,37.099 14,37.046 C16.525,38.664 19.525,39.611 22.747,39.611 C33.245,39.611 38.983,30.914 38.983,23.37 C38.983,23.123 38.978,22.876 38.967,22.632 C40.083,21.826 41.051,20.823 41.814,19.678" id="Fill-1" fill="#FFFFFF"></path>
                </g>
            </g>
        </g>
    </g>
</svg>