<?xml version="1.0" encoding="UTF-8"?>
<svg width="876px" height="257px" viewBox="0 0 876 257" version="1.1" xmlns="http://www.w3.org/2000/svg" xmlns:xlink="http://www.w3.org/1999/xlink">
    <!-- Generator: Sketch 41 (35326) - http://www.bohemiancoding.com/sketch -->
    <title>lembra-a-new-font</title>
    <desc>Created with Sketch.</desc>
    <defs></defs>
    <g id="Page-1" stroke="none" stroke-width="1" fill="none" fill-rule="evenodd">
        <g id="Artboard" transform="translate(-95.000000, -124.000000)">
            <g id="section">
                <g id="lembra-a-new-font" transform="translate(95.000000, 124.000000)">
                    <path d="M30.9638364,244 L36.1438767,244 L20.8365666,202.094056 L16.1221479,202.094056 L0.4074189,244 L4.9472295,244 L9.5452428,231.48642 L26.6568366,231.48642 L30.9638364,244 Z M18.3338505,206.750272 L25.3763772,227.41223 L10.8257022,227.41223 L18.3338505,206.750272 Z M71.1819021,213.792799 C68.0389563,213.792799 64.8960105,215.247866 61.2292404,216.877542 L60.5890107,214.25842 L56.7476325,214.25842 L56.7476325,244 L61.4038485,244 L61.4038485,219.729474 C64.1975781,218.972839 67.6897401,218.041596 70.0178481,217.634177 C75.7799154,217.634177 77.2349829,220.427906 77.2349829,225.607947 L77.2349829,244 L81.8911989,244 L81.8911989,225.142325 C81.8911989,220.311501 80.0869152,213.792799 71.1819021,213.792799 Z M94.5211848,230.380568 C98.1879549,230.729784 102.727766,230.904392 104.357441,230.904392 C111.108954,230.904392 114.193697,228.343474 114.193697,223.338042 C114.193697,216.237312 109.362873,213.792799 103.600806,213.792799 C96.3254685,213.792799 89.9813742,218.798231 89.9813742,229.041906 C89.9813742,239.110973 94.6957929,244.291013 104.473847,244.291013 C106.860157,244.291013 109.537481,243.650784 111.981995,242.603135 L112.622225,239.518392 C109.479279,240.507838 106.627346,240.682446 104.299238,240.682446 C97.8969414,240.682446 94.870401,237.132081 94.5211848,230.380568 Z M103.600806,217.226758 C107.616792,217.226758 109.828495,219.438461 109.828495,222.465001 C109.828495,223.221636 109.886698,225.433339 109.013657,226.364582 C108.082414,226.830204 106.510941,227.121217 104.241036,227.237622 C101.854725,227.354028 98.5953738,227.41223 94.5211848,227.354028 C94.8121983,223.803663 95.8598469,220.835325 96.8492928,219.729474 C98.362563,218.507217 100.632468,217.226758 103.600806,217.226758 Z M125.950643,244 L130.548656,244 L137.416575,219.671271 L143.818872,244 L148.649696,244 L157.496506,214.25842 L153.305912,214.25842 L146.437993,239.518392 L140.152102,214.724042 L135.437683,215.247866 L128.569764,239.518392 L122.283873,214.25842 L117.511251,214.25842 L125.950643,244 Z M186.306843,206.808475 C187.587302,205.877231 189.158775,205.469813 191.021261,205.469813 C192.476329,205.469813 194.164207,205.702623 195.910288,206.226448 L196.783329,203.141705 C194.571626,202.210461 192.185315,201.803042 190.788451,201.803042 C183.163897,201.803042 180.311965,207.099488 180.195559,214.25842 L175.306532,214.25842 L174.782708,217.808785 L180.195559,217.808785 L180.195559,244 L184.851775,244 L184.851775,217.808785 L194.746234,217.808785 L195.270059,214.25842 L184.851775,214.25842 L184.851775,213.327177 C184.851775,210.242434 185.550208,207.681515 186.306843,206.808475 Z M209.593743,244.291013 C216.927283,244.291013 223.154972,239.576595 223.154972,228.925501 C223.154972,218.856434 217.683918,213.792799 209.593743,213.792799 C202.493014,213.792799 196.090717,218.972839 196.090717,228.983703 C196.090717,239.05277 201.503568,244.291013 209.593743,244.291013 Z M209.651946,240.682446 C203.831676,240.682446 200.746933,236.608257 200.746933,228.983703 C200.746933,224.618501 201.736378,220.951731 202.900432,219.671271 C204.413703,218.507217 206.509,217.401366 209.651946,217.401366 C215.414013,217.401366 218.498756,221.35915 218.498756,228.925501 C218.498756,233.290703 217.451107,237.132081 216.287053,238.470744 C214.773783,239.576595 213.027702,240.682446 209.651946,240.682446 Z M246.203241,213.792799 C243.060295,213.792799 239.91735,215.247866 236.25058,216.877542 L235.61035,214.25842 L231.768972,214.25842 L231.768972,244 L236.425188,244 L236.425188,219.729474 C239.218917,218.972839 242.711079,218.041596 245.039187,217.634177 C250.801255,217.634177 252.256322,220.427906 252.256322,225.607947 L252.256322,244 L256.912538,244 L256.912538,225.142325 C256.912538,220.311501 255.108254,213.792799 246.203241,213.792799 Z M277.807307,240.507838 C273.616713,240.507838 273.034686,237.830514 273.034686,233.465311 L273.034686,217.808785 L282.870942,217.808785 L283.394767,214.25842 L273.034686,214.25842 L273.034686,206.92488 L270.182754,206.92488 L268.494875,214.25842 L263.489443,214.25842 L262.965619,217.808785 L268.37847,217.808785 L268.37847,232.883284 C268.37847,239.518392 269.542524,244.174608 277.807307,244.174608 C279.145969,244.174608 281.474077,243.767189 283.04555,243.068757 L283.627577,239.809406 C281.648686,240.449635 279.611591,240.507838 277.807307,240.507838 Z M328.676467,202.094056 L324.835089,202.094056 L324.835089,216.295515 C323.030805,215.131461 320.178873,213.792799 317.210535,213.792799 C310.284414,213.792799 303.882117,218.856434 303.882117,229.041906 C303.882117,238.17973 308.072711,244.291013 316.221089,244.291013 C318.956616,244.291013 322.390576,242.603135 325.009697,241.380878 L325.591724,244 L329.491305,244 L329.491305,205.702623 L328.676467,202.094056 Z M308.538333,228.983703 C308.538333,224.618501 309.527779,221.068136 310.691833,219.787677 C312.1469,218.56542 314.882427,217.401366 316.977724,217.401366 C320.237076,217.401366 322.797994,218.099799 324.835089,219.322055 L324.835089,238.470744 C322.506981,239.343784 319.771454,240.216825 317.559751,240.507838 C311.855887,240.507838 308.538333,237.597703 308.538333,228.983703 Z M342.645115,230.380568 C346.311885,230.729784 350.851696,230.904392 352.481371,230.904392 C359.232885,230.904392 362.317628,228.343474 362.317628,223.338042 C362.317628,216.237312 357.486804,213.792799 351.724736,213.792799 C344.449399,213.792799 338.105305,218.798231 338.105305,229.041906 C338.105305,239.110973 342.819723,244.291013 352.597777,244.291013 C354.984088,244.291013 357.661412,243.650784 360.105925,242.603135 L360.746155,239.518392 C357.603209,240.507838 354.751277,240.682446 352.423169,240.682446 C346.020872,240.682446 342.994331,237.132081 342.645115,230.380568 Z M351.724736,217.226758 C355.740723,217.226758 357.952425,219.438461 357.952425,222.465001 C357.952425,223.221636 358.010628,225.433339 357.137587,226.364582 C356.206344,226.830204 354.634871,227.121217 352.364966,227.237622 C349.978655,227.354028 346.719304,227.41223 342.645115,227.354028 C342.936129,223.803663 343.983777,220.835325 344.973223,219.729474 C346.486493,218.507217 348.756399,217.226758 351.724736,217.226758 Z M376.635492,244.291013 C382.921384,244.291013 388.101424,242.312122 388.101424,235.618811 C388.101424,231.253609 385.889721,228.576285 379.83664,227.121217 C375.878857,226.073568 371.862871,225.957163 371.862871,221.999379 C371.862871,220.427906 372.212087,219.380258 373.085127,218.56542 C374.540195,217.808785 376.868303,217.343163 379.138208,217.401366 C381.873735,217.459569 384.318248,217.69238 386.413546,218.390812 L387.170181,215.364272 C384.958478,214.491231 381.699127,213.792799 379.60383,213.792799 C373.317938,213.792799 367.846884,216.295515 367.846884,222.581406 C367.846884,227.528636 371.571857,229.507528 375.180424,230.322366 C380.942492,231.544622 383.910829,232.126649 383.910829,236.084433 C383.910829,237.5395 383.619816,238.645352 382.746775,239.576595 C381.1171,240.391433 378.672586,240.566041 377.217519,240.566041 C373.78356,240.566041 370.291398,239.984014 368.079695,239.285581 L367.32306,242.370324 C369.592965,243.35977 373.085127,244.291013 376.635492,244.291013 Z M397.995883,209.07838 C398.752518,209.07838 399.625558,208.845569 400.207585,208.43815 C400.673207,208.030731 400.964221,206.983083 400.964221,205.993637 C400.964221,203.956542 399.800167,202.908894 397.995883,202.908894 C397.239248,202.908894 396.366207,203.141705 395.78418,203.549123 C395.376761,204.014745 395.027545,205.004191 395.027545,205.993637 C395.027545,208.030731 396.191599,209.07838 397.995883,209.07838 Z M395.667775,244 L400.323991,244 L400.323991,214.25842 L395.667775,214.25842 L395.667775,244 Z M436.060449,214.607637 L426.515206,214.607637 C424.88553,214.025609 423.081247,213.792799 420.985949,213.792799 C414.292639,213.792799 409.112599,217.343163 409.112599,223.978271 C409.112599,227.645041 410.567666,230.380568 413.128585,232.126649 L409.461815,240.798851 C410.102044,241.788297 412.080936,243.243365 415.39849,243.534378 L423.546868,244.349216 C427.912071,244.756635 429.483544,245.920689 429.483544,248.132392 C429.483544,249.529256 429.19253,250.344094 428.610503,251.100729 C427.155436,251.915567 424.070692,252.439392 419.589085,252.439392 C415.39849,252.439392 411.789923,251.682756 408.414166,250.518702 L407.599328,253.836256 C410.800477,255.174918 414.52545,256.047959 419.938301,256.106162 C428.435895,256.164364 433.848746,254.069067 433.848746,247.957784 C433.848746,242.021108 429.83276,240.682446 424.303503,240.100419 L416.969963,239.401987 C415.922314,239.285581 414.874666,239.110973 414.176233,238.645352 L416.03872,233.465311 C417.493787,233.930933 419.181666,234.163744 420.985949,234.163744 C427.912071,234.163744 432.917503,230.555176 432.917503,223.920068 C432.917503,221.533758 432.160868,219.554866 430.938611,218.099799 L435.478422,217.634177 L436.060449,214.607637 Z M426.573409,229.507528 C425.292949,230.20596 423.488665,230.787987 420.927747,230.787987 C416.446139,230.787987 413.477801,228.168866 413.477801,223.920068 C413.477801,220.951731 414.409044,219.322055 415.340287,218.449015 C416.67895,217.750582 418.425031,217.168555 420.985949,217.168555 C425.409355,217.168555 428.5523,219.671271 428.5523,223.920068 C428.5523,226.888406 427.504652,228.634487 426.573409,229.507528 Z M456.489596,213.792799 C453.346651,213.792799 450.203705,215.247866 446.536935,216.877542 L445.896705,214.25842 L442.055327,214.25842 L442.055327,244 L446.711543,244 L446.711543,219.729474 C449.505272,218.972839 452.997434,218.041596 455.325542,217.634177 C461.08761,217.634177 462.542677,220.427906 462.542677,225.607947 L462.542677,244 L467.198893,244 L467.198893,225.142325 C467.198893,220.311501 465.394609,213.792799 456.489596,213.792799 Z M479.828879,230.380568 C483.495649,230.729784 488.03546,230.904392 489.665135,230.904392 C496.416649,230.904392 499.501392,228.343474 499.501392,223.338042 C499.501392,216.237312 494.670568,213.792799 488.9085,213.792799 C481.633163,213.792799 475.289068,218.798231 475.289068,229.041906 C475.289068,239.110973 480.003487,244.291013 489.781541,244.291013 C492.167851,244.291013 494.845176,243.650784 497.289689,242.603135 L497.929919,239.518392 C494.786973,240.507838 491.935041,240.682446 489.606933,240.682446 C483.204636,240.682446 480.178095,237.132081 479.828879,230.380568 Z M488.9085,217.226758 C492.924487,217.226758 495.136189,219.438461 495.136189,222.465001 C495.136189,223.221636 495.194392,225.433339 494.321351,226.364582 C493.390108,226.830204 491.818635,227.121217 489.54873,227.237622 C487.162419,227.354028 483.903068,227.41223 479.828879,227.354028 C480.119893,223.803663 481.167541,220.835325 482.156987,219.729474 C483.670257,218.507217 485.940163,217.226758 488.9085,217.226758 Z M530.232417,202.094056 L526.391039,202.094056 L526.391039,216.295515 C524.586755,215.131461 521.734823,213.792799 518.766485,213.792799 C511.840364,213.792799 505.438067,218.856434 505.438067,229.041906 C505.438067,238.17973 509.628661,244.291013 517.777039,244.291013 C520.512566,244.291013 523.946526,242.603135 526.565647,241.380878 L527.147674,244 L531.047255,244 L531.047255,205.702623 L530.232417,202.094056 Z M510.094283,228.983703 C510.094283,224.618501 511.083729,221.068136 512.247783,219.787677 C513.70285,218.56542 516.438377,217.401366 518.533675,217.401366 C521.793026,217.401366 524.353945,218.099799 526.391039,219.322055 L526.391039,238.470744 C524.062931,239.343784 521.327404,240.216825 519.115702,240.507838 C513.411837,240.507838 510.094283,237.597703 510.094283,228.983703 Z M563.989983,206.808475 C565.270443,205.877231 566.841916,205.469813 568.704402,205.469813 C570.159469,205.469813 571.847348,205.702623 573.593429,206.226448 L574.466469,203.141705 C572.254767,202.210461 569.868456,201.803042 568.471591,201.803042 C560.847037,201.803042 557.995105,207.099488 557.8787,214.25842 L552.989673,214.25842 L552.465849,217.808785 L557.8787,217.808785 L557.8787,244 L562.534916,244 L562.534916,217.808785 L572.429375,217.808785 L572.953199,214.25842 L562.534916,214.25842 L562.534916,213.327177 C562.534916,210.242434 563.233348,207.681515 563.989983,206.808475 Z M587.271063,244.291013 C594.604603,244.291013 600.832292,239.576595 600.832292,228.925501 C600.832292,218.856434 595.361239,213.792799 587.271063,213.792799 C580.170334,213.792799 573.768037,218.972839 573.768037,228.983703 C573.768037,239.05277 579.180888,244.291013 587.271063,244.291013 Z M587.329266,240.682446 C581.508996,240.682446 578.424253,236.608257 578.424253,228.983703 C578.424253,224.618501 579.413699,220.951731 580.577753,219.671271 C582.091023,218.507217 584.18632,217.401366 587.329266,217.401366 C593.091333,217.401366 596.176076,221.35915 596.176076,228.925501 C596.176076,233.290703 595.128428,237.132081 593.964374,238.470744 C592.451104,239.576595 590.705023,240.682446 587.329266,240.682446 Z M622.949318,213.792799 C620.3884,213.792799 617.478265,215.073258 613.9279,216.819339 L613.28767,214.25842 L609.446292,214.25842 L609.446292,244 L614.102508,244 L614.102508,219.554866 C616.838035,218.740028 618.758724,218.158001 621.145035,217.750582 C622.891116,217.750582 623.996967,217.808785 625.219224,217.983393 L626.383278,214.200218 C625.56844,213.967407 624.28798,213.792799 622.949318,213.792799 Z M660.431857,213.792799 C657.754533,213.792799 654.320574,215.306069 651.759655,216.41192 L651.759655,205.760826 L650.944817,202.094056 L647.103439,202.094056 L647.103439,244 L650.886614,244 L651.468641,241.497284 C653.447533,242.835946 655.775641,244.291013 659.791627,244.291013 C666.077519,244.291013 672.77083,239.169176 672.77083,229.100109 C672.77083,219.962285 668.580235,213.792799 660.431857,213.792799 Z M665.961114,238.296135 C664.506046,239.518392 662.410749,240.740649 659.442411,240.740649 C656.474074,240.740649 653.796749,239.751203 651.759655,238.412541 L651.759655,219.380258 C654.087763,218.623623 656.881492,217.866988 659.093195,217.575974 C664.79706,217.575974 668.114614,220.486109 668.114614,229.100109 C668.114614,233.407109 667.125168,237.015676 665.961114,238.296135 Z M694.887856,213.792799 C692.326937,213.792799 689.416802,215.073258 685.866437,216.819339 L685.226207,214.25842 L681.384829,214.25842 L681.384829,244 L686.041045,244 L686.041045,219.554866 C688.776572,218.740028 690.697261,218.158001 693.083572,217.750582 C694.829653,217.750582 695.935504,217.808785 697.157761,217.983393 L698.321815,214.200218 C697.506977,213.967407 696.226518,213.792799 694.887856,213.792799 Z M709.20572,213.792799 C706.761206,213.792799 703.152639,214.724042 701.115544,215.655285 L700.59172,218.740028 C703.094436,217.808785 706.41199,217.459569 709.322125,217.459569 C713.803733,217.459569 717.237692,219.147447 717.237692,224.851312 L717.237692,227.063014 C713.74553,226.655595 710.71899,226.713798 709.031112,226.655595 C702.570612,226.655595 698.43822,229.449325 698.43822,235.036784 C698.43822,241.788297 702.803423,244.291013 708.681895,244.291013 C711.708436,244.291013 714.793179,242.952351 717.470503,241.555487 L717.994327,244 L721.602895,244 L721.602895,226.248176 C721.602895,218.623623 718.809165,213.792799 709.20572,213.792799 Z M702.687017,235.386 C702.687017,233.930933 702.861625,232.35946 703.792869,231.428217 C705.073328,230.84619 707.05222,230.438771 710.602585,230.20596 C712.406868,230.089555 714.560368,230.031352 717.237692,230.031352 L717.237692,238.936365 C715.084192,239.576595 712.115855,240.391433 710.07876,240.798851 C704.491301,240.798851 702.687017,238.17973 702.687017,235.386 Z M745.64061,213.792799 C742.497664,213.792799 739.354718,215.247866 735.687948,216.877542 L735.047719,214.25842 L731.20634,214.25842 L731.20634,244 L735.862556,244 L735.862556,219.729474 C738.656286,218.972839 742.148448,218.041596 744.476556,217.634177 C750.238623,217.634177 751.693691,220.427906 751.693691,225.607947 L751.693691,244 L756.349907,244 L756.349907,225.142325 C756.349907,220.311501 754.545623,213.792799 745.64061,213.792799 Z M789.234432,202.094056 L785.393054,202.094056 L785.393054,216.295515 C783.58877,215.131461 780.736838,213.792799 777.7685,213.792799 C770.842379,213.792799 764.440082,218.856434 764.440082,229.041906 C764.440082,238.17973 768.630676,244.291013 776.779054,244.291013 C779.514581,244.291013 782.948541,242.603135 785.567662,241.380878 L786.149689,244 L790.04927,244 L790.04927,205.702623 L789.234432,202.094056 Z M769.096298,228.983703 C769.096298,224.618501 770.085744,221.068136 771.249798,219.787677 C772.704865,218.56542 775.440392,217.401366 777.53569,217.401366 C780.795041,217.401366 783.35596,218.099799 785.393054,219.322055 L785.393054,238.470744 C783.064946,239.343784 780.329419,240.216825 778.117717,240.507838 C772.413852,240.507838 769.096298,237.597703 769.096298,228.983703 Z M802.504648,209.07838 C803.261283,209.07838 804.134323,208.845569 804.71635,208.43815 C805.181972,208.030731 805.472986,206.983083 805.472986,205.993637 C805.472986,203.956542 804.308932,202.908894 802.504648,202.908894 C801.748013,202.908894 800.874972,203.141705 800.292945,203.549123 C799.885526,204.014745 799.53631,205.004191 799.53631,205.993637 C799.53631,208.030731 800.700364,209.07838 802.504648,209.07838 Z M800.17654,244 L804.832756,244 L804.832756,214.25842 L800.17654,214.25842 L800.17654,244 Z M829.394295,213.792799 C826.251349,213.792799 823.108404,215.247866 819.441634,216.877542 L818.801404,214.25842 L814.960026,214.25842 L814.960026,244 L819.616242,244 L819.616242,219.729474 C822.409971,218.972839 825.902133,218.041596 828.230241,217.634177 C833.992309,217.634177 835.447376,220.427906 835.447376,225.607947 L835.447376,244 L840.103592,244 L840.103592,225.142325 C840.103592,220.311501 838.299308,213.792799 829.394295,213.792799 Z M875.316226,214.607637 L865.770983,214.607637 C864.141307,214.025609 862.337023,213.792799 860.241726,213.792799 C853.548416,213.792799 848.368375,217.343163 848.368375,223.978271 C848.368375,227.645041 849.823443,230.380568 852.384362,232.126649 L848.717592,240.798851 C849.357821,241.788297 851.336713,243.243365 854.654267,243.534378 L862.802645,244.349216 C867.167848,244.756635 868.73932,245.920689 868.73932,248.132392 C868.73932,249.529256 868.448307,250.344094 867.86628,251.100729 C866.411212,251.915567 863.326469,252.439392 858.844861,252.439392 C854.654267,252.439392 851.0457,251.682756 847.669943,250.518702 L846.855105,253.836256 C850.056254,255.174918 853.781227,256.047959 859.194078,256.106162 C867.691672,256.164364 873.104523,254.069067 873.104523,247.957784 C873.104523,242.021108 869.088537,240.682446 863.55928,240.100419 L856.22574,239.401987 C855.178091,239.285581 854.130443,239.110973 853.43201,238.645352 L855.294497,233.465311 C856.749564,233.930933 858.437443,234.163744 860.241726,234.163744 C867.167848,234.163744 872.17328,230.555176 872.17328,223.920068 C872.17328,221.533758 871.416645,219.554866 870.194388,218.099799 L874.734199,217.634177 L875.316226,214.607637 Z M865.829185,229.507528 C864.548726,230.20596 862.744442,230.787987 860.183524,230.787987 C855.701916,230.787987 852.733578,228.168866 852.733578,223.920068 C852.733578,220.951731 853.664821,219.322055 854.596064,218.449015 C855.934726,217.750582 857.680807,217.168555 860.241726,217.168555 C864.665131,217.168555 867.808077,219.671271 867.808077,223.920068 C867.808077,226.888406 866.760429,228.634487 865.829185,229.507528 Z" id="A-new-font-designed-for-branding" fill="#DA5A26"></path>
                    <path d="M42.5682872,125.191537 L42.5682872,25.8719448 L37.6130798,0.880464 L5.7273974,0.880464 L5.7273974,156 L104.831545,156 L108.49409,125.191537 L42.5682872,125.191537 Z M153.952732,108.602364 C165.586697,109.679583 177.436106,110.325914 182.17587,110.325914 C209.321788,110.325914 222.032973,101.492719 222.032973,78.6556758 C222.032973,54.5259702 206.736463,41.1684546 178.513325,41.1684546 C141.672435,41.1684546 120.343499,64.0054974 120.343499,98.907393 C120.343499,136.825502 139.08711,157.508107 177.866994,157.508107 C189.716403,157.508107 201.565812,155.569112 213.846108,151.260236 L217.293209,126.053312 C209.752676,128.423194 195.102498,129.9313 184.976639,129.9313 C164.509478,129.9313 155.891726,124.760649 153.952732,108.602364 Z M177.65155,67.0217106 C188.854627,67.0217106 193.163503,72.4078056 193.163503,78.8711196 C193.163503,81.671889 192.94806,83.826327 191.224509,86.1962088 C188.42374,87.057984 184.761195,87.7043154 180.021432,88.135203 C173.342674,88.7815344 164.940366,88.9969782 153.952732,89.212422 C154.814507,80.3792262 156.753501,75.208575 158.477052,72.4078056 C162.570484,69.6070362 168.60291,67.0217106 177.65155,67.0217106 Z M370.042863,41.1684546 C356.25446,41.1684546 345.051382,46.3391058 335.356411,53.4487512 C328.893097,45.6927744 319.629014,41.1684546 307.779605,41.1684546 C294.637533,41.1684546 284.727118,46.7699934 276.540254,53.0178636 L273.093153,42.6765612 L244.223684,42.6765612 L244.223684,156 L279.341023,156 L279.341023,72.6232494 C284.296231,71.3305866 289.251438,70.0379238 294.422089,69.1761486 C305.409723,69.1761486 309.718599,73.9159122 309.718599,87.057984 L309.718599,156 L344.835939,156 L344.835939,84.6881022 C344.835939,80.3792262 344.405051,76.285794 343.75872,72.6232494 C349.144815,71.3305866 354.746353,70.0379238 359.917005,69.1761486 C370.904638,69.1761486 375.213514,73.9159122 375.213514,87.057984 L375.213514,156 L410.330854,156 L410.330854,85.5498774 C410.330854,58.4039586 396.327007,41.1684546 370.042863,41.1684546 Z M499.955475,41.1684546 C489.829616,41.1684546 480.565533,45.2618868 472.594112,51.2943132 L472.594112,23.9329506 L468.069792,0.880464 L438.123104,0.880464 L438.123104,156 L469.147011,156 L471.301449,146.95136 C479.057426,153.199231 487.459734,157.508107 499.740031,157.508107 C526.024174,157.508107 545.845004,138.97994 545.845004,99.5537244 C545.845004,65.7290478 530.548494,41.1684546 499.955475,41.1684546 Z M505.126126,125.837868 C501.463581,128.638637 496.723818,130.577632 489.398728,130.577632 C483.366302,130.577632 477.333876,128.638637 472.594112,126.484199 L472.594112,72.1923618 C477.980207,70.4688114 483.581746,69.1761486 488.106066,68.5298172 C503.402575,68.5298172 510.512221,78.2247882 510.512221,99.3382806 C510.512221,113.773015 507.711451,122.175323 505.126126,125.837868 Z M631.160749,41.1684546 C621.250334,41.1684546 610.909032,47.4163248 602.506723,53.664195 L598.844179,42.6765612 L569.97471,42.6765612 L569.97471,156 L605.092049,156 L605.092049,73.9159122 C612.417138,72.4078056 619.957671,70.899699 624.481991,70.2533676 C631.160749,70.2533676 635.038737,70.899699 638.485838,71.5460304 L643.010158,42.2456736 C639.347613,41.5993422 635.469625,41.1684546 631.160749,41.1684546 Z M692.346788,41.1684546 C679.851048,41.1684546 667.786195,43.7537802 656.15223,48.2781 L652.058797,71.976918 C659.168443,70.0379238 673.603177,68.3143734 683.94448,68.3143734 C702.257203,68.3143734 710.01318,72.6232494 710.01318,85.5498774 L710.01318,89.4278658 C698.810102,88.3506468 687.822468,87.9197592 683.298148,88.135203 C658.952999,89.212422 644.302821,101.492719 644.302821,121.313548 C644.302821,146.735917 658.306668,157.508107 680.281935,157.508107 C693.424007,157.508107 704.842528,150.183017 712.167618,144.796922 L715.183831,156 L743.191525,156 L743.191525,90.7205286 C743.191525,58.1885148 729.834009,41.1684546 692.346788,41.1684546 Z M675.326728,120.236329 C675.326728,117.004672 675.757615,114.419347 677.481166,112.049465 C681.790042,110.541358 688.4688,109.464139 698.163771,109.033252 C701.610871,108.817808 705.704304,108.817808 710.01318,108.602364 L710.01318,128.20775 C703.118978,129.9313 694.285782,131.654851 689.546019,132.516626 C678.989272,132.516626 675.326728,127.130531 675.326728,120.236329 Z" id="Lembra" fill="#677B9F"></path>
                </g>
            </g>
        </g>
    </g>
</svg>