<?xml version="1.0" encoding="UTF-8"?>
<svg width="550px" height="276px" viewBox="0 0 550 276" version="1.1" xmlns="http://www.w3.org/2000/svg" xmlns:xlink="http://www.w3.org/1999/xlink">
    <!-- Generator: Sketch 41 (35326) - http://www.bohemiancoding.com/sketch -->
    <title>photography</title>
    <desc>Created with Sketch.</desc>
    <defs></defs>
    <g id="Page-1" stroke="none" stroke-width="1" fill="none" fill-rule="evenodd">
        <g id="Artboard" transform="translate(-295.000000, -3349.000000)">
            <g id="photography" transform="translate(295.000000, 3349.000000)">
                <rect id="Rectangle-3" fill="#3F3E43" x="0" y="0" width="550" height="276"></rect>
                <rect id="Rectangle-4" fill="#DA5B35" x="81" y="180" width="388" height="4"></rect>
                <path d="M102.1375,229 L104.2835,229 L107.7635,211.484 L111.1855,225.201 L113.2735,225.201 L121.1905,211.078 L118.8995,229 L121.1615,229 L123.5105,208.12 L120.7265,208.12 L112.5775,222.707 L109.0975,208.12 L106.4295,208.12 L102.1375,229 Z M131.6665,229.145 C135.1755,229.145 138.5105,226.883 139.3515,221.634 C140.1635,216.559 137.8435,213.949 133.8415,213.949 C130.4195,213.949 126.9685,216.443 126.1855,221.373 C125.3735,226.448 127.6355,229.145 131.6665,229.145 Z M131.7535,227.347 C128.9695,227.347 127.8095,225.404 128.4185,221.663 C128.7665,219.43 129.5785,217.661 130.2165,216.994 C130.9705,216.443 132.2175,215.747 133.8125,215.747 C136.5675,215.747 137.7275,217.632 137.1185,221.344 C136.7705,223.577 135.9295,225.491 135.2625,226.158 C134.4795,226.68 133.4355,227.347 131.7535,227.347 Z M156.9905,208.12 L155.1055,208.12 L153.9745,215.225 C153.1915,214.616 151.8865,213.949 150.3495,213.949 C146.5795,213.949 143.5635,216.385 142.7805,221.402 C142.0265,226.013 143.8245,229.145 147.6815,229.145 C148.9285,229.145 150.7555,228.333 152.0895,227.753 L152.1765,229 L154.0615,229 L157.1065,209.918 L156.9905,208.12 Z M145.0135,221.663 C145.3615,219.43 146.1155,217.632 146.6955,216.994 C147.5075,216.385 148.7545,215.776 150.3205,215.776 C151.7995,215.776 152.9015,216.153 153.7425,216.733 L152.2345,226.187 C151.0165,226.622 149.5665,227.115 148.4065,227.26 C145.9705,227.26 144.3175,225.897 145.0135,221.663 Z M171.1495,214.181 L169.2355,226.245 C167.8435,226.593 166.0455,227.028 164.8275,227.231 C162.0725,227.231 161.6955,225.926 162.1015,223.345 L163.5515,214.181 L161.2895,214.181 L159.8105,223.403 C159.4335,225.81 159.7525,229.145 164.1605,229.145 C165.6685,229.145 167.2345,228.536 169.0905,227.724 L169.1485,229 L171.0625,229 L173.4115,214.181 L171.1495,214.181 Z M178.3485,229.087 C179.3635,229.087 180.1175,229 180.7265,228.855 L181.0745,227.579 L178.4935,227.173 L181.2195,209.947 L181.1035,208.12 L179.2475,208.12 L176.3185,226.506 C176.0575,228.275 177.0145,229.087 178.3485,229.087 Z M191.5505,213.949 C188.0415,213.949 184.6195,216.356 183.8365,221.402 C183.0245,226.477 184.9675,229.145 189.7815,229.145 C190.8835,229.145 192.2465,228.884 193.5225,228.391 L194.0155,226.767 C192.3625,227.26 190.9415,227.347 189.7525,227.347 C186.6495,227.347 185.5475,225.607 185.9245,222.214 C187.6935,222.388 189.9265,222.475 190.7965,222.475 C194.0155,222.475 195.6685,221.286 196.0455,218.85 C196.6255,215.254 194.4215,213.949 191.5505,213.949 Z M194.0445,218.125 C193.9575,218.56 193.7545,219.72 193.2325,220.213 C192.7685,220.416 191.9855,220.532 190.8545,220.619 C189.6655,220.706 188.1285,220.735 186.1855,220.706 C186.6495,218.937 187.3745,217.516 187.8385,216.965 C188.6795,216.385 189.9555,215.66 191.4925,215.66 C193.4065,215.66 194.2765,216.675 194.0445,218.125 Z M213.8075,227.057 L216.7365,208.526 L214.5325,208.526 L208.7325,210.295 L208.2105,212.064 L214.0685,210.759 L211.5165,227.057 L206.3255,227.057 L205.7455,229 L217.9545,229 L218.5345,227.057 L213.8075,227.057 Z M228.6115,221.982 L243.1115,221.982 L243.6915,219.981 L229.1915,219.981 L228.6115,221.982 Z M260.7865,208.12 L255.2185,208.12 L251.9125,229 L254.2615,229 L255.5955,220.474 L259.1625,220.474 C264.1215,220.474 266.9925,218.966 267.7465,214.587 C268.5585,210.034 264.9915,208.12 260.7865,208.12 Z M265.4555,214.21 C265.2235,215.834 264.7305,216.762 264.0925,217.545 C263.0775,218.212 261.2505,218.444 259.1625,218.444 L255.9145,218.444 L257.2195,210.179 L260.2935,210.179 C263.5705,210.179 265.8905,211.107 265.4555,214.21 Z M277.9035,213.949 C276.7145,213.949 275.2355,214.558 273.3795,215.37 L273.2635,214.181 L271.4075,214.181 L269.0585,229 L271.3205,229 L273.2635,216.791 C274.6555,216.472 275.6995,216.124 276.9465,215.921 C277.7295,215.921 278.2805,215.892 278.8605,216.008 L279.6435,214.181 C279.2375,214.065 278.6285,213.949 277.9035,213.949 Z M285.2765,229.145 C288.7855,229.145 292.1205,226.883 292.9615,221.634 C293.7735,216.559 291.4535,213.949 287.4515,213.949 C284.0295,213.949 280.5785,216.443 279.7955,221.373 C278.9835,226.448 281.2455,229.145 285.2765,229.145 Z M285.3635,227.347 C282.5795,227.347 281.4195,225.404 282.0285,221.663 C282.3765,219.43 283.1885,217.661 283.8265,216.994 C284.5805,216.443 285.8275,215.747 287.4225,215.747 C290.1775,215.747 291.3375,217.632 290.7285,221.344 C290.3805,223.577 289.5395,225.491 288.8725,226.158 C288.0895,226.68 287.0455,227.347 285.3635,227.347 Z M304.6845,213.949 C303.4085,213.949 301.6105,214.674 300.2765,215.225 L300.1605,214.181 L298.2755,214.181 L295.2595,233.118 L295.3755,234.916 L297.2605,234.916 L298.3625,228.014 C299.2325,228.652 300.4505,229.145 301.8425,229.145 C305.6125,229.145 308.8025,226.68 309.6145,221.721 C310.3395,217.11 308.6285,213.949 304.6845,213.949 Z M307.3815,221.431 C307.0335,223.635 306.2215,225.462 305.5255,226.1 C304.7135,226.709 303.4375,227.347 301.9875,227.347 C300.9725,227.347 299.5225,227.144 298.5655,226.564 L300.1315,216.791 C301.3495,216.385 302.7705,215.979 303.9595,215.834 C306.5985,215.834 308.0485,217.197 307.3815,221.431 Z M320.7865,213.949 C317.2775,213.949 313.8555,216.356 313.0725,221.402 C312.2605,226.477 314.2035,229.145 319.0175,229.145 C320.1195,229.145 321.4825,228.884 322.7585,228.391 L323.2515,226.767 C321.5985,227.26 320.1775,227.347 318.9885,227.347 C315.8855,227.347 314.7835,225.607 315.1605,222.214 C316.9295,222.388 319.1625,222.475 320.0325,222.475 C323.2515,222.475 324.9045,221.286 325.2815,218.85 C325.8615,215.254 323.6575,213.949 320.7865,213.949 Z M323.2805,218.125 C323.1935,218.56 322.9905,219.72 322.4685,220.213 C322.0045,220.416 321.2215,220.532 320.0905,220.619 C318.9015,220.706 317.3645,220.735 315.4215,220.706 C315.8855,218.937 316.6105,217.516 317.0745,216.965 C317.9155,216.385 319.1915,215.66 320.7285,215.66 C322.6425,215.66 323.5125,216.675 323.2805,218.125 Z M336.1055,213.949 C334.9165,213.949 333.4375,214.558 331.5815,215.37 L331.4655,214.181 L329.6095,214.181 L327.2605,229 L329.5225,229 L331.4655,216.791 C332.8575,216.472 333.9015,216.124 335.1485,215.921 C335.9315,215.921 336.4825,215.892 337.0625,216.008 L337.8455,214.181 C337.4395,214.065 336.8305,213.949 336.1055,213.949 Z M348.3285,226.941 L350.9965,210.063 L350.8515,208.12 L348.9955,208.12 L345.6895,229 L357.4055,229 L357.9855,226.941 L348.3285,226.941 Z M364.5175,211.6 C364.8945,211.6 365.3005,211.571 365.6485,211.397 C365.8805,211.136 366.1125,210.643 366.1705,210.237 C366.3155,209.135 365.8225,208.526 364.8365,208.526 C364.4885,208.526 364.0825,208.555 363.7635,208.7 C363.5025,209.019 363.2705,209.483 363.2125,209.918 C363.0675,211.02 363.5895,211.6 364.5175,211.6 Z M360.6895,229 L362.9515,229 L365.3005,214.181 L363.0385,214.181 L360.6895,229 Z M382.3885,214.355 L377.6325,214.355 C376.8785,214.065 376.0085,213.949 374.9935,213.949 C371.8035,213.949 369.1065,215.631 368.7005,218.879 C368.4975,220.648 368.9905,222.04 370.0345,222.91 L367.6275,227.318 C367.8885,227.811 368.8455,228.565 370.4695,228.71 L374.3845,229.116 C376.5015,229.348 377.1395,229.899 376.9655,231.233 C376.8785,231.813 376.7335,232.219 376.2985,232.596 C375.1095,233.118 373.9205,233.176 371.6875,233.176 C369.6865,233.176 368.0045,232.857 366.4385,232.277 L365.8875,233.872 C367.3665,234.539 369.1065,235.003 371.8035,235.032 C375.8925,235.061 378.6475,234.278 379.0535,231.291 C379.4595,228.275 377.5745,227.347 374.9065,227.057 L371.3685,226.709 C370.8755,226.651 370.3535,226.593 370.0635,226.361 L371.4265,223.693 C372.1515,223.954 373.0215,224.099 373.9785,224.099 C377.2845,224.099 379.8945,222.388 380.3005,219.14 C380.4455,217.864 380.1555,216.82 379.5755,216.066 L381.8955,215.805 L382.3885,214.355 Z M378.2125,218.85 C378.0095,220.387 377.4295,221.286 376.9365,221.75 C376.2695,222.098 375.3125,222.417 373.9205,222.417 C371.8035,222.417 370.5275,221.199 370.7885,219.14 C370.9915,217.603 371.4555,216.733 371.9485,216.298 C372.6735,215.95 373.6305,215.631 375.0225,215.631 C377.1105,215.631 378.4445,216.791 378.2125,218.85 Z M392.6615,213.949 C391.2115,213.949 389.6165,214.616 387.7605,215.399 L388.6305,209.947 L388.4855,208.12 L386.6585,208.12 L383.3525,229 L385.6145,229 L387.5285,216.936 C388.9785,216.559 390.7765,216.066 392.0235,215.863 C394.7785,215.863 395.2135,217.168 394.8075,219.749 L393.3575,229 L395.6195,229 L397.0985,219.691 C397.4755,217.284 397.0695,213.949 392.6615,213.949 Z M405.3125,215.95 L410.0975,215.95 L410.6485,214.181 L405.5735,214.181 L406.1535,210.527 L404.6745,210.527 L403.3695,214.181 L400.9335,214.181 L400.3825,215.95 L403.0215,215.95 L401.8615,223.374 C401.3395,226.68 401.5715,229.087 405.6605,229.087 C406.2695,229.087 407.4295,228.884 408.2415,228.536 L408.6765,226.912 C407.6615,227.231 406.6755,227.26 405.7185,227.26 C403.8915,227.26 403.7175,226.013 404.0655,223.838 L405.3125,215.95 Z M415.4115,211.6 C415.7885,211.6 416.1945,211.571 416.5425,211.397 C416.7745,211.136 417.0065,210.643 417.0645,210.237 C417.2095,209.135 416.7165,208.526 415.7305,208.526 C415.3825,208.526 414.9765,208.555 414.6575,208.7 C414.3965,209.019 414.1645,209.483 414.1065,209.918 C413.9615,211.02 414.4835,211.6 415.4115,211.6 Z M411.5835,229 L413.8455,229 L416.1945,214.181 L413.9325,214.181 L411.5835,229 Z M428.0625,213.949 C426.5835,213.949 424.9595,214.645 423.0745,215.428 L422.9585,214.181 L421.1025,214.181 L418.7535,229 L421.0155,229 L422.9295,216.936 C424.3795,216.559 426.1775,216.066 427.4245,215.863 C430.1795,215.863 430.6145,217.168 430.2085,219.749 L428.7585,229 L431.0205,229 L432.4995,219.691 C432.8765,217.284 432.4705,213.949 428.0625,213.949 Z M450.1675,214.355 L445.4115,214.355 C444.6575,214.065 443.7875,213.949 442.7725,213.949 C439.5825,213.949 436.8855,215.631 436.4795,218.879 C436.2765,220.648 436.7695,222.04 437.8135,222.91 L435.4065,227.318 C435.6675,227.811 436.6245,228.565 438.2485,228.71 L442.1635,229.116 C444.2805,229.348 444.9185,229.899 444.7445,231.233 C444.6575,231.813 444.5125,232.219 444.0775,232.596 C442.8885,233.118 441.6995,233.176 439.4665,233.176 C437.4655,233.176 435.7835,232.857 434.2175,232.277 L433.6665,233.872 C435.1455,234.539 436.8855,235.003 439.5825,235.032 C443.6715,235.061 446.4265,234.278 446.8325,231.291 C447.2385,228.275 445.3535,227.347 442.6855,227.057 L439.1475,226.709 C438.6545,226.651 438.1325,226.593 437.8425,226.361 L439.2055,223.693 C439.9305,223.954 440.8005,224.099 441.7575,224.099 C445.0635,224.099 447.6735,222.388 448.0795,219.14 C448.2245,217.864 447.9345,216.82 447.3545,216.066 L449.6745,215.805 L450.1675,214.355 Z M445.9915,218.85 C445.7885,220.387 445.2085,221.286 444.7155,221.75 C444.0485,222.098 443.0915,222.417 441.6995,222.417 C439.5825,222.417 438.3065,221.199 438.5675,219.14 C438.7705,217.603 439.2345,216.733 439.7275,216.298 C440.4525,215.95 441.4095,215.631 442.8015,215.631 C444.8895,215.631 446.2235,216.791 445.9915,218.85 Z" id="Module-1-–-Proper-Li" fill="#FFFFFF"></path>
                <path d="M180.7865,89 L188.4725,89 L189.6065,56.807 L199.3085,81.125 L206.4905,81.125 L216.3185,56.051 L217.5785,89 L225.6425,89 L223.3115,43.64 L214.4285,43.64 L203.0885,71.927 L191.9375,43.64 L183.1175,43.64 L180.7865,89 Z M248.1115,89.378 C257.0575,89.378 263.7985,83.834 263.7985,72.557 C263.7985,61.658 257.6245,55.799 248.1115,55.799 C239.3545,55.799 232.4245,61.784 232.4245,72.494 C232.4245,83.519 238.6615,89.378 248.1115,89.378 Z M248.1115,83.078 C243.0715,83.078 240.6775,79.865 240.6775,72.494 C240.6775,68.336 241.5595,65.186 242.5045,63.863 C243.7645,62.918 245.5915,62.036 248.2375,62.036 C253.1515,62.036 255.5455,65.375 255.5455,72.557 C255.5455,76.967 254.7265,79.991 253.7185,81.314 C252.4585,82.259 250.8835,83.078 248.1115,83.078 Z M287.9685,55.799 C284.9445,55.799 281.9835,57.185 279.4635,59.075 L279.4635,49.247 L278.3295,43.64 L271.3995,43.64 L271.3995,89 L278.4555,89 L279.1485,86.228 C281.3535,88.055 283.8735,89.378 287.6535,89.378 C295.0245,89.378 301.3875,83.897 301.3875,72.62 C301.3875,62.729 296.9145,55.799 287.9685,55.799 Z M291.3075,81.251 C290.0475,82.259 288.2835,83.141 285.7635,83.141 C283.4325,83.141 281.1645,82.385 279.4635,81.44 L279.4635,63.611 C281.4795,62.981 283.6845,62.414 285.3855,62.225 C290.4885,62.225 293.1975,65.186 293.1975,72.62 C293.1975,77.03 292.2525,80.054 291.3075,81.251 Z M313.0835,51.956 C314.2805,51.956 315.6665,51.704 316.6115,51.137 C317.3045,50.507 317.7455,49.184 317.7455,47.798 C317.7455,44.963 316.0445,43.577 313.0835,43.577 C311.8865,43.577 310.5005,43.892 309.4925,44.396 C308.9255,45.026 308.3585,46.412 308.3585,47.798 C308.3585,50.57 310.1225,51.956 313.0835,51.956 Z M308.9885,89 L317.1785,89 L317.1785,56.24 L308.9885,56.24 L308.9885,89 Z M333.2215,89.315 C335.7415,89.315 338.0095,88.937 339.8365,88.37 L340.3405,83.708 L334.6705,82.763 L334.6705,49.247 L333.4735,43.64 L326.4805,43.64 L326.4805,82.133 C326.4805,86.795 329.2525,89.315 333.2215,89.315 Z M351.1545,74.951 C354.7455,75.329 358.7145,75.518 360.2895,75.518 C367.9755,75.518 371.5035,72.62 371.5035,66.446 C371.5035,59.138 366.7785,55.799 359.2815,55.799 C349.7055,55.799 343.2795,61.973 343.2795,72.494 C343.2795,83.519 348.5715,89.378 359.5965,89.378 C362.4945,89.378 365.8335,88.748 369.1725,87.551 L370.0545,81.818 C367.3455,82.637 363.5655,83.015 360.7305,83.015 C354.3675,83.015 351.7215,80.684 351.1545,74.951 Z M359.1555,61.847 C363.0615,61.847 364.5735,63.737 364.5735,66.131 C364.5735,66.95 364.5735,67.958 363.8805,68.777 C362.9355,69.092 361.6755,69.344 359.9745,69.533 C357.8325,69.785 354.9345,69.911 351.0915,70.037 C351.3435,66.824 352.0995,64.745 352.8555,63.737 C354.1785,62.792 356.5095,61.847 359.1555,61.847 Z M105.462,100.64 L90.405,100.64 L90.405,146 L98.532,146 L98.532,129.242 L105.651,129.242 C116.424,129.242 122.409,125.273 122.535,114.941 C122.598,105.05 115.731,100.64 105.462,100.64 Z M112.707,120.863 C111.132,121.934 108.171,122.312 104.139,122.312 L98.532,122.312 L98.532,107.444 L104.139,107.444 C110.754,107.444 114.282,109.082 114.282,115.004 C114.282,117.776 113.715,119.477 112.707,120.863 Z M147.335,112.799 C143.87,112.799 140.531,114.689 137.759,116.39 L137.759,106.247 L136.562,100.64 L129.569,100.64 L129.569,146 L137.759,146 L137.759,120.926 C140.153,120.359 142.736,119.729 144.752,119.351 C149.162,119.351 150.8,121.304 150.8,126.029 L150.8,146 L158.927,146 L158.927,125.525 C158.927,118.658 155.966,112.799 147.335,112.799 Z M181.522,146.378 C190.468,146.378 197.209,140.834 197.209,129.557 C197.209,118.658 191.035,112.799 181.522,112.799 C172.765,112.799 165.835,118.784 165.835,129.494 C165.835,140.519 172.072,146.378 181.522,146.378 Z M181.522,140.078 C176.482,140.078 174.088,136.865 174.088,129.494 C174.088,125.336 174.97,122.186 175.915,120.863 C177.175,119.918 179.002,119.036 181.648,119.036 C186.562,119.036 188.956,122.375 188.956,129.557 C188.956,133.967 188.137,136.991 187.129,138.314 C185.869,139.259 184.294,140.078 181.522,140.078 Z M220.119,139.826 C216.213,139.826 215.079,137.621 215.079,133.211 L215.079,119.477 L224.907,119.477 L225.789,113.24 L215.079,113.24 L215.079,105.239 L209.22,105.239 L207.267,113.24 L201.912,113.24 L201.03,119.477 L206.889,119.477 L206.889,133.211 C206.889,141.464 209.535,146.315 218.355,146.315 C220.875,146.315 223.143,145.937 224.97,145.307 L225.915,139.259 C224.214,139.7 222.009,139.826 220.119,139.826 Z M244.856,146.378 C253.802,146.378 260.543,140.834 260.543,129.557 C260.543,118.658 254.369,112.799 244.856,112.799 C236.099,112.799 229.169,118.784 229.169,129.494 C229.169,140.519 235.406,146.378 244.856,146.378 Z M244.856,140.078 C239.816,140.078 237.422,136.865 237.422,129.494 C237.422,125.336 238.304,122.186 239.249,120.863 C240.509,119.918 242.336,119.036 244.982,119.036 C249.896,119.036 252.29,122.375 252.29,129.557 C252.29,133.967 251.471,136.991 250.463,138.314 C249.203,139.259 247.628,140.078 244.856,140.078 Z M297.754,113.555 L286.54,113.555 C284.776,113.051 282.697,112.799 280.492,112.799 C272.491,112.799 266.695,116.705 266.695,124.202 C266.695,128.108 268.207,131.006 270.79,132.959 L266.884,142.661 C268.333,144.173 270.79,145.622 274.633,145.937 L283.075,146.756 C286.288,147.071 287.296,148.142 287.296,149.654 C287.296,150.788 287.107,151.355 286.603,151.922 C285.217,152.489 282.697,152.804 278.98,152.804 C274.255,152.804 269.845,151.985 266.317,150.788 L264.994,156.584 C269.278,158.285 273.31,159.104 279.358,159.104 C289.249,159.104 295.36,156.458 295.36,149.654 C295.36,143.354 291.832,140.96 284.083,140.33 L277.09,139.7 C275.767,139.511 274.822,139.385 274.192,138.944 L275.578,135.101 C277.09,135.416 278.728,135.605 280.492,135.605 C288.997,135.605 294.289,131.636 294.289,124.454 C294.289,122.06 293.407,120.107 292.21,118.469 L297.124,118.091 L297.754,113.555 Z M285.406,128.864 C284.209,129.431 282.634,129.872 280.492,129.872 C276.523,129.872 274.066,127.793 274.066,124.265 C274.066,122.186 274.822,120.422 275.578,119.729 C276.775,119.099 278.287,118.721 280.492,118.721 C284.461,118.721 286.918,120.674 286.918,124.265 C286.918,126.407 286.162,128.108 285.406,128.864 Z M319.467,112.799 C316.506,112.799 313.356,114.752 310.584,116.516 L309.576,113.24 L302.898,113.24 L302.898,146 L311.088,146 L311.088,120.926 C313.356,120.359 315.813,119.855 317.514,119.603 C319.467,119.603 320.601,119.729 321.735,119.918 L322.995,113.114 C322.05,112.925 320.79,112.799 319.467,112.799 Z M337.589,112.799 C334.313,112.799 330.659,113.618 327.698,114.815 L326.753,120.233 C329.084,119.477 333.053,119.036 336.14,119.036 C341.243,119.036 344.141,120.548 344.141,125.273 L344.141,126.911 C340.802,126.659 337.337,126.533 335.888,126.533 C328.832,126.722 324.485,130.187 324.485,136.046 C324.485,143.417 328.832,146.378 335.195,146.378 C338.912,146.378 342.377,144.299 344.582,142.913 L345.401,146 L351.827,146 L351.827,126.848 C351.827,117.839 348.299,112.799 337.589,112.799 Z M331.73,135.983 C331.73,134.786 331.919,133.904 332.612,133.085 C333.935,132.581 335.951,132.203 339.038,132.014 C340.487,131.888 342.188,131.825 344.141,131.825 L344.141,138.944 C341.999,139.511 339.164,140.204 337.463,140.519 C333.179,140.519 331.73,138.44 331.73,135.983 Z M377.383,112.799 C374.233,112.799 370.768,114.374 368.059,116.327 L367.114,113.24 L360.499,113.24 L360.499,153.182 L361.633,158.852 L368.563,158.852 L368.563,144.236 C370.642,145.496 373.099,146.315 375.745,146.315 C384.124,146.315 390.487,140.834 390.487,129.62 C390.487,119.666 386.266,112.799 377.383,112.799 Z M380.407,138.251 C379.084,139.259 376.942,140.141 374.737,140.141 C372.784,140.141 370.327,139.763 368.563,138.944 L368.563,120.611 C370.579,119.981 372.784,119.414 374.485,119.225 C379.588,119.225 382.297,122.123 382.297,129.557 C382.297,133.967 381.352,136.991 380.407,138.251 Z M415.854,112.799 C412.389,112.799 409.05,114.689 406.278,116.39 L406.278,106.247 L405.081,100.64 L398.088,100.64 L398.088,146 L406.278,146 L406.278,120.926 C408.672,120.359 411.255,119.729 413.271,119.351 C417.681,119.351 419.319,121.304 419.319,126.029 L419.319,146 L427.446,146 L427.446,125.525 C427.446,118.658 424.485,112.799 415.854,112.799 Z M438.701,158.852 C446.324,158.852 449.222,154.19 452.624,145.307 L464.909,113.24 L456.656,113.24 L448.592,137.432 L440.15,113.24 L431.078,113.24 L444.749,145.433 C443.741,148.079 442.796,150.284 441.536,151.544 C440.528,152.111 439.457,152.3 437.567,152.3 C436.181,152.3 434.543,151.985 432.905,151.481 L431.519,157.277 C433.346,158.096 435.992,158.852 438.701,158.852 Z" id="Mobile-Photography" fill="#FFFFFF"></path>
            </g>
        </g>
    </g>
</svg>