<?xml version="1.0" encoding="UTF-8"?>
<svg width="703px" height="389px" viewBox="0 0 703 389" version="1.1" xmlns="http://www.w3.org/2000/svg" xmlns:xlink="http://www.w3.org/1999/xlink">
    <!-- Generator: Sketch 41 (35326) - http://www.bohemiancoding.com/sketch -->
    <title>strong-personality</title>
    <desc>Created with Sketch.</desc>
    <defs></defs>
    <g id="Page-1" stroke="none" stroke-width="1" fill="none" fill-rule="evenodd">
        <g id="Artboard" transform="translate(-120.000000, -2055.000000)">
            <g id="section-neo" transform="translate(0.000000, 1540.000000)">
                <g id="strong-personality" transform="translate(120.000000, 515.000000)">
                    <path d="M20.78,274 L24.11,274 L16.34,252.4 L13.16,252.4 L5.18,274 L8.18,274 L10.34,267.91 L18.71,267.91 L20.78,274 Z M14.66,255.49 L17.99,265.36 L11.15,265.36 L14.66,255.49 Z M33.51,271.72 C31.47,271.72 31.08,270.49 31.08,268.3 L31.08,260.86 L36,260.86 L36.33,258.55 L31.08,258.55 L31.08,254.77 L29.07,254.77 L28.14,258.55 L25.59,258.55 L25.26,260.86 L28.05,260.86 L28.05,268.12 C28.05,271.75 28.95,274.12 33.15,274.12 C34.08,274.12 35.22,273.91 36.06,273.58 L36.42,271.39 C35.49,271.69 34.44,271.72 33.51,271.72 Z M54.71,271.72 C52.67,271.72 52.28,270.49 52.28,268.3 L52.28,260.86 L57.2,260.86 L57.53,258.55 L52.28,258.55 L52.28,254.77 L50.27,254.77 L49.34,258.55 L46.79,258.55 L46.46,260.86 L49.25,260.86 L49.25,268.12 C49.25,271.75 50.15,274.12 54.35,274.12 C55.28,274.12 56.42,273.91 57.26,273.58 L57.62,271.39 C56.69,271.69 55.64,271.72 54.71,271.72 Z M62.7,267.13 C64.53,267.31 66.69,267.4 67.5,267.4 C71.04,267.4 72.66,266.05 72.66,263.32 C72.66,259.72 70.29,258.34 67.05,258.34 C62.97,258.34 59.79,261.07 59.79,266.23 C59.79,271.45 62.25,274.15 67.38,274.15 C68.67,274.15 70.14,273.85 71.55,273.28 L71.91,271.24 C70.44,271.69 68.82,271.81 67.56,271.81 C64.38,271.81 62.94,270.31 62.7,267.13 Z M67.05,260.56 C69.03,260.56 69.99,261.61 69.99,262.99 C69.99,263.38 69.99,264.25 69.6,264.67 C69.12,264.88 68.4,265.03 67.38,265.09 C66.24,265.18 64.71,265.21 62.73,265.24 C62.85,263.53 63.3,262.24 63.75,261.7 C64.47,261.13 65.61,260.56 67.05,260.56 Z M74.26,274 L77.26,274 L81.49,267.73 L85.69,274 L89.08,274 L83.2,265.72 L88.36,258.55 L85.42,258.55 L81.73,263.86 L78.13,258.55 L74.77,258.55 L80.02,265.84 L74.26,274 Z M98.54,271.72 C96.5,271.72 96.11,270.49 96.11,268.3 L96.11,260.86 L101.03,260.86 L101.36,258.55 L96.11,258.55 L96.11,254.77 L94.1,254.77 L93.17,258.55 L90.62,258.55 L90.29,260.86 L93.08,260.86 L93.08,268.12 C93.08,271.75 93.98,274.12 98.18,274.12 C99.11,274.12 100.25,273.91 101.09,273.58 L101.45,271.39 C100.52,271.69 99.47,271.72 98.54,271.72 Z M117.22,274.15 C120.73,274.15 123.34,272.98 123.34,269.53 C123.34,267.16 122.17,265.81 118.93,265.06 C116.89,264.52 115.12,264.46 115.12,262.72 C115.12,262.03 115.27,261.55 115.66,261.19 C116.35,260.86 117.46,260.65 118.54,260.68 C119.95,260.71 121.24,260.86 122.32,261.19 L122.8,259.18 C121.63,258.7 119.89,258.34 118.72,258.34 C115.12,258.34 112.39,259.75 112.39,263.02 C112.39,265.63 114.22,266.71 116.35,267.16 C119.17,267.79 120.46,268.06 120.46,269.77 C120.46,270.43 120.34,270.91 119.95,271.33 C119.23,271.69 118.09,271.78 117.34,271.78 C115.51,271.78 113.74,271.48 112.57,271.09 L112.12,273.16 C113.35,273.67 115.24,274.15 117.22,274.15 Z M128.96,256.15 C129.44,256.15 129.98,256.03 130.34,255.79 C130.61,255.55 130.79,254.98 130.79,254.38 C130.79,253.21 130.1,252.64 128.96,252.64 C128.51,252.64 127.97,252.76 127.58,253 C127.34,253.27 127.13,253.81 127.13,254.38 C127.13,255.55 127.82,256.15 128.96,256.15 Z M127.46,274 L130.49,274 L130.49,258.55 L127.46,258.55 L127.46,274 Z M134.55,274 L146.37,274 L146.73,271.69 L137.97,271.69 L146.43,260.53 L146.43,258.55 L134.76,258.55 L134.43,260.86 L142.89,260.86 L134.55,272.05 L134.55,274 Z M152.02,267.13 C153.85,267.31 156.01,267.4 156.82,267.4 C160.36,267.4 161.98,266.05 161.98,263.32 C161.98,259.72 159.61,258.34 156.37,258.34 C152.29,258.34 149.11,261.07 149.11,266.23 C149.11,271.45 151.57,274.15 156.7,274.15 C157.99,274.15 159.46,273.85 160.87,273.28 L161.23,271.24 C159.76,271.69 158.14,271.81 156.88,271.81 C153.7,271.81 152.26,270.31 152.02,267.13 Z M156.37,260.56 C158.35,260.56 159.31,261.61 159.31,262.99 C159.31,263.38 159.31,264.25 158.92,264.67 C158.44,264.88 157.72,265.03 156.7,265.09 C155.56,265.18 154.03,265.21 152.05,265.24 C152.17,263.53 152.62,262.24 153.07,261.7 C153.79,261.13 154.93,260.56 156.37,260.56 Z M169.94,274.15 C173.45,274.15 176.06,272.98 176.06,269.53 C176.06,267.16 174.89,265.81 171.65,265.06 C169.61,264.52 167.84,264.46 167.84,262.72 C167.84,262.03 167.99,261.55 168.38,261.19 C169.07,260.86 170.18,260.65 171.26,260.68 C172.67,260.71 173.96,260.86 175.04,261.19 L175.52,259.18 C174.35,258.7 172.61,258.34 171.44,258.34 C167.84,258.34 165.11,259.75 165.11,263.02 C165.11,265.63 166.94,266.71 169.07,267.16 C171.89,267.79 173.18,268.06 173.18,269.77 C173.18,270.43 173.06,270.91 172.67,271.33 C171.95,271.69 170.81,271.78 170.06,271.78 C168.23,271.78 166.46,271.48 165.29,271.09 L164.84,273.16 C166.07,273.67 167.96,274.15 169.94,274.15 Z M178.56,277.57 L180.39,277.57 C181.53,275.77 182.82,272.95 183.51,270.88 L180.39,270.88 L178.56,277.57 Z M198.02,256.15 C198.5,256.15 199.04,256.03 199.4,255.79 C199.67,255.55 199.85,254.98 199.85,254.38 C199.85,253.21 199.16,252.64 198.02,252.64 C197.57,252.64 197.03,252.76 196.64,253 C196.4,253.27 196.19,253.81 196.19,254.38 C196.19,255.55 196.88,256.15 198.02,256.15 Z M196.52,274 L199.55,274 L199.55,258.55 L196.52,258.55 L196.52,274 Z M211.32,271.72 C209.28,271.72 208.89,270.49 208.89,268.3 L208.89,260.86 L213.81,260.86 L214.14,258.55 L208.89,258.55 L208.89,254.77 L206.88,254.77 L205.95,258.55 L203.4,258.55 L203.07,260.86 L205.86,260.86 L205.86,268.12 C205.86,271.75 206.76,274.12 210.96,274.12 C211.89,274.12 213.03,273.91 213.87,273.58 L214.23,271.39 C213.3,271.69 212.25,271.72 211.32,271.72 Z M233.45,258.34 C232.04,258.34 230.54,259.18 229.01,260.02 L228.59,258.55 L226.1,258.55 L226.1,274 L229.13,274 L229.13,261.64 C230.33,261.31 231.47,261.04 232.52,260.86 C233.42,260.86 233.99,260.92 234.59,261.01 L235.19,258.52 C234.74,258.4 234.11,258.34 233.45,258.34 Z M239.88,267.13 C241.71,267.31 243.87,267.4 244.68,267.4 C248.22,267.4 249.84,266.05 249.84,263.32 C249.84,259.72 247.47,258.34 244.23,258.34 C240.15,258.34 236.97,261.07 236.97,266.23 C236.97,271.45 239.43,274.15 244.56,274.15 C245.85,274.15 247.32,273.85 248.73,273.28 L249.09,271.24 C247.62,271.69 246,271.81 244.74,271.81 C241.56,271.81 240.12,270.31 239.88,267.13 Z M244.23,260.56 C246.21,260.56 247.17,261.61 247.17,262.99 C247.17,263.38 247.17,264.25 246.78,264.67 C246.3,264.88 245.58,265.03 244.56,265.09 C243.42,265.18 241.89,265.21 239.91,265.24 C240.03,263.53 240.48,262.24 240.93,261.7 C241.65,261.13 242.79,260.56 244.23,260.56 Z M258.82,258.34 C257.41,258.34 255.61,258.76 254.41,259.3 L254.08,261.28 C255.28,260.86 257.08,260.68 258.55,260.68 C260.92,260.68 262.51,261.49 262.51,264.13 L262.51,265.09 C260.83,264.97 259.21,264.94 258.43,264.91 C255.07,264.97 252.97,266.5 252.97,269.32 C252.97,272.83 255.13,274.15 258.19,274.15 C259.87,274.15 261.46,273.31 262.66,272.65 L262.99,274 L265.36,274 L265.36,264.85 C265.36,260.77 263.83,258.34 258.82,258.34 Z M255.7,269.41 C255.7,268.75 255.79,268.09 256.18,267.67 C256.84,267.37 257.83,267.19 259.51,267.07 C260.32,267.01 261.31,267.01 262.51,266.98 L262.51,271.06 C261.43,271.39 259.99,271.78 259.06,271.96 C256.51,271.96 255.7,270.76 255.7,269.41 Z M282.8,252.4 L280.28,252.4 L280.28,259.6 C279.29,258.94 278,258.34 276.53,258.34 C272.84,258.34 269.63,261.04 269.63,266.23 C269.63,270.97 271.73,274.15 275.96,274.15 C277.4,274.15 279.11,273.31 280.4,272.5 L280.79,274 L283.28,274 L283.28,254.62 L282.8,252.4 Z M272.66,266.23 C272.66,264.07 273.14,262.36 273.68,261.76 C274.37,261.19 275.63,260.65 276.65,260.65 C278.09,260.65 279.32,260.95 280.28,261.46 L280.28,270.82 C279.17,271.21 277.94,271.63 276.92,271.75 C274.19,271.75 272.66,270.31 272.66,266.23 Z M292.56,274.15 C296.07,274.15 298.68,272.98 298.68,269.53 C298.68,267.16 297.51,265.81 294.27,265.06 C292.23,264.52 290.46,264.46 290.46,262.72 C290.46,262.03 290.61,261.55 291,261.19 C291.69,260.86 292.8,260.65 293.88,260.68 C295.29,260.71 296.58,260.86 297.66,261.19 L298.14,259.18 C296.97,258.7 295.23,258.34 294.06,258.34 C290.46,258.34 287.73,259.75 287.73,263.02 C287.73,265.63 289.56,266.71 291.69,267.16 C294.51,267.79 295.8,268.06 295.8,269.77 C295.8,270.43 295.68,270.91 295.29,271.33 C294.57,271.69 293.43,271.78 292.68,271.78 C290.85,271.78 289.08,271.48 287.91,271.09 L287.46,273.16 C288.69,273.67 290.58,274.15 292.56,274.15 Z M317.42,274.15 C318.77,274.15 320.24,273.88 321.5,273.4 L321.83,271.33 C320.36,271.72 318.86,271.75 317.66,271.75 C314.81,271.75 313.22,269.92 313.22,266.23 C313.22,264.13 313.82,262.48 314.36,261.82 C315.11,261.25 316.22,260.74 317.72,260.71 C319.13,260.71 320.15,260.89 321.23,261.19 L321.71,259.15 C320.6,258.73 319.16,258.34 317.63,258.34 C313.46,258.34 310.19,261.01 310.19,266.23 C310.19,271.45 313.1,274.15 317.42,274.15 Z M331.62,274.15 C335.61,274.15 338.82,271.63 338.82,266.2 C338.82,261.01 335.94,258.34 331.62,258.34 C327.75,258.34 324.45,261.07 324.45,266.2 C324.45,271.42 327.3,274.15 331.62,274.15 Z M331.65,271.84 C328.89,271.84 327.48,269.98 327.48,266.2 C327.48,264.07 327.96,262.33 328.5,261.7 C329.22,261.16 330.18,260.65 331.65,260.65 C334.38,260.65 335.79,262.51 335.79,266.2 C335.79,268.39 335.28,270.13 334.74,270.82 C334.05,271.33 333.21,271.84 331.65,271.84 Z M351.22,258.34 C349.54,258.34 347.89,259.21 346.3,260.02 L345.88,258.55 L343.39,258.55 L343.39,274 L346.42,274 L346.42,261.73 C347.74,261.37 349.3,260.98 350.38,260.77 C353.02,260.77 353.74,262.06 353.74,264.49 L353.74,274 L356.77,274 L356.77,264.25 C356.77,261.46 355.66,258.34 351.22,258.34 Z M362.72,258.55 L360.26,258.55 L359.93,260.86 L362.72,260.86 L362.72,274 L365.75,274 L365.75,260.86 L370.46,260.86 L370.79,258.55 L365.75,258.55 L365.75,258.25 C365.75,256.81 366.08,255.64 366.44,255.19 C367.04,254.77 367.76,254.56 368.66,254.56 C369.41,254.56 370.25,254.71 371.09,254.95 L371.63,252.94 C370.52,252.46 369.23,252.22 368.36,252.22 C364.46,252.22 362.81,254.8 362.72,258.55 Z M374.81,256.15 C375.29,256.15 375.83,256.03 376.19,255.79 C376.46,255.55 376.64,254.95 376.64,254.38 C376.64,253.21 375.95,252.64 374.81,252.64 C374.36,252.64 373.82,252.76 373.43,252.97 C373.19,253.24 372.98,253.81 372.98,254.38 C372.98,255.55 373.67,256.15 374.81,256.15 Z M373.31,274 L376.34,274 L376.34,258.55 L373.31,258.55 L373.31,274 Z M394.11,252.4 L391.59,252.4 L391.59,259.6 C390.6,258.94 389.31,258.34 387.84,258.34 C384.15,258.34 380.94,261.04 380.94,266.23 C380.94,270.97 383.04,274.15 387.27,274.15 C388.71,274.15 390.42,273.31 391.71,272.5 L392.1,274 L394.59,274 L394.59,254.62 L394.11,252.4 Z M383.97,266.23 C383.97,264.07 384.45,262.36 384.99,261.76 C385.68,261.19 386.94,260.65 387.96,260.65 C389.4,260.65 390.63,260.95 391.59,261.46 L391.59,270.82 C390.48,271.21 389.25,271.63 388.23,271.75 C385.5,271.75 383.97,270.31 383.97,266.23 Z M402.07,267.13 C403.9,267.31 406.06,267.4 406.87,267.4 C410.41,267.4 412.03,266.05 412.03,263.32 C412.03,259.72 409.66,258.34 406.42,258.34 C402.34,258.34 399.16,261.07 399.16,266.23 C399.16,271.45 401.62,274.15 406.75,274.15 C408.04,274.15 409.51,273.85 410.92,273.28 L411.28,271.24 C409.81,271.69 408.19,271.81 406.93,271.81 C403.75,271.81 402.31,270.31 402.07,267.13 Z M406.42,260.56 C408.4,260.56 409.36,261.61 409.36,262.99 C409.36,263.38 409.36,264.25 408.97,264.67 C408.49,264.88 407.77,265.03 406.75,265.09 C405.61,265.18 404.08,265.21 402.1,265.24 C402.22,263.53 402.67,262.24 403.12,261.7 C403.84,261.13 404.98,260.56 406.42,260.56 Z M423.92,258.34 C422.24,258.34 420.59,259.21 419,260.02 L418.58,258.55 L416.09,258.55 L416.09,274 L419.12,274 L419.12,261.73 C420.44,261.37 422,260.98 423.08,260.77 C425.72,260.77 426.44,262.06 426.44,264.49 L426.44,274 L429.47,274 L429.47,264.25 C429.47,261.46 428.36,258.34 423.92,258.34 Z M440.97,271.72 C438.93,271.72 438.54,270.49 438.54,268.3 L438.54,260.86 L443.46,260.86 L443.79,258.55 L438.54,258.55 L438.54,254.77 L436.53,254.77 L435.6,258.55 L433.05,258.55 L432.72,260.86 L435.51,260.86 L435.51,268.12 C435.51,271.75 436.41,274.12 440.61,274.12 C441.54,274.12 442.68,273.91 443.52,273.58 L443.88,271.39 C442.95,271.69 441.9,271.72 440.97,271.72 Z M450.31,274.12 C451.45,274.12 452.38,273.97 453.1,273.76 L453.34,272.08 L450.58,271.66 L450.58,254.62 L450.07,252.4 L447.55,252.4 L447.55,271.18 C447.55,273.19 448.75,274.12 450.31,274.12 Z M456.98,280.12 C460.46,280.12 461.69,277.81 463.34,273.49 L469.1,258.55 L466.13,258.55 L461.87,270.76 L457.31,258.55 L454.07,258.55 L460.46,273.73 C459.89,275.32 459.32,276.61 458.6,277.33 C458.06,277.63 457.61,277.75 456.71,277.75 C455.99,277.75 455.33,277.63 454.58,277.39 L454.1,279.46 C454.97,279.85 456.05,280.12 456.98,280.12 Z M482.62,274 L485.5,274 L488.77,262.27 L491.83,274 L494.8,274 L499.36,258.55 L496.57,258.55 L493.36,270.82 L490.36,258.79 L487.54,259.09 L484.33,270.85 L481.36,258.55 L478.27,258.55 L482.62,274 Z M504.53,267.13 C506.36,267.31 508.52,267.4 509.33,267.4 C512.87,267.4 514.49,266.05 514.49,263.32 C514.49,259.72 512.12,258.34 508.88,258.34 C504.8,258.34 501.62,261.07 501.62,266.23 C501.62,271.45 504.08,274.15 509.21,274.15 C510.5,274.15 511.97,273.85 513.38,273.28 L513.74,271.24 C512.27,271.69 510.65,271.81 509.39,271.81 C506.21,271.81 504.77,270.31 504.53,267.13 Z M508.88,260.56 C510.86,260.56 511.82,261.61 511.82,262.99 C511.82,263.38 511.82,264.25 511.43,264.67 C510.95,264.88 510.23,265.03 509.21,265.09 C508.07,265.18 506.54,265.21 504.56,265.24 C504.68,263.53 505.13,262.24 505.58,261.7 C506.3,261.13 507.44,260.56 508.88,260.56 Z M521.31,274.12 C522.45,274.12 523.38,273.97 524.1,273.76 L524.34,272.08 L521.58,271.66 L521.58,254.62 L521.07,252.4 L518.55,252.4 L518.55,271.18 C518.55,273.19 519.75,274.12 521.31,274.12 Z M530.08,274.12 C531.22,274.12 532.15,273.97 532.87,273.76 L533.11,272.08 L530.35,271.66 L530.35,254.62 L529.84,252.4 L527.32,252.4 L527.32,271.18 C527.32,273.19 528.52,274.12 530.08,274.12 Z M537.8,262.12 C538.31,262.12 538.88,262 539.27,261.73 C539.51,261.49 539.75,260.86 539.75,260.23 C539.75,258.94 539.03,258.31 537.8,258.31 C537.32,258.31 536.72,258.46 536.36,258.7 C536.12,258.97 535.88,259.63 535.88,260.23 C535.88,261.52 536.6,262.12 537.8,262.12 Z M534.56,277.57 L536.39,277.57 C537.53,275.77 538.82,272.95 539.51,270.88 L536.39,270.88 L534.56,277.57 Z M12.41,294.34 C11,294.34 9.2,294.76 8,295.3 L7.67,297.28 C8.87,296.86 10.67,296.68 12.14,296.68 C14.51,296.68 16.1,297.49 16.1,300.13 L16.1,301.09 C14.42,300.97 12.8,300.94 12.02,300.91 C8.66,300.97 6.56,302.5 6.56,305.32 C6.56,308.83 8.72,310.15 11.78,310.15 C13.46,310.15 15.05,309.31 16.25,308.65 L16.58,310 L18.95,310 L18.95,300.85 C18.95,296.77 17.42,294.34 12.41,294.34 Z M9.29,305.41 C9.29,304.75 9.38,304.09 9.77,303.67 C10.43,303.37 11.42,303.19 13.1,303.07 C13.91,303.01 14.9,303.01 16.1,302.98 L16.1,307.06 C15.02,307.39 13.58,307.78 12.65,307.96 C10.1,307.96 9.29,306.76 9.29,305.41 Z M31.86,294.34 C30.18,294.34 28.53,295.21 26.94,296.02 L26.52,294.55 L24.03,294.55 L24.03,310 L27.06,310 L27.06,297.73 C28.38,297.37 29.94,296.98 31.02,296.77 C33.66,296.77 34.38,298.06 34.38,300.49 L34.38,310 L37.41,310 L37.41,300.25 C37.41,297.46 36.3,294.34 31.86,294.34 Z M52.19,292.15 C52.67,292.15 53.21,292.03 53.57,291.79 C53.84,291.55 54.02,290.98 54.02,290.38 C54.02,289.21 53.33,288.64 52.19,288.64 C51.74,288.64 51.2,288.76 50.81,289 C50.57,289.27 50.36,289.81 50.36,290.38 C50.36,291.55 51.05,292.15 52.19,292.15 Z M50.69,310 L53.72,310 L53.72,294.55 L50.69,294.55 L50.69,310 Z M71.43,288.4 L68.91,288.4 L68.91,295.6 C67.92,294.94 66.63,294.34 65.16,294.34 C61.47,294.34 58.26,297.04 58.26,302.23 C58.26,306.97 60.36,310.15 64.59,310.15 C66.03,310.15 67.74,309.31 69.03,308.5 L69.42,310 L71.91,310 L71.91,290.62 L71.43,288.4 Z M61.29,302.23 C61.29,300.07 61.77,298.36 62.31,297.76 C63,297.19 64.26,296.65 65.28,296.65 C66.72,296.65 67.95,296.95 68.91,297.46 L68.91,306.82 C67.8,307.21 66.57,307.63 65.55,307.75 C62.82,307.75 61.29,306.31 61.29,302.23 Z M79.39,303.13 C81.22,303.31 83.38,303.4 84.19,303.4 C87.73,303.4 89.35,302.05 89.35,299.32 C89.35,295.72 86.98,294.34 83.74,294.34 C79.66,294.34 76.48,297.07 76.48,302.23 C76.48,307.45 78.94,310.15 84.07,310.15 C85.36,310.15 86.83,309.85 88.24,309.28 L88.6,307.24 C87.13,307.69 85.51,307.81 84.25,307.81 C81.07,307.81 79.63,306.31 79.39,303.13 Z M83.74,296.56 C85.72,296.56 86.68,297.61 86.68,298.99 C86.68,299.38 86.68,300.25 86.29,300.67 C85.81,300.88 85.09,301.03 84.07,301.09 C82.93,301.18 81.4,301.21 79.42,301.24 C79.54,299.53 79.99,298.24 80.44,297.7 C81.16,297.13 82.3,296.56 83.74,296.56 Z M98.33,294.34 C96.92,294.34 95.12,294.76 93.92,295.3 L93.59,297.28 C94.79,296.86 96.59,296.68 98.06,296.68 C100.43,296.68 102.02,297.49 102.02,300.13 L102.02,301.09 C100.34,300.97 98.72,300.94 97.94,300.91 C94.58,300.97 92.48,302.5 92.48,305.32 C92.48,308.83 94.64,310.15 97.7,310.15 C99.38,310.15 100.97,309.31 102.17,308.65 L102.5,310 L104.87,310 L104.87,300.85 C104.87,296.77 103.34,294.34 98.33,294.34 Z M95.21,305.41 C95.21,304.75 95.3,304.09 95.69,303.67 C96.35,303.37 97.34,303.19 99.02,303.07 C99.83,303.01 100.82,303.01 102.02,302.98 L102.02,307.06 C100.94,307.39 99.5,307.78 98.57,307.96 C96.02,307.96 95.21,306.76 95.21,305.41 Z M112.71,310.12 C113.85,310.12 114.78,309.97 115.5,309.76 L115.74,308.08 L112.98,307.66 L112.98,290.62 L112.47,288.4 L109.95,288.4 L109.95,307.18 C109.95,309.19 111.15,310.12 112.71,310.12 Z M133.34,310.15 C134.69,310.15 136.16,309.88 137.42,309.4 L137.75,307.33 C136.28,307.72 134.78,307.75 133.58,307.75 C130.73,307.75 129.14,305.92 129.14,302.23 C129.14,300.13 129.74,298.48 130.28,297.82 C131.03,297.25 132.14,296.74 133.64,296.71 C135.05,296.71 136.07,296.89 137.15,297.19 L137.63,295.15 C136.52,294.73 135.08,294.34 133.55,294.34 C129.38,294.34 126.11,297.01 126.11,302.23 C126.11,307.45 129.02,310.15 133.34,310.15 Z M149.43,294.34 C147.78,294.34 146.13,295.24 144.6,295.99 L144.6,290.62 L144.09,288.4 L141.57,288.4 L141.57,310 L144.6,310 L144.6,297.73 C145.95,297.37 147.48,296.95 148.56,296.77 C151.14,296.77 151.92,297.94 151.92,300.49 L151.92,310 L154.95,310 L154.95,300.25 C154.95,297.46 153.81,294.34 149.43,294.34 Z M166.39,310.15 C170.38,310.15 173.59,307.63 173.59,302.2 C173.59,297.01 170.71,294.34 166.39,294.34 C162.52,294.34 159.22,297.07 159.22,302.2 C159.22,307.42 162.07,310.15 166.39,310.15 Z M166.42,307.84 C163.66,307.84 162.25,305.98 162.25,302.2 C162.25,300.07 162.73,298.33 163.27,297.7 C163.99,297.16 164.95,296.65 166.42,296.65 C169.15,296.65 170.56,298.51 170.56,302.2 C170.56,304.39 170.05,306.13 169.51,306.82 C168.82,307.33 167.98,307.84 166.42,307.84 Z M179.66,292.15 C180.14,292.15 180.68,292.03 181.04,291.79 C181.31,291.55 181.49,290.98 181.49,290.38 C181.49,289.21 180.8,288.64 179.66,288.64 C179.21,288.64 178.67,288.76 178.28,289 C178.04,289.27 177.83,289.81 177.83,290.38 C177.83,291.55 178.52,292.15 179.66,292.15 Z M178.16,310 L181.19,310 L181.19,294.55 L178.16,294.55 L178.16,310 Z M192.96,310.15 C194.31,310.15 195.78,309.88 197.04,309.4 L197.37,307.33 C195.9,307.72 194.4,307.75 193.2,307.75 C190.35,307.75 188.76,305.92 188.76,302.23 C188.76,300.13 189.36,298.48 189.9,297.82 C190.65,297.25 191.76,296.74 193.26,296.71 C194.67,296.71 195.69,296.89 196.77,297.19 L197.25,295.15 C196.14,294.73 194.7,294.34 193.17,294.34 C189,294.34 185.73,297.01 185.73,302.23 C185.73,307.45 188.64,310.15 192.96,310.15 Z M202.9,303.13 C204.73,303.31 206.89,303.4 207.7,303.4 C211.24,303.4 212.86,302.05 212.86,299.32 C212.86,295.72 210.49,294.34 207.25,294.34 C203.17,294.34 199.99,297.07 199.99,302.23 C199.99,307.45 202.45,310.15 207.58,310.15 C208.87,310.15 210.34,309.85 211.75,309.28 L212.11,307.24 C210.64,307.69 209.02,307.81 207.76,307.81 C204.58,307.81 203.14,306.31 202.9,303.13 Z M207.25,296.56 C209.23,296.56 210.19,297.61 210.19,298.99 C210.19,299.38 210.19,300.25 209.8,300.67 C209.32,300.88 208.6,301.03 207.58,301.09 C206.44,301.18 204.91,301.21 202.93,301.24 C203.05,299.53 203.5,298.24 203.95,297.7 C204.67,297.13 205.81,296.56 207.25,296.56 Z M229.71,291.19 C230.31,290.77 231.06,290.56 231.99,290.56 C232.74,290.56 233.61,290.71 234.45,290.95 L234.99,288.94 C233.88,288.46 232.56,288.22 231.66,288.22 C227.76,288.22 226.08,290.8 225.99,294.55 L223.53,294.55 L223.2,296.86 L225.99,296.86 L225.99,310 L229.02,310 L229.02,296.86 L233.85,296.86 L234.18,294.55 L229.02,294.55 L229.02,294.25 C229.02,292.81 229.35,291.64 229.71,291.19 Z M243.04,310.15 C247.03,310.15 250.24,307.63 250.24,302.2 C250.24,297.01 247.36,294.34 243.04,294.34 C239.17,294.34 235.87,297.07 235.87,302.2 C235.87,307.42 238.72,310.15 243.04,310.15 Z M243.07,307.84 C240.31,307.84 238.9,305.98 238.9,302.2 C238.9,300.07 239.38,298.33 239.92,297.7 C240.64,297.16 241.6,296.65 243.07,296.65 C245.8,296.65 247.21,298.51 247.21,302.2 C247.21,304.39 246.7,306.13 246.16,306.82 C245.47,307.33 244.63,307.84 243.07,307.84 Z M262.16,294.34 C260.75,294.34 259.25,295.18 257.72,296.02 L257.3,294.55 L254.81,294.55 L254.81,310 L257.84,310 L257.84,297.64 C259.04,297.31 260.18,297.04 261.23,296.86 C262.13,296.86 262.7,296.92 263.3,297.01 L263.9,294.52 C263.45,294.4 262.82,294.34 262.16,294.34 Z M282.55,294.34 C281.14,294.34 279.52,295.06 278.26,295.84 L278.26,290.62 L277.78,288.4 L275.26,288.4 L275.26,310 L277.81,310 L278.11,308.68 C279.16,309.46 280.36,310.15 282.31,310.15 C285.64,310.15 288.94,307.54 288.94,302.26 C288.94,297.55 286.78,294.34 282.55,294.34 Z M284.89,306.73 C284.17,307.3 283.21,307.87 281.8,307.87 C280.45,307.87 279.22,307.42 278.26,306.82 L278.26,297.58 C279.37,297.22 280.63,296.86 281.62,296.74 C284.35,296.74 285.88,298.21 285.88,302.26 C285.88,304.45 285.4,306.13 284.89,306.73 Z M300.86,294.34 C299.45,294.34 297.95,295.18 296.42,296.02 L296,294.55 L293.51,294.55 L293.51,310 L296.54,310 L296.54,297.64 C297.74,297.31 298.88,297.04 299.93,296.86 C300.83,296.86 301.4,296.92 302,297.01 L302.6,294.52 C302.15,294.4 301.52,294.34 300.86,294.34 Z M309.78,294.34 C308.37,294.34 306.57,294.76 305.37,295.3 L305.04,297.28 C306.24,296.86 308.04,296.68 309.51,296.68 C311.88,296.68 313.47,297.49 313.47,300.13 L313.47,301.09 C311.79,300.97 310.17,300.94 309.39,300.91 C306.03,300.97 303.93,302.5 303.93,305.32 C303.93,308.83 306.09,310.15 309.15,310.15 C310.83,310.15 312.42,309.31 313.62,308.65 L313.95,310 L316.32,310 L316.32,300.85 C316.32,296.77 314.79,294.34 309.78,294.34 Z M306.66,305.41 C306.66,304.75 306.75,304.09 307.14,303.67 C307.8,303.37 308.79,303.19 310.47,303.07 C311.28,303.01 312.27,303.01 313.47,302.98 L313.47,307.06 C312.39,307.39 310.95,307.78 310.02,307.96 C307.47,307.96 306.66,306.76 306.66,305.41 Z M329.23,294.34 C327.55,294.34 325.9,295.21 324.31,296.02 L323.89,294.55 L321.4,294.55 L321.4,310 L324.43,310 L324.43,297.73 C325.75,297.37 327.31,296.98 328.39,296.77 C331.03,296.77 331.75,298.06 331.75,300.49 L331.75,310 L334.78,310 L334.78,300.25 C334.78,297.46 333.67,294.34 329.23,294.34 Z M352.22,288.4 L349.7,288.4 L349.7,295.6 C348.71,294.94 347.42,294.34 345.95,294.34 C342.26,294.34 339.05,297.04 339.05,302.23 C339.05,306.97 341.15,310.15 345.38,310.15 C346.82,310.15 348.53,309.31 349.82,308.5 L350.21,310 L352.7,310 L352.7,290.62 L352.22,288.4 Z M342.08,302.23 C342.08,300.07 342.56,298.36 343.1,297.76 C343.79,297.19 345.05,296.65 346.07,296.65 C347.51,296.65 348.74,296.95 349.7,297.46 L349.7,306.82 C348.59,307.21 347.36,307.63 346.34,307.75 C343.61,307.75 342.08,306.31 342.08,302.23 Z M359.58,292.15 C360.06,292.15 360.6,292.03 360.96,291.79 C361.23,291.55 361.41,290.98 361.41,290.38 C361.41,289.21 360.72,288.64 359.58,288.64 C359.13,288.64 358.59,288.76 358.2,289 C357.96,289.27 357.75,289.81 357.75,290.38 C357.75,291.55 358.44,292.15 359.58,292.15 Z M358.08,310 L361.11,310 L361.11,294.55 L358.08,294.55 L358.08,310 Z M374.29,294.34 C372.61,294.34 370.96,295.21 369.37,296.02 L368.95,294.55 L366.46,294.55 L366.46,310 L369.49,310 L369.49,297.73 C370.81,297.37 372.37,296.98 373.45,296.77 C376.09,296.77 376.81,298.06 376.81,300.49 L376.81,310 L379.84,310 L379.84,300.25 C379.84,297.46 378.73,294.34 374.29,294.34 Z M398.48,294.73 L393.38,294.73 C392.54,294.46 391.58,294.34 390.53,294.34 C386.93,294.34 384.23,296.17 384.23,299.65 C384.23,301.51 384.95,302.92 386.24,303.82 L384.38,308.38 C384.86,308.98 385.94,309.7 387.68,309.85 L391.82,310.27 C393.77,310.45 394.43,310.99 394.43,311.98 C394.43,312.61 394.31,312.97 394.04,313.3 C393.32,313.66 391.88,313.9 389.81,313.9 C387.62,313.9 385.67,313.48 383.93,312.91 L383.42,315.04 C385.25,315.79 387.17,316.21 389.99,316.24 C394.52,316.27 397.34,315.1 397.34,311.92 C397.34,308.89 395.45,308.02 392.24,307.69 L388.64,307.36 C388.07,307.3 387.56,307.21 387.23,307 L388.07,304.69 C388.79,304.87 389.63,304.99 390.53,304.99 C394.31,304.99 396.86,303.1 396.86,299.68 C396.86,298.51 396.44,297.52 395.84,296.74 L398.18,296.53 L398.48,294.73 Z M393.17,302.26 C392.57,302.56 391.7,302.83 390.53,302.83 C388.37,302.83 386.99,301.63 386.99,299.65 C386.99,298.33 387.44,297.49 387.86,297.1 C388.49,296.77 389.33,296.53 390.53,296.53 C392.66,296.53 394.07,297.67 394.07,299.65 C394.07,300.97 393.62,301.84 393.17,302.26 Z M400.17,313.57 L402,313.57 C403.14,311.77 404.43,308.95 405.12,306.88 L402,306.88 L400.17,313.57 Z M420.41,310 L423.29,310 L426.56,298.27 L429.62,310 L432.59,310 L437.15,294.55 L434.36,294.55 L431.15,306.82 L428.15,294.79 L425.33,295.09 L422.12,306.85 L419.15,294.55 L416.06,294.55 L420.41,310 Z M448.32,294.34 C446.67,294.34 445.02,295.24 443.49,295.99 L443.49,290.62 L442.98,288.4 L440.46,288.4 L440.46,310 L443.49,310 L443.49,297.73 C444.84,297.37 446.37,296.95 447.45,296.77 C450.03,296.77 450.81,297.94 450.81,300.49 L450.81,310 L453.84,310 L453.84,300.25 C453.84,297.46 452.7,294.34 448.32,294.34 Z M461.02,303.13 C462.85,303.31 465.01,303.4 465.82,303.4 C469.36,303.4 470.98,302.05 470.98,299.32 C470.98,295.72 468.61,294.34 465.37,294.34 C461.29,294.34 458.11,297.07 458.11,302.23 C458.11,307.45 460.57,310.15 465.7,310.15 C466.99,310.15 468.46,309.85 469.87,309.28 L470.23,307.24 C468.76,307.69 467.14,307.81 465.88,307.81 C462.7,307.81 461.26,306.31 461.02,303.13 Z M465.37,296.56 C467.35,296.56 468.31,297.61 468.31,298.99 C468.31,299.38 468.31,300.25 467.92,300.67 C467.44,300.88 466.72,301.03 465.7,301.09 C464.56,301.18 463.03,301.21 461.05,301.24 C461.17,299.53 461.62,298.24 462.07,297.7 C462.79,297.13 463.93,296.56 465.37,296.56 Z M482.39,294.34 C480.98,294.34 479.48,295.18 477.95,296.02 L477.53,294.55 L475.04,294.55 L475.04,310 L478.07,310 L478.07,297.64 C479.27,297.31 480.41,297.04 481.46,296.86 C482.36,296.86 482.93,296.92 483.53,297.01 L484.13,294.52 C483.68,294.4 483.05,294.34 482.39,294.34 Z M488.82,303.13 C490.65,303.31 492.81,303.4 493.62,303.4 C497.16,303.4 498.78,302.05 498.78,299.32 C498.78,295.72 496.41,294.34 493.17,294.34 C489.09,294.34 485.91,297.07 485.91,302.23 C485.91,307.45 488.37,310.15 493.5,310.15 C494.79,310.15 496.26,309.85 497.67,309.28 L498.03,307.24 C496.56,307.69 494.94,307.81 493.68,307.81 C490.5,307.81 489.06,306.31 488.82,303.13 Z M493.17,296.56 C495.15,296.56 496.11,297.61 496.11,298.99 C496.11,299.38 496.11,300.25 495.72,300.67 C495.24,300.88 494.52,301.03 493.5,301.09 C492.36,301.18 490.83,301.21 488.85,301.24 C488.97,299.53 489.42,298.24 489.87,297.7 C490.59,297.13 491.73,296.56 493.17,296.56 Z M19.85,324.4 L17.33,324.4 L17.33,331.6 C16.34,330.94 15.05,330.34 13.58,330.34 C9.89,330.34 6.68,333.04 6.68,338.23 C6.68,342.97 8.78,346.15 13.01,346.15 C14.45,346.15 16.16,345.31 17.45,344.5 L17.84,346 L20.33,346 L20.33,326.62 L19.85,324.4 Z M9.71,338.23 C9.71,336.07 10.19,334.36 10.73,333.76 C11.42,333.19 12.68,332.65 13.7,332.65 C15.14,332.65 16.37,332.95 17.33,333.46 L17.33,342.82 C16.22,343.21 14.99,343.63 13.97,343.75 C11.24,343.75 9.71,342.31 9.71,338.23 Z M27.21,328.15 C27.69,328.15 28.23,328.03 28.59,327.79 C28.86,327.55 29.04,326.98 29.04,326.38 C29.04,325.21 28.35,324.64 27.21,324.64 C26.76,324.64 26.22,324.76 25.83,325 C25.59,325.27 25.38,325.81 25.38,326.38 C25.38,327.55 26.07,328.15 27.21,328.15 Z M25.71,346 L28.74,346 L28.74,330.55 L25.71,330.55 L25.71,346 Z M37.99,346.15 C41.5,346.15 44.11,344.98 44.11,341.53 C44.11,339.16 42.94,337.81 39.7,337.06 C37.66,336.52 35.89,336.46 35.89,334.72 C35.89,334.03 36.04,333.55 36.43,333.19 C37.12,332.86 38.23,332.65 39.31,332.68 C40.72,332.71 42.01,332.86 43.09,333.19 L43.57,331.18 C42.4,330.7 40.66,330.34 39.49,330.34 C35.89,330.34 33.16,331.75 33.16,335.02 C33.16,337.63 34.99,338.71 37.12,339.16 C39.94,339.79 41.23,340.06 41.23,341.77 C41.23,342.43 41.11,342.91 40.72,343.33 C40,343.69 38.86,343.78 38.11,343.78 C36.28,343.78 34.51,343.48 33.34,343.09 L32.89,345.16 C34.12,345.67 36.01,346.15 37.99,346.15 Z M54.65,343.72 C52.61,343.72 52.22,342.49 52.22,340.3 L52.22,332.86 L57.14,332.86 L57.47,330.55 L52.22,330.55 L52.22,326.77 L50.21,326.77 L49.28,330.55 L46.73,330.55 L46.4,332.86 L49.19,332.86 L49.19,340.12 C49.19,343.75 50.09,346.12 54.29,346.12 C55.22,346.12 56.36,345.91 57.2,345.58 L57.56,343.39 C56.63,343.69 55.58,343.72 54.65,343.72 Z M62.73,328.15 C63.21,328.15 63.75,328.03 64.11,327.79 C64.38,327.55 64.56,326.98 64.56,326.38 C64.56,325.21 63.87,324.64 62.73,324.64 C62.28,324.64 61.74,324.76 61.35,325 C61.11,325.27 60.9,325.81 60.9,326.38 C60.9,327.55 61.59,328.15 62.73,328.15 Z M61.23,346 L64.26,346 L64.26,330.55 L61.23,330.55 L61.23,346 Z M77.44,330.34 C75.76,330.34 74.11,331.21 72.52,332.02 L72.1,330.55 L69.61,330.55 L69.61,346 L72.64,346 L72.64,333.73 C73.96,333.37 75.52,332.98 76.6,332.77 C79.24,332.77 79.96,334.06 79.96,336.49 L79.96,346 L82.99,346 L82.99,336.25 C82.99,333.46 81.88,330.34 77.44,330.34 Z M94.49,346.15 C95.84,346.15 97.31,345.88 98.57,345.4 L98.9,343.33 C97.43,343.72 95.93,343.75 94.73,343.75 C91.88,343.75 90.29,341.92 90.29,338.23 C90.29,336.13 90.89,334.48 91.43,333.82 C92.18,333.25 93.29,332.74 94.79,332.71 C96.2,332.71 97.22,332.89 98.3,333.19 L98.78,331.15 C97.67,330.73 96.23,330.34 94.7,330.34 C90.53,330.34 87.26,333.01 87.26,338.23 C87.26,343.45 90.17,346.15 94.49,346.15 Z M109.2,343.72 C107.16,343.72 106.77,342.49 106.77,340.3 L106.77,332.86 L111.69,332.86 L112.02,330.55 L106.77,330.55 L106.77,326.77 L104.76,326.77 L103.83,330.55 L101.28,330.55 L100.95,332.86 L103.74,332.86 L103.74,340.12 C103.74,343.75 104.64,346.12 108.84,346.12 C109.77,346.12 110.91,345.91 111.75,345.58 L112.11,343.39 C111.18,343.69 110.13,343.72 109.2,343.72 Z M117.28,328.15 C117.76,328.15 118.3,328.03 118.66,327.79 C118.93,327.55 119.11,326.98 119.11,326.38 C119.11,325.21 118.42,324.64 117.28,324.64 C116.83,324.64 116.29,324.76 115.9,325 C115.66,325.27 115.45,325.81 115.45,326.38 C115.45,327.55 116.14,328.15 117.28,328.15 Z M115.78,346 L118.81,346 L118.81,330.55 L115.78,330.55 L115.78,346 Z M130.52,346.15 C134.51,346.15 137.72,343.63 137.72,338.2 C137.72,333.01 134.84,330.34 130.52,330.34 C126.65,330.34 123.35,333.07 123.35,338.2 C123.35,343.42 126.2,346.15 130.52,346.15 Z M130.55,343.84 C127.79,343.84 126.38,341.98 126.38,338.2 C126.38,336.07 126.86,334.33 127.4,333.7 C128.12,333.16 129.08,332.65 130.55,332.65 C133.28,332.65 134.69,334.51 134.69,338.2 C134.69,340.39 134.18,342.13 133.64,342.82 C132.95,343.33 132.11,343.84 130.55,343.84 Z M150.12,330.34 C148.44,330.34 146.79,331.21 145.2,332.02 L144.78,330.55 L142.29,330.55 L142.29,346 L145.32,346 L145.32,333.73 C146.64,333.37 148.2,332.98 149.28,332.77 C151.92,332.77 152.64,334.06 152.64,336.49 L152.64,346 L155.67,346 L155.67,336.25 C155.67,333.46 154.56,330.34 150.12,330.34 Z M173.87,330.34 C172.46,330.34 170.66,330.76 169.46,331.3 L169.13,333.28 C170.33,332.86 172.13,332.68 173.6,332.68 C175.97,332.68 177.56,333.49 177.56,336.13 L177.56,337.09 C175.88,336.97 174.26,336.94 173.48,336.91 C170.12,336.97 168.02,338.5 168.02,341.32 C168.02,344.83 170.18,346.15 173.24,346.15 C174.92,346.15 176.51,345.31 177.71,344.65 L178.04,346 L180.41,346 L180.41,336.85 C180.41,332.77 178.88,330.34 173.87,330.34 Z M170.75,341.41 C170.75,340.75 170.84,340.09 171.23,339.67 C171.89,339.37 172.88,339.19 174.56,339.07 C175.37,339.01 176.36,339.01 177.56,338.98 L177.56,343.06 C176.48,343.39 175.04,343.78 174.11,343.96 C171.56,343.96 170.75,342.76 170.75,341.41 Z M193.32,330.34 C191.64,330.34 189.99,331.21 188.4,332.02 L187.98,330.55 L185.49,330.55 L185.49,346 L188.52,346 L188.52,333.73 C189.84,333.37 191.4,332.98 192.48,332.77 C195.12,332.77 195.84,334.06 195.84,336.49 L195.84,346 L198.87,346 L198.87,336.25 C198.87,333.46 197.76,330.34 193.32,330.34 Z M216.31,324.4 L213.79,324.4 L213.79,331.6 C212.8,330.94 211.51,330.34 210.04,330.34 C206.35,330.34 203.14,333.04 203.14,338.23 C203.14,342.97 205.24,346.15 209.47,346.15 C210.91,346.15 212.62,345.31 213.91,344.5 L214.3,346 L216.79,346 L216.79,326.62 L216.31,324.4 Z M206.17,338.23 C206.17,336.07 206.65,334.36 207.19,333.76 C207.88,333.19 209.14,332.65 210.16,332.65 C211.6,332.65 212.83,332.95 213.79,333.46 L213.79,342.82 C212.68,343.21 211.45,343.63 210.43,343.75 C207.7,343.75 206.17,342.31 206.17,338.23 Z M234.96,327.19 C235.56,326.77 236.31,326.56 237.24,326.56 C237.99,326.56 238.86,326.71 239.7,326.95 L240.24,324.94 C239.13,324.46 237.81,324.22 236.91,324.22 C233.01,324.22 231.33,326.8 231.24,330.55 L228.78,330.55 L228.45,332.86 L231.24,332.86 L231.24,346 L234.27,346 L234.27,332.86 L239.1,332.86 L239.43,330.55 L234.27,330.55 L234.27,330.25 C234.27,328.81 234.6,327.64 234.96,327.19 Z M253,330.55 L253,342.85 C251.71,343.15 250.18,343.51 249.1,343.69 C246.46,343.69 245.8,342.43 245.8,339.97 L245.8,330.55 L242.77,330.55 L242.77,340.21 C242.77,343.03 243.79,346.15 248.23,346.15 C249.94,346.15 251.59,345.31 253.12,344.53 L253.51,346 L256.03,346 L256.03,330.55 L253,330.55 Z M269.24,330.34 C267.56,330.34 265.91,331.21 264.32,332.02 L263.9,330.55 L261.41,330.55 L261.41,346 L264.44,346 L264.44,333.73 C265.76,333.37 267.32,332.98 268.4,332.77 C271.04,332.77 271.76,334.06 271.76,336.49 L271.76,346 L274.79,346 L274.79,336.25 C274.79,333.46 273.68,330.34 269.24,330.34 Z M286.29,346.15 C287.64,346.15 289.11,345.88 290.37,345.4 L290.7,343.33 C289.23,343.72 287.73,343.75 286.53,343.75 C283.68,343.75 282.09,341.92 282.09,338.23 C282.09,336.13 282.69,334.48 283.23,333.82 C283.98,333.25 285.09,332.74 286.59,332.71 C288,332.71 289.02,332.89 290.1,333.19 L290.58,331.15 C289.47,330.73 288.03,330.34 286.5,330.34 C282.33,330.34 279.06,333.01 279.06,338.23 C279.06,343.45 281.97,346.15 286.29,346.15 Z M301,343.72 C298.96,343.72 298.57,342.49 298.57,340.3 L298.57,332.86 L303.49,332.86 L303.82,330.55 L298.57,330.55 L298.57,326.77 L296.56,326.77 L295.63,330.55 L293.08,330.55 L292.75,332.86 L295.54,332.86 L295.54,340.12 C295.54,343.75 296.44,346.12 300.64,346.12 C301.57,346.12 302.71,345.91 303.55,345.58 L303.91,343.39 C302.98,343.69 301.93,343.72 301,343.72 Z M309.08,328.15 C309.56,328.15 310.1,328.03 310.46,327.79 C310.73,327.55 310.91,326.98 310.91,326.38 C310.91,325.21 310.22,324.64 309.08,324.64 C308.63,324.64 308.09,324.76 307.7,325 C307.46,325.27 307.25,325.81 307.25,326.38 C307.25,327.55 307.94,328.15 309.08,328.15 Z M307.58,346 L310.61,346 L310.61,330.55 L307.58,330.55 L307.58,346 Z M322.32,346.15 C326.31,346.15 329.52,343.63 329.52,338.2 C329.52,333.01 326.64,330.34 322.32,330.34 C318.45,330.34 315.15,333.07 315.15,338.2 C315.15,343.42 318,346.15 322.32,346.15 Z M322.35,343.84 C319.59,343.84 318.18,341.98 318.18,338.2 C318.18,336.07 318.66,334.33 319.2,333.7 C319.92,333.16 320.88,332.65 322.35,332.65 C325.08,332.65 326.49,334.51 326.49,338.2 C326.49,340.39 325.98,342.13 325.44,342.82 C324.75,343.33 323.91,343.84 322.35,343.84 Z M341.92,330.34 C340.24,330.34 338.59,331.21 337,332.02 L336.58,330.55 L334.09,330.55 L334.09,346 L337.12,346 L337.12,333.73 C338.44,333.37 340,332.98 341.08,332.77 C343.72,332.77 344.44,334.06 344.44,336.49 L344.44,346 L347.47,346 L347.47,336.25 C347.47,333.46 346.36,330.34 341.92,330.34 Z M357.47,330.34 C356.06,330.34 354.26,330.76 353.06,331.3 L352.73,333.28 C353.93,332.86 355.73,332.68 357.2,332.68 C359.57,332.68 361.16,333.49 361.16,336.13 L361.16,337.09 C359.48,336.97 357.86,336.94 357.08,336.91 C353.72,336.97 351.62,338.5 351.62,341.32 C351.62,344.83 353.78,346.15 356.84,346.15 C358.52,346.15 360.11,345.31 361.31,344.65 L361.64,346 L364.01,346 L364.01,336.85 C364.01,332.77 362.48,330.34 357.47,330.34 Z M354.35,341.41 C354.35,340.75 354.44,340.09 354.83,339.67 C355.49,339.37 356.48,339.19 358.16,339.07 C358.97,339.01 359.96,339.01 361.16,338.98 L361.16,343.06 C360.08,343.39 358.64,343.78 357.71,343.96 C355.16,343.96 354.35,342.76 354.35,341.41 Z M371.85,346.12 C372.99,346.12 373.92,345.97 374.64,345.76 L374.88,344.08 L372.12,343.66 L372.12,326.62 L371.61,324.4 L369.09,324.4 L369.09,343.18 C369.09,345.19 370.29,346.12 371.85,346.12 Z M379.48,328.15 C379.96,328.15 380.5,328.03 380.86,327.79 C381.13,327.55 381.31,326.98 381.31,326.38 C381.31,325.21 380.62,324.64 379.48,324.64 C379.03,324.64 378.49,324.76 378.1,325 C377.86,325.27 377.65,325.81 377.65,326.38 C377.65,327.55 378.34,328.15 379.48,328.15 Z M377.98,346 L381.01,346 L381.01,330.55 L377.98,330.55 L377.98,346 Z M392.78,343.72 C390.74,343.72 390.35,342.49 390.35,340.3 L390.35,332.86 L395.27,332.86 L395.6,330.55 L390.35,330.55 L390.35,326.77 L388.34,326.77 L387.41,330.55 L384.86,330.55 L384.53,332.86 L387.32,332.86 L387.32,340.12 C387.32,343.75 388.22,346.12 392.42,346.12 C393.35,346.12 394.49,345.91 395.33,345.58 L395.69,343.39 C394.76,343.69 393.71,343.72 392.78,343.72 Z M400.02,352.12 C403.5,352.12 404.73,349.81 406.38,345.49 L412.14,330.55 L409.17,330.55 L404.91,342.76 L400.35,330.55 L397.11,330.55 L403.5,345.73 C402.93,347.32 402.36,348.61 401.64,349.33 C401.1,349.63 400.65,349.75 399.75,349.75 C399.03,349.75 398.37,349.63 397.62,349.39 L397.14,351.46 C398.01,351.85 399.09,352.12 400.02,352.12 Z M431.21,330.34 C429.53,330.34 427.88,331.21 426.29,332.02 L425.87,330.55 L423.38,330.55 L423.38,346 L426.41,346 L426.41,333.73 C427.73,333.37 429.29,332.98 430.37,332.77 C433.01,332.77 433.73,334.06 433.73,336.49 L433.73,346 L436.76,346 L436.76,336.25 C436.76,333.46 435.65,330.34 431.21,330.34 Z M443.94,339.13 C445.77,339.31 447.93,339.4 448.74,339.4 C452.28,339.4 453.9,338.05 453.9,335.32 C453.9,331.72 451.53,330.34 448.29,330.34 C444.21,330.34 441.03,333.07 441.03,338.23 C441.03,343.45 443.49,346.15 448.62,346.15 C449.91,346.15 451.38,345.85 452.79,345.28 L453.15,343.24 C451.68,343.69 450.06,343.81 448.8,343.81 C445.62,343.81 444.18,342.31 443.94,339.13 Z M448.29,332.56 C450.27,332.56 451.23,333.61 451.23,334.99 C451.23,335.38 451.23,336.25 450.84,336.67 C450.36,336.88 449.64,337.03 448.62,337.09 C447.48,337.18 445.95,337.21 443.97,337.24 C444.09,335.53 444.54,334.24 444.99,333.7 C445.71,333.13 446.85,332.56 448.29,332.56 Z M460.06,339.13 C461.89,339.31 464.05,339.4 464.86,339.4 C468.4,339.4 470.02,338.05 470.02,335.32 C470.02,331.72 467.65,330.34 464.41,330.34 C460.33,330.34 457.15,333.07 457.15,338.23 C457.15,343.45 459.61,346.15 464.74,346.15 C466.03,346.15 467.5,345.85 468.91,345.28 L469.27,343.24 C467.8,343.69 466.18,343.81 464.92,343.81 C461.74,343.81 460.3,342.31 460.06,339.13 Z M464.41,332.56 C466.39,332.56 467.35,333.61 467.35,334.99 C467.35,335.38 467.35,336.25 466.96,336.67 C466.48,336.88 465.76,337.03 464.74,337.09 C463.6,337.18 462.07,337.21 460.09,337.24 C460.21,335.53 460.66,334.24 461.11,333.7 C461.83,333.13 462.97,332.56 464.41,332.56 Z M486.44,324.4 L483.92,324.4 L483.92,331.6 C482.93,330.94 481.64,330.34 480.17,330.34 C476.48,330.34 473.27,333.04 473.27,338.23 C473.27,342.97 475.37,346.15 479.6,346.15 C481.04,346.15 482.75,345.31 484.04,344.5 L484.43,346 L486.92,346 L486.92,326.62 L486.44,324.4 Z M476.3,338.23 C476.3,336.07 476.78,334.36 477.32,333.76 C478.01,333.19 479.27,332.65 480.29,332.65 C481.73,332.65 482.96,332.95 483.92,333.46 L483.92,342.82 C482.81,343.21 481.58,343.63 480.56,343.75 C477.83,343.75 476.3,342.31 476.3,338.23 Z M13.91,379.72 C11.87,379.72 11.48,378.49 11.48,376.3 L11.48,368.86 L16.4,368.86 L16.73,366.55 L11.48,366.55 L11.48,362.77 L9.47,362.77 L8.54,366.55 L5.99,366.55 L5.66,368.86 L8.45,368.86 L8.45,376.12 C8.45,379.75 9.35,382.12 13.55,382.12 C14.48,382.12 15.62,381.91 16.46,381.58 L16.82,379.39 C15.89,379.69 14.84,379.72 13.91,379.72 Z M26.16,382.15 C30.15,382.15 33.36,379.63 33.36,374.2 C33.36,369.01 30.48,366.34 26.16,366.34 C22.29,366.34 18.99,369.07 18.99,374.2 C18.99,379.42 21.84,382.15 26.16,382.15 Z M26.19,379.84 C23.43,379.84 22.02,377.98 22.02,374.2 C22.02,372.07 22.5,370.33 23.04,369.7 C23.76,369.16 24.72,368.65 26.19,368.65 C28.92,368.65 30.33,370.51 30.33,374.2 C30.33,376.39 29.82,378.13 29.28,378.82 C28.59,379.33 27.75,379.84 26.19,379.84 Z M59.69,366.73 L54.59,366.73 C53.75,366.46 52.79,366.34 51.74,366.34 C48.14,366.34 45.44,368.17 45.44,371.65 C45.44,373.51 46.16,374.92 47.45,375.82 L45.59,380.38 C46.07,380.98 47.15,381.7 48.89,381.85 L53.03,382.27 C54.98,382.45 55.64,382.99 55.64,383.98 C55.64,384.61 55.52,384.97 55.25,385.3 C54.53,385.66 53.09,385.9 51.02,385.9 C48.83,385.9 46.88,385.48 45.14,384.91 L44.63,387.04 C46.46,387.79 48.38,388.21 51.2,388.24 C55.73,388.27 58.55,387.1 58.55,383.92 C58.55,380.89 56.66,380.02 53.45,379.69 L49.85,379.36 C49.28,379.3 48.77,379.21 48.44,379 L49.28,376.69 C50,376.87 50.84,376.99 51.74,376.99 C55.52,376.99 58.07,375.1 58.07,371.68 C58.07,370.51 57.65,369.52 57.05,368.74 L59.39,368.53 L59.69,366.73 Z M54.38,374.26 C53.78,374.56 52.91,374.83 51.74,374.83 C49.58,374.83 48.2,373.63 48.2,371.65 C48.2,370.33 48.65,369.49 49.07,369.1 C49.7,368.77 50.54,368.53 51.74,368.53 C53.87,368.53 55.28,369.67 55.28,371.65 C55.28,372.97 54.83,373.84 54.38,374.26 Z M69.36,382.15 C73.35,382.15 76.56,379.63 76.56,374.2 C76.56,369.01 73.68,366.34 69.36,366.34 C65.49,366.34 62.19,369.07 62.19,374.2 C62.19,379.42 65.04,382.15 69.36,382.15 Z M69.39,379.84 C66.63,379.84 65.22,377.98 65.22,374.2 C65.22,372.07 65.7,370.33 66.24,369.7 C66.96,369.16 67.92,368.65 69.39,368.65 C72.12,368.65 73.53,370.51 73.53,374.2 C73.53,376.39 73.02,378.13 72.48,378.82 C71.79,379.33 70.95,379.84 69.39,379.84 Z M97.19,366.34 C95.54,366.34 93.89,367.24 92.36,367.99 L92.36,362.62 L91.85,360.4 L89.33,360.4 L89.33,382 L92.36,382 L92.36,369.73 C93.71,369.37 95.24,368.95 96.32,368.77 C98.9,368.77 99.68,369.94 99.68,372.49 L99.68,382 L102.71,382 L102.71,372.25 C102.71,369.46 101.57,366.34 97.19,366.34 Z M112.71,366.34 C111.3,366.34 109.5,366.76 108.3,367.3 L107.97,369.28 C109.17,368.86 110.97,368.68 112.44,368.68 C114.81,368.68 116.4,369.49 116.4,372.13 L116.4,373.09 C114.72,372.97 113.1,372.94 112.32,372.91 C108.96,372.97 106.86,374.5 106.86,377.32 C106.86,380.83 109.02,382.15 112.08,382.15 C113.76,382.15 115.35,381.31 116.55,380.65 L116.88,382 L119.25,382 L119.25,372.85 C119.25,368.77 117.72,366.34 112.71,366.34 Z M109.59,377.41 C109.59,376.75 109.68,376.09 110.07,375.67 C110.73,375.37 111.72,375.19 113.4,375.07 C114.21,375.01 115.2,375.01 116.4,374.98 L116.4,379.06 C115.32,379.39 113.88,379.78 112.95,379.96 C110.4,379.96 109.59,378.76 109.59,377.41 Z M132.16,366.34 C130.48,366.34 128.83,367.21 127.24,368.02 L126.82,366.55 L124.33,366.55 L124.33,382 L127.36,382 L127.36,369.73 C128.68,369.37 130.24,368.98 131.32,368.77 C133.96,368.77 134.68,370.06 134.68,372.49 L134.68,382 L137.71,382 L137.71,372.25 C137.71,369.46 136.6,366.34 132.16,366.34 Z M155.15,360.4 L152.63,360.4 L152.63,367.6 C151.64,366.94 150.35,366.34 148.88,366.34 C145.19,366.34 141.98,369.04 141.98,374.23 C141.98,378.97 144.08,382.15 148.31,382.15 C149.75,382.15 151.46,381.31 152.75,380.5 L153.14,382 L155.63,382 L155.63,362.62 L155.15,360.4 Z M145.01,374.23 C145.01,372.07 145.49,370.36 146.03,369.76 C146.72,369.19 147.98,368.65 149,368.65 C150.44,368.65 151.67,368.95 152.63,369.46 L152.63,378.82 C151.52,379.21 150.29,379.63 149.27,379.75 C146.54,379.75 145.01,378.31 145.01,374.23 Z M170.71,364.15 C171.19,364.15 171.73,364.03 172.09,363.79 C172.36,363.55 172.54,362.98 172.54,362.38 C172.54,361.21 171.85,360.64 170.71,360.64 C170.26,360.64 169.72,360.76 169.33,361 C169.09,361.27 168.88,361.81 168.88,362.38 C168.88,363.55 169.57,364.15 170.71,364.15 Z M169.21,382 L172.24,382 L172.24,366.55 L169.21,366.55 L169.21,382 Z M185.42,366.34 C183.74,366.34 182.09,367.21 180.5,368.02 L180.08,366.55 L177.59,366.55 L177.59,382 L180.62,382 L180.62,369.73 C181.94,369.37 183.5,368.98 184.58,368.77 C187.22,368.77 187.94,370.06 187.94,372.49 L187.94,382 L190.97,382 L190.97,372.25 C190.97,369.46 189.86,366.34 185.42,366.34 Z M212.11,366.34 C210.46,366.34 208.81,367.24 207.28,367.99 L207.28,362.62 L206.77,360.4 L204.25,360.4 L204.25,382 L207.28,382 L207.28,369.73 C208.63,369.37 210.16,368.95 211.24,368.77 C213.82,368.77 214.6,369.94 214.6,372.49 L214.6,382 L217.63,382 L217.63,372.25 C217.63,369.46 216.49,366.34 212.11,366.34 Z M227.63,366.34 C226.22,366.34 224.42,366.76 223.22,367.3 L222.89,369.28 C224.09,368.86 225.89,368.68 227.36,368.68 C229.73,368.68 231.32,369.49 231.32,372.13 L231.32,373.09 C229.64,372.97 228.02,372.94 227.24,372.91 C223.88,372.97 221.78,374.5 221.78,377.32 C221.78,380.83 223.94,382.15 227,382.15 C228.68,382.15 230.27,381.31 231.47,380.65 L231.8,382 L234.17,382 L234.17,372.85 C234.17,368.77 232.64,366.34 227.63,366.34 Z M224.51,377.41 C224.51,376.75 224.6,376.09 224.99,375.67 C225.65,375.37 226.64,375.19 228.32,375.07 C229.13,375.01 230.12,375.01 231.32,374.98 L231.32,379.06 C230.24,379.39 228.8,379.78 227.87,379.96 C225.32,379.96 224.51,378.76 224.51,377.41 Z M247.08,366.34 C245.4,366.34 243.75,367.21 242.16,368.02 L241.74,366.55 L239.25,366.55 L239.25,382 L242.28,382 L242.28,369.73 C243.6,369.37 245.16,368.98 246.24,368.77 C248.88,368.77 249.6,370.06 249.6,372.49 L249.6,382 L252.63,382 L252.63,372.25 C252.63,369.46 251.52,366.34 247.08,366.34 Z M270.07,360.4 L267.55,360.4 L267.55,367.6 C266.56,366.94 265.27,366.34 263.8,366.34 C260.11,366.34 256.9,369.04 256.9,374.23 C256.9,378.97 259,382.15 263.23,382.15 C264.67,382.15 266.38,381.31 267.67,380.5 L268.06,382 L270.55,382 L270.55,362.62 L270.07,360.4 Z M259.93,374.23 C259.93,372.07 260.41,370.36 260.95,369.76 C261.64,369.19 262.9,368.65 263.92,368.65 C265.36,368.65 266.59,368.95 267.55,369.46 L267.55,378.82 C266.44,379.21 265.21,379.63 264.19,379.75 C261.46,379.75 259.93,378.31 259.93,374.23 Z M277.28,382.15 C277.79,382.15 278.36,382.03 278.75,381.76 C278.99,381.52 279.23,380.89 279.23,380.26 C279.23,378.97 278.51,378.34 277.28,378.34 C276.8,378.34 276.2,378.49 275.84,378.73 C275.6,379 275.36,379.66 275.36,380.26 C275.36,381.55 276.08,382.15 277.28,382.15 Z" id="At-text-sizes,-it-re" fill="#3F3E43"></path>
                    <path d="M37.575,56 L52.875,56 L34.575,2 L18.675,2 L0.225,56 L14.625,56 L18.15,44.75 L34.2,44.75 L37.575,56 Z M31.275,33.65 L21.15,33.65 L26.325,16.925 L31.275,33.65 Z M80.475,45.275 C76.725,45.275 74.7,43.7 74.7,38.9 L74.7,26.975 L85.2,26.975 L86.7,16.25 L74.7,16.25 L74.7,6.65 L63.825,6.65 L61.425,16.25 L55.125,16.25 L53.625,26.975 L60.6,26.975 L60.6,39.65 C60.6,50.975 65.7,56.525 75.9,56.525 C80.475,56.525 82.725,56.225 85.125,55.55 L86.775,44.9 C85.275,45.125 82.65,45.275 80.475,45.275 Z M122.85,56.525 C126.075,56.525 129.75,55.925 132.675,54.875 L133.35,46.625 L126.75,45.425 L126.75,11 L124.875,2 L112.65,2 L112.65,45.5 C112.65,52.25 116.55,56.525 122.85,56.525 Z M153.9,15.725 C149.25,15.725 145.125,16.55 140.625,18.2 L138.975,27.875 C141.225,27.275 146.475,26.6 150.075,26.6 C156.6,26.6 158.775,27.875 158.775,31.55 L158.775,32.45 C154.95,32.15 151.275,32 149.85,32.075 C141.3,32.525 136.35,36.95 136.35,43.775 C136.35,52.625 140.925,56.525 148.65,56.525 C153.225,56.525 157.2,54.05 159.75,52.025 L160.875,56 L172.125,56 L172.125,33.275 C172.125,21.575 167.1,15.725 153.9,15.725 Z M148.725,43.1 C148.725,42.2 148.875,41.45 149.25,40.775 C150.75,40.325 152.925,40.025 156.075,39.875 C156.9,39.8 157.8,39.8 158.775,39.8 L158.775,45.35 C156.45,45.875 153.675,46.4 152.25,46.625 C149.7,46.625 148.725,45.2 148.725,43.1 Z M203.4,15.725 C200.025,15.725 196.575,17.75 193.8,19.925 L192.525,16.25 L180.975,16.25 L180.975,56 L195.075,56 L195.075,28.4 C197.475,27.95 199.8,27.575 201.15,27.35 C203.475,27.35 204.75,27.575 205.875,27.8 L207.45,16.025 C206.175,15.8 204.825,15.725 203.4,15.725 Z M250.8,16.475 L236.175,16.475 C234.15,15.95 231.75,15.725 229.275,15.725 C218.925,15.725 211.725,20.525 211.725,29.675 C211.725,34.25 213.45,37.775 216.45,40.175 L211.65,52.325 C214.35,54.725 217.65,56.3 222.6,56.75 L232.05,57.575 C233.925,57.725 234.225,58.55 234.225,59.3 C234.225,60.05 234.075,60.5 233.55,60.8 C232.2,61.025 230.325,61.175 227.625,61.175 C221.775,61.175 215.775,60.275 211.8,58.625 L209.475,68.375 C215.625,70.85 220.65,71.6 228,71.6 C241.2,71.6 248.475,67.85 248.475,59.45 C248.475,52.25 245.325,48.5 233.55,47.6 L226.65,47.075 C224.775,46.775 223.875,46.625 223.275,46.175 L224.325,43.4 C225.825,43.625 227.475,43.775 229.275,43.775 C240.9,43.775 246.75,38.9 246.75,30.425 C246.75,27.95 245.85,25.925 244.575,24.2 L250.125,23.75 L250.8,16.475 Z M233.55,33.425 C232.425,33.8 231.225,34.1 229.425,34.1 C225.825,34.1 224.1,32.75 224.1,29.975 C224.1,28.625 224.55,27.125 225.225,26.525 C226.275,26.075 227.55,25.775 229.425,25.775 C232.95,25.775 234.6,27.2 234.6,29.975 C234.6,31.325 234.225,32.75 233.55,33.425 Z M267.375,39.575 C271.2,39.95 274.875,40.175 276.45,40.175 C286.125,40.175 290.625,37.4 290.625,29 C290.625,20.9 285.6,15.725 275.025,15.725 C261.15,15.725 253.875,24.125 253.875,35.975 C253.875,49.25 260.625,56.525 274.425,56.525 C279.075,56.525 283.275,56 287.775,54.35 L289.125,44.225 C286.875,44.825 281.4,45.5 277.725,45.5 C270.975,45.5 268.125,44.375 267.375,39.575 Z M274.65,26.075 C277.95,26.075 279.225,27.65 279.225,29.375 C279.225,30.35 279.15,30.8 278.775,31.55 C277.875,31.775 276.75,31.925 275.4,32 C273.3,32.15 270.675,32.225 267.375,32.3 C267.675,29.75 268.125,28.475 268.65,27.575 C269.925,26.825 271.575,26.075 274.65,26.075 Z M330.75,56.525 C342.45,56.525 348.45,51.95 348.45,43.325 C348.45,36.875 345.3,33.725 336.075,31.7 C330.6,30.5 329.925,30.05 329.925,28.625 C329.925,27.95 330.15,27.5 330.375,27.2 C331.35,26.9 332.925,26.75 334.725,26.75 C338.25,26.75 341.625,27.425 344.625,28.1 L346.575,18.05 C343.35,16.85 338.175,15.725 334.425,15.725 C321.525,15.725 315.6,20.675 315.6,29.075 C315.6,35.45 319.65,39.05 327.675,40.7 C333.15,41.825 333.45,42.65 333.45,43.85 C333.45,44.45 333.225,44.9 332.925,45.35 C332.175,45.575 331.125,45.65 329.4,45.65 C324.45,45.65 320.175,44.825 316.65,43.775 L314.85,53.825 C318.675,55.325 324.525,56.525 330.75,56.525 Z M362.625,12.95 C364.575,12.95 366.825,12.575 368.475,11.825 C369.45,10.85 370.275,8.9 370.275,6.8 C370.275,2.6 367.575,0.65 362.625,0.65 C360.675,0.65 358.425,1.025 356.775,1.775 C355.8,2.75 354.975,4.7 354.975,6.8 C354.975,11 357.675,12.95 362.625,12.95 Z M355.575,56 L369.675,56 L369.675,16.25 L355.575,16.25 L355.575,56 Z M377.4,56 L410.1,56 L411.6,45.275 L394.2,45.275 L410.85,25.325 L410.85,16.25 L378.525,16.25 L377.025,26.975 L393.525,26.975 L377.4,46.925 L377.4,56 Z M429.3,39.575 C433.125,39.95 436.8,40.175 438.375,40.175 C448.05,40.175 452.55,37.4 452.55,29 C452.55,20.9 447.525,15.725 436.95,15.725 C423.075,15.725 415.8,24.125 415.8,35.975 C415.8,49.25 422.55,56.525 436.35,56.525 C441,56.525 445.2,56 449.7,54.35 L451.05,44.225 C448.8,44.825 443.325,45.5 439.65,45.5 C432.9,45.5 430.05,44.375 429.3,39.575 Z M436.575,26.075 C439.875,26.075 441.15,27.65 441.15,29.375 C441.15,30.35 441.075,30.8 440.7,31.55 C439.8,31.775 438.675,31.925 437.325,32 C435.225,32.15 432.6,32.225 429.3,32.3 C429.6,29.75 430.05,28.475 430.575,27.575 C431.85,26.825 433.5,26.075 436.575,26.075 Z M473.175,56.525 C484.875,56.525 490.875,51.95 490.875,43.325 C490.875,36.875 487.725,33.725 478.5,31.7 C473.025,30.5 472.35,30.05 472.35,28.625 C472.35,27.95 472.575,27.5 472.8,27.2 C473.775,26.9 475.35,26.75 477.15,26.75 C480.675,26.75 484.05,27.425 487.05,28.1 L489,18.05 C485.775,16.85 480.6,15.725 476.85,15.725 C463.95,15.725 458.025,20.675 458.025,29.075 C458.025,35.45 462.075,39.05 470.1,40.7 C475.575,41.825 475.875,42.65 475.875,43.85 C475.875,44.45 475.65,44.9 475.35,45.35 C474.6,45.575 473.55,45.65 471.825,45.65 C466.875,45.65 462.6,44.825 459.075,43.775 L457.275,53.825 C461.1,55.325 466.95,56.525 473.175,56.525 Z M493.125,64.325 L501.675,64.325 C504.975,59.6 509.175,50.45 510.45,44.45 L497.7,44.45 L493.125,64.325 Z M19.8,120.7 L19.8,88.825 L17.925,79 L4.95,79 L4.95,133 L40.5,133 L42,120.7 L19.8,120.7 Z M58.95,116.575 C62.775,116.95 66.45,117.175 68.025,117.175 C77.7,117.175 82.2,114.4 82.2,106 C82.2,97.9 77.175,92.725 66.6,92.725 C52.725,92.725 45.45,101.125 45.45,112.975 C45.45,126.25 52.2,133.525 66,133.525 C70.65,133.525 74.85,133 79.35,131.35 L80.7,121.225 C78.45,121.825 72.975,122.5 69.3,122.5 C62.55,122.5 59.7,121.375 58.95,116.575 Z M66.225,103.075 C69.525,103.075 70.8,104.65 70.8,106.375 C70.8,107.35 70.725,107.8 70.35,108.55 C69.45,108.775 68.325,108.925 66.975,109 C64.875,109.15 62.25,109.225 58.95,109.3 C59.25,106.75 59.7,105.475 60.225,104.575 C61.5,103.825 63.15,103.075 66.225,103.075 Z M134.25,92.725 C129.375,92.725 125.7,94.3 122.55,96.7 C120.225,94.075 116.925,92.725 113.175,92.725 C108.675,92.725 105.15,94.525 102.225,96.7 L101.025,93.25 L89.475,93.25 L89.475,133 L103.575,133 L103.575,104.725 C104.85,104.425 106.2,104.125 107.55,103.9 C110.55,103.9 112.05,105.1 112.05,108.925 L112.05,133 L126.15,133 L126.15,107.95 C126.15,106.825 126.075,105.775 125.925,104.725 C127.35,104.425 128.7,104.125 130.125,103.9 C133.125,103.9 134.625,105.1 134.625,108.925 L134.625,133 L148.725,133 L148.725,108.325 C148.725,97.9 143.025,92.725 134.25,92.725 Z M180.375,92.725 C177,92.725 174,93.925 171.375,95.875 L171.375,88 L169.65,79 L157.575,79 L157.575,133 L170.175,133 L170.925,130 C173.55,132.1 176.4,133.525 180.525,133.525 C190.05,133.525 196.425,127.15 196.425,113.2 C196.425,101.425 191.1,92.725 180.375,92.725 Z M180.6,121.525 C179.475,122.35 178.125,122.8 176.025,122.8 C174.45,122.8 172.8,122.35 171.375,121.75 L171.375,104.575 C172.875,104.2 174.375,103.75 175.575,103.6 C180.225,103.675 182.175,106.9 182.175,113.125 C182.175,118 181.275,120.4 180.6,121.525 Z M226.425,92.725 C223.05,92.725 219.6,94.75 216.825,96.925 L215.55,93.25 L204,93.25 L204,133 L218.1,133 L218.1,105.4 C220.5,104.95 222.825,104.575 224.175,104.35 C226.5,104.35 227.775,104.575 228.9,104.8 L230.475,93.025 C229.2,92.8 227.85,92.725 226.425,92.725 Z M251.55,92.725 C246.9,92.725 242.775,93.55 238.275,95.2 L236.625,104.875 C238.875,104.275 244.125,103.6 247.725,103.6 C254.25,103.6 256.425,104.875 256.425,108.55 L256.425,109.45 C252.6,109.15 248.925,109 247.5,109.075 C238.95,109.525 234,113.95 234,120.775 C234,129.625 238.575,133.525 246.3,133.525 C250.875,133.525 254.85,131.05 257.4,129.025 L258.525,133 L269.775,133 L269.775,110.275 C269.775,98.575 264.75,92.725 251.55,92.725 Z M246.375,120.1 C246.375,119.2 246.525,118.45 246.9,117.775 C248.4,117.325 250.575,117.025 253.725,116.875 C254.55,116.8 255.45,116.8 256.425,116.8 L256.425,122.35 C254.1,122.875 251.325,123.4 249.9,123.625 C247.35,123.625 246.375,122.2 246.375,120.1 Z M333.075,79 L321,79 L321,94.9 C318.825,93.625 316.35,92.8 313.35,92.8 C303,92.8 295.95,100.45 295.95,113.125 C295.95,125.275 300.525,133.525 311.25,133.525 C315.075,133.525 319.05,131.875 322.425,129.4 L323.55,133 L334.8,133 L334.8,88.225 L333.075,79 Z M310.2,113.2 C310.2,108.85 311.1,105.925 311.775,104.8 C312.9,103.975 314.4,103.525 316.35,103.525 C317.925,103.525 319.575,103.75 321,104.2 L321,121.675 C319.5,122.05 318,122.5 316.8,122.65 C312.15,122.575 310.2,119.8 310.2,113.2 Z M355.875,116.575 C359.7,116.95 363.375,117.175 364.95,117.175 C374.625,117.175 379.125,114.4 379.125,106 C379.125,97.9 374.1,92.725 363.525,92.725 C349.65,92.725 342.375,101.125 342.375,112.975 C342.375,126.25 349.125,133.525 362.925,133.525 C367.575,133.525 371.775,133 376.275,131.35 L377.625,121.225 C375.375,121.825 369.9,122.5 366.225,122.5 C359.475,122.5 356.625,121.375 355.875,116.575 Z M363.15,103.075 C366.45,103.075 367.725,104.65 367.725,106.375 C367.725,107.35 367.65,107.8 367.275,108.55 C366.375,108.775 365.25,108.925 363.9,109 C361.8,109.15 359.175,109.225 355.875,109.3 C356.175,106.75 356.625,105.475 357.15,104.575 C358.425,103.825 360.075,103.075 363.15,103.075 Z M396.6,133.525 C399.825,133.525 403.5,132.925 406.425,131.875 L407.1,123.625 L400.5,122.425 L400.5,88 L398.625,79 L386.4,79 L386.4,122.5 C386.4,129.25 390.3,133.525 396.6,133.525 Z M419.4,89.95 C421.35,89.95 423.6,89.575 425.25,88.825 C426.225,87.85 427.05,85.9 427.05,83.8 C427.05,79.6 424.35,77.65 419.4,77.65 C417.45,77.65 415.2,78.025 413.55,78.775 C412.575,79.75 411.75,81.7 411.75,83.8 C411.75,88 414.45,89.95 419.4,89.95 Z M412.35,133 L426.45,133 L426.45,93.25 L412.35,93.25 L412.35,133 Z M447.3,133 L461.475,133 L476.925,93.25 L462.075,93.25 L454.65,118.45 L447.75,93.25 L431.7,93.25 L447.3,133 Z M493.5,116.575 C497.325,116.95 501,117.175 502.575,117.175 C512.25,117.175 516.75,114.4 516.75,106 C516.75,97.9 511.725,92.725 501.15,92.725 C487.275,92.725 480,101.125 480,112.975 C480,126.25 486.75,133.525 500.55,133.525 C505.2,133.525 509.4,133 513.9,131.35 L515.25,121.225 C513,121.825 507.525,122.5 503.85,122.5 C497.1,122.5 494.25,121.375 493.5,116.575 Z M500.775,103.075 C504.075,103.075 505.35,104.65 505.35,106.375 C505.35,107.35 505.275,107.8 504.9,108.55 C504,108.775 502.875,108.925 501.525,109 C499.425,109.15 496.8,109.225 493.5,109.3 C493.8,106.75 494.25,105.475 494.775,104.575 C496.05,103.825 497.7,103.075 500.775,103.075 Z M546.45,92.725 C543.075,92.725 539.625,94.75 536.85,96.925 L535.575,93.25 L524.025,93.25 L524.025,133 L538.125,133 L538.125,105.4 C540.525,104.95 542.85,104.575 544.2,104.35 C546.525,104.35 547.8,104.575 548.925,104.8 L550.5,93.025 C549.225,92.8 547.875,92.725 546.45,92.725 Z M569.625,133.525 C581.325,133.525 587.325,128.95 587.325,120.325 C587.325,113.875 584.175,110.725 574.95,108.7 C569.475,107.5 568.8,107.05 568.8,105.625 C568.8,104.95 569.025,104.5 569.25,104.2 C570.225,103.9 571.8,103.75 573.6,103.75 C577.125,103.75 580.5,104.425 583.5,105.1 L585.45,95.05 C582.225,93.85 577.05,92.725 573.3,92.725 C560.4,92.725 554.475,97.675 554.475,106.075 C554.475,112.45 558.525,116.05 566.55,117.7 C572.025,118.825 572.325,119.65 572.325,120.85 C572.325,121.45 572.1,121.9 571.8,122.35 C571.05,122.575 570,122.65 568.275,122.65 C563.325,122.65 559.05,121.825 555.525,120.775 L553.725,130.825 C557.55,132.325 563.4,133.525 569.625,133.525 Z M629.25,92.725 C624.6,92.725 620.475,93.55 615.975,95.2 L614.325,104.875 C616.575,104.275 621.825,103.6 625.425,103.6 C631.95,103.6 634.125,104.875 634.125,108.55 L634.125,109.45 C630.3,109.15 626.625,109 625.2,109.075 C616.65,109.525 611.7,113.95 611.7,120.775 C611.7,129.625 616.275,133.525 624,133.525 C628.575,133.525 632.55,131.05 635.1,129.025 L636.225,133 L647.475,133 L647.475,110.275 C647.475,98.575 642.45,92.725 629.25,92.725 Z M624.075,120.1 C624.075,119.2 624.225,118.45 624.6,117.775 C626.1,117.325 628.275,117.025 631.425,116.875 C632.25,116.8 633.15,116.8 634.125,116.8 L634.125,122.35 C631.8,122.875 629.025,123.4 627.6,123.625 C625.05,123.625 624.075,122.2 624.075,120.1 Z M18.225,210.525 C29.925,210.525 35.925,205.95 35.925,197.325 C35.925,190.875 32.775,187.725 23.55,185.7 C18.075,184.5 17.4,184.05 17.4,182.625 C17.4,181.95 17.625,181.5 17.85,181.2 C18.825,180.9 20.4,180.75 22.2,180.75 C25.725,180.75 29.1,181.425 32.1,182.1 L34.05,172.05 C30.825,170.85 25.65,169.725 21.9,169.725 C9,169.725 3.075,174.675 3.075,183.075 C3.075,189.45 7.125,193.05 15.15,194.7 C20.625,195.825 20.925,196.65 20.925,197.85 C20.925,198.45 20.7,198.9 20.4,199.35 C19.65,199.575 18.6,199.65 16.875,199.65 C11.925,199.65 7.65,198.825 4.125,197.775 L2.325,207.825 C6.15,209.325 12,210.525 18.225,210.525 Z M65.55,199.275 C61.8,199.275 59.775,197.7 59.775,192.9 L59.775,180.975 L70.275,180.975 L71.775,170.25 L59.775,170.25 L59.775,160.65 L48.9,160.65 L46.5,170.25 L40.2,170.25 L38.7,180.975 L45.675,180.975 L45.675,193.65 C45.675,204.975 50.775,210.525 60.975,210.525 C65.55,210.525 67.8,210.225 70.2,209.55 L71.85,198.9 C70.35,199.125 67.725,199.275 65.55,199.275 Z M100.65,169.725 C97.275,169.725 93.825,171.75 91.05,173.925 L89.775,170.25 L78.225,170.25 L78.225,210 L92.325,210 L92.325,182.4 C94.725,181.95 97.05,181.575 98.4,181.35 C100.725,181.35 102,181.575 103.125,181.8 L104.7,170.025 C103.425,169.8 102.075,169.725 100.65,169.725 Z M128.4,210.525 C140.4,210.525 148.5,203.25 148.5,190.275 C148.5,177.3 140.7,169.725 128.4,169.725 C116.4,169.725 108.3,177.375 108.3,189.975 C108.3,203.325 116.1,210.525 128.4,210.525 Z M128.25,199.725 C124.125,199.725 122.55,197.625 122.55,189.975 C122.55,185.775 123.225,183.225 123.975,181.8 C125.025,180.975 126.45,180.45 128.55,180.45 C132.6,180.45 134.25,183.075 134.25,190.275 C134.25,195 133.575,197.025 132.825,198.45 C131.775,199.275 130.35,199.725 128.25,199.725 Z M179.85,169.725 C175.95,169.725 172.05,171.675 168.825,173.85 L167.625,170.25 L156.075,170.25 L156.075,210 L170.175,210 L170.175,181.95 C171.975,181.575 173.7,181.125 175.35,180.9 C178.35,180.9 180,182.25 180,186.075 L180,210 L194.1,210 L194.1,185.475 C194.1,175.125 189.375,169.725 179.85,169.725 Z M240.525,170.475 L225.9,170.475 C223.875,169.95 221.475,169.725 219,169.725 C208.65,169.725 201.45,174.525 201.45,183.675 C201.45,188.25 203.175,191.775 206.175,194.175 L201.375,206.325 C204.075,208.725 207.375,210.3 212.325,210.75 L221.775,211.575 C223.65,211.725 223.95,212.55 223.95,213.3 C223.95,214.05 223.8,214.5 223.275,214.8 C221.925,215.025 220.05,215.175 217.35,215.175 C211.5,215.175 205.5,214.275 201.525,212.625 L199.2,222.375 C205.35,224.85 210.375,225.6 217.725,225.6 C230.925,225.6 238.2,221.85 238.2,213.45 C238.2,206.25 235.05,202.5 223.275,201.6 L216.375,201.075 C214.5,200.775 213.6,200.625 213,200.175 L214.05,197.4 C215.55,197.625 217.2,197.775 219,197.775 C230.625,197.775 236.475,192.9 236.475,184.425 C236.475,181.95 235.575,179.925 234.3,178.2 L239.85,177.75 L240.525,170.475 Z M223.275,187.425 C222.15,187.8 220.95,188.1 219.15,188.1 C215.55,188.1 213.825,186.75 213.825,183.975 C213.825,182.625 214.275,181.125 214.95,180.525 C216,180.075 217.275,179.775 219.15,179.775 C222.675,179.775 224.325,181.2 224.325,183.975 C224.325,185.325 223.95,186.75 223.275,187.425 Z M288.825,169.725 C285,169.725 281.025,171.375 277.65,173.85 L276.525,170.25 L265.275,170.25 L265.275,216.075 L267,225.3 L279.075,225.3 L279.075,208.575 C281.325,209.775 283.875,210.45 286.725,210.45 C297.075,210.45 304.125,203.925 304.125,190.125 C304.125,178.2 299.55,169.725 288.825,169.725 Z M288.3,198.45 C287.175,199.275 285.675,199.725 283.725,199.725 C282.15,199.725 280.5,199.5 279.075,199.05 L279.075,181.575 C280.575,181.2 282.075,180.75 283.275,180.6 C287.925,180.675 289.875,183.825 289.875,190.05 C289.875,194.925 288.975,197.325 288.3,198.45 Z M323.025,193.575 C326.85,193.95 330.525,194.175 332.1,194.175 C341.775,194.175 346.275,191.4 346.275,183 C346.275,174.9 341.25,169.725 330.675,169.725 C316.8,169.725 309.525,178.125 309.525,189.975 C309.525,203.25 316.275,210.525 330.075,210.525 C334.725,210.525 338.925,210 343.425,208.35 L344.775,198.225 C342.525,198.825 337.05,199.5 333.375,199.5 C326.625,199.5 323.775,198.375 323.025,193.575 Z M330.3,180.075 C333.6,180.075 334.875,181.65 334.875,183.375 C334.875,184.35 334.8,184.8 334.425,185.55 C333.525,185.775 332.4,185.925 331.05,186 C328.95,186.15 326.325,186.225 323.025,186.3 C323.325,183.75 323.775,182.475 324.3,181.575 C325.575,180.825 327.225,180.075 330.3,180.075 Z M375.975,169.725 C372.6,169.725 369.15,171.75 366.375,173.925 L365.1,170.25 L353.55,170.25 L353.55,210 L367.65,210 L367.65,182.4 C370.05,181.95 372.375,181.575 373.725,181.35 C376.05,181.35 377.325,181.575 378.45,181.8 L380.025,170.025 C378.75,169.8 377.4,169.725 375.975,169.725 Z M399.15,210.525 C410.85,210.525 416.85,205.95 416.85,197.325 C416.85,190.875 413.7,187.725 404.475,185.7 C399,184.5 398.325,184.05 398.325,182.625 C398.325,181.95 398.55,181.5 398.775,181.2 C399.75,180.9 401.325,180.75 403.125,180.75 C406.65,180.75 410.025,181.425 413.025,182.1 L414.975,172.05 C411.75,170.85 406.575,169.725 402.825,169.725 C389.925,169.725 384,174.675 384,183.075 C384,189.45 388.05,193.05 396.075,194.7 C401.55,195.825 401.85,196.65 401.85,197.85 C401.85,198.45 401.625,198.9 401.325,199.35 C400.575,199.575 399.525,199.65 397.8,199.65 C392.85,199.65 388.575,198.825 385.05,197.775 L383.25,207.825 C387.075,209.325 392.925,210.525 399.15,210.525 Z M441.9,210.525 C453.9,210.525 462,203.25 462,190.275 C462,177.3 454.2,169.725 441.9,169.725 C429.9,169.725 421.8,177.375 421.8,189.975 C421.8,203.325 429.6,210.525 441.9,210.525 Z M441.75,199.725 C437.625,199.725 436.05,197.625 436.05,189.975 C436.05,185.775 436.725,183.225 437.475,181.8 C438.525,180.975 439.95,180.45 442.05,180.45 C446.1,180.45 447.75,183.075 447.75,190.275 C447.75,195 447.075,197.025 446.325,198.45 C445.275,199.275 443.85,199.725 441.75,199.725 Z M493.35,169.725 C489.45,169.725 485.55,171.675 482.325,173.85 L481.125,170.25 L469.575,170.25 L469.575,210 L483.675,210 L483.675,181.95 C485.475,181.575 487.2,181.125 488.85,180.9 C491.85,180.9 493.5,182.25 493.5,186.075 L493.5,210 L507.6,210 L507.6,185.475 C507.6,175.125 502.875,169.725 493.35,169.725 Z M531.75,169.725 C527.1,169.725 522.975,170.55 518.475,172.2 L516.825,181.875 C519.075,181.275 524.325,180.6 527.925,180.6 C534.45,180.6 536.625,181.875 536.625,185.55 L536.625,186.45 C532.8,186.15 529.125,186 527.7,186.075 C519.15,186.525 514.2,190.95 514.2,197.775 C514.2,206.625 518.775,210.525 526.5,210.525 C531.075,210.525 535.05,208.05 537.6,206.025 L538.725,210 L549.975,210 L549.975,187.275 C549.975,175.575 544.95,169.725 531.75,169.725 Z M526.575,197.1 C526.575,196.2 526.725,195.45 527.1,194.775 C528.6,194.325 530.775,194.025 533.925,193.875 C534.75,193.8 535.65,193.8 536.625,193.8 L536.625,199.35 C534.3,199.875 531.525,200.4 530.1,200.625 C527.55,200.625 526.575,199.2 526.575,197.1 Z M569.025,210.525 C572.25,210.525 575.925,209.925 578.85,208.875 L579.525,200.625 L572.925,199.425 L572.925,165 L571.05,156 L558.825,156 L558.825,199.5 C558.825,206.25 562.725,210.525 569.025,210.525 Z M591.825,166.95 C593.775,166.95 596.025,166.575 597.675,165.825 C598.65,164.85 599.475,162.9 599.475,160.8 C599.475,156.6 596.775,154.65 591.825,154.65 C589.875,154.65 587.625,155.025 585.975,155.775 C585,156.75 584.175,158.7 584.175,160.8 C584.175,165 586.875,166.95 591.825,166.95 Z M584.775,210 L598.875,210 L598.875,170.25 L584.775,170.25 L584.775,210 Z M631.125,199.275 C627.375,199.275 625.35,197.7 625.35,192.9 L625.35,180.975 L635.85,180.975 L637.35,170.25 L625.35,170.25 L625.35,160.65 L614.475,160.65 L612.075,170.25 L605.775,170.25 L604.275,180.975 L611.25,180.975 L611.25,193.65 C611.25,204.975 616.35,210.525 626.55,210.525 C631.125,210.525 633.375,210.225 635.775,209.55 L637.425,198.9 C635.925,199.125 633.3,199.275 631.125,199.275 Z M651.975,225.3 C661.65,225.3 666,220.35 669.975,210 L685.125,170.25 L670.275,170.25 L663,195.6 L655.35,170.25 L639.3,170.25 L656.1,209.325 C655.5,210.975 654.9,212.175 654.075,213.15 C653.025,213.75 651.375,213.9 649.425,213.9 C647.85,213.9 645.375,213.3 643.275,212.625 L640.8,222.825 C642.9,223.8 647.025,225.3 651.975,225.3 Z M695.175,210.375 C697.125,210.375 699.45,210 701.175,209.1 C702.075,208.05 702.975,205.8 702.975,203.475 C702.975,198.75 700.2,196.575 695.175,196.575 C693.225,196.575 690.9,196.95 689.175,197.85 C688.275,198.9 687.375,201.15 687.375,203.475 C687.375,208.2 690.15,210.375 695.175,210.375 Z" id="At-large-sizes,-Lemb" fill="#DA5B35"></path>
                </g>
            </g>
        </g>
    </g>
</svg>