<?xml version="1.0" encoding="UTF-8"?>
<svg width="564px" height="316px" viewBox="0 0 564 316" version="1.1" xmlns="http://www.w3.org/2000/svg" xmlns:xlink="http://www.w3.org/1999/xlink">
    <!-- Generator: Sketch 41 (35326) - http://www.bohemiancoding.com/sketch -->
    <title>workshop</title>
    <desc>Created with Sketch.</desc>
    <defs>
        <polygon id="path-1" points="43.7125915 0.255 0.1341 0.255 0.1341 65.9304 43.7125915 65.9304 43.7125915 0.255"></polygon>
        <polygon id="path-3" points="108.861 169.7398 108.861 0.8368 0.7023 0.8368 0.7023 169.7398 108.861 169.7398"></polygon>
        <polygon id="path-5" points="0.5498 38 27.5142133 38 27.5142133 0.5313 0.5498 0.5313"></polygon>
    </defs>
    <g id="Page-1" stroke="none" stroke-width="1" fill="none" fill-rule="evenodd">
        <g id="Artboard" transform="translate(-288.000000, -3813.000000)">
            <g id="workshop" transform="translate(288.000000, 3812.745000)">
                <g id="Group-4" transform="translate(57.000000, 0.000000)">
                    <mask id="mask-2" fill="white">
                        <use xlink:href="#path-1"></use>
                    </mask>
                    <g id="Clip-3"></g>
                    <path d="M43.3701,36.6504 L38.7191,65.9304 L31.6031,65.9304 L36.1641,36.8324 C37.4411,28.7134 36.0731,24.6094 27.4071,24.6094 C23.4851,25.2484 17.8291,26.7984 13.2681,27.9844 L7.2481,65.9304 L0.1341,65.9304 L10.5321,0.2544 L16.2791,0.2544 L16.7351,6.0014 L13.9981,23.1494 C19.8361,20.6864 24.8531,18.5884 29.4141,18.5884 C43.2791,18.5884 44.5571,29.0794 43.3701,36.6504" id="Fill-2" fill="#FFFFFF" mask="url(#mask-2)"></path>
                </g>
                <path d="M136.0352,23.9707 C131.2012,23.9707 127.1872,26.2507 124.5422,28.0747 C123.0832,29.8087 120.8032,34.2787 119.3432,39.8427 C125.4542,39.9337 130.2892,39.8427 134.0282,39.5697 C137.5862,39.2947 140.0492,38.9307 141.5092,38.2917 C143.1502,36.7417 143.7892,33.0927 144.0622,31.7247 C144.7922,27.1627 142.0562,23.9707 136.0352,23.9707 M150.3562,34.0047 C149.1712,41.6667 143.9722,45.4077 133.8472,45.4077 C131.1102,45.4077 124.0862,45.1327 118.5212,44.5857 C117.3362,55.2577 120.8032,60.7317 130.5622,60.7317 C134.3032,60.7317 138.7722,60.4577 143.9722,58.9077 L142.4212,64.0147 C138.4072,65.5657 134.1202,66.3867 130.6532,66.3867 C115.5122,66.3867 109.4002,57.9947 111.9542,42.0327 C114.4172,26.1597 125.1812,18.5887 136.2182,18.5887 C145.2482,18.5887 152.1812,22.6937 150.3562,34.0047" id="Fill-5" fill="#FFFFFF"></path>
                <path d="M0,133.7949 C0,89.7109 26.655,64.5929 68.177,64.5929 C80.735,64.5929 95.088,67.9249 105.084,71.7699 L98.676,101.5009 C90.475,99.1939 83.298,97.9119 72.021,98.1689 C62.025,98.4249 54.336,100.9879 49.21,104.3199 C44.597,109.9589 41.777,120.2109 41.777,133.5379 C41.777,157.8869 49.723,169.4209 74.84,169.4209 C83.811,169.4209 95.345,169.1639 104.571,166.6019 L100.214,196.3319 C87.655,201.2019 76.378,202.9959 62.281,202.9959 C24.605,202.9959 0,177.6219 0,133.7949" id="Fill-7" fill="#3C3B41"></path>
                <path d="M211.4492,65.875 L206.0672,100.731 C201.9672,99.963 197.3522,99.194 189.4072,99.194 C184.0252,99.963 175.0542,101.757 166.3412,103.551 L166.3412,201.202 L124.5632,201.202 L124.5632,66.388 L158.9072,66.388 L163.2642,79.459 C173.2612,72.026 185.5632,64.593 197.3522,64.593 C202.4782,64.593 207.0932,65.105 211.4492,65.875" id="Fill-9" fill="#3C3B41"></path>
                <path d="M268.3516,173.2656 C273.9906,172.2406 284.4976,170.1896 292.7006,168.1396 L292.7006,144.8156 C287.5746,145.0726 282.7046,145.0726 278.6036,145.3286 C267.0706,145.8406 259.1246,147.1216 253.9976,148.9166 C251.9486,151.7366 251.4356,154.8116 251.4356,158.6566 C251.4356,166.8576 255.7926,173.2656 268.3516,173.2656 M332.1706,123.5426 L332.1706,201.2026 L298.8516,201.2026 L295.2626,187.8736 C286.5486,194.2826 272.9646,202.9956 257.3306,202.9956 C231.1876,202.9956 214.5286,190.1816 214.5286,159.9376 C214.5286,136.3576 231.9556,121.7486 260.9186,120.4666 C266.3006,120.2106 279.3726,120.7236 292.7006,122.0046 L292.7006,117.3916 C292.7006,102.0136 283.4736,96.8876 261.6876,96.8876 C249.3846,96.8876 232.2126,98.9376 223.7546,101.2446 L228.6246,73.0506 C242.4646,67.6686 256.8176,64.5926 271.6836,64.5926 C316.2806,64.5926 332.1706,84.8406 332.1706,123.5426" id="Fill-11" fill="#3C3B41"></path>
                <path d="M416.4922,49.9844 C414.1852,53.3164 412.3902,58.6984 412.1352,66.3874 L451.3482,66.3874 L446.7352,98.1694 L412.1352,98.1694 L412.1352,201.2024 L370.3572,201.2024 L370.3572,98.1694 L346.5212,98.1694 L350.8792,66.3874 L370.6132,66.3874 C372.4082,32.5554 391.6312,14.8714 424.4372,14.8714 C436.4832,14.8714 450.3232,17.6904 458.7812,21.0214 L452.1182,48.9594 C446.4792,47.6774 439.0462,46.3954 431.8702,46.3954 C425.2062,46.3954 420.3362,47.6774 416.4922,49.9844" id="Fill-13" fill="#3C3B41"></path>
                <g id="Group-17" transform="translate(455.000000, 33.000000)">
                    <mask id="mask-4" fill="white">
                        <use xlink:href="#path-3"></use>
                    </mask>
                    <g id="Clip-16"></g>
                    <path d="M108.8613,134.8828 L103.9923,166.1518 C96.0473,168.4578 87.8443,169.7398 74.5163,169.7398 C39.1473,169.7398 24.5383,150.5178 24.5383,113.8658 L24.5383,65.1688 L0.7023,65.1688 L5.3153,33.3878 L26.8443,33.3878 L35.0473,0.8368 L66.3153,0.8368 L66.3153,33.3878 L108.6053,33.3878 L103.9923,65.1688 L66.3153,65.1688 L66.3153,112.5848 C66.3153,129.5008 72.4663,136.4208 86.5633,136.4208 C93.9963,136.4208 102.9663,135.9078 108.8613,134.8828" id="Fill-15" fill="#3C3B41" mask="url(#mask-4)"></path>
                </g>
                <polygon id="Fill-18" fill="#FFFFFF" points="12.0732 182.2861 19.6432 182.2861 22.4712 239.5701 45.4582 184.6571 53.2122 183.5621 57.5902 239.4781 80.5772 182.2861 87.5102 182.2861 60.4182 247.9621 51.9342 247.9621 47.5562 193.6871 25.3002 247.9621 16.8162 247.9621"></polygon>
                <path d="M113.0508,239.0225 C115.1498,236.9245 117.7938,230.9045 118.8888,223.8805 C120.8048,212.2055 117.1558,206.2755 108.4898,206.2755 C103.4738,206.2755 99.5508,208.4645 97.1798,210.1985 C95.1728,212.2955 92.6178,217.8605 91.5238,224.8835 C89.6088,236.6515 93.2568,242.7625 102.0138,242.7625 C107.3048,242.7625 110.5878,240.6655 113.0508,239.0225 M84.4998,223.9715 C86.9628,208.4645 97.8178,200.6205 108.5808,200.6205 C121.1688,200.6205 128.4668,208.8305 125.9128,224.7935 C123.2678,241.3025 112.7778,248.4185 101.7398,248.4185 C89.0618,248.4185 81.9468,239.9345 84.4998,223.9715" id="Fill-20" fill="#FFFFFF"></path>
                <path d="M168.7842,201.3496 L166.3212,207.0966 C164.4972,206.7316 162.7632,206.8236 160.3012,206.8236 C156.3792,207.4616 153.0952,208.5556 148.7172,209.5596 L142.6042,247.9616 L135.4902,247.9616 L142.8792,201.3496 L148.7172,201.3496 L149.0812,205.0896 C154.9192,202.5366 159.5712,200.6206 163.3112,200.6206 C165.5922,200.6206 167.5072,200.9856 168.7842,201.3496" id="Fill-22" fill="#FFFFFF"></path>
                <path d="M198.6123,228.3506 L209.1933,247.9616 L200.8923,247.9616 L191.9533,230.3576 C190.4943,227.6206 188.8513,224.9756 185.0203,224.9756 L180.7333,224.9756 L177.0853,247.9616 L170.0613,247.9616 L180.4603,182.2866 L186.2073,182.2866 L186.5713,188.0326 L181.4633,220.0496 C184.4733,219.5936 187.0273,219.4116 189.5823,219.4116 L189.9463,219.4116 L206.5483,201.3496 L214.3923,201.3496 L194.7813,222.3296 C196.2403,223.9716 197.4263,226.1616 198.6123,228.3506" id="Fill-24" fill="#FFFFFF"></path>
                <path d="M213.7539,245.3164 L215.3959,240.6654 C218.5889,241.6684 223.8789,242.5804 228.8959,242.5804 C232.1799,242.5804 235.5549,242.1244 238.2909,240.9384 C239.5679,239.9344 240.3899,238.2934 240.7539,235.8304 C241.7579,229.1704 237.4709,228.4414 229.0779,226.4344 C223.6059,225.1574 218.0409,221.4184 219.3179,213.4814 C220.8689,203.8124 229.8089,200.6204 239.2949,200.6204 C243.1259,200.6204 247.5039,201.8054 250.6969,203.1744 L249.1469,207.7354 C246.0449,206.8234 242.3969,206.3674 238.3829,206.2754 C233.9129,206.1844 230.3559,207.0054 227.9829,208.2824 C226.7069,209.4684 225.7949,211.2014 225.6119,213.2994 C225.0649,219.6844 230.5379,220.1404 236.2839,221.6004 C245.4059,223.8804 248.4159,228.7144 247.2309,235.7394 C245.5889,245.4994 237.2879,248.4184 227.8019,248.4184 C222.2369,248.4184 217.1289,246.8674 213.7539,245.3164" id="Fill-26" fill="#FFFFFF"></path>
                <path d="M300.0439,218.6816 L295.3929,247.9616 L288.2769,247.9616 L292.8379,218.8636 C294.1149,210.7446 292.7469,206.6406 284.0809,206.6406 C280.1589,207.2796 274.5029,208.8296 269.9419,210.0156 L263.9219,247.9616 L256.8079,247.9616 L267.2059,182.2856 L272.9529,182.2856 L273.4089,188.0326 L270.6719,205.1806 C276.5099,202.7176 281.5269,200.6196 286.0879,200.6196 C299.9529,200.6196 301.2309,211.1106 300.0439,218.6816" id="Fill-28" fill="#FFFFFF"></path>
                <path d="M340.1787,239.0225 C342.2777,236.9245 344.9217,230.9045 346.0167,223.8805 C347.9327,212.2055 344.2837,206.2755 335.6177,206.2755 C330.6017,206.2755 326.6787,208.4645 324.3077,210.1985 C322.3007,212.2955 319.7457,217.8605 318.6517,224.8835 C316.7367,236.6515 320.3847,242.7625 329.1417,242.7625 C334.4327,242.7625 337.7157,240.6655 340.1787,239.0225 M311.6277,223.9715 C314.0907,208.4645 324.9467,200.6205 335.7087,200.6205 C348.2977,200.6205 355.5947,208.8305 353.0407,224.7935 C350.3957,241.3025 339.9057,248.4185 328.8677,248.4185 C316.1887,248.4185 309.0747,239.9345 311.6277,223.9715" id="Fill-30" fill="#FFFFFF"></path>
                <path d="M387.8848,206.5498 C384.1458,207.0058 379.6758,208.2818 375.8448,209.5598 L370.9188,240.2998 C373.9288,242.1238 378.4888,242.7628 381.6828,242.7628 C386.2428,242.7628 390.2568,240.7558 392.8108,238.8398 C394.9998,236.8328 397.5538,231.0868 398.6488,224.1538 C400.7468,210.8368 396.1858,206.5498 387.8848,206.5498 M405.6718,225.0668 C403.1178,240.6648 393.0838,248.4178 381.2268,248.4178 C376.8478,248.4178 373.0168,246.8668 370.2808,244.8608 L366.8138,266.5708 L360.8848,266.5708 L360.5198,260.9148 L370.0068,201.3498 L375.9358,201.3498 L376.3008,204.6338 C380.4958,202.9008 386.1518,200.6198 390.1648,200.6198 C402.5718,200.6198 407.9528,210.5628 405.6718,225.0668" id="Fill-32" fill="#FFFFFF"></path>
                <path d="M14.8945,303.9453 C15.9905,297.0563 19.2785,294.8123 25.8535,292.0473 L28.5145,290.9513 C31.5935,289.6463 33.6805,288.9163 33.9415,286.5673 C34.3075,284.0103 32.6895,282.9153 27.9935,282.9153 C24.3915,282.9153 20.7395,283.5923 18.5465,284.1153 L19.6955,279.8363 C21.8345,279.2103 25.2265,278.5313 28.6705,278.5313 C35.7155,278.5313 40.3605,280.9833 39.4205,286.8813 C38.7945,290.7423 35.2465,292.9343 30.9675,294.6563 L28.5665,295.5953 C23.5565,297.5793 21.0515,299.0913 20.5815,302.5363 L20.5305,302.9543 L36.8115,303.0063 L35.5075,307.2853 L14.3725,307.2853 L14.8945,303.9453 Z" id="Fill-34" fill="#FFFFFF"></path>
                <path d="M62.2275,301.6494 C63.5325,300.4494 65.0455,296.9004 65.5155,292.9344 C66.4555,285.7324 64.0535,282.6534 59.0435,282.6534 C56.0695,282.6534 54.3475,283.4894 52.9385,284.3764 C51.6865,285.5764 50.1215,289.1764 49.6515,293.1424 C48.8165,300.3964 51.1125,303.4234 56.2265,303.4234 C59.2015,303.4234 60.8715,302.5364 62.2275,301.6494 M44.4325,292.7254 C45.5285,283.2274 51.8955,278.5834 59.0965,278.5834 C66.6115,278.5834 72.0905,282.7574 70.7865,293.3514 C69.6375,303.2664 63.3755,307.4944 56.1735,307.4944 C48.5025,307.4944 43.1275,303.4754 44.4325,292.7254" id="Fill-36" fill="#FFFFFF"></path>
                <polygon id="Fill-38" fill="#FFFFFF" points="95.6797 265.5371 101.0547 265.5371 76.0577 313.5481 70.7357 313.5481"></polygon>
                <path d="M114.3623,301.6494 C115.6673,300.4494 117.1803,296.9004 117.6503,292.9344 C118.5903,285.7324 116.1883,282.6534 111.1783,282.6534 C108.2043,282.6534 106.4823,283.4894 105.0733,284.3764 C103.8213,285.5764 102.2563,289.1764 101.7863,293.1424 C100.9513,300.3964 103.2473,303.4234 108.3613,303.4234 C111.3363,303.4234 113.0063,302.5364 114.3623,301.6494 M96.5673,292.7254 C97.6633,283.2274 104.0303,278.5834 111.2313,278.5834 C118.7463,278.5834 124.2253,282.7574 122.9213,293.3514 C121.7723,303.2664 115.5103,307.4944 108.3083,307.4944 C100.6373,307.4944 95.2623,303.4754 96.5673,292.7254" id="Fill-40" fill="#FFFFFF"></path>
                <g id="Group-44" transform="translate(123.000000, 278.000000)">
                    <mask id="mask-6" fill="white">
                        <use xlink:href="#path-5"></use>
                    </mask>
                    <g id="Clip-43"></g>
                    <path d="M0.5498,36.0693 L1.6968,32.2593 C3.9928,32.9903 6.6028,33.6693 10.1518,33.6693 C13.6998,33.6693 15.6308,33.3553 17.5618,32.2083 C18.8658,30.8503 19.3878,29.1803 19.8058,26.6753 C20.3798,22.5533 18.4488,20.5703 13.8568,20.5703 L9.1078,20.5703 L9.7348,16.2913 L14.3778,16.2913 C17.1448,16.2913 18.7098,15.8743 20.2238,15.0903 C21.3198,13.9953 21.9458,12.5343 22.2588,10.3943 C22.8318,6.8973 20.9538,4.8103 15.6828,4.8623 C11.7698,4.9153 8.1158,5.6973 5.8718,6.3233 L7.0208,2.2013 C9.2118,1.4183 12.5518,0.5313 16.7788,0.5313 C24.3978,0.5313 28.1548,4.6533 27.4248,9.9243 C26.7988,13.8903 25.3898,16.6563 20.9538,18.5873 C24.5548,20.3093 25.4938,23.6493 24.9198,27.4593 C23.6148,35.7563 18.2918,38.0003 10.4118,38.0003 C6.4458,38.0003 2.5318,36.9563 0.5498,36.0693" id="Fill-42" fill="#FFFFFF" mask="url(#mask-6)"></path>
                </g>
                <polygon id="Fill-45" fill="#FFFFFF" points="175.4229 265.5371 180.7979 265.5371 155.8019 313.5481 150.4789 313.5481"></polygon>
                <path d="M176.2588,303.9453 C177.3548,297.0563 180.6418,294.8123 187.2178,292.0473 L189.8788,290.9513 C192.9578,289.6463 195.0448,288.9163 195.3058,286.5673 C195.6708,284.0103 194.0538,282.9153 189.3578,282.9153 C185.7558,282.9153 182.1038,283.5923 179.9108,284.1153 L181.0598,279.8363 C183.1988,279.2103 186.5908,278.5313 190.0348,278.5313 C197.0798,278.5313 201.7248,280.9833 200.7848,286.8813 C200.1588,290.7423 196.6108,292.9343 192.3308,294.6563 L189.9308,295.5953 C184.9208,297.5793 182.4158,299.0913 181.9458,302.5363 L181.8948,302.9543 L198.1768,303.0063 L196.8718,307.2853 L175.7368,307.2853 L176.2588,303.9453 Z" id="Fill-47" fill="#FFFFFF"></path>
                <path d="M223.5918,301.6494 C224.8968,300.4494 226.4098,296.9004 226.8798,292.9344 C227.8198,285.7324 225.4178,282.6534 220.4078,282.6534 C217.4348,282.6534 215.7118,283.4894 214.3028,284.3764 C213.0508,285.5764 211.4858,289.1764 211.0158,293.1424 C210.1808,300.3964 212.4768,303.4234 217.5908,303.4234 C220.5658,303.4234 222.2358,302.5364 223.5918,301.6494 M205.7968,292.7254 C206.8928,283.2274 213.2588,278.5834 220.4608,278.5834 C227.9758,278.5834 233.4548,282.7574 232.1508,293.3514 C231.0018,303.2664 224.7398,307.4944 217.5378,307.4944 C209.8668,307.4944 204.4918,303.4754 205.7968,292.7254" id="Fill-49" fill="#FFFFFF"></path>
                <polygon id="Fill-51" fill="#FFFFFF" points="258.4541 303.1104 257.1491 307.2854 235.2311 307.2854 236.4841 303.1104 245.3551 303.1104 248.4861 283.4364 238.3101 285.1594 239.5111 281.2974 249.8951 278.7404 254.3311 278.7404 250.4701 303.1104"></polygon>
                <path d="M261.9521,303.9453 C263.0481,297.0563 266.3351,294.8123 272.9111,292.0473 L275.5721,290.9513 C278.6511,289.6463 280.7381,288.9163 280.9991,286.5673 C281.3641,284.0103 279.7471,282.9153 275.0511,282.9153 C271.4491,282.9153 267.7971,283.5923 265.6041,284.1153 L266.7531,279.8363 C268.8921,279.2103 272.2841,278.5313 275.7281,278.5313 C282.7731,278.5313 287.4181,280.9833 286.4781,286.8813 C285.8521,290.7423 282.3041,292.9343 278.0241,294.6563 L275.6241,295.5953 C270.6141,297.5793 268.1091,299.0913 267.6391,302.5363 L267.5881,302.9543 L283.8701,303.0063 L282.5651,307.2853 L261.4301,307.2853 L261.9521,303.9453 Z" id="Fill-53" fill="#FFFFFF"></path>
                <polygon id="Fill-1" fill="#FFFFFF" points="11.5254 0.2548 9.6104 6.7298 30.3164 6.7298 21.0114 65.9308 28.2174 65.9308 37.4314 6.7298 57.3164 6.7298 59.2324 0.2548"></polygon>
            </g>
        </g>
    </g>
</svg>